<svg width="120" height="120" viewBox="0 0 120 120" xmlns="http://www.w3.org/2000/svg">
<!--
This file is part of PDFCompress. See LICENSE.txt.
Copyright (c) 2025 Clem Lorteau
-->

  <!-- PDF Document -->
  <rect x="40" y="30" width="40" height="60" rx="5" ry="5" fill="#E53935" />
  <text x="60" y="60" font-size="14" font-family="Arial" fill="white" text-anchor="middle">PDF</text>

  <!-- C-Clamp Frame -->
  <path d="M20,20 
           Q20,20 20,30 
           L20,90 
           Q20,100 30,100 
           L90,100 
           Q100,100 100,90 
           L100,85 
           Q100,80 95,80 
           L35,80 
           Q30,80 30,75 
           L30,35 
           Q30,30 35,30 
           L95,30 
           Q100,30 100,25 
           L100,20 
           Q100,10 90,10 
           L30,10 
           Q20,10 20,20 
           Z"
        fill="#555" />

  <!-- Screw Shaft -->
  <rect x="57" y="100" width="6" height="10" fill="#333" />

  <!-- Screw Threads -->
  <line x1="57" y1="102" x2="63" y2="102" stroke="#777" stroke-width="1" />
  <line x1="57" y1="104" x2="63" y2="104" stroke="#777" stroke-width="1" />
  <line x1="57" y1="106" x2="63" y2="106" stroke="#777" stroke-width="1" />

  <!-- Handle -->
  <line x1="50" y1="110" x2="70" y2="110" stroke="#333" stroke-width="3" />
  <circle cx="50" cy="110" r="2.5" fill="#777" />
  <circle cx="70" cy="110" r="2.5" fill="#777" />
</svg>
