<svg width="798" height="125" viewBox="0 0 798 125" fill="none" xmlns="http://www.w3.org/2000/svg">
<path d="M119.859 58.6282L112.591 58.6282L97.7461 58.6282C92.2232 58.6282 87.7461 63.1054 87.7461 68.6282L87.7461 79.7535C87.7461 85.2763 83.2689 89.7535 77.7461 89.7535L18.1079 89.7535" stroke="#F1F1F1" stroke-width="12" stroke-linecap="round" stroke-linejoin="round"/>
<path d="M37.6754 59L63.6754 59" stroke="#F1F1F1" stroke-width="12" stroke-linecap="round" stroke-linejoin="round"/>
<rect x="73.323" y="28.5873" width="49.4221" height="10.6597" rx="5.32984" fill="#F1F1F1" stroke="#F1F1F1" stroke-width="0.969061"/>
<rect x="13.7277" y="6.78354" width="110.473" height="110.473" rx="16.474" stroke="#F1F1F1" stroke-width="11.6287"/>
<path d="M173.053 71.6374C173.412 72.7124 173.994 73.4738 174.8 73.9218C175.606 74.2801 176.726 74.4593 178.16 74.4593C179.593 74.4593 181.071 73.9218 182.594 72.8468C184.117 71.7717 185.326 70.6967 186.222 69.6217L188.775 50.6746C187.342 48.883 186.133 47.6736 185.147 47.0465C184.162 46.4194 182.997 46.1058 181.653 46.1058C178.697 46.1058 176.592 47.36 175.338 49.8684C174.173 52.2872 173.322 55.9153 172.785 60.7529C171.978 65.4113 172.068 69.0394 173.053 71.6374ZM163.109 94.8845C167.141 96.2283 171.038 96.9001 174.8 96.9001C177.309 96.9001 179.055 96.5418 180.041 95.8251C182.012 94.2126 183.176 91.6595 183.535 88.1657L185.013 78.7593H184.878C183.445 80.1927 181.519 81.626 179.1 83.0594C176.771 84.4927 174.352 85.2094 171.844 85.2094C169.425 85.2094 167.32 84.7615 165.528 83.8656C163.826 82.8802 162.438 81.4021 161.363 79.4312C159.033 75.2207 158.451 69.3978 159.616 61.9623C160.78 53.5413 163.333 47.0017 167.275 42.3433C170.948 37.9537 175.114 35.7589 179.772 35.7589C182.46 35.7589 184.61 36.4307 186.222 37.7745C187.924 39.0287 189.492 40.7308 190.925 42.8808L192.672 36.4307H203.154L196.032 87.8969C195.136 94.1678 193.075 98.7814 189.85 101.738C186.625 104.784 181.922 106.306 175.741 106.306C172.337 106.306 169.291 105.948 166.603 105.231C164.005 104.515 161.99 103.933 160.556 103.485L163.109 94.8845ZM219.004 84H206.507L213.226 36.4307H224.245L223.842 42.7464H223.976C225.32 40.5964 227.022 38.8047 229.083 37.3714C231.143 35.938 232.935 35.2214 234.458 35.2214C235.98 35.2214 236.966 35.3557 237.414 35.6245C237.951 35.8036 238.444 35.9828 238.892 36.162L236.339 47.0465C235.801 46.9569 235.085 46.7777 234.189 46.509C233.383 46.2402 232.442 46.1058 231.367 46.1058C230.292 46.1058 229.172 46.4642 228.007 47.1809C226.843 47.8975 225.365 49.0621 223.573 50.6746L219.004 84ZM255.631 14.2586C257.691 14.2586 259.259 14.9753 260.334 16.4087C261.499 17.842 261.902 19.6785 261.543 21.9181C261.275 24.0681 260.379 25.8598 258.856 27.2931C257.333 28.6369 255.541 29.3088 253.481 29.3088C251.51 29.3088 249.942 28.6369 248.778 27.2931C247.613 25.8598 247.165 24.0681 247.434 21.9181C247.882 19.6785 248.867 17.842 250.39 16.4087C251.913 14.9753 253.66 14.2586 255.631 14.2586ZM252.003 84H239.506L245.956 37.237L258.856 35.4901L252.003 84ZM280.102 51.2121L276.743 74.9968C278.176 75.7135 279.923 76.0718 281.983 76.0718C285.119 76.0718 287.627 74.9072 289.508 72.578C291.39 70.2488 292.689 66.3071 293.405 60.7529C294.212 55.1986 294.122 51.3465 293.137 49.1965C292.241 47.0465 290.494 45.9715 287.896 45.9715C285.298 45.9715 282.7 47.7184 280.102 51.2121ZM269.621 36.4307H281.311L280.908 42.6121H281.043C282.118 41.3579 283.551 40.1037 285.343 38.8495C288.657 36.5203 291.569 35.3557 294.077 35.3557C296.675 35.3557 298.825 35.8484 300.527 36.8339C302.229 37.8193 303.618 39.2974 304.693 41.2683C306.932 45.6579 307.56 51.7497 306.574 59.5435C305.41 67.9644 302.722 74.4145 298.512 78.8937C294.749 83.1042 290.135 85.2094 284.671 85.2094C281.267 85.2094 278.221 84.5823 275.533 83.3281L272.308 105.097H259.946L269.621 36.4307ZM343.149 36.4307L342.074 45.5683H331.727L328.502 68.4123C328.143 70.4728 328.143 71.9957 328.502 72.9811C328.86 73.9666 329.756 74.4593 331.189 74.4593C332.712 74.4593 334.011 74.2801 335.086 73.9218C336.161 73.4738 336.878 73.2051 337.236 73.1155V81.9844C336.878 82.0739 336.34 82.2979 335.624 82.6562C334.907 83.0146 334.101 83.3729 333.205 83.7312C330.965 84.7167 328.457 85.2094 325.68 85.2094C321.38 85.2094 318.468 84.0896 316.945 81.85C315.422 79.5208 315.019 75.6239 315.736 70.1592L319.364 45.5683H314.258L315.467 36.4307H320.573L322.186 25.0087L334.952 22.9931L332.936 36.4307H343.149ZM376.304 45.434C374.691 45.2548 372.586 45.1652 369.988 45.1652C367.39 45.1652 365.196 46.2402 363.404 48.3902C361.702 50.5403 360.448 54.4372 359.641 60.081C358.925 65.6352 358.969 69.4426 359.776 71.503C360.672 73.5634 362.374 74.5936 364.882 74.5936C366.405 74.5936 367.883 74.1457 369.316 73.2499C370.839 72.2645 372.049 71.2342 372.945 70.1592L376.304 45.434ZM372.945 78.3562C367.838 82.925 362.866 85.2094 358.029 85.2094C351.041 85.2094 347.055 80.8645 346.069 72.1749C345.711 69.129 345.845 65.3665 346.472 60.8873C347.1 56.3185 348.175 52.4215 349.697 49.1965C351.22 45.9715 353.012 43.3287 355.073 41.2683C358.925 37.5058 363.717 35.6245 369.451 35.6245C376.259 35.6245 383.112 36.2964 390.01 37.6401L383.426 84H372.945V78.3562ZM412.304 51.2121L408.945 74.9968C410.378 75.7135 412.125 76.0718 414.185 76.0718C417.321 76.0718 419.829 74.9072 421.71 72.578C423.592 70.2488 424.891 66.3071 425.607 60.7529C426.414 55.1986 426.324 51.3465 425.339 49.1965C424.443 47.0465 422.696 45.9715 420.098 45.9715C417.5 45.9715 414.902 47.7184 412.304 51.2121ZM401.823 36.4307H413.513L413.11 42.6121H413.245C414.32 41.3579 415.753 40.1037 417.545 38.8495C420.859 36.5203 423.771 35.3557 426.279 35.3557C428.877 35.3557 431.027 35.8484 432.729 36.8339C434.431 37.8193 435.82 39.2974 436.895 41.2683C439.135 45.6579 439.762 51.7497 438.776 59.5435C437.612 67.9644 434.924 74.4145 430.714 78.8937C426.951 83.1042 422.337 85.2094 416.873 85.2094C413.469 85.2094 410.423 84.5823 407.735 83.3281L404.51 105.097H392.148L401.823 36.4307ZM469.673 56.1841C470.3 51.6153 470.166 48.4798 469.27 46.7777C468.374 45.0756 467.075 44.2246 465.373 44.2246C463.761 44.2246 462.103 45.1204 460.401 46.9121C458.789 48.6142 457.669 51.7049 457.042 56.1841H469.673ZM463.761 75.6687C467.702 75.6687 471.644 74.5489 475.586 72.3092L476.93 80.6406C474.78 82.2531 471.196 83.5521 466.18 84.5375C464.298 84.9854 462.148 85.2094 459.729 85.2094C457.311 85.2094 454.937 84.7615 452.607 83.8656C450.368 82.9698 448.531 81.5812 447.098 79.7C443.783 75.3999 442.708 69.353 443.873 61.5591C445.038 53.1382 447.815 46.5538 452.204 41.8058C456.325 37.5058 461.163 35.3557 466.717 35.3557C475.138 35.3557 480.11 39.387 481.633 47.4496C482.439 51.6601 482.126 56.4976 480.692 61.9623C480.423 63.1269 480.199 63.7987 480.02 63.9779H455.967C455.34 68.0988 455.788 71.0999 457.311 72.9811C458.923 74.7728 461.073 75.6687 463.761 75.6687Z" fill="#F1F1F1"/>
<path d="M522.155 97.3033H501.461L513.286 13.5867H533.846L532.771 21.9181H522.558L513.152 88.8376H523.364L522.155 97.3033ZM544.595 36.4307H555.614L555.077 42.4777H555.345C555.793 42.2089 556.42 41.6714 557.227 40.8652C558.122 40.0589 559.242 39.2526 560.586 38.4464C563.901 36.3859 567.171 35.3557 570.396 35.3557C574.875 35.3557 577.831 36.6995 579.264 39.387C580.698 42.0746 581.011 46.2402 580.205 51.884L575.636 84H563.408L567.305 54.9747C567.753 51.5705 567.708 49.2861 567.171 48.1215C566.633 46.8673 565.424 46.2402 563.542 46.2402C561.93 46.2402 560.452 46.7329 559.108 47.7184C556.6 49.6892 555.211 50.9434 554.942 51.4809L550.373 84H537.876L544.595 36.4307ZM603.412 76.0718C606.1 76.0718 608.205 74.8176 609.728 72.3092C611.34 69.8009 612.505 65.7696 613.222 60.2154C614.028 54.5716 613.983 50.5403 613.087 48.1215C612.192 45.7027 610.445 44.4933 607.847 44.4933C605.249 44.4933 603.188 45.7027 601.665 48.1215C600.142 50.5403 598.978 54.5716 598.172 60.2154C597.455 65.8592 597.5 69.9353 598.306 72.4436C599.112 74.8624 600.814 76.0718 603.412 76.0718ZM626.391 48.7934C626.928 51.9288 626.839 55.7362 626.122 60.2154C625.495 64.6946 624.465 68.5019 623.031 71.6374C621.687 74.7728 619.985 77.3708 617.925 79.4312C614.073 83.2833 608.832 85.2094 602.203 85.2094C592.349 85.2094 586.66 80.6854 585.137 71.6374C584.6 68.5019 584.689 64.6498 585.406 60.081C586.391 51.6601 589.124 45.3444 593.603 41.1339C597.634 37.2818 602.785 35.3557 609.056 35.3557C619.089 35.3557 624.868 39.8349 626.391 48.7934ZM660.77 46.7777C658.799 45.7027 656.918 45.1652 655.126 45.1652C652.08 45.1652 649.662 46.2402 647.87 48.3902C646.168 50.5403 644.914 54.4372 644.107 60.081C643.391 65.6352 643.435 69.4426 644.242 71.503C645.138 73.5634 646.84 74.5936 649.348 74.5936C650.871 74.5936 652.349 74.1457 653.782 73.2499C655.305 72.2645 656.515 71.2342 657.411 70.1592L660.77 46.7777ZM639.539 41.4027C641.599 39.3422 643.883 37.8641 646.392 36.9682C648.9 36.0724 651.453 35.6245 654.051 35.6245C656.649 35.6245 659.292 36.2964 661.979 37.6401L664.801 17.3493L677.433 15.6024L667.892 84H657.411V78.3562C652.304 82.925 647.332 85.2094 642.495 85.2094C635.507 85.2094 631.521 80.8645 630.535 72.1749C630.177 69.129 630.311 65.3665 630.938 60.8873C631.566 56.3185 632.641 52.4215 634.163 49.1965C635.686 45.9715 637.478 43.3735 639.539 41.4027ZM707.425 56.1841C708.052 51.6153 707.918 48.4798 707.022 46.7777C706.126 45.0756 704.827 44.2246 703.125 44.2246C701.513 44.2246 699.855 45.1204 698.153 46.9121C696.541 48.6142 695.421 51.7049 694.794 56.1841H707.425ZM701.513 75.6687C705.454 75.6687 709.396 74.5489 713.338 72.3092L714.681 80.6406C712.531 82.2531 708.948 83.5521 703.931 84.5375C702.05 84.9854 699.9 85.2094 697.481 85.2094C695.063 85.2094 692.689 84.7615 690.359 83.8656C688.12 82.9698 686.283 81.5812 684.85 79.7C681.535 75.3999 680.46 69.353 681.625 61.5591C682.789 53.1382 685.567 46.5538 689.956 41.8058C694.077 37.5058 698.915 35.3557 704.469 35.3557C712.89 35.3557 717.862 39.387 719.385 47.4496C720.191 51.6601 719.877 56.4976 718.444 61.9623C718.175 63.1269 717.951 63.7987 717.772 63.9779H693.719C693.092 68.0988 693.54 71.0999 695.063 72.9811C696.675 74.7728 698.825 75.6687 701.513 75.6687ZM727.349 73.1155C727.617 73.2051 728.11 73.4291 728.827 73.7874C729.543 74.1457 730.394 74.5041 731.38 74.8624C733.888 75.6687 735.993 76.0718 737.696 76.0718C739.398 76.0718 740.741 75.803 741.727 75.2655C742.802 74.6384 743.429 73.6082 743.608 72.1749C743.877 70.6519 743.653 69.3978 742.936 68.4123C742.22 67.3373 741.279 66.3071 740.114 65.3217C739.039 64.3362 737.83 63.3508 736.486 62.3654C735.142 61.2904 733.933 60.081 732.858 58.7372C730.35 55.7809 729.364 52.332 729.902 48.3902C730.439 44.4485 732.231 41.3131 735.277 38.9839C738.412 36.5651 742.578 35.3557 747.774 35.3557C751.805 35.3557 755.702 35.9828 759.464 37.237L757.583 46.3746C756.867 46.285 755.612 45.9715 753.821 45.434C752.119 44.8965 750.282 44.6277 748.311 44.6277C744.549 44.6277 742.443 45.8819 741.996 48.3902C741.816 49.5548 742.085 50.6299 742.802 51.6153C743.608 52.5111 744.593 53.4518 745.758 54.4372C746.923 55.333 748.222 56.3185 749.655 57.3935C751.088 58.3789 752.387 59.4987 753.552 60.7529C756.239 63.6196 757.27 67.0238 756.643 70.9655C756.284 74.9072 754.582 78.2666 751.536 81.0437C748.311 83.8208 743.922 85.2094 738.367 85.2094C734.694 85.2094 731.917 84.8511 730.036 84.1344C726.811 82.9698 724.795 82.0739 723.989 81.4468L727.349 73.1155ZM783.425 97.3033H762.865L763.94 88.8376H774.153L783.693 21.9181H773.347L774.422 13.5867H795.115L783.425 97.3033Z" fill="#49D3FF"/>
</svg>
