<svg width="770.0" height="470.0" viewBox="0 0 700 450" xmlns="http://www.w3.org/2000/svg" xmlns:xlink="http://www.w3.org/1999/xlink">
    <ellipse cx="100" cy="50" rx="40.0" ry="25.0" fill="lightgray" stroke="black" stroke-width="2.0" transform="translate(-20,30)" />
    <ellipse cx="100" cy="50" rx="45.0" ry="30.0" fill="lightblue" stroke="navy" stroke-width="3.0" transform="translate(100,30)" />
    <ellipse cx="100" cy="50" rx="25.0" ry="50.0" fill="lightgreen" stroke="green" stroke-width="2.0" transform="translate(250,30)" />
    <ellipse cx="100" cy="50" rx="35.0" ry="35.0" fill="lightcoral" stroke="red" stroke-width="2.0" transform="translate(380,30)" />
    <ellipse cx="100" cy="50" rx="60.0" ry="15.0" fill="lightyellow" stroke="orange" stroke-width="2.0" transform="translate(500,30)" />
    <ellipse cx="100" cy="50" rx="50.0" ry="35.0" fill="lightpink" fill-opacity="0.6" stroke="deeppink" stroke-width="2.0" transform="translate(-20,150)" />
    <ellipse cx="100" cy="50" rx="45.0" ry="25.0" fill="lavender" stroke="purple" stroke-width="3.0" stroke-dasharray="12.0,6.0" transform="translate(100,150)" />
    <ellipse cx="100" cy="50" rx="40.0" ry="30.0" fill="none" stroke="teal" stroke-width="4.0" transform="translate(250,150)" />
    <ellipse cx="100" cy="50" rx="50.0" ry="20.0" fill="gold" stroke="darkorange" stroke-width="2.0" transform="translate(380,150) rotate(45,100,50)" />
    <ellipse cx="100" cy="50" rx="30.0" ry="30.0" fill="lightsteelblue" stroke="steelblue" stroke-width="2.0" transform="translate(500,150)" />
    <ellipse cx="100" cy="50" rx="60.0" ry="15.0" fill="pink" fill-opacity="0.7" stroke="hotpink" stroke-width="1.0" transform="translate(50,300) rotate(0,100,50)" />
    <ellipse cx="100" cy="50" rx="60.0" ry="15.0" fill="pink" fill-opacity="0.7" stroke="hotpink" stroke-width="1.0" transform="translate(50,300) rotate(30,100,50)" />
    <ellipse cx="100" cy="50" rx="60.0" ry="15.0" fill="pink" fill-opacity="0.7" stroke="hotpink" stroke-width="1.0" transform="translate(50,300) rotate(60,100,50)" />
    <ellipse cx="100" cy="50" rx="60.0" ry="15.0" fill="pink" fill-opacity="0.7" stroke="hotpink" stroke-width="1.0" transform="translate(50,300) rotate(90,100,50)" />
    <ellipse cx="100" cy="50" rx="60.0" ry="15.0" fill="pink" fill-opacity="0.7" stroke="hotpink" stroke-width="1.0" transform="translate(50,300) rotate(120,100,50)" />
    <ellipse cx="100" cy="50" rx="60.0" ry="15.0" fill="pink" fill-opacity="0.7" stroke="hotpink" stroke-width="1.0" transform="translate(50,300) rotate(150,100,50)" />
    <ellipse cx="100" cy="50" rx="15.0" ry="15.0" fill="yellow" stroke="orange" stroke-width="2.0" transform="translate(50,300)" />
    <ellipse cx="100" cy="50" rx="80.0" ry="50.0" fill="lightcyan" stroke="cyan" stroke-width="2.0" transform="translate(250,300)" />
    <ellipse cx="100" cy="50" rx="60.0" ry="37.0" fill="lightblue" stroke="blue" stroke-width="2.0" transform="translate(250,300)" />
    <ellipse cx="100" cy="50" rx="40.0" ry="25.0" fill="lightsteelblue" stroke="steelblue" stroke-width="2.0" transform="translate(250,300)" />
    <ellipse cx="100" cy="50" rx="20.0" ry="12.0" fill="white" stroke="navy" stroke-width="1.0" transform="translate(250,300)" />
    <ellipse cx="100" cy="50" rx="30.0" ry="15.0" fill="lightseagreen" stroke="seagreen" stroke-width="2.0" transform="translate(450,270)" />
    <ellipse cx="100" cy="50" rx="30.0" ry="15.0" fill="lightseagreen" stroke="seagreen" stroke-width="2.0" transform="translate(500,300)" />
    <ellipse cx="100" cy="50" rx="30.0" ry="15.0" fill="lightseagreen" stroke="seagreen" stroke-width="2.0" transform="translate(450,330)" />
    <ellipse cx="100" cy="50" rx="30.0" ry="15.0" fill="lightseagreen" stroke="seagreen" stroke-width="2.0" transform="translate(400,300)" />
</svg>
