<svg width="512.0" height="120.0" viewBox="0 0 512.0 120.0" xmlns="http://www.w3.org/2000/svg" xmlns:xlink="http://www.w3.org/1999/xlink">
    <text x="0" y="0" font-size="20.0" font-family="Arial" text-anchor="middle" dominant-baseline="central" fill="gray" transform="translate(70,100)">Basic</text>
    <text x="0" y="0" font-size="20.0" font-family="Arial" text-anchor="middle" dominant-baseline="central" fill="gray" transform="translate(200,100)">Text</text>
    <text x="0" y="0" font-size="20.0" font-family="Arial" text-anchor="middle" dominant-baseline="central" fill="gray" transform="translate(330,100)">Rounded</text>
    <text x="0" y="0" font-size="20.0" font-family="Arial" text-anchor="middle" dominant-baseline="central" fill="gray" transform="translate(450,100)">Rotated</text>
    <g transform="translate(20.0,25.0)">
        <rect x="0.0" y="0.0" width="100.0" height="50.0" fill="lightgray" stroke="black" />
        <text x="0" y="0" font-size="12" font-family="Arial" text-anchor="middle" dominant-baseline="central" fill="black" transform="translate(50.0,25.0)"></text>
    </g>
    <g transform="translate(140.0,25.0)">
        <rect x="0.0" y="0.0" width="120.0" height="50.0" fill="lightblue" stroke="blue" />
        <text x="0" y="0" font-size="14.0" font-family="Arial" text-anchor="middle" dominant-baseline="central" fill="black" transform="translate(60.0,25.0)">Text Cell</text>
    </g>
    <g transform="translate(280.0,25.0)">
        <rect x="0.0" y="0.0" width="100.0" height="50.0" rx="15.0" ry="15.0" fill="lightgreen" stroke="green" />
        <text x="0" y="0" font-size="12" font-family="Arial" text-anchor="middle" dominant-baseline="central" fill="black" transform="translate(50.0,25.0)">Rounded</text>
    </g>
    <g transform="translate(400.0,25.0) rotate(15,50.0,25.0)">
        <rect x="0.0" y="0.0" width="100.0" height="50.0" fill="lightcoral" stroke="red" />
        <text x="0" y="0" font-size="12" font-family="Arial" text-anchor="middle" dominant-baseline="central" fill="black" transform="translate(50.0,25.0)">Rotated</text>
    </g>
</svg>
