<?xml version="1.0" encoding="UTF-8"?>
<svg id="Layer_1" data-name="Layer 1" xmlns="http://www.w3.org/2000/svg" viewBox="0 0 192.74 209.91">
  <path d="M146.06,205.6c-8.24,8.27-21.08,2.55-30.69.05-34.42-8.93-68.28-20.48-102.69-29.51-15.55-6.85-13.71-28.5-10.46-42.32C20.33,94.45,33.12,50.26,51.8,11.44,57.18.24,62.82-.85,75.09.41c26.02,9.14,55.46,13.01,81.26,22.12,5.72,2.02,9.65,2.99,10,9.93.59,11.55-8.89,16.3-2.23,31.01,8.53,18.84,36.49,7.08,26.5,37.09-9.36,28.12-26.15,67.25-38.77,94.43-1.29,2.78-3.83,8.66-5.79,10.61ZM115.58,23.05l-45.68-12.5c-3.52-.49-6.72,1.8-8.18,4.84l-19.69,50.38,50.69,12.49,22.86-55.21ZM161.18,97.47l6.07-14.32c-.03-1.84-9.3-8.45-11.35-11.47-8.23-12.1-5.29-24.69-1.98-37.72l-27.78-7.87-23.48,56.57,58.52,14.8ZM88.74,88.65l-50.73-13.5-25.77,62.7,50.68,13.95,25.83-63.15ZM139.45,193.01c1.89-1.4,3.44-4.83,4.44-6.98,13.78-29.4,23.5-62.04,37.8-91.41,1.29-4.26,1.14-9.73-4.51-7.5l-39.29,90.97,1.55,14.93ZM156.34,107.54l-57.66-14.46-25.71,61.69,56.53,15.96,26.83-63.19ZM129.49,197.98l-1.94-16.44L11.22,149.27c-.99,5.45.4,13.82,5.69,16.67l112.58,32.04Z"/>
</svg>