<?xml version="1.0" encoding="UTF-8"?>
<svg id="uuid-11de20f1-803d-47e5-a54f-20c677925922" data-name="Layer 1" xmlns="http://www.w3.org/2000/svg" viewBox="0 0 211.93 210.05">
  <path id="uuid-04872d72-8d3a-4ded-9df6-8bc3d4aad305" data-name="db" d="M93.47,2.42c24.71-1.39,75.13,3.04,94.87,19,15.55,12.57,10.17,50.47,10.37,69.77.09,9.1-.01,17.51-.1,26.65-.16,16.57,3.69,52.59-4.97,64.9-19.02,27.04-89.15,28.67-119.03,24.34-17.56-2.55-52.71-10.89-57.84-30.52,1.23-42.29-4.95-91.07-1.05-132.68C18.85,10.55,66.69,3.93,93.47,2.42ZM95.52,16.81c-11.35.59-65.38,7.8-65.45,23.05-.02,5.53,23.06,11.09,28.82,12.37,33.45,7.41,77,7.16,109.83-3.31,5.32-1.7,12.09-2.36,15.46-7.28,2.81-9.64-21.43-16.83-28.21-18.67-18.78-5.12-40.92-7.17-60.46-6.15ZM30.19,59.36v28.77c22.32,6.16,43.18,13.29,66.7,14.47,22.48,1.12,57.85-2.94,78.58-12,16.44-7.19,9.84-15.79,10.88-31.23-50.85,16.35-105.39,16.6-156.16,0ZM33.26,102.56c-4.27.2-4.63,25.74-1.04,29.77,2.45,2.75,18.55,8.47,23.08,9.79,28.85,8.43,68.52,9.02,97.82,2.14,6.78-1.59,23.23-6.67,27.9-11.14,5.13-4.9,7.25-30.1,2.29-30.54-.94-.08-13.73,6.21-17.45,7.16-41.34,10.55-82.44,9.88-123.29-2.15-2.75-.81-8.78-5.07-9.31-5.04ZM30.21,147.72c.82,7.32-1.28,16.63.03,23.58,2.96,15.76,51.26,23.16,64.59,23.77,17.22.79,80.76-3.3,88.43-20.65,1.48-3.35,4.5-26.35.03-26.65-1.09-.07-14.95,7.39-19.99,8.74-43.25,11.67-92.23,9.64-133.1-8.79Z"/>
</svg>