<?xml version="1.0" encoding="UTF-8"?>
<svg id="uuid-725006f5-ac4d-4a71-8dc0-38e86eebe0a6" data-name="Layer 1" xmlns="http://www.w3.org/2000/svg" viewBox="0 0 211.93 210.05">
  <path id="uuid-df76236f-de61-4568-9f38-e909e5ca01c0" data-name="user" d="M146.53,112.74c-.58.7-.36,2.1.91,3.08,2.57,1.98,10.15,4.37,14.01,6.79,20.87,13.11,33.31,27.73,40,51.83,3.67,13.21,8.82,31.42-10.46,33.18-53.66-3.99-114.45,5.06-167.25,0-21.52-2.06-14.87-27.94-9.35-42.62,9.19-24.42,27.97-39.18,50.83-50.07-5.32-7.82-12.34-13.89-16.23-22.89C25.46,37.61,79.8-21.29,134.94,7.61c36.1,18.92,44.42,69.9,18.39,100.61-2.37,2.8-6.54,4.2-6.8,4.52ZM157.15,64.87c0-28.23-22.89-51.12-51.12-51.12s-51.12,22.89-51.12,51.12,22.89,51.12,51.12,51.12,51.12-22.89,51.12-51.12ZM193.19,195.51c0-27.99-21.38-58.1-47.76-67.41-17.2-6.07-19.07.06-34.23,1.22-18.2,1.39-26.67-6.8-46.39.29-26.44,9.5-44.91,38.01-43.25,65.9h171.62Z"/>
</svg>