<?xml version="1.0" encoding="UTF-8"?>
<svg id="uuid-b3f3e0a1-1b69-4237-88fe-d10797786fc9" data-name="Layer 1" xmlns="http://www.w3.org/2000/svg" viewBox="0 0 205.97 210.02">
  <g id="uuid-af54feb3-e0f9-451f-ae04-bd780fb00105" data-name="whisk">
    <path d="M124.05,1.04c37.79-5.14,66.41,32.56,50.46,67.71-7.89,17.39-35.53,36.22-51.51,46.92-3.61,2.42-23.34,13.26-24.15,14.41-1.58,2.23-.56,5.14-1.4,7.73-.96,2.96-3.87,7.77-5.44,10.79-5.82,11.16-27.06,47.88-34.69,55.62-11.38,11.54-32.16.02-28.96-15.78.5-2.48,2.28-5.41,3.44-7.72,8.2-16.33,22.13-39.67,32.22-55.05,3.93-6,7.26-5.28,11.14-10.17,3.74-26.83,3.47-60.26,14.16-85.28,5.72-13.38,19.86-27.16,34.74-29.18ZM140.53,13.98c-27.88-6.58-40.64,13.64-46.38,37.32-4.27,17.65-5,36.19-8.41,53.99,1.56-.25,1.92-1.89,2.51-3.06,4.07-7.95,7.02-17.54,10.81-25.72,10.51-22.66,21.82-46.38,41.46-62.54ZM95.89,110.37c11.76-14.47,24.85-30.03,34.91-45.75,3.67-5.73,23.97-41.47,20.88-45.58-17.93,12.45-28.92,32.16-38.41,51.39-5.35,10.84-11.72,24.39-16.24,35.51-.6,1.47-1.47,2.7-1.14,4.43ZM163.85,29.19c-1.55-1.48-3.65,3.45-4.21,4.39-3.3,5.62-5.6,11.9-8.79,17.59-12.25,21.83-27.55,41.49-42.79,61.21.83.77,15.7-9.94,17.59-11.32,23.78-17.42,53.79-38.04,38.21-71.87ZM85.52,129.87c-2.3-1.26-5.68-1.78-8.2-1.03-6.73,2.02-30.35,51.15-37.47,58.93-3.29,7.06,2.72,11.5,9.36,9.37l37.2-62.04-.89-5.23Z"/>
  </g>
</svg>