<?xml version="1.0" encoding="UTF-8"?>
<svg id="uuid-c127a286-80e8-4678-b37c-8b72a14e6aee" data-name="Layer 1" xmlns="http://www.w3.org/2000/svg" viewBox="0 0 211.93 210.05">
  <path d="M26.91,112.93c-11.29,1.32-29.14-.05-24.6-15.22C33.09,66.26,66.59,37.08,99.28,7.46c3.46-1.46,7.61-1.85,11.13-.34l39.64,35.24c2.14-4.42-1.43-17.64,3.22-20.16,4.33-2.34,39.25-2.98,39.25,2.17v48.96c0,.46-1.32,1.58-1.31,2.9.02,8.92,28.1,20.2,17.81,32.33-4.91,5.79-15.5,4.27-22.26,4.37-.67,27.64,1.42,55.77-1.08,83.16-3.15,5.39-6.4,7.08-12.52,7.64-42.52,3.88-90.87-3.06-134.02-.04-6.46.75-12.21-8.62-12.21-13.71v-77.04ZM38.43,105.01v84.96c0,.15,2.01,2.16,2.16,2.16h35.28v-65.52c0-.51,6.2-6.27,7.57-6.83,4.41-1.79,39.04-1.96,44.91-1,2.43.4,8,3.87,8,6.39v66.96h38.88v-87.12c0-4.2,13.8-3.41,16.59-3.59,2.15-.14,4.16,1.09,3.56-2.15L104.15,17.99,16.8,97.8c.26,1.4-.78,3.41.86,3.62,4.84.61,19.16-2.2,20.78,3.58ZM181,32.28h-20.16c.83,5.68-1.52,15.14.75,20.13,1.76,3.88,14.73,14.13,18.72,17.29,4.39.39.69-1.56.69-2.14v-35.28ZM124.83,130.21h-37.44v61.92h37.44v-61.92Z"/>
</svg>