<svg width="590.0" height="290.0" viewBox="50 30 510 290" xmlns="http://www.w3.org/2000/svg" xmlns:xlink="http://www.w3.org/1999/xlink">
    <polyline points="80.0,50.0 50.0,100.0 110.0,100.0 80.0,50.0" fill="lightcoral" fill-opacity="0.3" stroke="red" stroke-width="2.0" />
    <polyline points="150.0,70.0 200.0,70.0 220.0,100.0 130.0,100.0 150.0,70.0" fill="lightblue" fill-opacity="0.3" stroke="blue" stroke-width="2.0" />
    <polyline points="300.0,30.0 310.0,60.0 340.0,60.0 320.0,80.0 330.0,110.0 300.0,95.0 270.0,110.0 280.0,80.0 260.0,60.0 290.0,60.0 300.0,30.0" fill="yellow" fill-opacity="0.6" stroke="gold" stroke-width="2.0" />
    <polyline points="50.0,180.0 70.0,150.0 90.0,180.0 110.0,150.0 130.0,180.0 150.0,150.0 170.0,180.0 190.0,150.0 210.0,180.0" fill="none" stroke="lightgreen" stroke-width="3.0" />
    <polyline points="250.0,180.0 250.0,150.0 280.0,150.0 280.0,180.0 310.0,180.0 310.0,150.0 340.0,150.0 340.0,180.0 370.0,180.0" fill="none" stroke="purple" stroke-width="3.0" />
    <polyline points="50.0,250.0 55.0,259.27050983124843 60.0,267.6335575687742 65.0,274.27050983124843 70.0,278.5316954888546 75.0,280.0 80.0,278.5316954888546 85.0,274.27050983124843 90.0,267.6335575687742 95.0,259.27050983124843 100.0,250.0 105.0,240.72949016875157 110.0,232.36644243122583 115.0,225.72949016875157 120.0,221.4683045111454 125.0,220.0 130.0,221.4683045111454 135.0,225.72949016875157 140.0,232.3664424312258 145.0,240.72949016875157" fill="none" stroke="darkblue" stroke-width="2.0" />
    <polyline points="400.0,80.0 450.0,80.0 450.0,70.0 470.0,85.0 450.0,100.0 450.0,90.0 400.0,90.0 400.0,80.0" fill="red" fill-opacity="0.7" stroke="darkred" stroke-width="2.0" />
    <polyline points="550.0,80.0 540.0,70.0 530.0,70.0 520.0,80.0 530.0,90.0 550.0,110.0 570.0,90.0 580.0,80.0 570.0,70.0 560.0,70.0 550.0,80.0" fill="pink" fill-opacity="0.6" stroke="deeppink" stroke-width="2.0" />
    <polyline points="210.0,250.0 210.38213459565023,250.11820808266452 210.66026849192775,250.45171397871601 210.7459319619248,250.93999229155298 210.57977240716266,251.49126253754756 210.1414744033354,251.9949899732081 209.45471497273658,252.33723431410766 208.5864309071204,252.41698622661684 207.64034011026803,252.16148217776367 206.7453402887386,251.53856756884178 206.04003001359823,250.56448003223946 205.655089012401,249.30591894576972 205.6955596015961,247.8759018721847 206.22515201815926,246.42361597224334 207.2545394004921,245.1191756744839 208.73522520341533,244.13481929400942 210.55999349401245,243.62454650345063 212.57024865044826,243.7044601601714 214.56978870678697,244.4360956895969 216.34381716477762,245.81478987625795 217.68136229320294,247.7646760144086 218.3988125456207,250.14123676406854 218.36204680923507,252.7415639989177 217.5046709211533,255.32164583237144 215.84017261950964,257.6192114929519 213.46635317835026,259.3799997677474 210.56113637385155,260.3848507918959 207.36972313965344,260.4748099571269 204.18396707389311,259.57150777058877 201.31569891107017,257.6904430689533 199.06643685738388,254.94542182290107 197.6964059643877,251.5432348514876 197.39599544583518,247.76861720034586 198.26267678534523,243.96052620216577 200.28598713243008,240.48170424872782 203.3424830080561,237.68425936039662 207.20164934704314,235.87451828704252 211.54269319761232,235.28062169458096 215.98106116848794,236.02620640989693 220.10250288300045,238.11305609086307 223.50166333971987,241.41483331199305 225.82161493334038,245.68299862160083 226.79050103641688,250.5648671933151 226.2515926563496,255.63256035316832 224.18355765447194,260.4204938588471 220.70857193957806,264.46811967792917 216.0869937542625,267.3640003177715 210.69857763406753,268.78701650846085 205.0115067606959,268.5406293097461 199.5417460228533,266.5766378904015 194.80624174282357,263.00575680314233 191.27421207954842,258.09350769186454 189.32110539617665,252.24127596782844 189.18970807554464,245.95379807486722 190.96235420817573,239.79568509379314 194.5472647349403,234.3407224678793 199.6807996419855,230.1184984477743 205.94595317839287,227.56331788413854 212.8058915183406,226.9703023730813 219.64986864981356,228.46305418492804 225.8476009978579,231.97630607747976 230.8072598719933,237.25567041310774 234.03175038488843,243.87505318893173 235.16794477453624,251.27065173273164 234.0440408754399,258.7888621777893 230.69118921516255,265.74403661270964 225.3468958319011,271.4809866701876 218.43934432603672,275.43653803776357 210.55354293862177,277.1943668838806 202.3819280055147,276.5278151962584 194.66358071372048,273.4263578790096 188.11739116329665,268.1028017306668 183.37521288247333,260.98001415966235 180.92121376028723,252.65785455303555 181.04321683836739,243.86284195003995 183.80086079719453,235.3847646261847 189.0139717634722,228.00575941625496 196.27274798631444,222.42822907115385 204.9693755130853,219.20823458663577 214.3486965345633,218.70065753964985 223.5737282347839,221.02149241578803 231.80035258151443,226.03117384347627 238.2545119753414,233.34099183518748 242.3048549277296,242.34256256321046 243.524029774742,252.25819123685596 241.73271381017335,262.2079840367537 237.02192182974798,271.28792476092934 229.75103944744183,278.65198842568515 220.5212063040294,283.59083532614295 210.12593671360278,285.59977724570996 199.4830028855819,284.4295334225621 189.55341835792615,280.11473558167177 181.25467238357186,272.9770785833233 175.3760480663119,263.6022774745135 172.5038320661318,252.792380753972 172.963479522615,241.49728567290174 176.78438849970468,230.73129084081006 183.69098023003102,221.48201481970753 193.1214441327561,214.61985935816074 204.27299766199576,210.8163115031204" fill="none" stroke="darkgreen" stroke-width="2.0" />
    <polyline points="360.0,250.0 344.1481456572267,256.470476127563 354.6410161513775,270.0 337.6776695296637,267.67766952966366 340.0,284.6410161513775 326.470476127563,274.1481456572267 320.0,290.0 313.529523872437,274.1481456572267 300.0,284.6410161513775 302.32233047033634,267.6776695296637 285.3589838486225,270.0 295.8518543427733,256.470476127563 280.0,250.0 295.8518543427733,243.52952387243698 285.3589838486225,230.0 302.3223304703363,232.3223304703363 300.0,215.35898384862247 313.529523872437,225.8518543427733 320.0,210.0 326.470476127563,225.8518543427733 340.0,215.35898384862247 337.67766952966366,232.3223304703363 354.6410161513775,229.99999999999997 344.1481456572267,243.52952387243698 360.0,250.0" fill="lightpink" fill-opacity="0.4" stroke="magenta" stroke-width="2.0" />
    <polyline points="400.0,170.0 405.0,180.0 410.0,187.32050807568876 415.0,190.0 420.0,187.32050807568876 425.0,180.0 430.0,170.0 435.0,160.0 440.0,152.67949192431124 445.0,150.0 450.0,152.67949192431124 455.0,160.0 460.0,169.99999999999997 465.0,180.0 470.0,187.32050807568876 475.0,190.0 480.0,187.3205080756888 485.0,180.0 490.0,170.0 495.0,160.0 500.0,152.67949192431124 505.0,150.0 510.0,152.67949192431124 515.0,160.0 520.0,169.99999999999994 525.0,179.99999999999997 530.0,187.32050807568876 535.0,190.0 540.0,187.3205080756888 545.0,180.00000000000003 550.0,170.0 555.0,160.00000000000003 560.0,152.67949192431124 565.0,150.0 570.0,152.67949192431124 575.0,159.99999999999994" fill="none" stroke="teal" stroke-width="3.0" stroke-dasharray="8.0,4.0" />
    <polyline points="0.0,0.0 60.0,0.0 60.0,40.0 0.0,40.0 0.0,0.0" fill="lightsteelblue" fill-opacity="0.5" stroke="navy" stroke-width="2.0" transform="translate(416.0,234.0) rotate(30,24.0,16.0)" />
    <polyline points="-11.25,-6.25 48.75,-6.25 18.75,43.75 -11.25,-6.25" fill="violet" fill-opacity="0.4" stroke="darkviolet" stroke-width="2.0" transform="translate(518.75,233.75)" />
</svg>
