<?xml version="1.0" encoding="UTF-8" standalone="no"?>
<!-- Created with Inkscape (http://www.inkscape.org/) -->

<svg
   width="210mm"
   height="110mm"
   viewBox="0 0 210 110"
   version="1.1"
   id="svg5"
   inkscape:version="1.3.2 (091e20ef0f, 2023-11-25, custom)"
   sodipodi:docname="pdfplanar_sketch_dark.svg"
   xmlns:inkscape="http://www.inkscape.org/namespaces/inkscape"
   xmlns:sodipodi="http://sodipodi.sourceforge.net/DTD/sodipodi-0.dtd"
   xmlns:xlink="http://www.w3.org/1999/xlink"
   xmlns="http://www.w3.org/2000/svg"
   xmlns:svg="http://www.w3.org/2000/svg">
  <sodipodi:namedview
     id="namedview7"
     pagecolor="#ffffff"
     bordercolor="#999999"
     borderopacity="1"
     inkscape:pageshadow="0"
     inkscape:pageopacity="0"
     inkscape:pagecheckerboard="0"
     inkscape:document-units="mm"
     showgrid="true"
     inkscape:snap-bbox="true"
     inkscape:snap-bbox-midpoints="true"
     inkscape:object-paths="true"
     inkscape:snap-intersection-paths="true"
     inkscape:snap-global="true"
     inkscape:snap-nodes="true"
     inkscape:snap-smooth-nodes="true"
     inkscape:snap-grids="false"
     inkscape:zoom="0.7946814"
     inkscape:cx="147.22881"
     inkscape:cy="252.93155"
     inkscape:window-width="1720"
     inkscape:window-height="683"
     inkscape:window-x="1280"
     inkscape:window-y="0"
     inkscape:window-maximized="1"
     inkscape:current-layer="layer4"
     inkscape:snap-others="false"
     height="110mm"
     inkscape:showpageshadow="2"
     inkscape:deskcolor="#d1d1d1">
    <inkscape:grid
       type="xygrid"
       id="grid934"
       originx="0"
       originy="0"
       spacingy="1"
       spacingx="1"
       units="mm"
       visible="true" />
  </sodipodi:namedview>
  <defs
     id="defs2">
    <marker
       style="overflow:visible"
       id="marker16529"
       refX="0"
       refY="0"
       orient="auto"
       inkscape:stockid="StopL"
       inkscape:isstock="true">
      <path
         transform="scale(0.8)"
         style="fill:none;fill-opacity:0.75;fill-rule:evenodd;stroke:context-stroke;stroke-width:1pt"
         d="M 0,5.65 V -5.65"
         id="path16527" />
    </marker>
    <marker
       style="overflow:visible"
       id="StopL"
       refX="0"
       refY="0"
       orient="auto"
       inkscape:stockid="StopL"
       inkscape:isstock="true">
      <path
         transform="scale(0.8)"
         style="fill:none;fill-opacity:0.75;fill-rule:evenodd;stroke:context-stroke;stroke-width:1pt"
         d="M 0,5.65 V -5.65"
         id="path1173" />
    </marker>
    <marker
       style="overflow:visible"
       id="marker16425"
       refX="0"
       refY="0"
       orient="auto"
       inkscape:stockid="StopM"
       inkscape:isstock="true">
      <path
         transform="scale(0.4)"
         style="fill:none;fill-opacity:0.75;fill-rule:evenodd;stroke:context-stroke;stroke-width:1pt"
         d="M 0,5.65 V -5.65"
         id="path16423" />
    </marker>
    <marker
       style="overflow:visible"
       id="StopM"
       refX="0"
       refY="0"
       orient="auto"
       inkscape:stockid="StopM"
       inkscape:isstock="true">
      <path
         transform="scale(0.4)"
         style="fill:none;fill-opacity:0.75;fill-rule:evenodd;stroke:context-stroke;stroke-width:1pt"
         d="M 0,5.65 V -5.65"
         id="path1176" />
    </marker>
    <marker
       style="overflow:visible"
       id="TriangleOutM"
       refX="0"
       refY="0"
       orient="auto"
       inkscape:stockid="TriangleOutM"
       inkscape:isstock="true">
      <path
         transform="scale(0.4)"
         style="fill:context-stroke;fill-rule:evenodd;stroke:context-stroke;stroke-width:1pt"
         d="M 5.77,0 -2.88,5 V -5 Z"
         id="path1149" />
    </marker>
    <marker
       style="overflow:visible"
       id="TriangleOutL"
       refX="0"
       refY="0"
       orient="auto"
       inkscape:stockid="TriangleOutL"
       inkscape:isstock="true">
      <path
         transform="scale(0.8)"
         style="fill:context-stroke;fill-rule:evenodd;stroke:context-stroke;stroke-width:1pt"
         d="M 5.77,0 -2.88,5 V -5 Z"
         id="path1146" />
    </marker>
    <g
       id="g7487">
      <symbol
         overflow="visible"
         id="symbol9972">
        <path
           style="stroke:none"
           d=""
           id="path7616" />
      </symbol>
      <symbol
         overflow="visible"
         id="symbol9927">
        <path
           style="stroke:none"
           d="m 4.40625,-6.953125 c -0.0625,-0.140625 -0.09375,-0.1875 -0.265625,-0.1875 -0.15625,0 -0.1875,0.046875 -0.25,0.1875 l -3.375,6.75 C 0.46875,-0.109375 0.46875,-0.09375 0.46875,-0.078125 0.46875,0 0.53125,0 0.6875,0 h 6.921875 c 0.15625,0 0.21875,0 0.21875,-0.078125 0,-0.015625 0,-0.03125 -0.046875,-0.125 z m -0.578125,0.8125 2.6875,5.390625 h -5.375 z m 0,0"
           id="path8648" />
      </symbol>
    </g>
    <g
       id="g7443">
      <symbol
         overflow="visible"
         id="symbol3888">
        <path
           style="stroke:none"
           d=""
           id="path1057" />
      </symbol>
      <symbol
         overflow="visible"
         id="symbol9853">
        <path
           style="stroke:none"
           d="m 4.40625,-6.953125 c -0.0625,-0.140625 -0.09375,-0.1875 -0.265625,-0.1875 -0.15625,0 -0.1875,0.046875 -0.25,0.1875 l -3.375,6.75 C 0.46875,-0.109375 0.46875,-0.09375 0.46875,-0.078125 0.46875,0 0.53125,0 0.6875,0 h 6.921875 c 0.15625,0 0.21875,0 0.21875,-0.078125 0,-0.015625 0,-0.03125 -0.046875,-0.125 z m -0.578125,0.8125 2.6875,5.390625 h -5.375 z m 0,0"
           id="path8154" />
      </symbol>
      <symbol
         overflow="visible"
         id="symbol9343">
        <path
           style="stroke:none"
           d="m 3.296875,2.390625 c 0,-0.03125 0,-0.046875 -0.171875,-0.21875 C 1.890625,0.921875 1.5625,-0.96875 1.5625,-2.5 c 0,-1.734375 0.375,-3.46875 1.609375,-4.703125 0.125,-0.125 0.125,-0.140625 0.125,-0.171875 0,-0.078125 -0.03125,-0.109375 -0.09375,-0.109375 -0.109375,0 -1,0.6875 -1.59375,1.953125 -0.5,1.09375 -0.625,2.203125 -0.625,3.03125 0,0.78125 0.109375,1.984375 0.65625,3.125 C 2.25,1.84375 3.09375,2.5 3.203125,2.5 c 0.0625,0 0.09375,-0.03125 0.09375,-0.109375 z m 0,0"
           id="path7108" />
      </symbol>
      <symbol
         overflow="visible"
         id="symbol2541">
        <path
           style="stroke:none"
           d="m 2.875,-2.5 c 0,-0.765625 -0.109375,-1.96875 -0.65625,-3.109375 -0.59375,-1.21875 -1.453125,-1.875 -1.546875,-1.875 -0.0625,0 -0.109375,0.046875 -0.109375,0.109375 0,0.03125 0,0.046875 0.1875,0.234375 0.984375,0.984375 1.546875,2.5625 1.546875,4.640625 0,1.71875 -0.359375,3.46875 -1.59375,4.71875 C 0.5625,2.34375 0.5625,2.359375 0.5625,2.390625 0.5625,2.453125 0.609375,2.5 0.671875,2.5 0.765625,2.5 1.671875,1.8125 2.25,0.546875 2.765625,-0.546875 2.875,-1.65625 2.875,-2.5 Z m 0,0"
           id="path3960" />
      </symbol>
      <symbol
         overflow="visible"
         id="symbol8352">
        <path
           style="stroke:none"
           d=""
           id="path7635" />
      </symbol>
      <symbol
         overflow="visible"
         id="symbol5864">
        <path
           style="stroke:none"
           d="M 6.265625,-5.671875 C 6.75,-6.453125 7.171875,-6.484375 7.53125,-6.5 c 0.125,-0.015625 0.140625,-0.171875 0.140625,-0.1875 0,-0.078125 -0.0625,-0.125 -0.140625,-0.125 -0.25,0 -0.546875,0.03125 -0.8125,0.03125 -0.328125,0 -0.671875,-0.03125 -0.984375,-0.03125 -0.0625,0 -0.1875,0 -0.1875,0.1875 0,0.109375 0.078125,0.125 0.15625,0.125 0.265625,0.015625 0.453125,0.125 0.453125,0.328125 0,0.15625 -0.140625,0.375 -0.140625,0.375 l -3.0625,4.875 -0.6875,-5.28125 C 2.265625,-6.375 2.5,-6.5 2.953125,-6.5 c 0.140625,0 0.25,0 0.25,-0.203125 0,-0.078125 -0.078125,-0.109375 -0.125,-0.109375 -0.40625,0 -0.828125,0.03125 -1.25,0.03125 -0.171875,0 -0.359375,0 -0.546875,0 -0.171875,0 -0.359375,-0.03125 -0.53125,-0.03125 -0.078125,0 -0.1875,0 -0.1875,0.1875 0,0.125 0.078125,0.125 0.25,0.125 0.546875,0 0.5625,0.09375 0.59375,0.34375 L 2.1875,-0.015625 C 2.21875,0.1875 2.265625,0.21875 2.390625,0.21875 c 0.15625,0 0.203125,-0.046875 0.28125,-0.171875 z m 0,0"
           id="path2114" />
      </symbol>
      <symbol
         overflow="visible"
         id="symbol1551">
        <path
           style="stroke:none"
           d="m 0.875,-0.59375 c -0.03125,0.15625 -0.09375,0.390625 -0.09375,0.4375 0,0.171875 0.140625,0.265625 0.296875,0.265625 0.125,0 0.296875,-0.078125 0.375,-0.28125 C 1.46875,-0.203125 1.796875,-1.5625 1.84375,-1.75 c 0.078125,-0.328125 0.265625,-1.015625 0.3125,-1.296875 0.046875,-0.125 0.328125,-0.59375 0.5625,-0.8125 0.078125,-0.0625 0.375,-0.328125 0.796875,-0.328125 0.265625,0 0.40625,0.125 0.421875,0.125 -0.296875,0.046875 -0.515625,0.28125 -0.515625,0.546875 0,0.15625 0.109375,0.34375 0.375,0.34375 0.265625,0 0.546875,-0.234375 0.546875,-0.59375 0,-0.34375 -0.3125,-0.640625 -0.828125,-0.640625 C 2.875,-4.40625 2.4375,-3.921875 2.25,-3.640625 2.15625,-4.09375 1.796875,-4.40625 1.328125,-4.40625 0.875,-4.40625 0.6875,-4.015625 0.59375,-3.84375 0.421875,-3.5 0.296875,-2.90625 0.296875,-2.875 c 0,0.109375 0.09375,0.109375 0.109375,0.109375 0.109375,0 0.109375,-0.015625 0.171875,-0.234375 0.171875,-0.703125 0.375,-1.1875 0.734375,-1.1875 0.15625,0 0.296875,0.078125 0.296875,0.453125 0,0.21875 -0.03125,0.328125 -0.15625,0.84375 z m 0,0"
           id="path3126" />
      </symbol>
      <symbol
         overflow="visible"
         id="symbol671">
        <path
           style="stroke:none"
           d=""
           id="path8831" />
      </symbol>
      <symbol
         overflow="visible"
         id="symbol1240">
        <path
           style="stroke:none"
           d="m 2.265625,-4.359375 c 0,-0.109375 -0.09375,-0.265625 -0.28125,-0.265625 -0.1875,0 -0.390625,0.1875 -0.390625,0.390625 0,0.109375 0.078125,0.265625 0.28125,0.265625 0.1875,0 0.390625,-0.203125 0.390625,-0.390625 z M 0.84375,-0.8125 c -0.03125,0.09375 -0.0625,0.171875 -0.0625,0.296875 0,0.328125 0.265625,0.578125 0.65625,0.578125 0.6875,0 1,-0.953125 1,-1.0625 0,-0.09375 -0.09375,-0.09375 -0.109375,-0.09375 -0.09375,0 -0.109375,0.046875 -0.140625,0.125 -0.15625,0.5625 -0.453125,0.84375 -0.734375,0.84375 -0.140625,0 -0.171875,-0.09375 -0.171875,-0.25 0,-0.15625 0.046875,-0.28125 0.109375,-0.4375 C 1.46875,-1 1.546875,-1.1875 1.609375,-1.375 1.671875,-1.546875 1.9375,-2.171875 1.953125,-2.265625 1.984375,-2.328125 2,-2.40625 2,-2.484375 2,-2.8125 1.71875,-3.078125 1.34375,-3.078125 0.640625,-3.078125 0.328125,-2.125 0.328125,-2 c 0,0.078125 0.09375,0.078125 0.125,0.078125 0.09375,0 0.09375,-0.03125 0.125,-0.109375 C 0.75,-2.625 1.0625,-2.875 1.3125,-2.875 c 0.109375,0 0.171875,0.046875 0.171875,0.234375 0,0.171875 -0.03125,0.265625 -0.203125,0.703125 z m 0,0"
           id="path7495" />
      </symbol>
    </g>
    <g
       id="g1354">
      <symbol
         overflow="visible"
         id="symbol2247">
        <path
           style="stroke:none"
           d=""
           id="path1096" />
      </symbol>
      <symbol
         overflow="visible"
         id="symbol1878">
        <path
           style="stroke:none"
           d="m 1.328125,-0.828125 c 0.53125,-0.578125 0.828125,-0.828125 1.1875,-1.140625 0,0 0.609375,-0.53125 0.96875,-0.890625 C 4.4375,-3.78125 4.65625,-4.265625 4.65625,-4.3125 c 0,-0.09375 -0.09375,-0.09375 -0.109375,-0.09375 -0.078125,0 -0.09375,0.015625 -0.15625,0.109375 -0.296875,0.484375 -0.5,0.640625 -0.734375,0.640625 -0.25,0 -0.359375,-0.15625 -0.515625,-0.328125 -0.1875,-0.21875 -0.359375,-0.421875 -0.6875,-0.421875 -0.75,0 -1.203125,0.921875 -1.203125,1.140625 0,0.046875 0.03125,0.109375 0.109375,0.109375 0.09375,0 0.109375,-0.046875 0.140625,-0.109375 0.1875,-0.46875 0.765625,-0.46875 0.84375,-0.46875 0.203125,0 0.390625,0.0625 0.625,0.140625 0.40625,0.15625 0.515625,0.15625 0.765625,0.15625 -0.359375,0.421875 -1.1875,1.140625 -1.375,1.296875 l -0.90625,0.84375 C 0.78125,-0.625 0.421875,-0.0625 0.421875,0.015625 c 0,0.09375 0.109375,0.09375 0.125,0.09375 0.078125,0 0.09375,-0.015625 0.15625,-0.125 0.234375,-0.359375 0.53125,-0.625 0.859375,-0.625 0.21875,0 0.328125,0.09375 0.578125,0.375 0.15625,0.21875 0.34375,0.375 0.625,0.375 1,0 1.578125,-1.265625 1.578125,-1.53125 0,-0.046875 -0.046875,-0.109375 -0.125,-0.109375 -0.09375,0 -0.109375,0.0625 -0.140625,0.140625 C 3.84375,-0.75 3.203125,-0.5625 2.875,-0.5625 c -0.1875,0 -0.375,-0.0625 -0.578125,-0.125 -0.34375,-0.125 -0.5,-0.171875 -0.703125,-0.171875 -0.015625,0 -0.171875,0 -0.265625,0.03125 z m 0,0"
           id="path6648" />
      </symbol>
    </g>
    <g
       id="g8286">
      <symbol
         overflow="visible"
         id="symbol9301">
        <path
           style="stroke:none"
           d=""
           id="path6425" />
      </symbol>
      <symbol
         overflow="visible"
         id="symbol9247">
        <path
           style="stroke:none"
           d="m 2.828125,-6.234375 c 0,-0.203125 -0.140625,-0.359375 -0.359375,-0.359375 -0.28125,0 -0.546875,0.265625 -0.546875,0.53125 0,0.1875 0.140625,0.359375 0.375,0.359375 0.234375,0 0.53125,-0.234375 0.53125,-0.53125 z m -0.75,3.75 c 0.109375,-0.28125 0.109375,-0.3125 0.21875,-0.578125 0.078125,-0.203125 0.125,-0.34375 0.125,-0.53125 0,-0.4375 -0.3125,-0.8125 -0.8125,-0.8125 -0.9375,0 -1.3125,1.453125 -1.3125,1.53125 0,0.109375 0.09375,0.109375 0.109375,0.109375 0.109375,0 0.109375,-0.03125 0.15625,-0.1875 0.28125,-0.9375 0.671875,-1.234375 1.015625,-1.234375 0.078125,0 0.25,0 0.25,0.3125 0,0.21875 -0.078125,0.421875 -0.109375,0.53125 -0.078125,0.25 -0.53125,1.40625 -0.6875,1.84375 -0.109375,0.25 -0.234375,0.578125 -0.234375,0.796875 0,0.46875 0.34375,0.8125 0.8125,0.8125 0.9375,0 1.3125,-1.4375 1.3125,-1.53125 0,-0.109375 -0.09375,-0.109375 -0.125,-0.109375 -0.09375,0 -0.09375,0.03125 -0.140625,0.1875 -0.1875,0.625 -0.515625,1.234375 -1.015625,1.234375 -0.171875,0 -0.25,-0.09375 -0.25,-0.328125 0,-0.25 0.0625,-0.390625 0.296875,-1 z m 0,0"
           id="path2225" />
      </symbol>
    </g>
    <g
       id="g3433">
      <symbol
         overflow="visible"
         id="symbol2596">
        <path
           style="stroke:none"
           d=""
           id="path4073" />
      </symbol>
      <symbol
         overflow="visible"
         id="symbol1547">
        <path
           style="stroke:none"
           d="m 0.875,-0.59375 c -0.03125,0.15625 -0.09375,0.390625 -0.09375,0.4375 0,0.171875 0.140625,0.265625 0.296875,0.265625 0.125,0 0.296875,-0.078125 0.375,-0.28125 C 1.46875,-0.203125 1.796875,-1.5625 1.84375,-1.75 c 0.078125,-0.328125 0.265625,-1.015625 0.3125,-1.296875 0.046875,-0.125 0.328125,-0.59375 0.5625,-0.8125 0.078125,-0.0625 0.375,-0.328125 0.796875,-0.328125 0.265625,0 0.40625,0.125 0.421875,0.125 -0.296875,0.046875 -0.515625,0.28125 -0.515625,0.546875 0,0.15625 0.109375,0.34375 0.375,0.34375 0.265625,0 0.546875,-0.234375 0.546875,-0.59375 0,-0.34375 -0.3125,-0.640625 -0.828125,-0.640625 C 2.875,-4.40625 2.4375,-3.921875 2.25,-3.640625 2.15625,-4.09375 1.796875,-4.40625 1.328125,-4.40625 0.875,-4.40625 0.6875,-4.015625 0.59375,-3.84375 0.421875,-3.5 0.296875,-2.90625 0.296875,-2.875 c 0,0.109375 0.09375,0.109375 0.109375,0.109375 0.109375,0 0.109375,-0.015625 0.171875,-0.234375 0.171875,-0.703125 0.375,-1.1875 0.734375,-1.1875 0.15625,0 0.296875,0.078125 0.296875,0.453125 0,0.21875 -0.03125,0.328125 -0.15625,0.84375 z m 0,0"
           id="path2585" />
      </symbol>
    </g>
    <g
       id="g4112">
      <symbol
         overflow="visible"
         id="symbol6092">
        <path
           style="stroke:none"
           d=""
           id="path9050" />
      </symbol>
      <symbol
         overflow="visible"
         id="symbol1334">
        <path
           style="stroke:none"
           d="m 4.40625,-6.953125 c -0.0625,-0.140625 -0.09375,-0.1875 -0.265625,-0.1875 -0.15625,0 -0.1875,0.046875 -0.25,0.1875 l -3.375,6.75 C 0.46875,-0.109375 0.46875,-0.09375 0.46875,-0.078125 0.46875,0 0.53125,0 0.6875,0 h 6.921875 c 0.15625,0 0.21875,0 0.21875,-0.078125 0,-0.015625 0,-0.03125 -0.046875,-0.125 z m -0.578125,0.8125 2.6875,5.390625 h -5.375 z m 0,0"
           id="path3200" />
      </symbol>
      <symbol
         overflow="visible"
         id="symbol9139">
        <path
           style="stroke:none"
           d=""
           id="path497" />
      </symbol>
      <symbol
         overflow="visible"
         id="symbol7150">
        <path
           style="stroke:none"
           d="m 0.875,-0.59375 c -0.03125,0.15625 -0.09375,0.390625 -0.09375,0.4375 0,0.171875 0.140625,0.265625 0.296875,0.265625 0.125,0 0.296875,-0.078125 0.375,-0.28125 C 1.46875,-0.203125 1.796875,-1.5625 1.84375,-1.75 c 0.078125,-0.328125 0.265625,-1.015625 0.3125,-1.296875 0.046875,-0.125 0.328125,-0.59375 0.5625,-0.8125 0.078125,-0.0625 0.375,-0.328125 0.796875,-0.328125 0.265625,0 0.40625,0.125 0.421875,0.125 -0.296875,0.046875 -0.515625,0.28125 -0.515625,0.546875 0,0.15625 0.109375,0.34375 0.375,0.34375 0.265625,0 0.546875,-0.234375 0.546875,-0.59375 0,-0.34375 -0.3125,-0.640625 -0.828125,-0.640625 C 2.875,-4.40625 2.4375,-3.921875 2.25,-3.640625 2.15625,-4.09375 1.796875,-4.40625 1.328125,-4.40625 0.875,-4.40625 0.6875,-4.015625 0.59375,-3.84375 0.421875,-3.5 0.296875,-2.90625 0.296875,-2.875 c 0,0.109375 0.09375,0.109375 0.109375,0.109375 0.109375,0 0.109375,-0.015625 0.171875,-0.234375 0.171875,-0.703125 0.375,-1.1875 0.734375,-1.1875 0.15625,0 0.296875,0.078125 0.296875,0.453125 0,0.21875 -0.03125,0.328125 -0.15625,0.84375 z m 0,0"
           id="path7167" />
      </symbol>
    </g>
    <g
       id="g7816">
      <symbol
         overflow="visible"
         id="symbol6400">
        <path
           style="stroke:none"
           d=""
           id="path2471" />
      </symbol>
      <symbol
         overflow="visible"
         id="symbol867">
        <path
           style="stroke:none"
           d="m 1.265625,-0.765625 1.0625,-1.03125 c 1.546875,-1.375 2.140625,-1.90625 2.140625,-2.90625 0,-1.140625 -0.890625,-1.9375 -2.109375,-1.9375 -1.125,0 -1.859375,0.921875 -1.859375,1.8125 0,0.546875 0.5,0.546875 0.53125,0.546875 0.171875,0 0.515625,-0.109375 0.515625,-0.53125 0,-0.25 -0.1875,-0.515625 -0.53125,-0.515625 -0.078125,0 -0.09375,0 -0.125,0.015625 0.21875,-0.65625 0.765625,-1.015625 1.34375,-1.015625 0.90625,0 1.328125,0.8125 1.328125,1.625 C 3.5625,-3.90625 3.078125,-3.125 2.515625,-2.5 l -1.90625,2.125 C 0.5,-0.265625 0.5,-0.234375 0.5,0 H 4.203125 L 4.46875,-1.734375 H 4.234375 C 4.171875,-1.4375 4.109375,-1 4,-0.84375 3.9375,-0.765625 3.28125,-0.765625 3.0625,-0.765625 Z m 0,0"
           id="path769" />
      </symbol>
      <symbol
         overflow="visible"
         id="symbol2898">
        <path
           style="stroke:none"
           d="m 4.40625,-6.953125 c -0.0625,-0.140625 -0.09375,-0.1875 -0.265625,-0.1875 -0.15625,0 -0.1875,0.046875 -0.25,0.1875 l -3.375,6.75 C 0.46875,-0.109375 0.46875,-0.09375 0.46875,-0.078125 0.46875,0 0.53125,0 0.6875,0 h 6.921875 c 0.15625,0 0.21875,0 0.21875,-0.078125 0,-0.015625 0,-0.03125 -0.046875,-0.125 z m -0.578125,0.8125 2.6875,5.390625 h -5.375 z m 0,0"
           id="path6014" />
      </symbol>
      <symbol
         overflow="visible"
         id="symbol1131">
        <path
           style="stroke:none"
           d=""
           id="path2771" />
      </symbol>
      <symbol
         overflow="visible"
         id="symbol4041">
        <path
           style="stroke:none"
           d="m 1.328125,-0.828125 c 0.53125,-0.578125 0.828125,-0.828125 1.1875,-1.140625 0,0 0.609375,-0.53125 0.96875,-0.890625 C 4.4375,-3.78125 4.65625,-4.265625 4.65625,-4.3125 c 0,-0.09375 -0.09375,-0.09375 -0.109375,-0.09375 -0.078125,0 -0.09375,0.015625 -0.15625,0.109375 -0.296875,0.484375 -0.5,0.640625 -0.734375,0.640625 -0.25,0 -0.359375,-0.15625 -0.515625,-0.328125 -0.1875,-0.21875 -0.359375,-0.421875 -0.6875,-0.421875 -0.75,0 -1.203125,0.921875 -1.203125,1.140625 0,0.046875 0.03125,0.109375 0.109375,0.109375 0.09375,0 0.109375,-0.046875 0.140625,-0.109375 0.1875,-0.46875 0.765625,-0.46875 0.84375,-0.46875 0.203125,0 0.390625,0.0625 0.625,0.140625 0.40625,0.15625 0.515625,0.15625 0.765625,0.15625 -0.359375,0.421875 -1.1875,1.140625 -1.375,1.296875 l -0.90625,0.84375 C 0.78125,-0.625 0.421875,-0.0625 0.421875,0.015625 c 0,0.09375 0.109375,0.09375 0.125,0.09375 0.078125,0 0.09375,-0.015625 0.15625,-0.125 0.234375,-0.359375 0.53125,-0.625 0.859375,-0.625 0.21875,0 0.328125,0.09375 0.578125,0.375 0.15625,0.21875 0.34375,0.375 0.625,0.375 1,0 1.578125,-1.265625 1.578125,-1.53125 0,-0.046875 -0.046875,-0.109375 -0.125,-0.109375 -0.09375,0 -0.109375,0.0625 -0.140625,0.140625 C 3.84375,-0.75 3.203125,-0.5625 2.875,-0.5625 c -0.1875,0 -0.375,-0.0625 -0.578125,-0.125 -0.34375,-0.125 -0.5,-0.171875 -0.703125,-0.171875 -0.015625,0 -0.171875,0 -0.265625,0.03125 z m 0,0"
           id="path785" />
      </symbol>
    </g>
    <g
       id="g1990">
      <symbol
         overflow="visible"
         id="symbol3225">
        <path
           style="stroke:none"
           d=""
           id="path4280" />
      </symbol>
      <symbol
         overflow="visible"
         id="symbol6603">
        <path
           style="stroke:none"
           d="m 4.40625,-6.953125 c -0.0625,-0.140625 -0.09375,-0.1875 -0.265625,-0.1875 -0.15625,0 -0.1875,0.046875 -0.25,0.1875 l -3.375,6.75 C 0.46875,-0.109375 0.46875,-0.09375 0.46875,-0.078125 0.46875,0 0.53125,0 0.6875,0 h 6.921875 c 0.15625,0 0.21875,0 0.21875,-0.078125 0,-0.015625 0,-0.03125 -0.046875,-0.125 z m -0.578125,0.8125 2.6875,5.390625 h -5.375 z m 0,0"
           id="path1056" />
      </symbol>
      <symbol
         overflow="visible"
         id="symbol2855">
        <path
           style="stroke:none"
           d="m 1.265625,-0.765625 1.0625,-1.03125 c 1.546875,-1.375 2.140625,-1.90625 2.140625,-2.90625 0,-1.140625 -0.890625,-1.9375 -2.109375,-1.9375 -1.125,0 -1.859375,0.921875 -1.859375,1.8125 0,0.546875 0.5,0.546875 0.53125,0.546875 0.171875,0 0.515625,-0.109375 0.515625,-0.53125 0,-0.25 -0.1875,-0.515625 -0.53125,-0.515625 -0.078125,0 -0.09375,0 -0.125,0.015625 0.21875,-0.65625 0.765625,-1.015625 1.34375,-1.015625 0.90625,0 1.328125,0.8125 1.328125,1.625 C 3.5625,-3.90625 3.078125,-3.125 2.515625,-2.5 l -1.90625,2.125 C 0.5,-0.265625 0.5,-0.234375 0.5,0 H 4.203125 L 4.46875,-1.734375 H 4.234375 C 4.171875,-1.4375 4.109375,-1 4,-0.84375 3.9375,-0.765625 3.28125,-0.765625 3.0625,-0.765625 Z m 0,0"
           id="path6921" />
      </symbol>
      <symbol
         overflow="visible"
         id="symbol7959">
        <path
           style="stroke:none"
           d=""
           id="path5087" />
      </symbol>
      <symbol
         overflow="visible"
         id="symbol3592">
        <path
           style="stroke:none"
           d="m 1.328125,-0.828125 c 0.53125,-0.578125 0.828125,-0.828125 1.1875,-1.140625 0,0 0.609375,-0.53125 0.96875,-0.890625 C 4.4375,-3.78125 4.65625,-4.265625 4.65625,-4.3125 c 0,-0.09375 -0.09375,-0.09375 -0.109375,-0.09375 -0.078125,0 -0.09375,0.015625 -0.15625,0.109375 -0.296875,0.484375 -0.5,0.640625 -0.734375,0.640625 -0.25,0 -0.359375,-0.15625 -0.515625,-0.328125 -0.1875,-0.21875 -0.359375,-0.421875 -0.6875,-0.421875 -0.75,0 -1.203125,0.921875 -1.203125,1.140625 0,0.046875 0.03125,0.109375 0.109375,0.109375 0.09375,0 0.109375,-0.046875 0.140625,-0.109375 0.1875,-0.46875 0.765625,-0.46875 0.84375,-0.46875 0.203125,0 0.390625,0.0625 0.625,0.140625 0.40625,0.15625 0.515625,0.15625 0.765625,0.15625 -0.359375,0.421875 -1.1875,1.140625 -1.375,1.296875 l -0.90625,0.84375 C 0.78125,-0.625 0.421875,-0.0625 0.421875,0.015625 c 0,0.09375 0.109375,0.09375 0.125,0.09375 0.078125,0 0.09375,-0.015625 0.15625,-0.125 0.234375,-0.359375 0.53125,-0.625 0.859375,-0.625 0.21875,0 0.328125,0.09375 0.578125,0.375 0.15625,0.21875 0.34375,0.375 0.625,0.375 1,0 1.578125,-1.265625 1.578125,-1.53125 0,-0.046875 -0.046875,-0.109375 -0.125,-0.109375 -0.09375,0 -0.109375,0.0625 -0.140625,0.140625 C 3.84375,-0.75 3.203125,-0.5625 2.875,-0.5625 c -0.1875,0 -0.375,-0.0625 -0.578125,-0.125 -0.34375,-0.125 -0.5,-0.171875 -0.703125,-0.171875 -0.015625,0 -0.171875,0 -0.265625,0.03125 z m 0,0"
           id="path8343" />
      </symbol>
      <symbol
         overflow="visible"
         id="symbol2068">
        <path
           style="stroke:none"
           d=""
           id="path9098" />
      </symbol>
      <symbol
         overflow="visible"
         id="symbol8194">
        <path
           style="stroke:none"
           d="m 1.90625,-2.5 c 0,-0.28125 -0.234375,-0.515625 -0.515625,-0.515625 -0.296875,0 -0.53125,0.234375 -0.53125,0.515625 0,0.296875 0.234375,0.53125 0.53125,0.53125 0.28125,0 0.515625,-0.234375 0.515625,-0.53125 z m 0,0"
           id="path603" />
      </symbol>
    </g>
    <g
       id="g5142">
      <symbol
         overflow="visible"
         id="symbol9174">
        <path
           style="stroke:none"
           d=""
           id="path4953" />
      </symbol>
      <symbol
         overflow="visible"
         id="symbol8332">
        <path
           style="stroke:none"
           d="m 1.265625,-0.765625 1.0625,-1.03125 c 1.546875,-1.375 2.140625,-1.90625 2.140625,-2.90625 0,-1.140625 -0.890625,-1.9375 -2.109375,-1.9375 -1.125,0 -1.859375,0.921875 -1.859375,1.8125 0,0.546875 0.5,0.546875 0.53125,0.546875 0.171875,0 0.515625,-0.109375 0.515625,-0.53125 0,-0.25 -0.1875,-0.515625 -0.53125,-0.515625 -0.078125,0 -0.09375,0 -0.125,0.015625 0.21875,-0.65625 0.765625,-1.015625 1.34375,-1.015625 0.90625,0 1.328125,0.8125 1.328125,1.625 C 3.5625,-3.90625 3.078125,-3.125 2.515625,-2.5 l -1.90625,2.125 C 0.5,-0.265625 0.5,-0.234375 0.5,0 H 4.203125 L 4.46875,-1.734375 H 4.234375 C 4.171875,-1.4375 4.109375,-1 4,-0.84375 3.9375,-0.765625 3.28125,-0.765625 3.0625,-0.765625 Z m 0,0"
           id="path391" />
      </symbol>
      <symbol
         overflow="visible"
         id="symbol9002">
        <path
           style="stroke:none"
           d="m 4.40625,-6.953125 c -0.0625,-0.140625 -0.09375,-0.1875 -0.265625,-0.1875 -0.15625,0 -0.1875,0.046875 -0.25,0.1875 l -3.375,6.75 C 0.46875,-0.109375 0.46875,-0.09375 0.46875,-0.078125 0.46875,0 0.53125,0 0.6875,0 h 6.921875 c 0.15625,0 0.21875,0 0.21875,-0.078125 0,-0.015625 0,-0.03125 -0.046875,-0.125 z m -0.578125,0.8125 2.6875,5.390625 h -5.375 z m 0,0"
           id="path745" />
      </symbol>
      <symbol
         overflow="visible"
         id="symbol411">
        <path
           style="stroke:none"
           d=""
           id="path4795" />
      </symbol>
      <symbol
         overflow="visible"
         id="symbol9814">
        <path
           style="stroke:none"
           d="m 1.90625,-2.5 c 0,-0.28125 -0.234375,-0.515625 -0.515625,-0.515625 -0.296875,0 -0.53125,0.234375 -0.53125,0.515625 0,0.296875 0.234375,0.53125 0.53125,0.53125 0.28125,0 0.515625,-0.234375 0.515625,-0.53125 z m 0,0"
           id="path4553" />
      </symbol>
      <symbol
         overflow="visible"
         id="symbol3072">
        <path
           style="stroke:none"
           d=""
           id="path5263" />
      </symbol>
      <symbol
         overflow="visible"
         id="symbol9968">
        <path
           style="stroke:none"
           d="m 1.328125,-0.828125 c 0.53125,-0.578125 0.828125,-0.828125 1.1875,-1.140625 0,0 0.609375,-0.53125 0.96875,-0.890625 C 4.4375,-3.78125 4.65625,-4.265625 4.65625,-4.3125 c 0,-0.09375 -0.09375,-0.09375 -0.109375,-0.09375 -0.078125,0 -0.09375,0.015625 -0.15625,0.109375 -0.296875,0.484375 -0.5,0.640625 -0.734375,0.640625 -0.25,0 -0.359375,-0.15625 -0.515625,-0.328125 -0.1875,-0.21875 -0.359375,-0.421875 -0.6875,-0.421875 -0.75,0 -1.203125,0.921875 -1.203125,1.140625 0,0.046875 0.03125,0.109375 0.109375,0.109375 0.09375,0 0.109375,-0.046875 0.140625,-0.109375 0.1875,-0.46875 0.765625,-0.46875 0.84375,-0.46875 0.203125,0 0.390625,0.0625 0.625,0.140625 0.40625,0.15625 0.515625,0.15625 0.765625,0.15625 -0.359375,0.421875 -1.1875,1.140625 -1.375,1.296875 l -0.90625,0.84375 C 0.78125,-0.625 0.421875,-0.0625 0.421875,0.015625 c 0,0.09375 0.109375,0.09375 0.125,0.09375 0.078125,0 0.09375,-0.015625 0.15625,-0.125 0.234375,-0.359375 0.53125,-0.625 0.859375,-0.625 0.21875,0 0.328125,0.09375 0.578125,0.375 0.15625,0.21875 0.34375,0.375 0.625,0.375 1,0 1.578125,-1.265625 1.578125,-1.53125 0,-0.046875 -0.046875,-0.109375 -0.125,-0.109375 -0.09375,0 -0.109375,0.0625 -0.140625,0.140625 C 3.84375,-0.75 3.203125,-0.5625 2.875,-0.5625 c -0.1875,0 -0.375,-0.0625 -0.578125,-0.125 -0.34375,-0.125 -0.5,-0.171875 -0.703125,-0.171875 -0.015625,0 -0.171875,0 -0.265625,0.03125 z m 0,0"
           id="path8085" />
      </symbol>
    </g>
  </defs>
  <g
     inkscape:groupmode="layer"
     id="layer6"
     inkscape:label="All">
    <g
       inkscape:groupmode="layer"
       id="layer4"
       inkscape:label="Background">
      <path
         style="fill:#721c24;stroke:#721c24;stroke-width:1.78178;stroke-miterlimit:4;stroke-dasharray:none;stroke-dashoffset:0"
         d="m 92.94771,82.196295 c -9.460002,-1.077391 -21.142936,-3.261674 -21.993185,-4.111923 -0.150133,-0.150136 -0.03352,-0.959874 0.259151,-1.799421 0.359344,-1.030817 0.377042,-1.68153 0.05451,-2.004065 -0.262689,-0.262689 -0.477618,-0.965544 -0.477618,-1.561902 0,-0.649526 -0.283538,-1.084286 -0.707141,-1.084286 -0.866875,0 -0.96997,2.182201 -0.117859,2.494642 0.47143,0.172858 0.47143,0.341001 0,0.840714 -0.324106,0.343553 -0.589285,1.101145 -0.589285,1.683538 v 1.058894 l -2.475,-0.861078 C 58.801813,74.033524 52.440902,69.678231 50.257076,65.455177 49.062588,63.14529 49.500193,59.108884 51.200268,56.755322 57.213866,48.430171 75.198479,42.417517 97.779851,41.182741 l 6.010719,-0.328673 v 3.534545 3.534545 l -5.303575,0.266901 c -9.569643,0.481592 -19.224961,3.077324 -24.213545,6.509559 -2.960184,2.03666 -5.459354,5.504993 -5.069258,7.035081 0.165262,0.648213 0.264944,1.868035 0.221515,2.710714 -0.0578,1.12146 0.122682,1.532141 0.673314,1.532141 0.894766,0 5.405266,3.778864 5.405599,4.52877 1.27e-4,0.286896 0.583626,0.529831 1.296662,0.539856 0.713034,0.01003 2.781427,0.554603 4.596426,1.210172 16.471969,5.949588 44.449962,3.925231 54.214282,-3.922694 1.29643,-1.041982 2.7284,-2.023115 3.18215,-2.180293 0.61581,-0.213313 0.825,-0.806771 0.825,-2.340436 0,-2.031526 0.0159,-2.051476 1.41428,-1.771803 1.07136,0.214273 1.41429,0.11044 1.41429,-0.428231 0,-0.850291 -1.95628,-1.46967 -2.39578,-0.758534 -0.16945,0.274175 -0.45874,-0.10505 -0.64286,-0.842724 C 137.92768,54.076575 125.62,48.970458 110.97985,48.217136 l -5.775,-0.297159 v -3.532954 -3.532955 l 6.01072,0.328626 c 17.12222,0.936127 31.77732,4.544774 40.48655,9.969333 7.11315,4.430445 9.56382,9.163629 7.30995,14.118386 -1.18958,2.615091 -2.07405,3.28926 -3.30598,2.51991 -1.25613,-0.784466 -1.83991,-0.151934 -1.04077,1.127683 0.57029,0.913183 0.49958,1.117905 -0.72499,2.099273 -2.38131,1.908361 -12.48989,6.745992 -14.09624,6.745992 -0.12372,0 -0.22495,-0.530358 -0.22495,-1.178574 0,-0.733332 -0.26715,-1.17857 -0.70715,-1.17857 -0.46725,0 -0.70714,0.467365 -0.70714,1.377725 0,1.571876 -0.61788,1.863349 -6.58153,3.104708 -8.79725,1.831181 -12.67691,2.198677 -24.76847,2.346156 -6.74143,0.08222 -12.99964,0.06493 -13.90714,-0.03842 z m 45.85951,-7.738414 c 1.00061,-1.168627 1.06202,-2.823183 0.10477,-2.823183 -0.38892,0 -0.70714,0.311557 -0.70714,0.692348 0,0.399484 -0.27895,0.585304 -0.65946,0.439288 -0.97416,-0.373822 -1.34599,0.575138 -0.6574,1.67776 0.7452,1.193239 0.90835,1.194411 1.91923,0.01378 z m -64.245226,-2.34052 c 0,-0.843425 -1.047416,-1.051573 -1.75102,-0.347969 -0.984964,0.984964 -0.371949,1.91117 0.836774,1.26428 0.502835,-0.269111 0.914246,-0.681448 0.914246,-0.916311 z m 60.830866,-1.169826 c -0.3319,-0.399918 -0.8957,-0.727122 -1.25287,-0.727122 -0.9265,0 -0.80386,1.280297 0.17558,1.832927 1.10628,0.624208 1.86593,-0.155548 1.07729,-1.105805 z M 70.790565,68.570413 c 0,-0.733335 -0.267141,-1.178571 -0.707141,-1.178571 -0.439999,0 -0.707144,0.445236 -0.707144,1.178571 0,0.733332 0.267145,1.17857 0.707144,1.17857 0.44,0 0.707141,-0.445238 0.707141,-1.17857 z m 68.828575,0 c 0,-0.733335 -0.26715,-1.178571 -0.70715,-1.178571 -0.43999,0 -0.70714,0.445236 -0.70714,1.178571 0,0.733332 0.26715,1.17857 0.70714,1.17857 0.44,0 0.70715,-0.445238 0.70715,-1.17857 z M 55.902009,68.048546 c 0.774758,-0.297302 1.011891,-1.379403 0.386929,-1.765649 -0.572939,-0.354097 -2.124633,0.994682 -1.782043,1.549005 0.362456,0.586465 0.41152,0.594085 1.395114,0.216644 z m 97.197041,-1.199653 c 0.31716,-0.513175 -0.96242,-1.814195 -1.7843,-1.814195 -0.57557,0 -0.45722,1.149824 0.18439,1.791428 0.71008,0.710083 1.17107,0.716642 1.59991,0.02278 z M 60.095676,64.740312 c -0.311949,-0.812924 -0.682059,-0.815596 -1.779884,-0.01283 -0.478099,0.349594 -0.723212,0.87195 -0.544698,1.160793 0.474062,0.767049 2.647559,-0.306287 2.324582,-1.147947 z m 89.591184,0.06586 c 0.36864,-0.960662 -1.47595,-1.954969 -2.22191,-1.1977 -0.40506,0.411205 -0.31169,0.714365 0.37644,1.222245 1.15708,0.854007 1.51014,0.84931 1.84547,-0.02455 z M 62.973438,64.277117 c 0.410136,-0.157382 0.745701,-0.680905 0.745701,-1.163381 0,-0.711457 -0.200445,-0.803227 -1.060714,-0.485643 -0.583393,0.215371 -1.129305,0.738892 -1.213139,1.163381 -0.160739,0.813898 0.295167,0.958784 1.528152,0.485643 z m 83.245702,-1.332079 c 0,-0.936718 -1.89916,-1.479944 -2.39112,-0.683946 -0.22961,0.371526 -0.15756,0.773584 0.17672,0.986087 0.93358,0.593489 2.2144,0.418729 2.2144,-0.302141 z M 67.057694,62.677555 c 0.23808,0 0.432872,-0.424286 0.432872,-0.942856 0,-1.077188 -0.17784,-1.133155 -1.445276,-0.454843 -1.114251,0.596329 -1.263108,2.104787 -0.166166,1.683851 0.410135,-0.157382 0.940493,-0.286152 1.17857,-0.286152 z"
         id="path13702" />
      <path
         style="fill:#721c24;stroke:#721c24;stroke-width:1.78178;stroke-miterlimit:4;stroke-dasharray:none;stroke-dashoffset:0"
         d="M 95.304851,98.691418 C 79.693747,97.305919 66.570975,94.012523 58.685669,89.501177 c -3.474527,-1.987849 -6.98773,-5.295686 -8.129513,-7.654298 -1.221764,-2.523826 -1.308693,-6.443514 -0.181065,-8.164491 0.750795,-1.145858 0.750795,-1.25425 0,-1.803244 -0.505741,-0.369806 -0.798809,-1.234811 -0.798809,-2.357713 0,-1.52309 0.09988,-1.690714 0.707141,-1.186733 0.38893,0.322781 0.707144,0.970891 0.707144,1.440241 0,0.46935 0.459052,0.999061 1.020117,1.177136 0.561065,0.178076 1.993029,1.016045 3.182144,1.862154 2.661316,1.893649 5.789652,3.455339 10.412023,5.197766 1.944645,0.733044 3.77394,1.617075 4.065103,1.964515 0.291164,0.34744 0.83061,0.51612 1.198767,0.374846 0.368157,-0.141277 3.099932,0.259138 6.070613,0.889812 10.107218,2.145755 13.20552,2.414958 27.794086,2.414958 14.62533,0 19.29499,-0.430154 28.90268,-2.662425 2.28397,-0.530662 4.4054,-1.003242 4.71429,-1.050179 0.30888,-0.04694 0.77375,-0.210233 1.03303,-0.362881 0.25929,-0.152652 1.63822,-0.657712 3.06429,-1.12236 4.21957,-1.374836 8.42629,-3.409146 11.51583,-5.568889 2.88122,-2.01412 2.90051,-2.019647 3.66381,-1.050449 0.63678,0.808545 0.87455,0.868365 1.39742,0.351578 0.52508,-0.518964 0.4637,-0.758841 -0.36826,-1.439346 l -0.99834,-0.816597 1.1162,-1.297657 1.1162,-1.297657 v 3.062751 c 0,1.684514 -0.20404,3.188853 -0.45342,3.342978 -0.29027,0.179396 -0.29027,0.709338 0,1.472798 2.31454,6.087716 -3.26717,12.541647 -14.86801,17.191315 -5.14066,2.060398 -14.80898,4.432208 -21.92143,5.377709 -5.59285,0.743493 -22.759096,1.311413 -27.342859,0.904603 z m 4.714289,-7.963863 c 0,-0.44 -0.445239,-0.707144 -1.178574,-0.707144 -0.733336,0 -1.178571,0.267144 -1.178571,0.707144 0,0.439999 0.445235,0.707144 1.178571,0.707144 0.733335,0 1.178574,-0.267145 1.178574,-0.707144 z m 4.24285,-0.03131 c 0,-0.523343 -0.36705,-0.695002 -1.26007,-0.589285 -1.83533,0.217271 -1.99717,1.327743 -0.1935,1.327743 1.00517,0 1.45357,-0.227801 1.45357,-0.738458 z m 3.77143,0.03131 c 0,-0.44 -0.44523,-0.707144 -1.17857,-0.707144 -0.73333,0 -1.17857,0.267144 -1.17857,0.707144 0,0.439999 0.44524,0.707144 1.17857,0.707144 0.73334,0 1.17857,-0.267145 1.17857,-0.707144 z m 4.24286,0 c 0,-0.47143 -0.47143,-0.707144 -1.41429,-0.707144 -0.94285,0 -1.41428,0.235714 -1.41428,0.707144 0,0.471429 0.47143,0.707144 1.41428,0.707144 0.94286,0 1.41429,-0.235715 1.41429,-0.707144 z m -16.02857,-0.47143 c 0,-0.431569 -0.439637,-0.707141 -1.128133,-0.707141 -0.620475,0 -1.250247,0.318215 -1.399493,0.707141 -0.203649,0.530707 0.07783,0.707144 1.128136,0.707144 0.929706,0 1.39949,-0.237376 1.39949,-0.707144 z m 19.8,0 c 0,-0.439999 -0.44524,-0.707141 -1.17857,-0.707141 -0.73334,0 -1.17857,0.267142 -1.17857,0.707141 0,0.44 0.44523,0.707144 1.17857,0.707144 0.73333,0 1.17857,-0.267144 1.17857,-0.707144 z M 92.004851,89.784699 c 0,-0.440002 -0.445238,-0.707144 -1.17857,-0.707144 -0.733335,0 -1.178571,0.267142 -1.178571,0.707144 0,0.439999 0.445236,0.707141 1.178571,0.707141 0.733332,0 1.17857,-0.267142 1.17857,-0.707141 z m 28.285719,0.509984 c 0,-0.983694 -0.6746,-1.518973 -1.67362,-1.327996 -1.67765,0.320701 -1.47284,1.525153 0.25933,1.525153 0.77786,0 1.41429,-0.08872 1.41429,-0.197157 z M 88.233422,89.363707 c 0,-0.617694 -0.95714,-1.229008 -1.924269,-1.229008 -0.650081,0 -0.520832,1.300221 0.156414,1.573496 1.10069,0.444137 1.767855,0.314131 1.767855,-0.344488 z M 124.062,88.786884 c 0,-0.368957 -0.47771,-0.652185 -1.1,-0.652185 -1.30936,0 -1.7454,0.350464 -1.43676,1.154771 0.30187,0.786673 2.53676,0.343895 2.53676,-0.502586 z M 84.372249,88.252555 c -0.09875,-0.512752 -0.587636,-0.825 -1.291711,-0.825 -1.358599,0 -1.853391,1.0076 -0.648203,1.320009 1.671503,0.433287 2.097741,0.324522 1.939914,-0.495009 z m 43.298491,-0.373904 c 0.37231,-0.970219 0.0936,-1.175181 -1.15433,-0.848844 -0.57207,0.149601 -1.04013,0.565473 -1.04013,0.92416 0,0.891683 1.84773,0.828268 2.19446,-0.07532 z M 80.690567,86.987894 c 0,-0.792646 -1.634003,-1.42155 -2.424343,-0.933095 -0.382193,0.236209 -0.285271,0.529532 0.321602,0.973288 1.132646,0.828212 2.102741,0.80967 2.102741,-0.04019 z m 50.189063,0.03975 c 0.47809,-0.349594 0.73057,-0.860033 0.56106,-1.134313 -0.48708,-0.78811 -2.19298,-0.101958 -2.19298,0.882062 0,1.050507 0.44596,1.119442 1.63192,0.252249 z M 76.919138,85.356563 c 0,-0.817898 -0.84976,-1.464722 -1.924272,-1.464722 -0.723186,0 -0.484468,1.03546 0.392128,1.700892 1.141307,0.866373 1.532144,0.80613 1.532144,-0.23617 z M 134.51731,85.14614 c 1.17984,-0.897032 0.3554,-1.994 -0.96679,-1.286385 -1.02827,0.550312 -1.24259,1.049448 -0.68852,1.603515 0.43595,0.435951 0.74192,0.37733 1.65531,-0.31713 z M 73.323758,81.940197 c -0.609016,-0.672954 -0.939303,-0.750181 -1.438072,-0.33624 -0.544017,0.451493 -0.521147,0.676952 0.143119,1.410957 0.609015,0.672954 0.939302,0.750181 1.438071,0.336237 0.544015,-0.451493 0.521147,-0.676949 -0.143118,-1.410954 z m 64.315382,0.914501 c 0.7641,-0.764101 0.7161,-1.791428 -0.0837,-1.791428 -0.8701,0 -1.86504,1.249773 -1.48477,1.865061 0.39818,0.644279 0.87285,0.621993 1.56848,-0.07363 z"
         id="path13741" />
      <path
         style="fill:#721c24;stroke:#721c24;stroke-width:1.78178;stroke-miterlimit:4;stroke-dasharray:none;stroke-dashoffset:0"
         d="m 127.36199,67.136543 c -4.6916,-1.637244 -11.07818,-2.808015 -18.03214,-3.305606 l -4.125,-0.295164 v -3.25768 c 0,-2.943394 0.091,-3.257682 0.94286,-3.257682 0.52381,0 0.94286,-0.314285 0.94286,-0.707141 0,-0.392856 -0.41905,-0.707144 -0.94286,-0.707144 -0.84615,0 -0.94286,-0.314285 -0.94286,-3.064285 v -3.064285 l 3.18214,0.0028 c 10.05151,0.0088 22.5327,3.557302 27.2297,7.741663 1.68519,1.50127 1.79513,1.727684 1.05602,2.174782 -1.15048,0.695939 -1.02902,1.241642 0.35357,1.588651 1.42848,0.358527 1.50316,1.389703 0.24955,3.445725 -0.84958,1.393375 -4.48976,4.446603 -5.15243,4.32163 -0.15556,-0.02934 -2.29819,-0.75665 -4.76141,-1.616245 z m 7.24822,-8.325765 c -0.12784,-0.206844 -0.75027,-0.376079 -1.38318,-0.376079 -1.46363,0 -1.54078,1.29078 -0.09,1.506249 1.08514,0.161166 1.8898,-0.456128 1.47322,-1.13017 z m -4.03632,-0.258223 c -0.19768,-1.037164 -2.26904,-1.425726 -2.26904,-0.425646 0,0.385355 0.26518,0.807649 0.58929,0.938427 1.20209,0.485055 1.83321,0.292391 1.67975,-0.512781 z m -3.68332,-0.825 c 0,-0.43157 -0.43964,-0.707144 -1.12814,-0.707144 -0.62047,0 -1.25024,0.318214 -1.39949,0.707144 -0.20365,0.530707 0.0778,0.707144 1.12814,0.707144 0.9297,0 1.39949,-0.237376 1.39949,-0.707144 z m -4.24286,-0.471429 c 0,-0.44 -0.44524,-0.707142 -1.17857,-0.707142 -0.73334,0 -1.17857,0.267142 -1.17857,0.707142 0,0.440002 0.44523,0.707144 1.17857,0.707144 0.73333,0 1.17857,-0.267142 1.17857,-0.707144 z m -3.77143,-0.471427 c 0,-0.440002 -0.44524,-0.707144 -1.17857,-0.707144 -0.73333,0 -1.17857,0.267142 -1.17857,0.707144 0,0.44 0.44524,0.707141 1.17857,0.707141 0.73333,0 1.17857,-0.267141 1.17857,-0.707141 z m -8.01429,-0.471429 c 0,-0.44 -0.44523,-0.707144 -1.17857,-0.707144 -0.73333,0 -1.17857,0.267144 -1.17857,0.707144 0,0.439999 0.44524,0.707141 1.17857,0.707141 0.73334,0 1.17857,-0.267142 1.17857,-0.707141 z m 4.12794,-0.117859 c 0.12669,-0.385852 -0.30831,-0.589285 -1.26008,-0.589285 -1.00517,0 -1.45357,0.227801 -1.45357,0.738457 0,0.898374 2.41323,0.765718 2.71365,-0.149172 z"
         id="path14008" />
      <path
         style="fill:#721c24;stroke:#721c24;stroke-width:1.78178;stroke-miterlimit:4;stroke-dasharray:none;stroke-dashoffset:0"
         d="m 74.561994,67.222959 c -1.973408,-1.450962 -2.807319,-2.572063 -3.488282,-4.689613 -0.701601,-2.181728 2.355884,-5.862743 6.687828,-8.051707 5.318432,-2.687445 15.923397,-5.004083 22.90739,-5.004083 h 3.12164 v 7.022361 7.022362 l -3.88929,0.307607 c -8.620749,0.681824 -15.955333,2.13277 -20.389619,4.033526 -1.209593,0.518493 -2.340782,0.937455 -2.513748,0.931026 -0.172969,-0.0064 -1.269133,-0.713594 -2.435919,-1.571479 z m 0.03856,-6.902546 c 0.23808,0 0.432872,-0.318214 0.432872,-0.707143 0,-0.44 -0.445239,-0.707144 -1.178571,-0.707144 -0.884235,0 -1.178573,0.248068 -1.178573,0.993296 0,0.71207 0.211124,0.912278 0.745702,0.707144 0.410133,-0.157385 0.94049,-0.286153 1.17857,-0.286153 z m 4.538517,-1.59087 c -0.239784,-0.720244 -1.737963,-0.965383 -2.323214,-0.380132 -0.261011,0.261008 -0.349612,0.67674 -0.196892,0.923845 0.383627,0.620723 2.738617,0.112636 2.520106,-0.543713 z m 3.74596,-0.550892 c 0.153538,-0.400111 0.162867,-0.843767 0.02074,-0.985901 -0.469051,-0.469048 -2.215198,0.349165 -2.215198,1.038003 0,0.90859 1.842598,0.864843 2.194462,-0.0521 z m 3.501237,-0.215381 c 0.23808,0 0.432871,-0.332971 0.432871,-0.739931 0,-1.075518 -2.069018,-0.662903 -2.282282,0.455144 -0.128495,0.673634 0.02498,0.818785 0.623025,0.589288 0.436432,-0.167476 0.988308,-0.304501 1.226386,-0.304501 z m 4.67573,-1.23353 c 0,-0.377174 -0.485246,-0.652185 -1.15075,-0.652185 -1.200658,0 -1.914028,0.650703 -1.481183,1.351063 0.390062,0.631132 2.631933,0.03583 2.631933,-0.698878 z m 3.608749,0.03463 c 0.153536,-0.400111 0.162865,-0.843767 0.02074,-0.985901 -0.469051,-0.469048 -2.215198,0.349165 -2.215198,1.038003 0,0.908589 1.842598,0.864843 2.194465,-0.0521 z m 4.405533,-0.4511 c 0,-0.471429 -0.471429,-0.707144 -1.414285,-0.707144 -0.942856,0 -1.414285,0.235715 -1.414285,0.707144 0,0.471429 0.471429,0.707141 1.414285,0.707141 0.942856,0 1.414285,-0.235712 1.414285,-0.707141 z m 3.77143,0 c 0,-0.44 -0.44524,-0.707144 -1.17857,-0.707144 -0.73334,0 -1.17857,0.267144 -1.17857,0.707144 0,0.439999 0.44523,0.707141 1.17857,0.707141 0.73333,0 1.17857,-0.267142 1.17857,-0.707141 z"
         id="path14047" />
    </g>
    <g
       inkscape:groupmode="layer"
       id="layer7"
       inkscape:label="Lines">
      <path
         style="fill:none;stroke:#ffffff;stroke-width:1.3;stroke-linecap:butt;stroke-linejoin:miter;stroke-miterlimit:4;stroke-dasharray:none;stroke-opacity:1;marker-start:url(#marker16529)"
         d="M 148.28133,69.751958 H 103.30218"
         id="path15710" />
    </g>
    <g
       inkscape:groupmode="layer"
       id="layer2"
       inkscape:label="InnerCircle">
      <ellipse
         style="fill:none;stroke:#b2b2b2;stroke-width:0.6;stroke-miterlimit:4;stroke-dasharray:1.2, 1.2;stroke-dashoffset:0"
         id="path11240-3"
         ry="13.229166"
         rx="34.395832"
         cy="77.689453"
         cx="104.62508" />
      <path
         style="fill:none;stroke:#b2b2b2;stroke-width:0.6;stroke-linecap:butt;stroke-linejoin:miter;stroke-miterlimit:4;stroke-dasharray:1.2, 1.2;stroke-dashoffset:0;stroke-opacity:1"
         d="m 139.02091,77.689458 1e-5,-15.87499"
         id="path12712" />
      <path
         style="fill:none;stroke:#b2b2b2;stroke-width:0.6;stroke-linecap:butt;stroke-linejoin:miter;stroke-miterlimit:4;stroke-dasharray:1.2, 1.2;stroke-dashoffset:0;stroke-opacity:1"
         d="m 70.22925,77.689458 7e-6,-15.87499"
         id="path12714" />
      <ellipse
         style="fill:none;stroke:#b2b2b2;stroke-width:0.6;stroke-miterlimit:4;stroke-dasharray:none"
         id="path11240"
         cx="104.62508"
         cy="61.814472"
         rx="34.395832"
         ry="13.229166" />
    </g>
    <g
       inkscape:groupmode="layer"
       id="layer3"
       inkscape:label="OuterCircle"
       style="display:inline">
      <ellipse
         style="fill:none;stroke:#b2b2b2;stroke-width:0.6;stroke-miterlimit:4;stroke-dasharray:none"
         id="path11240-5"
         cx="104.62479"
         cy="61.776325"
         rx="56.289658"
         ry="21.649868"
         inkscape:label="path11240-5" />
      <path
         style="fill:none;stroke:#b2b2b2;stroke-width:0.6;stroke-miterlimit:4;stroke-dasharray:1.2, 1.2;stroke-dashoffset:0"
         id="path11240-5-6"
         sodipodi:type="arc"
         sodipodi:cx="104.62479"
         sodipodi:cy="77.725525"
         sodipodi:rx="56.289658"
         sodipodi:ry="21.649868"
         sodipodi:start="3.1415927"
         sodipodi:end="0"
         sodipodi:arc-type="arc"
         d="M 48.335129,77.725525 A 56.289658,21.649868 0 0 1 104.62479,56.075657 56.289658,21.649868 0 0 1 160.91444,77.725525"
         sodipodi:open="true" />
      <path
         style="fill:none;stroke:#b2b2b2;stroke-width:0.6;stroke-miterlimit:4;stroke-dasharray:none;stroke-dashoffset:0"
         id="path11240-5-6-2"
         sodipodi:type="arc"
         sodipodi:cx="104.74551"
         sodipodi:cy="78.168793"
         sodipodi:rx="56.289658"
         sodipodi:ry="21.649868"
         sodipodi:start="0"
         sodipodi:end="3.1415927"
         sodipodi:arc-type="arc"
         d="M 161.03516,78.168793 A 56.289658,21.649868 0 0 1 132.89033,96.918129 56.289658,21.649868 0 0 1 76.600676,96.918128 56.289658,21.649868 0 0 1 48.455849,78.168793"
         sodipodi:open="true" />
      <path
         style="fill:none;stroke:#b2b2b2;stroke-width:0.6;stroke-linecap:butt;stroke-linejoin:miter;stroke-miterlimit:4;stroke-dasharray:none;stroke-opacity:1"
         d="M 48.455843,78.168798 48.335141,61.776318"
         id="path13424" />
      <path
         style="fill:none;stroke:#b2b2b2;stroke-width:0.6;stroke-linecap:butt;stroke-linejoin:miter;stroke-miterlimit:4;stroke-dasharray:none;stroke-opacity:1"
         d="m 161.03516,78.168798 -0.12071,-16.39248"
         id="path13426" />
    </g>
    <g
       inkscape:label="Atoms"
       inkscape:groupmode="layer"
       id="layer1">
      <path
         style="fill:none;stroke:#ffffff;stroke-width:1.3;stroke-linecap:butt;stroke-linejoin:miter;stroke-miterlimit:4;stroke-dasharray:none;stroke-opacity:1;marker-end:url(#TriangleOutM)"
         d="M 104.62509,67.106128 V 15.563822"
         id="path1002" />
      <circle
         style="fill:#0d6efd;stroke:#0d6efd;stroke-width:1.60627;stroke-miterlimit:4;stroke-dasharray:none"
         id="path1302"
         cx="104.62509"
         cy="-69.751953"
         r="4.2499118"
         transform="scale(1,-1)" />
    </g>
    <g
       inkscape:groupmode="layer"
       id="layer8"
       inkscape:label="LinesAbove">
      <path
         style="fill:none;stroke:#ffffff;stroke-width:1.3;stroke-linecap:butt;stroke-linejoin:miter;stroke-miterlimit:5.2;stroke-dasharray:none;stroke-opacity:1;marker-start:url(#StopL);marker-end:url(#marker16529)"
         d="m 48.33514,60.717978 21.894115,0.0382"
         id="path16398" />
      <path
         style="display:inline;fill:none;stroke:#ffffff;stroke-width:1.3;stroke-linecap:butt;stroke-linejoin:miter;stroke-miterlimit:4;stroke-dasharray:none;stroke-opacity:1;marker-start:url(#marker16529);marker-end:url(#marker16529)"
         d="m 40.518337,78.168798 -0.1207,-16.39248"
         id="path13424-9" />
    </g>
    <g
       inkscape:groupmode="layer"
       id="layer5"
       inkscape:label="Labels">
      <g
         inkscape:label=""
         transform="translate(34.94501,58.257188)"
         id="g16717"
         style="fill:#ffffff">
        <g
           id="g4416"
           transform="translate(-73.356382,-82.045404)"
           style="fill:#ffffff">
          <g
             style="fill:#ffffff;fill-opacity:1"
             id="g7070">
            <use
               xlink:href="#symbol1334"
               x="91.925003"
               y="81.962997"
               id="use7876"
               width="100%"
               height="100%"
               style="fill:#ffffff" />
          </g>
          <g
             style="fill:#ffffff;fill-opacity:1"
             id="g9565">
            <use
               xlink:href="#symbol7150"
               x="100.227"
               y="81.962997"
               id="use6212"
               width="100%"
               height="100%"
               style="fill:#ffffff" />
          </g>
        </g>
      </g>
      <g
         inkscape:label=""
         transform="translate(11.090713,-8.9688485)"
         id="g15365"
         style="fill:#e5e5e5;stroke:#ffffff">
        <g
           id="g7826"
           style="fill:#e5e5e5;stroke:#ffffff">
          <g
             style="fill:#e5e5e5;fill-opacity:1;stroke:#ffffff"
             id="g2323">
            <use
               xlink:href="#symbol9247"
               x="91.925003"
               y="81.962997"
               id="use7882"
               width="100%"
               height="100%"
               style="fill:#e5e5e5;stroke:#ffffff" />
          </g>
        </g>
      </g>
      <g
         inkscape:label=""
         transform="translate(75.937694,-8.4073349)"
         id="g14713"
         style="fill:#f2b6bc">
        <g
           id="g6941"
           style="fill:#f2b6bc">
          <g
             style="fill:#f2b6bc;fill-opacity:1"
             id="g2881">
            <use
               xlink:href="#symbol9853"
               x="91.925003"
               y="81.962997"
               id="use4672"
               width="100%"
               height="100%"
               style="fill:#f2b6bc" />
          </g>
          <g
             style="fill:#f2b6bc;fill-opacity:1"
             id="g3524">
            <use
               xlink:href="#symbol5864"
               x="100.227"
               y="81.962997"
               id="use460"
               width="100%"
               height="100%"
               style="fill:#f2b6bc" />
          </g>
          <g
             style="fill:#f2b6bc;fill-opacity:1"
             id="g6014">
            <use
               xlink:href="#symbol1240"
               x="106.039"
               y="83.457001"
               id="use5407"
               width="100%"
               height="100%"
               style="fill:#f2b6bc" />
          </g>
          <g
             style="fill:#f2b6bc;fill-opacity:1"
             id="g5600">
            <use
               xlink:href="#symbol9343"
               x="109.356"
               y="81.962997"
               id="use4052"
               width="100%"
               height="100%"
               style="fill:#f2b6bc" />
          </g>
          <g
             style="fill:#f2b6bc;fill-opacity:1"
             id="g6792">
            <use
               xlink:href="#symbol1551"
               x="113.23"
               y="81.962997"
               id="use6411"
               width="100%"
               height="100%"
               style="fill:#f2b6bc" />
          </g>
          <g
             style="fill:#f2b6bc;fill-opacity:1"
             id="g2388">
            <use
               xlink:href="#symbol2541"
               x="118.002"
               y="81.962997"
               id="use6210"
               width="100%"
               height="100%"
               style="fill:#f2b6bc" />
          </g>
        </g>
      </g>
      <g
         inkscape:label=""
         transform="translate(15.096245,-59.86035)"
         id="g15085"
         style="fill:#ffffff">
        <g
           id="g7901"
           style="fill:#ffffff">
          <g
             style="fill:#ffffff;fill-opacity:1"
             id="g9272">
            <use
               xlink:href="#symbol1878"
               x="91.925003"
               y="81.962997"
               id="use8632"
               width="100%"
               height="100%"
               style="fill:#ffffff" />
          </g>
        </g>
      </g>
      <g
         inkscape:label=""
         transform="translate(32.911558,-13.144306)"
         id="g16105"
         style="fill:#ffffff">
        <g
           id="g2630"
           style="fill:#ffffff">
          <g
             style="fill:#ffffff;fill-opacity:1"
             id="g2780">
            <use
               xlink:href="#symbol1547"
               x="91.925003"
               y="81.962997"
               id="use1850"
               width="100%"
               height="100%"
               style="fill:#ffffff" />
          </g>
        </g>
      </g>
      <g
         inkscape:label=""
         transform="translate(-79.145395,51.811644)"
         id="g17421" />
      <g
         inkscape:label=""
         transform="translate(97.043219,27.306109)"
         id="g17804"
         style="fill:#ffffff">
        <g
           inkscape:label=""
           transform="translate(-179.32022,-35.618918)"
           id="g18265"
           style="fill:#ffffff">
          <g
             id="g9177"
             style="fill:#ffffff">
            <g
               style="fill:#ffffff;fill-opacity:1"
               id="g8557">
              <use
                 xlink:href="#symbol8332"
                 x="91.925003"
                 y="81.962997"
                 id="use4866"
                 width="100%"
                 height="100%"
                 style="fill:#ffffff" />
            </g>
            <g
               style="fill:#ffffff;fill-opacity:1"
               id="g3674">
              <use
                 xlink:href="#symbol9814"
                 x="99.120003"
                 y="81.962997"
                 id="use3359"
                 width="100%"
                 height="100%"
                 style="fill:#ffffff" />
            </g>
            <g
               style="fill:#ffffff;fill-opacity:1"
               id="g7361">
              <use
                 xlink:href="#symbol9002"
                 x="104.102"
                 y="81.962997"
                 id="use8734"
                 width="100%"
                 height="100%"
                 style="fill:#ffffff" />
            </g>
            <g
               style="fill:#ffffff;fill-opacity:1"
               id="g7151">
              <use
                 xlink:href="#symbol9968"
                 x="112.404"
                 y="81.962997"
                 id="use3122"
                 width="100%"
                 height="100%"
                 style="fill:#ffffff" />
            </g>
          </g>
        </g>
      </g>
    </g>
  </g>
</svg>
