<svg width="570.0" height="320.0" viewBox="50 30 490 320" xmlns="http://www.w3.org/2000/svg" xmlns:xlink="http://www.w3.org/1999/xlink">
    <line x1="50.0" y1="50.0" x2="550.0" y2="50.0" stroke="lightgray" stroke-width="1.0" />
    <line x1="50.0" y1="100.0" x2="550.0" y2="100.0" stroke="lightgray" stroke-width="1.0" />
    <line x1="50.0" y1="150.0" x2="550.0" y2="150.0" stroke="lightgray" stroke-width="1.0" />
    <line x1="50.0" y1="200.0" x2="550.0" y2="200.0" stroke="lightgray" stroke-width="1.0" />
    <line x1="50.0" y1="250.0" x2="550.0" y2="250.0" stroke="lightgray" stroke-width="1.0" />
    <line x1="100.0" y1="30.0" x2="100.0" y2="270.0" stroke="lightgray" stroke-width="1.0" />
    <line x1="200.0" y1="30.0" x2="200.0" y2="270.0" stroke="lightgray" stroke-width="1.0" />
    <line x1="300.0" y1="30.0" x2="300.0" y2="270.0" stroke="lightgray" stroke-width="1.0" />
    <line x1="400.0" y1="30.0" x2="400.0" y2="270.0" stroke="lightgray" stroke-width="1.0" />
    <line x1="500.0" y1="30.0" x2="500.0" y2="270.0" stroke="lightgray" stroke-width="1.0" />
    <line x1="80.0" y1="80.0" x2="180.0" y2="180.0" stroke="red" stroke-width="3.0" />
    <line x1="180.0" y1="80.0" x2="80.0" y2="180.0" stroke="blue" stroke-width="3.0" />
    <line x1="220.0" y1="80.0" x2="380.0" y2="120.0" stroke="green" stroke-width="4.0" stroke-dasharray="15.0,8.0" />
    <line x1="220.0" y1="140.0" x2="380.0" y2="180.0" stroke="purple" stroke-width="3.0" stroke-dasharray="3.0,5.0" />
    <line x1="420.0" y1="80.0" x2="520.0" y2="180.0" stroke="orange" stroke-width="8.0" stroke-linecap="round" />
    <line x1="520.0" y1="80.0" x2="420.0" y2="180.0" stroke="cyan" stroke-width="6.0" stroke-opacity="0.6" />
    <line x1="100.0" y1="320.0" x2="200.0" y2="320.0" stroke="darkred" stroke-width="4.0" />
    <line x1="200.0" y1="320.0" x2="185.0" y2="310.0" stroke="darkred" stroke-width="4.0" />
    <line x1="200.0" y1="320.0" x2="185.0" y2="330.0" stroke="darkred" stroke-width="4.0" />
    <line x1="250.0" y1="320.0" x2="270.0" y2="310.0" stroke="navy" stroke-width="3.0" />
    <line x1="270.0" y1="310.0" x2="290.0" y2="330.0" stroke="navy" stroke-width="3.0" />
    <line x1="290.0" y1="330.0" x2="310.0" y2="310.0" stroke="navy" stroke-width="3.0" />
    <line x1="310.0" y1="310.0" x2="330.0" y2="330.0" stroke="navy" stroke-width="3.0" />
    <line x1="330.0" y1="330.0" x2="350.0" y2="320.0" stroke="navy" stroke-width="3.0" />
    <line x1="0.0" y1="0.0" x2="80.0" y2="0.0" stroke="gold" stroke-width="3.0" transform="translate(410.0,320.0) rotate(15,40.0,0.0)" />
    <line x1="0.0" y1="0.0" x2="80.0" y2="0.0" stroke="gold" stroke-width="3.0" transform="translate(410.0,320.0) rotate(45,40.0,0.0)" />
    <line x1="0.0" y1="0.0" x2="80.0" y2="0.0" stroke="gold" stroke-width="3.0" transform="translate(410.0,320.0) rotate(75,40.0,0.0)" />
</svg>
