<?xml version="1.0" encoding="UTF-8"?>
<!-- Generator: visioncortex VTracer 0.6.4 -->
<svg version="1.1" xmlns="http://www.w3.org/2000/svg" width="1024" height="1024">
<path d="M0 0 C337.92 0 675.84 0 1024 0 C1024 337.92 1024 675.84 1024 1024 C686.08 1024 348.16 1024 0 1024 C0 686.08 0 348.16 0 0 Z " fill="#F6FCFE" transform="translate(0,0)"/>
<path d="M0 0 C0.89 0 1.77 0 2.68 0.01 C3.69 0.01 4.69 0.01 5.72 0.01 C6.81 0.01 7.9 0.02 9.02 0.02 C10.68 0.02 10.68 0.02 12.38 0.03 C15.93 0.03 19.49 0.05 23.04 0.06 C25.45 0.06 27.85 0.07 30.26 0.07 C36.17 0.08 42.07 0.1 47.98 0.12 C49.28 3.77 50.24 7.11 50.59 10.98 C50.68 11.85 50.78 12.71 50.88 13.61 C51.07 15.42 51.25 17.23 51.4 19.04 C51.7 21.57 52.04 23.75 52.98 26.12 C55.61 27.75 57.11 28.38 59.98 29.12 C61.3 29.62 62.61 30.13 63.92 30.66 C65.27 31.17 66.63 31.68 67.98 32.18 C68.65 32.44 69.33 32.69 70.02 32.96 C74.3 34.56 78.57 35.92 82.98 37.12 C84.09 36 84.09 36 85.21 34.85 C86.2 33.86 87.18 32.86 88.17 31.87 C88.89 31.13 88.89 31.13 89.63 30.38 C91.06 28.94 92.52 27.53 93.98 26.12 C94.8 25.32 95.62 24.52 96.47 23.7 C98.98 22.12 98.98 22.12 101.84 22 C106.15 23.54 108.9 26.05 112.23 29.12 C112.89 29.71 113.55 30.3 114.22 30.9 C116.15 32.63 118.07 34.37 119.98 36.12 C121.79 37.75 123.61 39.37 125.42 41 C126.58 42.05 126.58 42.05 127.76 43.12 C130.57 45.65 133.43 48.14 136.29 50.61 C136.85 51.11 137.41 51.61 137.98 52.12 C138.87 52.8 138.87 52.8 139.77 53.5 C140.98 55.12 140.98 55.12 140.73 57.48 C139.94 60.26 139.01 61.8 137.22 64.05 C136.68 64.76 136.14 65.48 135.58 66.21 C134.43 67.69 133.28 69.16 132.11 70.62 C128.48 75.41 128.48 75.41 127.93 81.21 C128.8 85.12 130.27 88.76 131.86 92.43 C134.44 98.56 136.4 104.66 137.98 111.12 C138.61 111.11 139.24 111.1 139.89 111.09 C142.77 111.05 145.66 111.02 148.54 111 C149.53 110.98 150.53 110.96 151.55 110.94 C157.08 110.91 161.8 111.09 166.98 113.12 C168.21 115.59 168.12 117.22 168.13 119.98 C168.14 121.5 168.14 121.5 168.15 123.05 C168.15 124.69 168.15 124.69 168.15 126.37 C168.15 127.49 168.16 128.61 168.16 129.77 C168.16 132.14 168.17 134.52 168.17 136.9 C168.17 140.54 168.19 144.18 168.21 147.83 C168.21 150.13 168.21 152.44 168.21 154.74 C168.22 155.84 168.23 156.93 168.23 158.06 C168.23 159.07 168.23 160.08 168.22 161.13 C168.23 162.02 168.23 162.92 168.23 163.84 C167.98 166.12 167.98 166.12 165.98 169.12 C163.49 169.83 163.49 169.83 160.39 170.29 C158.72 170.54 158.72 170.54 157.02 170.81 C155.27 171.05 155.27 171.05 153.48 171.31 C152.31 171.49 151.15 171.66 149.95 171.84 C141.45 173.12 141.45 173.12 138.98 173.12 C138.65 174.31 138.65 174.31 138.31 175.52 C136.26 181.07 133.27 186.09 130.35 191.22 C129.91 192.03 129.46 192.85 129 193.69 C128.59 194.42 128.18 195.15 127.75 195.9 C126.47 199.57 127.52 202.13 129.12 205.55 C129.58 206.38 130.04 207.21 130.52 208.06 C131.02 208.97 131.52 209.89 132.03 210.83 C133.08 212.74 134.14 214.64 135.21 216.55 C135.7 217.46 136.2 218.37 136.71 219.31 C137.17 220.14 137.63 220.97 138.1 221.82 C139.11 224.46 139.01 225.53 137.98 228.12 C136.74 229.84 136.74 229.84 135.11 231.62 C134.48 232.31 133.85 233 133.21 233.71 C132.47 234.51 131.74 235.3 130.98 236.12 C130.1 237.09 129.22 238.06 128.32 239.06 C125.56 242.1 122.78 245.11 119.98 248.12 C119.34 248.82 118.7 249.52 118.04 250.23 C114 254.47 109.43 258.83 103.98 261.12 C98.56 261.05 96.09 258.87 92.29 255.18 C89.57 252.56 87.13 250.22 83.98 248.12 C77.67 248.4 72.07 250.73 66.23 253 C65.29 253.35 64.34 253.7 63.37 254.06 C62.46 254.41 61.56 254.76 60.62 255.11 C59.8 255.43 58.98 255.74 58.14 256.06 C55.83 257.19 54.53 258.07 52.98 260.12 C52.26 262.47 52.26 262.47 51.92 265.12 C51.76 266.09 51.6 267.06 51.44 268.06 C51.29 269.07 51.14 270.08 50.98 271.12 C50.68 273.12 50.37 275.12 50.04 277.12 C49.91 278.01 49.78 278.89 49.64 279.81 C48.88 282.49 48.14 283.38 45.98 285.12 C44.04 285.54 44.04 285.54 41.8 285.6 C40.55 285.64 40.55 285.64 39.27 285.69 C37.91 285.71 37.91 285.71 36.53 285.74 C35.59 285.76 34.66 285.79 33.7 285.81 C31.72 285.86 29.75 285.9 27.77 285.94 C24.76 285.99 21.75 286.08 18.74 286.17 C16.81 286.22 14.89 286.26 12.97 286.3 C11.62 286.34 11.62 286.34 10.25 286.38 C4.74 286.45 0.78 285.96 -4.02 283.12 C-5.06 281.15 -5.06 281.15 -5.29 278.92 C-5.39 278.1 -5.5 277.29 -5.6 276.44 C-5.68 275.59 -5.75 274.75 -5.83 273.87 C-6.11 271.38 -6.41 268.9 -6.73 266.41 C-6.99 264.37 -7.22 262.33 -7.45 260.28 C-9.59 255.97 -12.01 255.34 -16.41 253.76 C-17.38 253.45 -18.34 253.13 -19.33 252.81 C-20.76 252.31 -20.76 252.31 -22.21 251.8 C-23.99 251.18 -25.77 250.57 -27.55 249.97 C-29.28 249.37 -30.99 248.71 -32.67 248.01 C-35.63 246.89 -37.05 247.07 -40.02 248.12 C-42.08 249.77 -42.08 249.77 -43.89 251.87 C-52.28 260.65 -52.28 260.65 -57.39 261.53 C-61.12 260.95 -62.65 259.16 -65.33 256.56 C-66.3 255.63 -67.28 254.7 -68.25 253.78 C-69.16 252.9 -70.08 252.02 -71.02 251.12 C-72.38 249.92 -73.76 248.73 -75.14 247.56 C-79.66 243.63 -83.86 239.42 -88.02 235.12 C-88.87 234.28 -88.87 234.28 -89.73 233.42 C-91.14 231.93 -91.14 231.93 -93.02 229.12 C-92.81 223.89 -90.54 220.31 -87.64 216.12 C-82.23 208.99 -82.23 208.99 -80.1 200.73 C-81.37 197.12 -83.02 193.77 -84.77 190.37 C-85.1 189.71 -85.44 189.04 -85.78 188.35 C-86.48 186.99 -87.19 185.62 -87.92 184.27 C-89.02 182.12 -89.02 182.12 -89.97 179.68 C-91.6 175.9 -92.71 173.64 -96.65 172.07 C-99.86 171.41 -103.01 171 -106.27 170.68 C-108.46 170.42 -110.65 170.15 -112.85 169.87 C-114.3 169.72 -114.3 169.72 -115.78 169.57 C-116.52 169.42 -117.26 169.27 -118.02 169.12 C-119.29 166.58 -119.15 164.8 -119.15 161.95 C-119.15 160.87 -119.15 159.8 -119.16 158.69 C-119.16 157.52 -119.15 156.35 -119.15 155.15 C-119.15 153.95 -119.15 152.76 -119.15 151.53 C-119.15 149.01 -119.15 146.48 -119.15 143.95 C-119.14 140.07 -119.15 136.19 -119.16 132.31 C-119.15 129.86 -119.15 127.41 -119.15 124.96 C-119.15 123.79 -119.16 122.62 -119.16 121.42 C-119.15 120.34 -119.15 119.27 -119.15 118.16 C-119.15 117.21 -119.15 116.26 -119.15 115.28 C-119.02 113.12 -119.02 113.12 -118.02 112.12 C-116.17 111.96 -114.31 111.87 -112.45 111.8 C-111.33 111.76 -110.2 111.72 -109.04 111.68 C-107.86 111.64 -106.68 111.6 -105.46 111.56 C-104.27 111.51 -103.08 111.47 -101.86 111.43 C-98.91 111.32 -95.96 111.22 -93.02 111.12 C-92.76 110.39 -92.5 109.67 -92.24 108.92 C-91.07 105.61 -89.89 102.3 -88.71 99 C-88.3 97.85 -87.9 96.71 -87.48 95.53 C-86.89 93.87 -86.89 93.87 -86.28 92.17 C-85.92 91.16 -85.56 90.14 -85.19 89.1 C-84.02 86.12 -84.02 86.12 -82.38 82.89 C-80.85 80.27 -80.85 80.27 -80.99 77.71 C-82.8 73.15 -86.03 69.55 -89.07 65.74 C-94.32 58.91 -94.32 58.91 -94.02 54.12 C-92.25 51.65 -90.66 49.78 -88.52 47.68 C-87.96 47.11 -87.4 46.54 -86.82 45.94 C-85.72 44.82 -84.6 43.7 -83.48 42.58 C-82.35 41.45 -81.24 40.28 -80.15 39.11 C-76.41 35.11 -72.19 31.64 -67.96 28.18 C-67.37 27.69 -66.78 27.19 -66.17 26.67 C-63.31 24.4 -61.55 23.21 -57.89 22.61 C-54.58 23.2 -52.83 24.18 -50.14 26.18 C-49.28 26.81 -48.42 27.44 -47.53 28.09 C-44.54 30.51 -41.87 33.17 -39.3 36.03 C-35.43 37.88 -31.97 36.32 -28.02 35.12 C-27.2 34.88 -26.38 34.64 -25.54 34.39 C-15.07 31.42 -15.07 31.42 -7.49 24.42 C-7.01 21.48 -7.01 21.48 -7.06 18.44 C-7.01 14.53 -6.09 11.13 -4.96 7.43 C-4.44 5.66 -4.44 5.66 -3.92 3.86 C-2.7 0.16 -2.7 0.16 0 0 Z " fill="#4B586F" transform="translate(488.01844787597656,422.87974548339844)"/>
<path d="M0 0 C1.24 -0.02 2.48 -0.04 3.75 -0.06 C33.67 -0.19 61.09 13.41 82.19 34 C102.78 54.89 116.77 85.09 117.2 114.6 C117.18 117.49 117.08 120.37 117 123.25 C124.26 123.25 131.52 123.25 139 123.25 C138.9 121.02 138.79 118.8 138.69 116.5 C138.63 115.25 138.57 113.99 138.51 112.7 C137.97 109.08 137.21 108.01 135 105.25 C133.99 100.54 134.1 96.14 136.18 91.75 C138.65 88.43 140.62 86.57 144.7 85.62 C150.55 85.37 154.53 86.24 159 90.25 C161.27 93.66 161.32 95.11 161.38 99.12 C161.4 100.15 161.43 101.18 161.46 102.24 C161 105.25 161 105.25 159 107.54 C156.56 110.85 156.5 112.61 156.5 116.69 C156.47 118.52 156.47 118.52 156.44 120.4 C156.44 121.67 156.44 122.94 156.44 124.25 C156.43 126.77 156.41 129.29 156.37 131.81 C156.37 132.93 156.37 134.04 156.37 135.19 C155.95 138.64 155.07 140.48 153 143.25 C149.36 145.68 146.69 145.51 142.49 145.45 C141.4 145.44 141.4 145.44 140.28 145.44 C137.96 145.43 135.64 145.4 133.31 145.38 C131.74 145.36 130.16 145.36 128.58 145.35 C124.72 145.33 120.86 145.29 117 145.25 C116.88 145.89 116.76 146.52 116.64 147.18 C112.83 167.02 104.22 186.67 88.2 199.76 C83.74 202.78 78.94 205.12 74 207.25 C73.21 207.6 72.41 207.95 71.59 208.31 C66.26 209.7 61.06 209.54 55.58 209.52 C54.33 209.53 53.08 209.53 51.79 209.54 C48.37 209.55 44.95 209.55 41.54 209.55 C38.67 209.55 35.81 209.56 32.95 209.56 C26.19 209.57 19.43 209.57 12.66 209.57 C5.72 209.56 -1.23 209.57 -8.18 209.59 C-14.17 209.61 -20.15 209.62 -26.14 209.61 C-29.71 209.61 -33.27 209.61 -36.84 209.63 C-40.83 209.64 -44.81 209.63 -48.8 209.62 C-49.96 209.63 -51.13 209.64 -52.32 209.65 C-68.25 209.54 -80.93 204.69 -92.31 193.5 C-97.42 188.27 -101.47 182.67 -105 176.25 C-105.46 175.43 -105.92 174.61 -106.39 173.76 C-111.23 164.63 -114.08 155.52 -115 145.25 C-115.97 145.28 -116.94 145.3 -117.93 145.33 C-121.55 145.42 -125.16 145.48 -128.77 145.52 C-130.33 145.55 -131.89 145.58 -133.45 145.63 C-135.7 145.69 -137.95 145.72 -140.2 145.74 C-140.89 145.76 -141.58 145.79 -142.29 145.82 C-146.13 145.82 -148.49 145.22 -151.43 142.84 C-155.16 139.08 -155.12 137.3 -155.18 132.11 C-155.2 130.87 -155.22 129.64 -155.25 128.37 C-155.29 125.76 -155.32 123.15 -155.34 120.54 C-155.37 119.31 -155.4 118.07 -155.43 116.79 C-155.44 115.66 -155.45 114.52 -155.47 113.36 C-156.11 109.63 -157.51 108.03 -160 105.25 C-161.49 100.36 -161.56 96.44 -159.38 91.81 C-155.52 87.65 -152.79 86.07 -147.12 85.69 C-142.2 85.81 -139.75 87.36 -136.28 90.74 C-133.84 93.62 -133.78 95.87 -133.69 99.56 C-133.65 100.51 -133.61 101.45 -133.57 102.43 C-134 105.25 -134 105.25 -135.97 107.68 C-138.53 110.92 -138.59 112.99 -138.75 117.06 C-138.83 119.1 -138.92 121.15 -139 123.25 C-131.41 123.25 -123.82 123.25 -116 123.25 C-116.08 120.67 -116.17 118.09 -116.25 115.44 C-116.56 84.36 -101.57 54.94 -80.25 33.06 C-58.53 11.72 -30.35 0.12 0 0 Z " fill="#4B586F" transform="translate(510,198.75)"/>
<path d="M0 0 C1.19 -0.01 2.39 -0.02 3.62 -0.04 C5.35 -0.04 5.35 -0.04 7.11 -0.04 C8.17 -0.05 9.22 -0.05 10.31 -0.06 C13.4 0.2 15.55 0.66 18.25 2.19 C18.77 5.04 19.06 7.63 19.25 10.5 C19.6 13.55 20.04 16.36 21.25 19.19 C26.09 23.02 31.28 24.37 37.41 23.99 C40.6 23.09 42.03 22 44.38 19.69 C48.78 15.37 48.78 15.37 52.25 15.19 C60.19 19.47 68.29 27.74 73.25 35.19 C73.06 40.56 69.61 43.83 66.22 47.73 C64.8 49.41 64.8 49.41 63.25 52.19 C63.68 54.76 63.68 54.76 65.25 57.19 C65.75 58.26 66.25 59.34 66.76 60.45 C67.84 62.74 68.92 65.03 70.01 67.32 C71.25 70.19 71.25 70.19 71.25 72.19 C71.82 72.18 72.39 72.16 72.97 72.15 C77.85 72.1 82.45 72.29 87.25 73.19 C88.25 74.19 88.25 74.19 88.36 77.05 C88.36 78.31 88.35 79.56 88.35 80.85 C88.35 81.84 88.35 81.84 88.34 82.86 C88.34 84.99 88.33 87.12 88.31 89.25 C88.31 90.69 88.3 92.13 88.3 93.57 C88.29 97.11 88.27 100.65 88.25 104.19 C84.64 106.18 82.61 106.12 78.5 105.81 C75.26 105.82 75.26 105.82 72.25 107.19 C67.85 112.34 64.27 120.47 63.25 127.19 C64.66 129.33 66.04 131.18 67.69 133.12 C72.02 138.25 72.02 138.25 72.85 141.7 C71.97 145.34 69.74 147.52 67.19 150.12 C66.69 150.65 66.18 151.18 65.67 151.72 C54.76 163.02 54.76 163.02 49.25 163.19 C46.53 161.32 46.53 161.32 43.75 158.75 C40.22 155.34 40.22 155.34 35.76 153.74 C30.68 154.64 26.38 157.16 22.25 160.19 C20.55 163.37 20.55 163.37 20.25 167.19 C19.75 169.15 19.23 171.11 18.69 173.06 C18.44 174.01 18.19 174.95 17.93 175.93 C17.25 178.19 17.25 178.19 16.25 179.19 C11.8 179.44 7.33 179.37 2.88 179.38 C1.62 179.39 0.36 179.4 -0.94 179.41 C-2.14 179.41 -3.35 179.42 -4.59 179.42 C-5.7 179.42 -6.8 179.43 -7.95 179.43 C-10.75 179.19 -10.75 179.19 -13.75 177.19 C-15.04 174.31 -15.81 171.98 -15.57 168.82 C-15.41 165.76 -15.47 163.99 -16.75 161.19 C-21.44 157.92 -26.24 155.68 -31.75 154.19 C-35.68 155.33 -37.93 158.3 -40.75 161.19 C-44.03 163.38 -44.94 163.72 -48.75 163.19 C-52.76 160.62 -56.21 157.37 -59.75 154.19 C-61.09 152.99 -61.09 152.99 -62.46 151.76 C-68.58 146.02 -68.58 146.02 -69.26 142.72 C-68.56 139.24 -66.91 137.89 -64.38 135.44 C-60.5 131.37 -58.98 128.83 -58.28 123.34 C-57.46 119.99 -55.33 117.87 -52.99 115.4 C-51.11 112.05 -51.14 108.88 -51.75 105.19 C-52.78 102.51 -54.16 100.17 -55.69 97.75 C-56.06 97.13 -56.43 96.5 -56.82 95.86 C-58.56 92.86 -58.56 92.86 -60.75 90.19 C-60.6 83.33 -57.67 77.72 -53.75 72.19 C-50.43 69.02 -46.55 67.51 -42.34 65.81 C-41.73 65.56 -41.12 65.31 -40.49 65.06 C-38.71 64.35 -36.91 63.68 -35.12 63.01 C-30.77 60.66 -27.89 58.74 -25.75 54.19 C-24.89 48.87 -24.86 43.63 -24.88 38.25 C-24.86 36.79 -24.84 35.33 -24.81 33.87 C-24.76 30.31 -24.75 26.75 -24.75 23.19 C-24.19 23.01 -23.64 22.82 -23.07 22.64 C-18.59 20.9 -18.59 20.9 -15.82 17.19 C-15.32 14.78 -15.03 12.44 -14.81 10 C-14.62 8.36 -14.42 6.72 -14.22 5.08 C-13.99 3.15 -13.99 3.15 -13.75 1.19 C-11.12 -1.44 -3.53 0 0 0 Z " fill="#4A576E" transform="translate(691.75,538.8125)"/>
<path d="M0 0 C1.25 0.01 2.5 0.01 3.79 0.02 C4.79 0.02 4.79 0.02 5.81 0.02 C7.94 0.03 10.07 0.04 12.2 0.05 C13.64 0.06 15.08 0.06 16.52 0.06 C20.06 0.08 23.59 0.09 27.13 0.11 C29.01 4.44 29.35 7.69 29.26 12.43 C29.24 13.68 29.22 14.93 29.2 16.23 C29.18 17.18 29.16 18.13 29.13 19.11 C30.62 19.61 30.62 19.61 32.13 20.11 C32.16 21.27 32.16 21.27 32.19 22.45 C32.29 25.98 32.4 29.52 32.51 33.05 C32.54 34.26 32.57 35.48 32.6 36.72 C32.71 49 32.71 49 37.76 59.8 C42.47 64.1 48.55 65.84 54.49 67.85 C56.29 68.48 56.29 68.48 58.13 69.11 C58.88 69.36 59.62 69.61 60.39 69.86 C63.2 71.88 64.42 74.82 65.88 77.86 C66.36 78.78 66.36 78.78 66.84 79.71 C68.81 83.69 69.8 86.7 69.13 91.11 C67.56 94.33 65.85 97.33 63.98 100.37 C61.16 105.23 60.5 108.49 61.13 114.11 C63.09 119.49 66.7 123.4 70.45 127.61 C71 128.25 71.56 128.89 72.13 129.55 C75.66 133.56 79.32 137.37 83.13 141.11 C80.72 148.78 72.98 155.63 66.26 159.86 C62.72 161.28 61.7 161.21 58.13 160.11 C55.52 158.37 53.1 156.46 50.63 154.51 C48.25 152.87 48.25 152.87 45.67 153.31 C44.83 153.57 43.99 153.84 43.13 154.11 C42.22 154.31 41.31 154.51 40.38 154.71 C37 155.8 34.83 156.77 32.13 159.11 C30.2 163.32 29.54 167.84 28.82 172.38 C28.13 176.11 28.13 176.11 26.13 178.11 C23.37 178.37 23.37 178.37 19.88 178.38 C18.63 178.38 17.39 178.38 16.1 178.39 C14.14 178.38 14.14 178.38 12.13 178.36 C10.82 178.37 9.51 178.38 8.16 178.39 C6.92 178.38 5.67 178.38 4.38 178.38 C3.23 178.38 2.08 178.37 0.9 178.37 C-1.87 178.11 -1.87 178.11 -3.87 176.11 C-4.04 174.26 -4.21 172.41 -4.35 170.55 C-4.84 164 -4.84 164 -8.42 158.81 C-12.66 156.51 -17.24 155.38 -21.87 154.11 C-22.86 153.45 -23.85 152.79 -24.87 152.11 C-25.11 152.7 -25.35 153.29 -25.6 153.9 C-27.12 156.55 -28.68 157.76 -31.18 159.49 C-31.94 160.03 -32.7 160.58 -33.48 161.14 C-35.87 162.11 -35.87 162.11 -38.26 161.4 C-40.99 160.05 -42.8 158.62 -45 156.52 C-45.75 155.82 -46.49 155.12 -47.25 154.4 C-48.01 153.66 -48.77 152.93 -49.55 152.18 C-50.33 151.45 -51.1 150.72 -51.89 149.97 C-57.57 144.55 -57.57 144.55 -59.87 141.11 C-59.64 136.63 -57.63 134.17 -54.8 130.8 C-54.07 129.92 -53.34 129.04 -52.58 128.13 C-52.02 127.46 -51.45 126.8 -50.87 126.11 C-52.86 120.95 -55.26 115.98 -57.63 110.98 C-58.87 108.11 -58.87 108.11 -58.87 106.11 C-59.44 106.13 -60 106.14 -60.59 106.15 C-65.44 106.21 -70.09 106.09 -74.87 105.11 C-76.87 103.11 -76.87 103.11 -77.11 100.26 C-77.11 99.06 -77.1 97.87 -77.1 96.64 C-77.1 95.35 -77.09 94.06 -77.09 92.73 C-77.09 92.05 -77.08 91.38 -77.07 90.68 C-77.06 88.62 -77.05 86.56 -77.05 84.5 C-77.01 74.39 -77.01 74.39 -75.87 72.11 C-67.45 71.62 -67.45 71.62 -58.87 71.11 C-58.48 69.81 -58.08 68.51 -57.68 67.18 C-56.25 62.76 -54.21 59.11 -51.66 55.25 C-50.63 53.09 -50.63 53.09 -51.47 50.69 C-53.62 46.72 -56.46 43.35 -59.29 39.83 C-60.87 37.11 -60.87 37.11 -60.96 34.64 C-59.43 31.1 -56.99 28.73 -54.24 26.11 C-53.7 25.59 -53.15 25.06 -52.59 24.51 C-43.16 15.49 -43.16 15.49 -38.51 14.72 C-34.79 15.27 -33.24 17.04 -30.55 19.61 C-29.67 20.45 -28.79 21.28 -27.88 22.14 C-27.22 22.79 -26.55 23.44 -25.87 24.11 C-23.74 23.44 -21.63 22.73 -19.52 21.98 C-16.87 21.11 -16.87 21.11 -14.15 20.59 C-11.06 19.82 -9.28 19.23 -6.87 17.11 C-5.47 12.92 -4.77 8.95 -4.27 4.57 C-3.76 0.15 -3.76 0.15 0 0 Z " fill="#4A576E" transform="translate(319.867431640625,539.886474609375)"/>
<path d="M0 0 C4.95 0.76 9.15 2.73 13.68 4.78 C17.01 6.25 20.03 7.31 23.62 7.81 C27 9 27 9 28.3 10.97 C29.34 13.29 30.17 15.6 31 18 C31.4 18.63 31.81 19.26 32.23 19.91 C33.38 23.02 32.09 24.93 31 28 C30.17 37.23 30.36 45.74 35 54 C35.44 54.79 35.87 55.58 36.32 56.39 C41.94 65.65 50.23 70.61 60.44 73.75 C72.67 74.94 82.75 73.07 93 66 C99.8 59.95 104.04 52.87 106 44 C106.12 41.24 106.19 38.51 106.19 35.75 C106.2 35.02 106.21 34.3 106.22 33.55 C106.23 29.75 105.95 26.44 104.9 22.78 C103.72 17.81 104.37 15.63 106.79 11.27 C111.1 6.85 117.31 5.86 123.14 4.47 C125.45 3.89 127.61 3.08 129.81 2.19 C133 1 133 1 136 1 C136.19 1.63 136.38 2.25 136.57 2.9 C139.68 14.46 139.68 14.46 147 23.19 C151.64 24.58 156.21 24.45 161 24 C163.25 29.42 163.3 34.3 163.25 40.06 C163.26 40.95 163.27 41.83 163.27 42.74 C163.25 52.15 163.25 52.15 161 55 C157.18 55.55 157.18 55.55 154.88 55.64 C147.42 55.96 147.42 55.96 141.26 59.72 C138.01 64.32 133.49 71.21 134.28 77.05 C135.05 79.13 135.95 80.54 137.32 82.28 C137.77 82.87 138.23 83.47 138.69 84.08 C139.65 85.32 140.61 86.55 141.58 87.78 C143.54 90.37 144.96 92.27 145.15 95.57 C143.53 98.98 141.14 101.37 138.44 103.94 C137.9 104.46 137.35 104.99 136.79 105.53 C126.32 115.56 126.32 115.56 121.61 116.46 C116.84 115.62 114.14 111.48 110.91 108.09 C108.13 105.65 108.13 105.65 104.54 106.07 C103.37 106.37 102.2 106.68 101 107 C99.41 107.4 99.41 107.4 97.8 107.81 C94.24 109.2 91.82 110.39 89 113 C87.26 117.26 86.92 121.75 86.53 126.3 C86.35 127.52 86.18 128.74 86 130 C81.05 133.3 75.44 132.37 69.62 132.38 C68.39 132.4 67.16 132.42 65.89 132.45 C64.11 132.46 64.11 132.46 62.29 132.46 C61.2 132.47 60.12 132.48 59 132.49 C55.29 131.88 53.62 130.65 51 128 C50.38 124.83 50.38 124.83 50.12 121.25 C49.31 116.59 48.48 113.95 44.62 111.23 C40.85 109.02 37.19 107.25 33 106 C28.92 107.08 26.22 110.54 23.29 113.44 C20.08 115.62 17.88 116.03 14 116 C11.6 114.38 9.96 113.04 8 111 C7.48 110.49 6.97 109.99 6.44 109.46 C5.41 108.45 4.4 107.43 3.39 106.4 C2.2 105.21 0.98 104.06 -0.26 102.92 C-3.91 99.54 -6.06 97.08 -7 92 C-5.52 89.15 -5.52 89.15 -3.25 86.38 C0.41 82 0.41 82 3 77 C1.62 70.4 -2.49 62.96 -7 58 C-10.82 55.95 -14.41 56.05 -18.68 56.16 C-22 56 -22 56 -24.18 54.35 C-26.44 51.44 -26.5 49.93 -26.5 46.28 C-26.5 45.18 -26.5 44.09 -26.5 42.96 C-26.47 41.25 -26.47 41.25 -26.44 39.5 C-26.44 38.36 -26.45 37.22 -26.46 36.04 C-26.38 26.35 -26.38 26.35 -23 23 C-20.31 22.54 -18 22.31 -15.31 22.25 C-14.61 22.22 -13.91 22.19 -13.19 22.16 C-11.46 22.09 -9.73 22.04 -8 22 C-7.76 21.08 -7.52 20.16 -7.27 19.22 C-5.41 12.43 -3.46 6.17 0 0 Z " fill="#4A576E" transform="translate(442,695)"/>
<path d="M0 0 C38.61 0 77.22 0 117 0 C117 34.47 117 34.47 110 45.88 C109.34 47.04 108.68 48.22 108.04 49.39 C106.73 51.75 105.39 54.09 104.04 56.41 C100.74 62.13 97.89 68.07 94.99 73.99 C94.02 75.96 93.04 77.94 92.06 79.91 C90.11 83.85 88.18 87.8 86.25 91.75 C85.91 92.45 85.57 93.14 85.22 93.86 C74.11 116.51 74.11 116.51 65 140 C53.35 143.88 37.14 140.59 25 140 C25.75 138.43 25.75 138.43 26.51 136.83 C27.24 135.3 27.96 133.78 28.69 132.25 C29.09 131.4 29.5 130.54 29.92 129.66 C32.2 124.84 34.46 120.01 36.68 115.16 C48.59 89.19 61.2 63.54 74 38 C72.63 38 72.63 38 71.24 38.01 C62.66 38.03 54.08 38.04 45.5 38.05 C41.09 38.06 36.68 38.06 32.26 38.08 C28.01 38.09 23.76 38.09 19.5 38.09 C17.88 38.1 16.25 38.1 14.63 38.11 C12.35 38.11 10.08 38.11 7.81 38.11 C5.87 38.12 5.87 38.12 3.89 38.12 C1 38 1 38 0 37 C0 24.79 0 12.58 0 0 Z " fill="#F4FAFD" transform="translate(453,502)"/>
<path d="M0 0 C8.56 5.77 14.4 12.88 17.61 22.76 C19.72 34.3 17.93 44.86 11.5 54.56 C5.96 61.77 -1.87 67.48 -11 68.88 C-23.77 69.71 -32.94 67.94 -43 59.88 C-49.52 53.83 -53.55 45.68 -54.24 36.81 C-54.49 24.89 -51.79 15.1 -44 5.88 C-32.33 -5.39 -14.24 -8.17 0 0 Z " fill="#F5FCFE" transform="translate(350,594.125)"/>
<path d="M0 0 C7.87 5.18 13.31 14.38 15.42 23.47 C16.76 35.26 14.59 44.91 7.62 54.71 C4.23 58.56 0.21 61.22 -4.2 63.79 C-5.12 64.33 -5.12 64.33 -6.06 64.88 C-13.83 68.58 -25.6 68.1 -33.58 65.35 C-42.26 61.22 -50.34 53.43 -54.16 44.55 C-57.86 33.91 -57.08 23.87 -52.2 13.79 C-48.69 7.2 -44.58 2.68 -38.2 -1.21 C-37.56 -1.63 -36.92 -2.04 -36.25 -2.47 C-25 -8.62 -10.69 -5.9 0 0 Z " fill="#F5FBFE" transform="translate(714.203125,596.21484375)"/>
<path d="M0 0 C0.33 0 0.66 0 1 0 C1.02 0.59 1.04 1.18 1.06 1.78 C1.16 4.5 1.27 7.22 1.38 9.94 C1.41 10.86 1.44 11.79 1.47 12.74 C1.76 22.99 1.76 22.99 5.52 32.3 C9.13 35.58 12.43 38.11 17 40 C16.01 40.66 15.02 41.32 14 42 C13.67 42.66 13.34 43.32 13 44 C12.66 43.5 12.32 43.01 11.97 42.5 C5.99 34.12 -0.31 28.61 -10 25 C-8.38 24.31 -8.38 24.31 -6 24 C-4.02 24.99 -2.04 25.98 0 27 C0 18.09 0 9.18 0 0 Z " fill="#323E4C" transform="translate(351,566)"/>
<path d="M0 0 C1.76 1.55 1.76 1.55 3 3 C0.23 3.08 -2.54 3.14 -5.31 3.19 C-6.1 3.21 -6.88 3.24 -7.69 3.26 C-8.45 3.27 -9.21 3.28 -9.99 3.29 C-10.68 3.31 -11.38 3.32 -12.1 3.34 C-14.54 2.9 -15.43 1.87 -17 0 C-11.32 -0.93 -5.63 -1.56 0 0 Z " fill="#556174" transform="translate(343,715)"/>
<path d="M0 0 C0.9 0.03 1.8 0.05 2.73 0.08 C3.76 0.13 3.76 0.13 4.81 0.19 C4.48 0.85 4.15 1.51 3.81 2.19 C2.27 2.31 2.27 2.31 0.69 2.44 C-4.29 3.4 -6.67 5.7 -10.19 9.19 C-8.33 2.76 -7.05 -0.27 0 0 Z " fill="#404C60" transform="translate(657.1875,284.8125)"/>
<path d="M0 0 C5.75 4.62 5.75 4.62 8 8 C7.83 11.41 7.23 12.74 4.94 15.31 C3.98 16.15 3.98 16.15 3 17 C3 15.35 3 13.7 3 12 C3.99 11.67 4.98 11.34 6 11 C4.33 7.43 2.85 4.71 0 2 C0 1.34 0 0.68 0 0 Z " fill="#384656" transform="translate(757,566)"/>
<path d="M0 0 C1.18 3.73 0.53 6.16 -0.53 9.91 C-1.14 12.25 -1.14 12.25 -0.94 15.75 C-1.01 19.32 -1.57 20.47 -4 23 C-4.15 17.99 -3.66 13.57 -2.56 8.69 C-2.16 6.87 -2.16 6.87 -1.75 5.01 C-1 2 -1 2 0 0 Z " fill="#2A3847" transform="translate(399,283)"/>
<path d="M0 0 C4.28 5.09 6.49 10.32 6 17 C4 16 4 16 2.93 13.42 C2.58 12.35 2.23 11.29 1.88 10.19 C1.52 9.13 1.17 8.07 0.8 6.98 C0 4 0 4 0 0 Z " fill="#8F98AC" transform="translate(383,614)"/>
<path d="M0 0 C0.66 0.33 1.32 0.66 2 1 C-2.86 6.81 -7.72 11.74 -14 16 C-12.34 11.67 -9.13 8.91 -5.88 5.75 C-5.31 5.2 -4.75 4.64 -4.17 4.07 C-2.78 2.71 -1.39 1.35 0 0 Z " fill="#273443" transform="translate(436,226)"/>
<path d="M0 0 C1.77 -0.08 3.54 -0.14 5.31 -0.19 C6.3 -0.22 7.28 -0.26 8.3 -0.29 C11 0 11 0 14 3 C9.38 3 4.76 3 0 3 C0 2.01 0 1.02 0 0 Z " fill="#5C697F" transform="translate(419,718)"/>
<path d="M0 0 C2.19 3.28 2.19 4.22 2 8 C2 8.99 2 9.98 2 11 C-1.9 7.71 -1.9 7.71 -2.38 4.38 C-2 2 -2 2 0 0 Z " fill="#394658" transform="translate(625,677)"/>
<path d="M0 0 C0 0.33 0 0.66 0 1 C-1.98 1 -3.96 1 -6 1 C-6 1.66 -6 2.32 -6 3 C-10.45 3.5 -10.45 3.5 -15 4 C-10.44 -0.86 -6.22 -0.43 0 0 Z " fill="#3C4A5C" transform="translate(500,200)"/>
<path d="M0 0 C1.37 2.73 0.85 4.11 0 7 C-1.38 8.56 -1.38 8.56 -3 10 C-4.02 11.32 -5.02 12.65 -6 14 C-5.42 10.24 -4.35 7.47 -2.44 4.19 C-1.98 3.4 -1.53 2.61 -1.06 1.79 C-0.53 0.91 -0.53 0.91 0 0 Z " fill="#3E4A5B" transform="translate(638,611)"/>
<path d="M0 0 C2.64 0.33 5.28 0.66 8 1 C8 1.99 8 2.98 8 4 C6.02 4 4.04 4 2 4 C1.34 2.68 0.68 1.36 0 0 Z " fill="#5B677B" transform="translate(496,823)"/>
<path d="M0 0 C3.96 1.98 3.96 1.98 8 4 C7.01 4.66 6.02 5.32 5 6 C4.67 6.66 4.34 7.32 4 8 C0 2.25 0 2.25 0 0 Z " fill="#24303C" transform="translate(360,602)"/>
</svg>
