<?xml version="1.0" encoding="us-ascii" standalone="no"?><svg xmlns="http://www.w3.org/2000/svg" xmlns:xlink="http://www.w3.org/1999/xlink" contentStyleType="text/css" height="499px" preserveAspectRatio="none" style="width:472px;height:499px;" version="1.1" viewBox="0 0 472 499" width="472px" zoomAndPan="magnify"><defs/><g><line style="stroke:#2D74BA;stroke-width:0.5;stroke-dasharray:5.0,5.0;" x1="45" x2="45" y1="81.2969" y2="418.8906"/><line style="stroke:#2D74BA;stroke-width:0.5;stroke-dasharray:5.0,5.0;" x1="159" x2="159" y1="81.2969" y2="418.8906"/><line style="stroke:#2D74BA;stroke-width:0.5;stroke-dasharray:5.0,5.0;" x1="258" x2="258" y1="81.2969" y2="418.8906"/><line style="stroke:#2D74BA;stroke-width:0.5;stroke-dasharray:5.0,5.0;" x1="414.5" x2="414.5" y1="81.2969" y2="418.8906"/><text fill="#AAAAAA" font-family="Arial" font-size="14" lengthAdjust="spacing" textLength="63" x="11" y="77.9951">User TTY</text><ellipse cx="45.5" cy="13.5" fill="#1E2029" rx="8" ry="8" style="stroke:#2D74BA;stroke-width:0.5;"/><path d="M45.5,21.5 L45.5,48.5 M32.5,29.5 L58.5,29.5 M45.5,48.5 L32.5,63.5 M45.5,48.5 L58.5,63.5 " fill="none" style="stroke:#2D74BA;stroke-width:0.5;"/><text fill="#AAAAAA" font-family="Arial" font-size="14" lengthAdjust="spacing" textLength="63" x="11" y="430.8857">User TTY</text><ellipse cx="45.5" cy="442.6875" fill="#1E2029" rx="8" ry="8" style="stroke:#2D74BA;stroke-width:0.5;"/><path d="M45.5,450.6875 L45.5,477.6875 M32.5,458.6875 L58.5,458.6875 M45.5,477.6875 L32.5,492.6875 M45.5,477.6875 L58.5,492.6875 " fill="none" style="stroke:#2D74BA;stroke-width:0.5;"/><rect fill="#1E2029" height="30.2969" rx="2.5" ry="2.5" style="stroke:#2D74BA;stroke-width:0.5;" width="138" x="90" y="50"/><text fill="#AAAAAA" font-family="Arial" font-size="14" lengthAdjust="spacing" textLength="124" x="97" y="69.9951">Items Process (IP)</text><rect fill="#1E2029" height="30.2969" rx="2.5" ry="2.5" style="stroke:#2D74BA;stroke-width:0.5;" width="138" x="90" y="417.8906"/><text fill="#AAAAAA" font-family="Arial" font-size="14" lengthAdjust="spacing" textLength="124" x="97" y="437.8857">Items Process (IP)</text><rect fill="#1E2029" height="30.2969" rx="2.5" ry="2.5" style="stroke:#2D74BA;stroke-width:0.5;" width="40" x="238" y="50"/><text fill="#AAAAAA" font-family="Arial" font-size="14" lengthAdjust="spacing" textLength="26" x="245" y="69.9951">FZF</text><rect fill="#1E2029" height="30.2969" rx="2.5" ry="2.5" style="stroke:#2D74BA;stroke-width:0.5;" width="40" x="238" y="417.8906"/><text fill="#AAAAAA" font-family="Arial" font-size="14" lengthAdjust="spacing" textLength="26" x="245" y="437.8857">FZF</text><rect fill="#1E2029" height="30.2969" rx="2.5" ry="2.5" style="stroke:#2D74BA;stroke-width:0.5;" width="103" x="363.5" y="50"/><text fill="#AAAAAA" font-family="Arial" font-size="14" lengthAdjust="spacing" textLength="89" x="370.5" y="69.9951">FZF.STDOUT</text><rect fill="#1E2029" height="30.2969" rx="2.5" ry="2.5" style="stroke:#2D74BA;stroke-width:0.5;" width="103" x="363.5" y="417.8906"/><text fill="#AAAAAA" font-family="Arial" font-size="14" lengthAdjust="spacing" textLength="89" x="370.5" y="437.8857">FZF.STDOUT</text><path d="M205,96.2969 L205,166.2969 L311,166.2969 L311,106.2969 L301,96.2969 L205,96.2969 " fill="#1E2029" style="stroke:#2D74BA;stroke-width:0.5;"/><path d="M301,96.2969 L301,106.2969 L311,106.2969 L301,96.2969 " fill="#1E2029" style="stroke:#2D74BA;stroke-width:0.5;"/><text fill="#AAAAAA" font-family="Arial" font-size="13" lengthAdjust="spacing" textLength="85" x="211" y="113.3638">FZF starts up</text><text fill="#AAAAAA" font-family="Arial" font-size="13" lengthAdjust="spacing" textLength="70" x="211" y="128.4966">reads from</text><text fill="#AAAAAA" font-family="Arial" font-size="13" lengthAdjust="spacing" textLength="30" x="211" y="143.6294">- TTY</text><text fill="#AAAAAA" font-family="Arial" font-size="13" lengthAdjust="spacing" textLength="77" x="211" y="158.7622">- IP.STDOUT</text><polygon fill="#00B2E2" points="246,188.9609,256,192.9609,246,196.9609,250,192.9609" style="stroke:#00B2E2;stroke-width:1.0;"/><line style="stroke:#00B2E2;stroke-width:1.0;" x1="159" x2="252" y1="192.9609" y2="192.9609"/><text fill="#AAAAAA" font-family="Arial" font-size="13" lengthAdjust="spacing" textLength="40" x="166" y="187.895">"hello"</text><polygon fill="#00B2E2" points="403,218.0938,413,222.0938,403,226.0938,407,222.0938" style="stroke:#00B2E2;stroke-width:1.0;"/><line style="stroke:#00B2E2;stroke-width:1.0;" x1="258" x2="409" y1="222.0938" y2="222.0938"/><text fill="#AAAAAA" font-family="Arial" font-size="13" lengthAdjust="spacing" textLength="102" x="265" y="217.0278">rendered "hello"</text><path d="M389,235.0938 L389,260.0938 L440,260.0938 L440,245.0938 L430,235.0938 L389,235.0938 " fill="#1E2029" style="stroke:#2D74BA;stroke-width:0.5;"/><path d="M430,235.0938 L430,245.0938 L440,245.0938 L430,235.0938 " fill="#1E2029" style="stroke:#2D74BA;stroke-width:0.5;"/><text fill="#AAAAAA" font-family="Arial" font-size="13" lengthAdjust="spacing" textLength="30" x="395" y="252.1606">hello</text><path d="M5,270.2266 L5,295.2266 L455,295.2266 L455,280.2266 L445,270.2266 L5,270.2266 " fill="#1E2029" style="stroke:#2D74BA;stroke-width:0.5;"/><path d="M445,270.2266 L445,280.2266 L455,280.2266 L445,270.2266 " fill="#1E2029" style="stroke:#2D74BA;stroke-width:0.5;"/><text fill="#AAAAAA" font-family="Arial" font-size="13" lengthAdjust="spacing" textLength="58" x="196.75" y="287.2935">1 second</text><polygon fill="#00B2E2" points="246,317.4922,256,321.4922,246,325.4922,250,321.4922" style="stroke:#00B2E2;stroke-width:1.0;"/><line style="stroke:#00B2E2;stroke-width:1.0;" x1="159" x2="252" y1="321.4922" y2="321.4922"/><text fill="#AAAAAA" font-family="Arial" font-size="13" lengthAdjust="spacing" textLength="43" x="166" y="316.4263">"world"</text><polygon fill="#00B2E2" points="403,346.625,413,350.625,403,354.625,407,350.625" style="stroke:#00B2E2;stroke-width:1.0;"/><line style="stroke:#00B2E2;stroke-width:1.0;" x1="258" x2="409" y1="350.625" y2="350.625"/><text fill="#AAAAAA" font-family="Arial" font-size="13" lengthAdjust="spacing" textLength="133" x="265" y="345.5591">add rendered "world"</text><path d="M388,363.625 L388,403.625 L442,403.625 L442,373.625 L432,363.625 L388,363.625 " fill="#1E2029" style="stroke:#2D74BA;stroke-width:0.5;"/><path d="M432,363.625 L432,373.625 L442,373.625 L432,363.625 " fill="#1E2029" style="stroke:#2D74BA;stroke-width:0.5;"/><text fill="#AAAAAA" font-family="Arial" font-size="13" lengthAdjust="spacing" textLength="30" x="394" y="380.6919">hello</text><text fill="#AAAAAA" font-family="Arial" font-size="13" lengthAdjust="spacing" textLength="33" x="394" y="395.8247">world</text><!--SRC=[xPTTJzim58Rl-okixcQJnWHLsGGNIAKVen8g3Ch59cxSn2aUZftP3Xt_VYTEcWPHUawbxMPA9LfaF-VOoR7z-dMFKcVSyfIv1nwRbTHBbd3bHCVLFGiUFIwjoNKS6MKiyvPh1rr2-mOr4WdFbPyOxMSy5MnW9LUD_e6rPZKC2TuT7YvwehSzk48uvytWoCidwP_FZOs5hP3Uw4l_VB256acU6XsZiB48ieH7H13hPS8ZX3elNXwtoFI7t29p7Yhk78QO7CjYb1Bmgep6SfaqCnfz1qEecZLgDpJYdY-u4xkfiVPebITI8LacHa4lmi0NacQglR1GN0Ix5B1Ca5S-Cx7028yGLukV0bjerx1L-L9W44x0ievanhKdWCLAserzoqME37a3pyRr4YljhVYL2rsKv3SD7C69W2w6DVmLJhcCXbxA1FuqSRet8X6sdFTEt4FzKCIZMM0iuvypCQ22Goeufe9JAZZ3G6FHzNgxagdYM37kd8ZUE86sIKsjUXLw97g7lPCTSaC90Cd1iI0xEBQM7fIivGSbWmJXL90X6dOXUB7z272XMpZMq2u2lDOl0bfg60hMEeQIbPQXND0pd2er3UU2hg7OD39wBHOqsCgdukGXmg1caHSn4SyNIaO4jXPa5Ar46UM2C1CeofDN0erovFVUb64Q7AGOHKivHh6D9ADeKvR9y5gQoG6bFE-9c_YP7bAhEZbYe-pxXr3Fnl9QGC4eoxHvFTW37ku3Z_U1f_l0CmfSNXbGS2uzPN6lxmrlW5jk1509kpQo_UF-v_xn5cXS9tg5X4hkJ1A8LnaQmDjs_XyOzTQfjqwzTUgjKs-TUklKMwVUElNMgVyzftu1EyyggHyhu2HyjW5tEWx_Y5TNljRjjsw_TVkjss_T_d_bzZkykAQmBapPildyUvTnn_9EjZb8M7VgHUeO7D6HS8wzdrv_29JCNc2J7vEYDNaP2wsVRkUZgxjvY756TZISZSmymNZ9QOXonRnXrEnUMrZWaCEQz5uV5FDXnU_qkihHaTd16KHr7uHIfjj93iuWuoc3pG7xGiHrnsQCq1zQ6utvnxBzY46bu3PNvrqPg-9DNXx7ZTnLvxRSzpfqTlu0]--></g></svg>