<svg width="400" height="400" xmlns="http://www.w3.org/2000/svg">
  <!-- metallic color -->
  <defs>
    <linearGradient id="background" x1="50%" y1="0%" x2="50%" y2="100%" >    
      <stop offset="0%" stop-color="#333232">
      </stop>
      <stop offset="100%" stop-color="#0f0e0e">
      </stop>
    </linearGradient> 
    <linearGradient id="primary" x1="0%" y1="50%" x2="100%" y2="50%" >    
      <stop offset="0%" stop-color="#808080">
      </stop>
      <stop offset="100%" stop-color="#e0e0e0">
      </stop>
    </linearGradient> 
  </defs>
  <!-- Hexagon -->
  <polygon 
    points="200,0 27,100 27,300 200,400 373,300 373,100" 
    fill="#2c2d2e" 
  />
  <polygon 
    points="200,370 53,285 53,115 200,30 347,115 347,285" 
    fill="url(#primary)" 
  />
  
  <!-- Anvil -->
  <polygon 
    points="
    130,125
    130,170
    60,125" 
    fill="url(#background)"  
    stroke="black"
  />
  <polygon 
    points="
    140,125
    140,175
    130,175
    130,125"
    fill="url(#background)" 
    stroke="black"
  />
  <polygon 
    points="
    340,125
    340,130 
    240,190 
    230,215 
    240,240 
    275,270 
    275,285
    250,285
    200,270
    150,285 
    125,285 
    125,270 
    160,240 
    170,215 
    160,190 
    142,179
    142,125" 
    fill="url(#background)" 
    stroke="black"
  />
</svg>