<svg width="269" height="55" viewBox="0 0 269 55" fill="none" xmlns="http://www.w3.org/2000/svg">
<path d="M21.2199 22.2424C21.2199 25.188 23.6077 27.5758 26.5532 27.5758C29.4987 27.5758 31.8865 25.188 31.8865 22.2424C31.8865 19.2969 29.4987 16.9091 26.5532 16.9091C23.6077 16.9091 21.2199 19.2969 21.2199 22.2424ZM0 22.2424L0 23.2424L26.5532 23.2424V22.2424V21.2424L0 21.2424L0 22.2424Z" fill="white"/>
<path d="M95.3812 8.97723C96.854 11.5281 100.116 12.4021 102.667 10.9294C105.218 9.45661 106.092 6.19479 104.619 3.6439C103.146 1.093 99.8842 0.219 97.3333 1.69176C94.7825 3.16452 93.9085 6.42633 95.3812 8.97723ZM77.0043 19.5872L77.5043 20.4532L100.5 7.17659L100 6.31056L99.5 5.44454L76.5043 18.7211L77.0043 19.5872Z" fill="white"/>
<path d="M95.3812 35.5079C93.9085 38.0588 94.7825 41.3206 97.3333 42.7933C99.8842 44.2661 103.146 43.3921 104.619 40.8412C106.092 38.2903 105.218 35.0285 102.667 33.5557C100.116 32.083 96.854 32.957 95.3812 35.5079ZM77.0043 24.8979L76.5043 25.764L99.5 39.0406L100 38.1745L100.5 37.3085L77.5043 24.0319L77.0043 24.8979Z" fill="white"/>
<path d="M127.453 26.9531C127.453 26.599 127.401 26.2812 127.297 26C127.193 25.7083 127 25.4375 126.719 25.1875C126.438 24.9375 126.031 24.6875 125.5 24.4375C124.979 24.1771 124.292 23.9062 123.438 23.625C122.438 23.2917 121.474 22.9167 120.547 22.5C119.62 22.0729 118.792 21.5781 118.062 21.0156C117.333 20.4427 116.755 19.776 116.328 19.0156C115.901 18.2448 115.688 17.349 115.688 16.3281C115.688 15.349 115.906 14.4688 116.344 13.6875C116.781 12.8958 117.391 12.224 118.172 11.6719C118.964 11.1094 119.891 10.6823 120.953 10.3906C122.016 10.0885 123.177 9.9375 124.438 9.9375C126.104 9.9375 127.573 10.2292 128.844 10.8125C130.125 11.3854 131.125 12.2031 131.844 13.2656C132.573 14.3177 132.938 15.5625 132.938 17H127.484C127.484 16.4271 127.365 15.9219 127.125 15.4844C126.896 15.0469 126.547 14.7031 126.078 14.4531C125.609 14.2031 125.021 14.0781 124.312 14.0781C123.625 14.0781 123.047 14.1823 122.578 14.3906C122.109 14.599 121.755 14.8802 121.516 15.2344C121.276 15.5781 121.156 15.9583 121.156 16.375C121.156 16.7188 121.25 17.0312 121.438 17.3125C121.635 17.5833 121.911 17.8385 122.266 18.0781C122.63 18.3177 123.068 18.5469 123.578 18.7656C124.099 18.9844 124.682 19.1979 125.328 19.4062C126.536 19.7917 127.609 20.224 128.547 20.7031C129.495 21.1719 130.292 21.7083 130.938 22.3125C131.594 22.9062 132.089 23.5833 132.422 24.3438C132.766 25.1042 132.938 25.9635 132.938 26.9219C132.938 27.9427 132.74 28.849 132.344 29.6406C131.948 30.4323 131.38 31.1042 130.641 31.6562C129.901 32.1979 129.016 32.6094 127.984 32.8906C126.953 33.1719 125.802 33.3125 124.531 33.3125C123.365 33.3125 122.214 33.1667 121.078 32.875C119.953 32.5729 118.932 32.1146 118.016 31.5C117.099 30.875 116.365 30.0781 115.812 29.1094C115.271 28.1302 115 26.9688 115 25.625H120.5C120.5 26.2917 120.589 26.8542 120.766 27.3125C120.943 27.7708 121.203 28.1406 121.547 28.4219C121.891 28.6927 122.312 28.8906 122.812 29.0156C123.312 29.1302 123.885 29.1875 124.531 29.1875C125.229 29.1875 125.792 29.0885 126.219 28.8906C126.646 28.6823 126.958 28.4115 127.156 28.0781C127.354 27.7344 127.453 27.3594 127.453 26.9531ZM140.828 19.3438V39.5H135.562V16.0938H140.469L140.828 19.3438ZM151.203 24.3438V24.6719C151.203 25.901 151.062 27.0417 150.781 28.0938C150.5 29.1458 150.083 30.0625 149.531 30.8438C148.979 31.625 148.292 32.2344 147.469 32.6719C146.656 33.099 145.714 33.3125 144.641 33.3125C143.63 33.3125 142.76 33.0885 142.031 32.6406C141.302 32.1927 140.693 31.5729 140.203 30.7812C139.714 29.9896 139.318 29.0833 139.016 28.0625C138.714 27.0417 138.474 25.9635 138.297 24.8281V24.4062C138.474 23.1875 138.714 22.0573 139.016 21.0156C139.318 19.9635 139.714 19.0469 140.203 18.2656C140.693 17.4844 141.297 16.875 142.016 16.4375C142.745 16 143.615 15.7812 144.625 15.7812C145.698 15.7812 146.641 15.9844 147.453 16.3906C148.276 16.7969 148.964 17.3802 149.516 18.1406C150.078 18.8906 150.5 19.7917 150.781 20.8438C151.062 21.8958 151.203 23.0625 151.203 24.3438ZM145.938 24.6719V24.3438C145.938 23.6875 145.891 23.0885 145.797 22.5469C145.703 21.9948 145.552 21.5156 145.344 21.1094C145.146 20.7031 144.88 20.3906 144.547 20.1719C144.214 19.9531 143.802 19.8438 143.312 19.8438C142.75 19.8438 142.276 19.9323 141.891 20.1094C141.516 20.276 141.214 20.5365 140.984 20.8906C140.766 21.2344 140.609 21.6667 140.516 22.1875C140.432 22.6979 140.396 23.2969 140.406 23.9844V25.2656C140.385 26.0573 140.464 26.7552 140.641 27.3594C140.818 27.9531 141.125 28.4167 141.562 28.75C142 29.0833 142.594 29.25 143.344 29.25C143.844 29.25 144.26 29.1354 144.594 28.9062C144.927 28.6667 145.193 28.3385 145.391 27.9219C145.589 27.4948 145.729 27.0052 145.812 26.4531C145.896 25.901 145.938 25.3073 145.938 24.6719ZM159.109 9V33H153.828V9H159.109ZM167.922 16.0938V33H162.641V16.0938H167.922ZM162.328 11.7344C162.328 10.9844 162.599 10.3698 163.141 9.89062C163.682 9.41146 164.385 9.17188 165.25 9.17188C166.115 9.17188 166.818 9.41146 167.359 9.89062C167.901 10.3698 168.172 10.9844 168.172 11.7344C168.172 12.4844 167.901 13.099 167.359 13.5781C166.818 14.0573 166.115 14.2969 165.25 14.2969C164.385 14.2969 163.682 14.0573 163.141 13.5781C162.599 13.099 162.328 12.4844 162.328 11.7344ZM180.078 16.0938V19.75H169.891V16.0938H180.078ZM172.031 11.8906H177.297V27.4844C177.297 27.9323 177.349 28.2812 177.453 28.5312C177.557 28.7708 177.734 28.9427 177.984 29.0469C178.245 29.1406 178.589 29.1875 179.016 29.1875C179.318 29.1875 179.568 29.1823 179.766 29.1719C179.964 29.151 180.151 29.125 180.328 29.0938V32.8594C179.88 33.0052 179.411 33.1146 178.922 33.1875C178.432 33.2708 177.911 33.3125 177.359 33.3125C176.234 33.3125 175.271 33.1354 174.469 32.7812C173.677 32.4271 173.073 31.8698 172.656 31.1094C172.24 30.349 172.031 29.3594 172.031 28.1406V11.8906ZM191.078 16.0938V19.75H180.891V16.0938H191.078ZM183.031 11.8906H188.297V27.4844C188.297 27.9323 188.349 28.2812 188.453 28.5312C188.557 28.7708 188.734 28.9427 188.984 29.0469C189.245 29.1406 189.589 29.1875 190.016 29.1875C190.318 29.1875 190.568 29.1823 190.766 29.1719C190.964 29.151 191.151 29.125 191.328 29.0938V32.8594C190.88 33.0052 190.411 33.1146 189.922 33.1875C189.432 33.2708 188.911 33.3125 188.359 33.3125C187.234 33.3125 186.271 33.1354 185.469 32.7812C184.677 32.4271 184.073 31.8698 183.656 31.1094C183.24 30.349 183.031 29.3594 183.031 28.1406V11.8906ZM201.359 33.3125C199.984 33.3125 198.755 33.099 197.672 32.6719C196.589 32.2344 195.672 31.6354 194.922 30.875C194.182 30.1146 193.615 29.2396 193.219 28.25C192.833 27.2604 192.641 26.2135 192.641 25.1094V24.5156C192.641 23.276 192.812 22.1302 193.156 21.0781C193.5 20.0156 194.01 19.0885 194.688 18.2969C195.365 17.5052 196.214 16.8906 197.234 16.4531C198.255 16.0052 199.443 15.7812 200.797 15.7812C201.995 15.7812 203.068 15.974 204.016 16.3594C204.964 16.7448 205.766 17.2969 206.422 18.0156C207.089 18.7344 207.594 19.6042 207.938 20.625C208.292 21.6458 208.469 22.7917 208.469 24.0625V26.2031H194.656V22.9062H203.328V22.5C203.339 21.9375 203.24 21.4583 203.031 21.0625C202.833 20.6667 202.542 20.3646 202.156 20.1562C201.771 19.9479 201.302 19.8438 200.75 19.8438C200.177 19.8438 199.703 19.9688 199.328 20.2188C198.964 20.4688 198.677 20.8125 198.469 21.25C198.271 21.6771 198.13 22.1719 198.047 22.7344C197.964 23.2969 197.922 23.8906 197.922 24.5156V25.1094C197.922 25.7344 198.005 26.3021 198.172 26.8125C198.349 27.3229 198.599 27.7604 198.922 28.125C199.255 28.4792 199.651 28.7552 200.109 28.9531C200.578 29.151 201.109 29.25 201.703 29.25C202.422 29.25 203.13 29.1146 203.828 28.8438C204.526 28.5729 205.125 28.125 205.625 27.5L208.016 30.3438C207.672 30.8333 207.182 31.3073 206.547 31.7656C205.922 32.224 205.172 32.599 204.297 32.8906C203.422 33.1719 202.443 33.3125 201.359 33.3125ZM215.922 20.2812V33H210.656V16.0938H215.578L215.922 20.2812ZM220.922 15.9688L220.828 20.8594C220.62 20.8385 220.339 20.8125 219.984 20.7812C219.63 20.75 219.333 20.7344 219.094 20.7344C218.479 20.7344 217.948 20.8073 217.5 20.9531C217.062 21.0885 216.698 21.2969 216.406 21.5781C216.125 21.849 215.917 22.1927 215.781 22.6094C215.656 23.026 215.599 23.5104 215.609 24.0625L214.656 23.4375C214.656 22.3021 214.766 21.2708 214.984 20.3438C215.214 19.4062 215.536 18.599 215.953 17.9219C216.37 17.2344 216.875 16.7083 217.469 16.3438C218.062 15.9688 218.729 15.7812 219.469 15.7812C219.729 15.7812 219.984 15.7969 220.234 15.8281C220.495 15.8594 220.724 15.9062 220.922 15.9688ZM224.844 10.25H227.766L235.219 28.7969L242.656 10.25H245.594L236.344 33H234.062L224.844 10.25ZM223.891 10.25H226.469L226.891 24.125V33H223.891V10.25ZM243.953 10.25H246.531V33H243.531V24.125L243.953 10.25ZM251.828 10.25H259.359C261.068 10.25 262.51 10.5104 263.688 11.0312C264.875 11.5521 265.776 12.3229 266.391 13.3438C267.016 14.3542 267.328 15.599 267.328 17.0781C267.328 18.1198 267.115 19.0729 266.688 19.9375C266.271 20.7917 265.667 21.5208 264.875 22.125C264.094 22.7188 263.156 23.1615 262.062 23.4531L261.219 23.7812H254.141L254.109 21.3281H259.453C260.536 21.3281 261.438 21.1406 262.156 20.7656C262.875 20.3802 263.417 19.8646 263.781 19.2188C264.146 18.5729 264.328 17.8594 264.328 17.0781C264.328 16.2031 264.156 15.4375 263.812 14.7812C263.469 14.125 262.927 13.6198 262.188 13.2656C261.458 12.901 260.516 12.7188 259.359 12.7188H254.844V33H251.828V10.25ZM265.125 33L259.594 22.6875L262.734 22.6719L268.344 32.8125V33H265.125Z" fill="white"/>
<path d="M8.14844 51.0049H8.68896C8.64502 51.4355 8.52637 51.8076 8.33301 52.1211C8.13965 52.4316 7.87598 52.6704 7.54199 52.8374C7.20801 53.0044 6.80518 53.0879 6.3335 53.0879C5.97021 53.0879 5.64062 53.019 5.34473 52.8813C5.05176 52.7437 4.7998 52.5488 4.58887 52.2969C4.37793 52.042 4.21533 51.7373 4.10107 51.3828C3.98682 51.0283 3.92969 50.6343 3.92969 50.2007V49.4009C3.92969 48.9673 3.98682 48.5747 4.10107 48.2231C4.21533 47.8687 4.37939 47.564 4.59326 47.3091C4.80713 47.0542 5.06348 46.8579 5.3623 46.7202C5.66113 46.5825 5.99805 46.5137 6.37305 46.5137C6.82715 46.5137 7.21973 46.5972 7.55078 46.7642C7.88184 46.9282 8.14258 47.1655 8.33301 47.4761C8.52637 47.7866 8.64502 48.1616 8.68896 48.6011H8.14844C8.10742 48.2554 8.0166 47.9624 7.87598 47.7222C7.73535 47.4819 7.54053 47.2988 7.2915 47.1729C7.04541 47.0439 6.73926 46.9795 6.37305 46.9795C6.07422 46.9795 5.80762 47.0366 5.57324 47.1509C5.33887 47.2651 5.13965 47.4292 4.97559 47.6431C4.81152 47.854 4.68555 48.1074 4.59766 48.4033C4.5127 48.6992 4.47021 49.0288 4.47021 49.3921V50.2007C4.47021 50.5522 4.51123 50.876 4.59326 51.1719C4.67529 51.4678 4.79541 51.7241 4.95361 51.9409C5.11475 52.1577 5.31104 52.3262 5.54248 52.4463C5.77393 52.5664 6.0376 52.6265 6.3335 52.6265C6.71143 52.6265 7.02637 52.5664 7.27832 52.4463C7.5332 52.3232 7.73096 52.1416 7.87158 51.9014C8.01221 51.6611 8.10449 51.3623 8.14844 51.0049ZM10.4072 46.25V53H9.88428V46.25H10.4072ZM10.2886 50.3281L10.0557 50.1963C10.0732 49.915 10.1304 49.6514 10.2271 49.4053C10.3237 49.1592 10.4541 48.9424 10.6182 48.7549C10.7852 48.5674 10.98 48.4209 11.2026 48.3154C11.4282 48.21 11.6772 48.1572 11.9497 48.1572C12.187 48.1572 12.3994 48.1895 12.5869 48.2539C12.7744 48.3184 12.9341 48.4209 13.0659 48.5615C13.1978 48.7021 13.2974 48.8823 13.3647 49.1021C13.4351 49.3218 13.4702 49.5898 13.4702 49.9062V53H12.9429V49.9019C12.9429 49.5737 12.8975 49.3174 12.8066 49.1328C12.7158 48.9453 12.5869 48.812 12.4199 48.7329C12.2529 48.6538 12.0552 48.6143 11.8267 48.6143C11.5747 48.6143 11.3535 48.6699 11.1631 48.7812C10.9756 48.8896 10.8174 49.0317 10.6885 49.2075C10.5625 49.3804 10.4658 49.5664 10.3984 49.7656C10.3311 49.9619 10.2944 50.1494 10.2886 50.3281ZM17.8691 51.9014V48.2451H18.3965V53H17.8911L17.8691 51.9014ZM17.9658 51.0225L18.2383 51.0137C18.2383 51.3125 18.2031 51.5879 18.1328 51.8398C18.0625 52.0918 17.9526 52.3115 17.8032 52.499C17.6538 52.6865 17.4604 52.8315 17.2231 52.9341C16.9858 53.0366 16.7002 53.0879 16.3662 53.0879C16.1348 53.0879 15.9224 53.0557 15.729 52.9912C15.5386 52.9238 15.3745 52.8184 15.2368 52.6748C15.0991 52.5312 14.9922 52.3452 14.916 52.1167C14.8428 51.8882 14.8062 51.6113 14.8062 51.2861V48.2451H15.3291V51.2949C15.3291 51.5498 15.3569 51.7622 15.4126 51.9321C15.4712 52.1021 15.5503 52.2383 15.6499 52.3408C15.7524 52.4434 15.8696 52.5166 16.0015 52.5605C16.1333 52.6045 16.2754 52.6265 16.4277 52.6265C16.8145 52.6265 17.1191 52.5518 17.3418 52.4023C17.5674 52.2529 17.7271 52.0566 17.8208 51.8135C17.9175 51.5674 17.9658 51.3037 17.9658 51.0225ZM20.2949 49.2603V53H19.772V48.2451H20.2729L20.2949 49.2603ZM20.1763 50.3281L19.9434 50.1963C19.9609 49.915 20.0181 49.6514 20.1147 49.4053C20.2114 49.1592 20.3418 48.9424 20.5059 48.7549C20.6729 48.5674 20.8677 48.4209 21.0903 48.3154C21.3159 48.21 21.5649 48.1572 21.8374 48.1572C22.0747 48.1572 22.2871 48.1895 22.4746 48.2539C22.6621 48.3184 22.8218 48.4209 22.9536 48.5615C23.0854 48.7021 23.1851 48.8823 23.2524 49.1021C23.3228 49.3218 23.3579 49.5898 23.3579 49.9062V53H22.8306V49.9019C22.8306 49.5737 22.7852 49.3174 22.6943 49.1328C22.6035 48.9453 22.4746 48.812 22.3076 48.7329C22.1406 48.6538 21.9429 48.6143 21.7144 48.6143C21.4624 48.6143 21.2412 48.6699 21.0508 48.7812C20.8633 48.8896 20.7051 49.0317 20.5762 49.2075C20.4502 49.3804 20.3535 49.5664 20.2861 49.7656C20.2188 49.9619 20.1821 50.1494 20.1763 50.3281ZM25.2432 46.25V53H24.7202V46.25H25.2432ZM28.2271 48.2451L26.0034 50.4512L25.0586 51.3652L24.9795 50.8511L25.7397 50.0293L27.5635 48.2451H28.2271ZM27.77 53L25.7837 50.5303L26.0737 50.0776L28.4028 53H27.77ZM32.7402 52.5254L34.2212 48.2451H34.7881L32.7754 53.7646C32.7344 53.873 32.6816 53.9932 32.6172 54.125C32.5557 54.2568 32.4736 54.3828 32.3711 54.5029C32.2715 54.626 32.1455 54.7256 31.9932 54.8018C31.8438 54.8809 31.6606 54.9204 31.4438 54.9204C31.3882 54.9204 31.3164 54.9131 31.2285 54.8984C31.1436 54.8867 31.082 54.875 31.0439 54.8633L31.0396 54.4194C31.0718 54.4282 31.1187 54.4355 31.1802 54.4414C31.2417 54.4473 31.2842 54.4502 31.3076 54.4502C31.498 54.4502 31.6577 54.418 31.7866 54.3535C31.9185 54.2891 32.0283 54.1924 32.1162 54.0635C32.2041 53.9375 32.2817 53.7793 32.3491 53.5889L32.7402 52.5254ZM31.356 48.2451L32.8721 52.3276L33.0127 52.877L32.6304 53.0923L30.7847 48.2451H31.356ZM35.2495 50.6973V50.5522C35.2495 50.2065 35.2993 49.8872 35.3989 49.5942C35.4985 49.3013 35.6406 49.0479 35.8252 48.834C36.0127 48.6201 36.2368 48.4546 36.4976 48.3374C36.7583 48.2173 37.0483 48.1572 37.3677 48.1572C37.6899 48.1572 37.9814 48.2173 38.2422 48.3374C38.5029 48.4546 38.7271 48.6201 38.9146 48.834C39.1021 49.0479 39.2456 49.3013 39.3452 49.5942C39.4448 49.8872 39.4946 50.2065 39.4946 50.5522V50.6973C39.4946 51.043 39.4448 51.3623 39.3452 51.6553C39.2456 51.9453 39.1021 52.1973 38.9146 52.4111C38.73 52.625 38.5073 52.792 38.2466 52.9121C37.9858 53.0293 37.6958 53.0879 37.3765 53.0879C37.0542 53.0879 36.7627 53.0293 36.502 52.9121C36.2412 52.792 36.0171 52.625 35.8296 52.4111C35.6421 52.1973 35.4985 51.9453 35.3989 51.6553C35.2993 51.3623 35.2495 51.043 35.2495 50.6973ZM35.7725 50.5522V50.6973C35.7725 50.958 35.8076 51.2056 35.8779 51.4399C35.9482 51.6714 36.0508 51.8779 36.1855 52.0596C36.3203 52.2383 36.4873 52.3789 36.6865 52.4814C36.8857 52.584 37.1157 52.6353 37.3765 52.6353C37.6343 52.6353 37.8613 52.584 38.0576 52.4814C38.2568 52.3789 38.4238 52.2383 38.5586 52.0596C38.6934 51.8779 38.7944 51.6714 38.8618 51.4399C38.9321 51.2056 38.9673 50.958 38.9673 50.6973V50.5522C38.9673 50.2944 38.9321 50.0498 38.8618 49.8184C38.7944 49.5869 38.6919 49.3804 38.5542 49.1987C38.4194 49.0171 38.2524 48.8735 38.0532 48.7681C37.854 48.6626 37.6255 48.6099 37.3677 48.6099C37.1099 48.6099 36.8813 48.6626 36.6821 48.7681C36.4858 48.8735 36.3188 49.0171 36.1812 49.1987C36.0464 49.3804 35.9438 49.5869 35.8735 49.8184C35.8062 50.0498 35.7725 50.2944 35.7725 50.5522ZM43.6299 51.9014V48.2451H44.1572V53H43.6519L43.6299 51.9014ZM43.7266 51.0225L43.999 51.0137C43.999 51.3125 43.9639 51.5879 43.8936 51.8398C43.8232 52.0918 43.7134 52.3115 43.564 52.499C43.4146 52.6865 43.2212 52.8315 42.9839 52.9341C42.7466 53.0366 42.4609 53.0879 42.127 53.0879C41.8955 53.0879 41.6831 53.0557 41.4897 52.9912C41.2993 52.9238 41.1353 52.8184 40.9976 52.6748C40.8599 52.5312 40.7529 52.3452 40.6768 52.1167C40.6035 51.8882 40.5669 51.6113 40.5669 51.2861V48.2451H41.0898V51.2949C41.0898 51.5498 41.1177 51.7622 41.1733 51.9321C41.2319 52.1021 41.311 52.2383 41.4106 52.3408C41.5132 52.4434 41.6304 52.5166 41.7622 52.5605C41.894 52.6045 42.0361 52.6265 42.1885 52.6265C42.5752 52.6265 42.8799 52.5518 43.1025 52.4023C43.3281 52.2529 43.4878 52.0566 43.5815 51.8135C43.6782 51.5674 43.7266 51.3037 43.7266 51.0225ZM46.0557 49.0317V53H45.5327V48.2451H46.0425L46.0557 49.0317ZM47.7388 48.21L47.7256 48.6934C47.667 48.6846 47.6099 48.6772 47.5542 48.6714C47.4985 48.6655 47.4385 48.6626 47.374 48.6626C47.1455 48.6626 46.9448 48.7051 46.772 48.79C46.6021 48.8721 46.4585 48.9878 46.3413 49.1372C46.2241 49.2837 46.1348 49.4565 46.0732 49.6558C46.0117 49.8521 45.9766 50.063 45.9678 50.2886L45.7744 50.3633C45.7744 50.0527 45.8066 49.7642 45.8711 49.4976C45.9355 49.231 46.0337 48.998 46.1655 48.7988C46.3003 48.5967 46.4688 48.4399 46.6709 48.3286C46.876 48.2144 47.1162 48.1572 47.3916 48.1572C47.459 48.1572 47.5249 48.1631 47.5894 48.1748C47.6567 48.1836 47.7065 48.1953 47.7388 48.21ZM53.8516 52.0771V46.25H54.3789V53H53.8867L53.8516 52.0771ZM50.5513 50.6709V50.5786C50.5513 50.2095 50.5938 49.877 50.6787 49.5811C50.7637 49.2822 50.8853 49.0273 51.0435 48.8164C51.2046 48.6025 51.3979 48.4399 51.6235 48.3286C51.8491 48.2144 52.104 48.1572 52.3882 48.1572C52.6665 48.1572 52.9126 48.2026 53.1265 48.2935C53.3403 48.3843 53.5234 48.5146 53.6758 48.6846C53.8311 48.8545 53.9556 49.0566 54.0493 49.291C54.146 49.5254 54.2163 49.7861 54.2603 50.0732V51.2466C54.2251 51.5161 54.1606 51.7637 54.0669 51.9893C53.9731 52.2119 53.8486 52.4067 53.6934 52.5737C53.5381 52.7378 53.3506 52.8652 53.1309 52.9561C52.9141 53.0439 52.6636 53.0879 52.3794 53.0879C52.0981 53.0879 51.8447 53.0293 51.6191 52.9121C51.3936 52.7949 51.2017 52.6294 51.0435 52.4155C50.8853 52.1987 50.7637 51.9424 50.6787 51.6465C50.5938 51.3506 50.5513 51.0254 50.5513 50.6709ZM51.0786 50.5786V50.6709C51.0786 50.9492 51.1064 51.207 51.1621 51.4443C51.2178 51.6816 51.3027 51.8882 51.417 52.064C51.5312 52.2397 51.6763 52.3774 51.8521 52.4771C52.0278 52.5767 52.2358 52.6265 52.4761 52.6265C52.7778 52.6265 53.0312 52.5693 53.2363 52.4551C53.4414 52.3379 53.6055 52.1841 53.7285 51.9937C53.8516 51.8003 53.9409 51.5894 53.9966 51.3608V49.9941C53.9614 49.8389 53.9102 49.6807 53.8428 49.5195C53.7754 49.3584 53.6831 49.2104 53.5659 49.0757C53.4517 48.938 53.3052 48.8281 53.1265 48.7461C52.9507 48.6611 52.7368 48.6187 52.4849 48.6187C52.2417 48.6187 52.0322 48.6685 51.8564 48.7681C51.6807 48.8677 51.5342 49.0068 51.417 49.1855C51.3027 49.3613 51.2178 49.5679 51.1621 49.8052C51.1064 50.0425 51.0786 50.3003 51.0786 50.5786ZM55.4731 50.6973V50.5522C55.4731 50.2065 55.5229 49.8872 55.6226 49.5942C55.7222 49.3013 55.8643 49.0479 56.0488 48.834C56.2363 48.6201 56.4604 48.4546 56.7212 48.3374C56.9819 48.2173 57.272 48.1572 57.5913 48.1572C57.9136 48.1572 58.2051 48.2173 58.4658 48.3374C58.7266 48.4546 58.9507 48.6201 59.1382 48.834C59.3257 49.0479 59.4692 49.3013 59.5688 49.5942C59.6685 49.8872 59.7183 50.2065 59.7183 50.5522V50.6973C59.7183 51.043 59.6685 51.3623 59.5688 51.6553C59.4692 51.9453 59.3257 52.1973 59.1382 52.4111C58.9536 52.625 58.731 52.792 58.4702 52.9121C58.2095 53.0293 57.9194 53.0879 57.6001 53.0879C57.2778 53.0879 56.9863 53.0293 56.7256 52.9121C56.4648 52.792 56.2407 52.625 56.0532 52.4111C55.8657 52.1973 55.7222 51.9453 55.6226 51.6553C55.5229 51.3623 55.4731 51.043 55.4731 50.6973ZM55.9961 50.5522V50.6973C55.9961 50.958 56.0312 51.2056 56.1016 51.4399C56.1719 51.6714 56.2744 51.8779 56.4092 52.0596C56.5439 52.2383 56.7109 52.3789 56.9102 52.4814C57.1094 52.584 57.3394 52.6353 57.6001 52.6353C57.8579 52.6353 58.085 52.584 58.2812 52.4814C58.4805 52.3789 58.6475 52.2383 58.7822 52.0596C58.917 51.8779 59.0181 51.6714 59.0854 51.4399C59.1558 51.2056 59.1909 50.958 59.1909 50.6973V50.5522C59.1909 50.2944 59.1558 50.0498 59.0854 49.8184C59.0181 49.5869 58.9155 49.3804 58.7778 49.1987C58.6431 49.0171 58.4761 48.8735 58.2769 48.7681C58.0776 48.6626 57.8491 48.6099 57.5913 48.6099C57.3335 48.6099 57.105 48.6626 56.9058 48.7681C56.7095 48.8735 56.5425 49.0171 56.4048 49.1987C56.27 49.3804 56.1675 49.5869 56.0972 49.8184C56.0298 50.0498 55.9961 50.2944 55.9961 50.5522ZM62.5615 52.6353C62.7842 52.6353 62.9922 52.5942 63.1855 52.5122C63.3818 52.4272 63.543 52.3027 63.6689 52.1387C63.7979 51.9717 63.8711 51.7681 63.8887 51.5278H64.3896C64.375 51.8296 64.2827 52.0991 64.1128 52.3364C63.9458 52.5708 63.7261 52.7554 63.4536 52.8901C63.1841 53.022 62.8867 53.0879 62.5615 53.0879C62.2305 53.0879 61.9375 53.0278 61.6826 52.9077C61.4307 52.7876 61.2197 52.6206 61.0498 52.4067C60.8799 52.1899 60.751 51.938 60.6631 51.6509C60.5781 51.3608 60.5356 51.0488 60.5356 50.7148V50.5303C60.5356 50.1963 60.5781 49.8857 60.6631 49.5986C60.751 49.3086 60.8799 49.0566 61.0498 48.8428C61.2197 48.626 61.4307 48.4575 61.6826 48.3374C61.9346 48.2173 62.2261 48.1572 62.5571 48.1572C62.897 48.1572 63.2017 48.2261 63.4712 48.3638C63.7437 48.5015 63.9604 48.6963 64.1216 48.9482C64.2856 49.2002 64.375 49.499 64.3896 49.8447H63.8887C63.874 49.5898 63.8066 49.3701 63.6865 49.1855C63.5664 49.001 63.4082 48.8589 63.2119 48.7593C63.0156 48.6597 62.7974 48.6099 62.5571 48.6099C62.2876 48.6099 62.0576 48.6626 61.8672 48.7681C61.6768 48.8706 61.5215 49.0127 61.4014 49.1943C61.2842 49.373 61.1978 49.5781 61.1421 49.8096C61.0864 50.0381 61.0586 50.2783 61.0586 50.5303V50.7148C61.0586 50.9697 61.085 51.2129 61.1377 51.4443C61.1934 51.6729 61.2798 51.8765 61.397 52.0552C61.5171 52.2339 61.6724 52.376 61.8628 52.4814C62.0562 52.584 62.2891 52.6353 62.5615 52.6353ZM68.4941 51.9014V48.2451H69.0215V53H68.5161L68.4941 51.9014ZM68.5908 51.0225L68.8633 51.0137C68.8633 51.3125 68.8281 51.5879 68.7578 51.8398C68.6875 52.0918 68.5776 52.3115 68.4282 52.499C68.2788 52.6865 68.0854 52.8315 67.8481 52.9341C67.6108 53.0366 67.3252 53.0879 66.9912 53.0879C66.7598 53.0879 66.5474 53.0557 66.354 52.9912C66.1636 52.9238 65.9995 52.8184 65.8618 52.6748C65.7241 52.5312 65.6172 52.3452 65.541 52.1167C65.4678 51.8882 65.4312 51.6113 65.4312 51.2861V48.2451H65.9541V51.2949C65.9541 51.5498 65.9819 51.7622 66.0376 51.9321C66.0962 52.1021 66.1753 52.2383 66.2749 52.3408C66.3774 52.4434 66.4946 52.5166 66.6265 52.5605C66.7583 52.6045 66.9004 52.6265 67.0527 52.6265C67.4395 52.6265 67.7441 52.5518 67.9668 52.4023C68.1924 52.2529 68.3521 52.0566 68.4458 51.8135C68.5425 51.5674 68.5908 51.3037 68.5908 51.0225ZM70.8936 49.2295V53H70.3662V48.2451H70.8716L70.8936 49.2295ZM70.7969 50.3281L70.542 50.1963C70.5596 49.915 70.6123 49.6514 70.7002 49.4053C70.791 49.1592 70.917 48.9424 71.0781 48.7549C71.2393 48.5674 71.4326 48.4209 71.6582 48.3154C71.8838 48.21 72.1401 48.1572 72.4272 48.1572C72.6587 48.1572 72.8682 48.1895 73.0557 48.2539C73.2461 48.3154 73.4072 48.4136 73.5391 48.5483C73.6738 48.6802 73.7778 48.853 73.8511 49.0669C73.9243 49.2808 73.9609 49.5371 73.9609 49.8359V53H73.438V49.8535C73.438 49.5371 73.3882 49.2896 73.2886 49.1108C73.1919 48.9321 73.0557 48.8047 72.8799 48.7285C72.707 48.6523 72.5063 48.6143 72.2778 48.6143C72.0083 48.6143 71.7798 48.6699 71.5923 48.7812C71.4077 48.8896 71.2568 49.0317 71.1396 49.2075C71.0254 49.3804 70.9404 49.5664 70.8848 49.7656C70.8291 49.9619 70.7998 50.1494 70.7969 50.3281ZM73.9565 49.915L73.605 49.9238C73.6196 49.6924 73.6724 49.4712 73.7632 49.2603C73.8569 49.0493 73.9844 48.8618 74.1455 48.6978C74.3066 48.5308 74.4985 48.3989 74.7212 48.3022C74.9468 48.2056 75.2002 48.1572 75.4814 48.1572C75.7275 48.1572 75.9473 48.1909 76.1406 48.2583C76.334 48.3228 76.4966 48.4268 76.6284 48.5703C76.7632 48.7109 76.8657 48.8911 76.936 49.1108C77.0063 49.3306 77.0415 49.5942 77.0415 49.9019V53H76.5142V49.8975C76.5142 49.5605 76.4644 49.2998 76.3647 49.1152C76.2681 48.9277 76.1333 48.7974 75.9604 48.7241C75.7876 48.6509 75.5854 48.6143 75.354 48.6143C75.1255 48.6172 74.9248 48.6597 74.752 48.7417C74.5791 48.8208 74.4341 48.9263 74.3169 49.0581C74.2026 49.187 74.1147 49.3262 74.0532 49.4756C73.9946 49.625 73.9624 49.7715 73.9565 49.915ZM80.2144 53.0879C79.9038 53.0879 79.6182 53.0308 79.3574 52.9165C79.0996 52.8022 78.874 52.6411 78.6807 52.4331C78.4902 52.2251 78.3423 51.979 78.2368 51.6948C78.1343 51.4077 78.083 51.0942 78.083 50.7544V50.5654C78.083 50.1992 78.1372 49.8682 78.2456 49.5723C78.354 49.2764 78.5034 49.0229 78.6938 48.812C78.8843 48.6011 79.1011 48.4399 79.3442 48.3286C79.5903 48.2144 79.8481 48.1572 80.1177 48.1572C80.4194 48.1572 80.6875 48.2114 80.9219 48.3198C81.1562 48.4253 81.3525 48.5762 81.5107 48.7725C81.6719 48.9658 81.7935 49.1958 81.8755 49.4624C81.9575 49.7261 81.9985 50.0176 81.9985 50.3369V50.6577H78.3994V50.2095H81.4756V50.1479C81.4697 49.8813 81.4155 49.6323 81.313 49.4009C81.2134 49.1665 81.064 48.9761 80.8647 48.8296C80.6655 48.6831 80.4165 48.6099 80.1177 48.6099C79.895 48.6099 79.6899 48.6567 79.5024 48.7505C79.3179 48.8442 79.1582 48.979 79.0234 49.1548C78.8916 49.3276 78.7891 49.5342 78.7158 49.7744C78.6455 50.0117 78.6104 50.2754 78.6104 50.5654V50.7544C78.6104 51.0181 78.6484 51.2642 78.7246 51.4927C78.8037 51.7183 78.915 51.9175 79.0586 52.0903C79.2051 52.2632 79.3779 52.3979 79.5771 52.4946C79.7764 52.5913 79.9961 52.6396 80.2363 52.6396C80.5176 52.6396 80.7666 52.5884 80.9834 52.4858C81.2002 52.3804 81.395 52.2148 81.5679 51.9893L81.8975 52.2441C81.7949 52.3965 81.666 52.5371 81.5107 52.666C81.3584 52.7949 81.1753 52.8975 80.9614 52.9736C80.7476 53.0498 80.4985 53.0879 80.2144 53.0879ZM83.5586 49.2603V53H83.0356V48.2451H83.5366L83.5586 49.2603ZM83.4399 50.3281L83.207 50.1963C83.2246 49.915 83.2817 49.6514 83.3784 49.4053C83.4751 49.1592 83.6055 48.9424 83.7695 48.7549C83.9365 48.5674 84.1313 48.4209 84.354 48.3154C84.5796 48.21 84.8286 48.1572 85.1011 48.1572C85.3384 48.1572 85.5508 48.1895 85.7383 48.2539C85.9258 48.3184 86.0854 48.4209 86.2173 48.5615C86.3491 48.7021 86.4487 48.8823 86.5161 49.1021C86.5864 49.3218 86.6216 49.5898 86.6216 49.9062V53H86.0942V49.9019C86.0942 49.5737 86.0488 49.3174 85.958 49.1328C85.8672 48.9453 85.7383 48.812 85.5713 48.7329C85.4043 48.6538 85.2065 48.6143 84.978 48.6143C84.7261 48.6143 84.5049 48.6699 84.3145 48.7812C84.127 48.8896 83.9688 49.0317 83.8398 49.2075C83.7139 49.3804 83.6172 49.5664 83.5498 49.7656C83.4824 49.9619 83.4458 50.1494 83.4399 50.3281ZM89.7812 48.2451V48.6758H87.3994V48.2451H89.7812ZM88.2739 47.0234H88.7969V51.8442C88.7969 52.064 88.8262 52.2295 88.8848 52.3408C88.9434 52.4521 89.0195 52.5269 89.1133 52.5649C89.207 52.603 89.3081 52.6221 89.4165 52.6221C89.4956 52.6221 89.5718 52.6177 89.645 52.6089C89.7183 52.5972 89.7842 52.5854 89.8428 52.5737L89.8647 53.0176C89.8003 53.0381 89.7168 53.0542 89.6143 53.0659C89.5117 53.0806 89.4092 53.0879 89.3066 53.0879C89.1045 53.0879 88.9258 53.0513 88.7705 52.978C88.6152 52.9019 88.4937 52.7729 88.4058 52.5913C88.3179 52.4067 88.2739 52.1562 88.2739 51.8398V47.0234ZM93.7319 51.7871C93.7319 51.6582 93.6997 51.5308 93.6353 51.4048C93.5708 51.2788 93.4463 51.1631 93.2617 51.0576C93.0801 50.9521 92.812 50.8628 92.4575 50.7896C92.1938 50.731 91.958 50.665 91.75 50.5918C91.5449 50.5186 91.3721 50.4307 91.2314 50.3281C91.0908 50.2256 90.9839 50.1025 90.9106 49.959C90.8374 49.8154 90.8008 49.6455 90.8008 49.4492C90.8008 49.2734 90.8389 49.1079 90.915 48.9526C90.9941 48.7944 91.1055 48.6567 91.249 48.5396C91.3955 48.4194 91.5713 48.3257 91.7764 48.2583C91.9844 48.1909 92.2173 48.1572 92.4751 48.1572C92.8413 48.1572 93.1548 48.2202 93.4155 48.3462C93.6792 48.4692 93.8799 48.6377 94.0176 48.8516C94.1582 49.0654 94.2285 49.3071 94.2285 49.5767H93.7056C93.7056 49.4126 93.6572 49.2573 93.5605 49.1108C93.4668 48.9644 93.3276 48.8442 93.1431 48.7505C92.9614 48.6567 92.7388 48.6099 92.4751 48.6099C92.2026 48.6099 91.9814 48.6509 91.8115 48.7329C91.6416 48.8149 91.5171 48.9189 91.438 49.0449C91.3618 49.1709 91.3237 49.3013 91.3237 49.436C91.3237 49.5415 91.3398 49.6382 91.3721 49.7261C91.4072 49.811 91.4688 49.8901 91.5566 49.9634C91.6475 50.0366 91.7764 50.1055 91.9434 50.1699C92.1104 50.2344 92.3271 50.2974 92.5938 50.3589C92.9775 50.4438 93.291 50.5479 93.5342 50.6709C93.7803 50.791 93.9619 50.9404 94.0791 51.1191C94.1963 51.2949 94.2549 51.5088 94.2549 51.7607C94.2549 51.957 94.2139 52.1372 94.1318 52.3013C94.0498 52.4624 93.9312 52.6016 93.7759 52.7188C93.6235 52.8359 93.439 52.9268 93.2222 52.9912C93.0083 53.0557 92.7681 53.0879 92.5015 53.0879C92.1001 53.0879 91.7603 53.022 91.4819 52.8901C91.2065 52.7554 90.9971 52.5796 90.8535 52.3628C90.7129 52.1431 90.6426 51.9102 90.6426 51.6641H91.1655C91.1831 51.9102 91.2607 52.105 91.3984 52.2485C91.5361 52.3892 91.7046 52.4888 91.9038 52.5474C92.106 52.606 92.3052 52.6353 92.5015 52.6353C92.771 52.6353 92.9966 52.5957 93.1782 52.5166C93.3599 52.4375 93.4976 52.3335 93.5913 52.2046C93.6851 52.0757 93.7319 51.9365 93.7319 51.7871ZM99.4404 48.2451V48.6758H97.0586V48.2451H99.4404ZM97.9331 47.0234H98.4561V51.8442C98.4561 52.064 98.4854 52.2295 98.5439 52.3408C98.6025 52.4521 98.6787 52.5269 98.7725 52.5649C98.8662 52.603 98.9673 52.6221 99.0757 52.6221C99.1548 52.6221 99.231 52.6177 99.3042 52.6089C99.3774 52.5972 99.4434 52.5854 99.502 52.5737L99.5239 53.0176C99.4595 53.0381 99.376 53.0542 99.2734 53.0659C99.1709 53.0806 99.0684 53.0879 98.9658 53.0879C98.7637 53.0879 98.585 53.0513 98.4297 52.978C98.2744 52.9019 98.1528 52.7729 98.0649 52.5913C97.9771 52.4067 97.9331 52.1562 97.9331 51.8398V47.0234ZM102.38 53.0879C102.07 53.0879 101.784 53.0308 101.523 52.9165C101.266 52.8022 101.04 52.6411 100.847 52.4331C100.656 52.2251 100.508 51.979 100.403 51.6948C100.3 51.4077 100.249 51.0942 100.249 50.7544V50.5654C100.249 50.1992 100.303 49.8682 100.412 49.5723C100.52 49.2764 100.669 49.0229 100.86 48.812C101.05 48.6011 101.267 48.4399 101.51 48.3286C101.756 48.2144 102.014 48.1572 102.284 48.1572C102.585 48.1572 102.854 48.2114 103.088 48.3198C103.322 48.4253 103.519 48.5762 103.677 48.7725C103.838 48.9658 103.959 49.1958 104.042 49.4624C104.124 49.7261 104.165 50.0176 104.165 50.3369V50.6577H100.565V50.2095H103.642V50.1479C103.636 49.8813 103.582 49.6323 103.479 49.4009C103.379 49.1665 103.23 48.9761 103.031 48.8296C102.832 48.6831 102.583 48.6099 102.284 48.6099C102.061 48.6099 101.856 48.6567 101.668 48.7505C101.484 48.8442 101.324 48.979 101.189 49.1548C101.058 49.3276 100.955 49.5342 100.882 49.7744C100.812 50.0117 100.776 50.2754 100.776 50.5654V50.7544C100.776 51.0181 100.814 51.2642 100.891 51.4927C100.97 51.7183 101.081 51.9175 101.225 52.0903C101.371 52.2632 101.544 52.3979 101.743 52.4946C101.942 52.5913 102.162 52.6396 102.402 52.6396C102.684 52.6396 102.933 52.5884 103.149 52.4858C103.366 52.3804 103.561 52.2148 103.734 51.9893L104.063 52.2441C103.961 52.3965 103.832 52.5371 103.677 52.666C103.524 52.7949 103.341 52.8975 103.127 52.9736C102.914 53.0498 102.665 53.0879 102.38 53.0879ZM105.408 48.2451L106.691 50.1655L107.979 48.2451H108.603L106.99 50.5742L108.669 53H108.054L106.696 50.9917L105.342 53H104.727L106.406 50.5742L104.793 48.2451H105.408ZM111.385 48.2451V48.6758H109.003V48.2451H111.385ZM109.877 47.0234H110.4V51.8442C110.4 52.064 110.43 52.2295 110.488 52.3408C110.547 52.4521 110.623 52.5269 110.717 52.5649C110.811 52.603 110.912 52.6221 111.02 52.6221C111.099 52.6221 111.175 52.6177 111.249 52.6089C111.322 52.5972 111.388 52.5854 111.446 52.5737L111.468 53.0176C111.404 53.0381 111.32 53.0542 111.218 53.0659C111.115 53.0806 111.013 53.0879 110.91 53.0879C110.708 53.0879 110.529 53.0513 110.374 52.978C110.219 52.9019 110.097 52.7729 110.009 52.5913C109.921 52.4067 109.877 52.1562 109.877 51.8398V47.0234ZM115.586 53H115.063V47.6562C115.063 47.3311 115.119 47.0571 115.23 46.8345C115.344 46.6118 115.505 46.4434 115.713 46.3291C115.924 46.2148 116.175 46.1577 116.465 46.1577C116.556 46.1577 116.649 46.1636 116.746 46.1753C116.843 46.1841 116.937 46.2031 117.027 46.2324L116.988 46.6763C116.915 46.6558 116.84 46.6426 116.764 46.6367C116.69 46.6279 116.604 46.6235 116.504 46.6235C116.314 46.6235 116.15 46.6646 116.012 46.7466C115.875 46.8257 115.769 46.9414 115.696 47.0938C115.623 47.2461 115.586 47.4336 115.586 47.6562V53ZM116.72 48.2451V48.6758H114.276V48.2451H116.72ZM117.375 50.6973V50.5522C117.375 50.2065 117.424 49.8872 117.524 49.5942C117.624 49.3013 117.766 49.0479 117.95 48.834C118.138 48.6201 118.362 48.4546 118.623 48.3374C118.883 48.2173 119.173 48.1572 119.493 48.1572C119.815 48.1572 120.106 48.2173 120.367 48.3374C120.628 48.4546 120.852 48.6201 121.04 48.834C121.227 49.0479 121.371 49.3013 121.47 49.5942C121.57 49.8872 121.62 50.2065 121.62 50.5522V50.6973C121.62 51.043 121.57 51.3623 121.47 51.6553C121.371 51.9453 121.227 52.1973 121.04 52.4111C120.855 52.625 120.632 52.792 120.372 52.9121C120.111 53.0293 119.821 53.0879 119.501 53.0879C119.179 53.0879 118.888 53.0293 118.627 52.9121C118.366 52.792 118.142 52.625 117.955 52.4111C117.767 52.1973 117.624 51.9453 117.524 51.6553C117.424 51.3623 117.375 51.043 117.375 50.6973ZM117.897 50.5522V50.6973C117.897 50.958 117.933 51.2056 118.003 51.4399C118.073 51.6714 118.176 51.8779 118.311 52.0596C118.445 52.2383 118.612 52.3789 118.812 52.4814C119.011 52.584 119.241 52.6353 119.501 52.6353C119.759 52.6353 119.986 52.584 120.183 52.4814C120.382 52.3789 120.549 52.2383 120.684 52.0596C120.818 51.8779 120.919 51.6714 120.987 51.4399C121.057 51.2056 121.092 50.958 121.092 50.6973V50.5522C121.092 50.2944 121.057 50.0498 120.987 49.8184C120.919 49.5869 120.817 49.3804 120.679 49.1987C120.544 49.0171 120.377 48.8735 120.178 48.7681C119.979 48.6626 119.75 48.6099 119.493 48.6099C119.235 48.6099 119.006 48.6626 118.807 48.7681C118.611 48.8735 118.444 49.0171 118.306 49.1987C118.171 49.3804 118.069 49.5869 117.999 49.8184C117.931 50.0498 117.897 50.2944 117.897 50.5522ZM123.232 49.0317V53H122.709V48.2451H123.219L123.232 49.0317ZM124.916 48.21L124.902 48.6934C124.844 48.6846 124.787 48.6772 124.731 48.6714C124.675 48.6655 124.615 48.6626 124.551 48.6626C124.322 48.6626 124.122 48.7051 123.949 48.79C123.779 48.8721 123.635 48.9878 123.518 49.1372C123.401 49.2837 123.312 49.4565 123.25 49.6558C123.188 49.8521 123.153 50.063 123.145 50.2886L122.951 50.3633C122.951 50.0527 122.983 49.7642 123.048 49.4976C123.112 49.231 123.21 48.998 123.342 48.7988C123.477 48.5967 123.646 48.4399 123.848 48.3286C124.053 48.2144 124.293 48.1572 124.568 48.1572C124.636 48.1572 124.702 48.1631 124.766 48.1748C124.833 48.1836 124.883 48.1953 124.916 48.21ZM128.458 49.1592V54.8281H127.93V48.2451H128.422L128.458 49.1592ZM131.762 50.5786V50.6709C131.762 51.0254 131.721 51.3506 131.639 51.6465C131.557 51.9424 131.438 52.1987 131.283 52.4155C131.131 52.6294 130.942 52.7949 130.716 52.9121C130.491 53.0293 130.234 53.0879 129.947 53.0879C129.663 53.0879 129.41 53.0439 129.187 52.9561C128.964 52.8682 128.772 52.7437 128.611 52.5825C128.453 52.4185 128.326 52.228 128.229 52.0112C128.135 51.7915 128.069 51.5513 128.031 51.2905V50.0732C128.075 49.7861 128.147 49.5254 128.247 49.291C128.346 49.0566 128.474 48.8545 128.629 48.6846C128.787 48.5146 128.975 48.3843 129.191 48.2935C129.408 48.2026 129.656 48.1572 129.934 48.1572C130.224 48.1572 130.482 48.2144 130.708 48.3286C130.936 48.4399 131.128 48.6025 131.283 48.8164C131.441 49.0273 131.56 49.2822 131.639 49.5811C131.721 49.877 131.762 50.2095 131.762 50.5786ZM131.235 50.6709V50.5786C131.235 50.3003 131.206 50.0425 131.147 49.8052C131.091 49.5679 131.005 49.3613 130.888 49.1855C130.773 49.0068 130.627 48.8677 130.448 48.7681C130.272 48.6685 130.063 48.6187 129.82 48.6187C129.568 48.6187 129.353 48.6611 129.174 48.7461C128.998 48.8281 128.852 48.938 128.734 49.0757C128.617 49.2104 128.525 49.3584 128.458 49.5195C128.39 49.6807 128.34 49.8389 128.308 49.9941V51.396C128.364 51.6187 128.453 51.8252 128.576 52.0156C128.699 52.2031 128.863 52.354 129.068 52.4683C129.276 52.5796 129.53 52.6353 129.829 52.6353C130.069 52.6353 130.277 52.5854 130.453 52.4858C130.628 52.3862 130.773 52.2471 130.888 52.0684C131.005 51.8896 131.091 51.6816 131.147 51.4443C131.206 51.207 131.235 50.9492 131.235 50.6709ZM133.454 49.0317V53H132.931V48.2451H133.441L133.454 49.0317ZM135.137 48.21L135.124 48.6934C135.065 48.6846 135.008 48.6772 134.953 48.6714C134.897 48.6655 134.837 48.6626 134.772 48.6626C134.544 48.6626 134.343 48.7051 134.17 48.79C134 48.8721 133.857 48.9878 133.74 49.1372C133.623 49.2837 133.533 49.4565 133.472 49.6558C133.41 49.8521 133.375 50.063 133.366 50.2886L133.173 50.3633C133.173 50.0527 133.205 49.7642 133.27 49.4976C133.334 49.231 133.432 48.998 133.564 48.7988C133.699 48.5967 133.867 48.4399 134.069 48.3286C134.274 48.2144 134.515 48.1572 134.79 48.1572C134.857 48.1572 134.923 48.1631 134.988 48.1748C135.055 48.1836 135.105 48.1953 135.137 48.21ZM135.585 50.6973V50.5522C135.585 50.2065 135.635 49.8872 135.735 49.5942C135.834 49.3013 135.977 49.0479 136.161 48.834C136.349 48.6201 136.573 48.4546 136.833 48.3374C137.094 48.2173 137.384 48.1572 137.704 48.1572C138.026 48.1572 138.317 48.2173 138.578 48.3374C138.839 48.4546 139.063 48.6201 139.25 48.834C139.438 49.0479 139.582 49.3013 139.681 49.5942C139.781 49.8872 139.831 50.2065 139.831 50.5522V50.6973C139.831 51.043 139.781 51.3623 139.681 51.6553C139.582 51.9453 139.438 52.1973 139.25 52.4111C139.066 52.625 138.843 52.792 138.583 52.9121C138.322 53.0293 138.032 53.0879 137.712 53.0879C137.39 53.0879 137.099 53.0293 136.838 52.9121C136.577 52.792 136.353 52.625 136.166 52.4111C135.978 52.1973 135.834 51.9453 135.735 51.6553C135.635 51.3623 135.585 51.043 135.585 50.6973ZM136.108 50.5522V50.6973C136.108 50.958 136.144 51.2056 136.214 51.4399C136.284 51.6714 136.387 51.8779 136.521 52.0596C136.656 52.2383 136.823 52.3789 137.022 52.4814C137.222 52.584 137.452 52.6353 137.712 52.6353C137.97 52.6353 138.197 52.584 138.394 52.4814C138.593 52.3789 138.76 52.2383 138.895 52.0596C139.029 51.8779 139.13 51.6714 139.198 51.4399C139.268 51.2056 139.303 50.958 139.303 50.6973V50.5522C139.303 50.2944 139.268 50.0498 139.198 49.8184C139.13 49.5869 139.028 49.3804 138.89 49.1987C138.755 49.0171 138.588 48.8735 138.389 48.7681C138.19 48.6626 137.961 48.6099 137.704 48.6099C137.446 48.6099 137.217 48.6626 137.018 48.7681C136.822 48.8735 136.655 49.0171 136.517 49.1987C136.382 49.3804 136.28 49.5869 136.209 49.8184C136.142 50.0498 136.108 50.2944 136.108 50.5522ZM144.01 52.0771V46.25H144.537V53H144.045L144.01 52.0771ZM140.709 50.6709V50.5786C140.709 50.2095 140.752 49.877 140.837 49.5811C140.922 49.2822 141.043 49.0273 141.202 48.8164C141.363 48.6025 141.556 48.4399 141.782 48.3286C142.007 48.2144 142.262 48.1572 142.546 48.1572C142.825 48.1572 143.071 48.2026 143.285 48.2935C143.499 48.3843 143.682 48.5146 143.834 48.6846C143.989 48.8545 144.114 49.0566 144.208 49.291C144.304 49.5254 144.375 49.7861 144.418 50.0732V51.2466C144.383 51.5161 144.319 51.7637 144.225 51.9893C144.131 52.2119 144.007 52.4067 143.852 52.5737C143.696 52.7378 143.509 52.8652 143.289 52.9561C143.072 53.0439 142.822 53.0879 142.538 53.0879C142.256 53.0879 142.003 53.0293 141.777 52.9121C141.552 52.7949 141.36 52.6294 141.202 52.4155C141.043 52.1987 140.922 51.9424 140.837 51.6465C140.752 51.3506 140.709 51.0254 140.709 50.6709ZM141.237 50.5786V50.6709C141.237 50.9492 141.265 51.207 141.32 51.4443C141.376 51.6816 141.461 51.8882 141.575 52.064C141.689 52.2397 141.834 52.3774 142.01 52.4771C142.186 52.5767 142.394 52.6265 142.634 52.6265C142.936 52.6265 143.189 52.5693 143.395 52.4551C143.6 52.3379 143.764 52.1841 143.887 51.9937C144.01 51.8003 144.099 51.5894 144.155 51.3608V49.9941C144.12 49.8389 144.068 49.6807 144.001 49.5195C143.934 49.3584 143.841 49.2104 143.724 49.0757C143.61 48.938 143.463 48.8281 143.285 48.7461C143.109 48.6611 142.895 48.6187 142.643 48.6187C142.4 48.6187 142.19 48.6685 142.015 48.7681C141.839 48.8677 141.692 49.0068 141.575 49.1855C141.461 49.3613 141.376 49.5679 141.32 49.8052C141.265 50.0425 141.237 50.3003 141.237 50.5786ZM148.967 51.9014V48.2451H149.494V53H148.989L148.967 51.9014ZM149.063 51.0225L149.336 51.0137C149.336 51.3125 149.301 51.5879 149.23 51.8398C149.16 52.0918 149.05 52.3115 148.901 52.499C148.751 52.6865 148.558 52.8315 148.321 52.9341C148.083 53.0366 147.798 53.0879 147.464 53.0879C147.232 53.0879 147.02 53.0557 146.827 52.9912C146.636 52.9238 146.472 52.8184 146.334 52.6748C146.197 52.5312 146.09 52.3452 146.014 52.1167C145.94 51.8882 145.904 51.6113 145.904 51.2861V48.2451H146.427V51.2949C146.427 51.5498 146.455 51.7622 146.51 51.9321C146.569 52.1021 146.648 52.2383 146.748 52.3408C146.85 52.4434 146.967 52.5166 147.099 52.5605C147.231 52.6045 147.373 52.6265 147.525 52.6265C147.912 52.6265 148.217 52.5518 148.439 52.4023C148.665 52.2529 148.825 52.0566 148.918 51.8135C149.015 51.5674 149.063 51.3037 149.063 51.0225ZM152.623 52.6353C152.846 52.6353 153.054 52.5942 153.247 52.5122C153.443 52.4272 153.604 52.3027 153.73 52.1387C153.859 51.9717 153.933 51.7681 153.95 51.5278H154.451C154.437 51.8296 154.344 52.0991 154.174 52.3364C154.007 52.5708 153.788 52.7554 153.515 52.8901C153.246 53.022 152.948 53.0879 152.623 53.0879C152.292 53.0879 151.999 53.0278 151.744 52.9077C151.492 52.7876 151.281 52.6206 151.111 52.4067C150.941 52.1899 150.812 51.938 150.725 51.6509C150.64 51.3608 150.597 51.0488 150.597 50.7148V50.5303C150.597 50.1963 150.64 49.8857 150.725 49.5986C150.812 49.3086 150.941 49.0566 151.111 48.8428C151.281 48.626 151.492 48.4575 151.744 48.3374C151.996 48.2173 152.288 48.1572 152.619 48.1572C152.958 48.1572 153.263 48.2261 153.533 48.3638C153.805 48.5015 154.022 48.6963 154.183 48.9482C154.347 49.2002 154.437 49.499 154.451 49.8447H153.95C153.936 49.5898 153.868 49.3701 153.748 49.1855C153.628 49.001 153.47 48.8589 153.273 48.7593C153.077 48.6597 152.859 48.6099 152.619 48.6099C152.349 48.6099 152.119 48.6626 151.929 48.7681C151.738 48.8706 151.583 49.0127 151.463 49.1943C151.346 49.373 151.259 49.5781 151.204 49.8096C151.148 50.0381 151.12 50.2783 151.12 50.5303V50.7148C151.12 50.9697 151.146 51.2129 151.199 51.4443C151.255 51.6729 151.341 51.8765 151.458 52.0552C151.579 52.2339 151.734 52.376 151.924 52.4814C152.118 52.584 152.351 52.6353 152.623 52.6353ZM157.308 48.2451V48.6758H154.926V48.2451H157.308ZM155.8 47.0234H156.323V51.8442C156.323 52.064 156.353 52.2295 156.411 52.3408C156.47 52.4521 156.546 52.5269 156.64 52.5649C156.733 52.603 156.834 52.6221 156.943 52.6221C157.022 52.6221 157.098 52.6177 157.171 52.6089C157.245 52.5972 157.311 52.5854 157.369 52.5737L157.391 53.0176C157.327 53.0381 157.243 53.0542 157.141 53.0659C157.038 53.0806 156.936 53.0879 156.833 53.0879C156.631 53.0879 156.452 53.0513 156.297 52.978C156.142 52.9019 156.02 52.7729 155.932 52.5913C155.844 52.4067 155.8 52.1562 155.8 51.8398V47.0234ZM158.995 48.2451V53H158.472V48.2451H158.995ZM158.38 46.8696C158.38 46.77 158.411 46.6865 158.472 46.6191C158.537 46.5488 158.625 46.5137 158.736 46.5137C158.847 46.5137 158.935 46.5488 159 46.6191C159.067 46.6865 159.101 46.77 159.101 46.8696C159.101 46.9663 159.067 47.0498 159 47.1201C158.935 47.1875 158.847 47.2212 158.736 47.2212C158.625 47.2212 158.537 47.1875 158.472 47.1201C158.411 47.0498 158.38 46.9663 158.38 46.8696ZM160.142 50.6973V50.5522C160.142 50.2065 160.192 49.8872 160.292 49.5942C160.391 49.3013 160.533 49.0479 160.718 48.834C160.905 48.6201 161.129 48.4546 161.39 48.3374C161.651 48.2173 161.941 48.1572 162.26 48.1572C162.583 48.1572 162.874 48.2173 163.135 48.3374C163.396 48.4546 163.62 48.6201 163.807 48.834C163.995 49.0479 164.138 49.3013 164.238 49.5942C164.337 49.8872 164.387 50.2065 164.387 50.5522V50.6973C164.387 51.043 164.337 51.3623 164.238 51.6553C164.138 51.9453 163.995 52.1973 163.807 52.4111C163.623 52.625 163.4 52.792 163.139 52.9121C162.878 53.0293 162.588 53.0879 162.269 53.0879C161.947 53.0879 161.655 53.0293 161.395 52.9121C161.134 52.792 160.91 52.625 160.722 52.4111C160.535 52.1973 160.391 51.9453 160.292 51.6553C160.192 51.3623 160.142 51.043 160.142 50.6973ZM160.665 50.5522V50.6973C160.665 50.958 160.7 51.2056 160.771 51.4399C160.841 51.6714 160.943 51.8779 161.078 52.0596C161.213 52.2383 161.38 52.3789 161.579 52.4814C161.778 52.584 162.008 52.6353 162.269 52.6353C162.527 52.6353 162.754 52.584 162.95 52.4814C163.149 52.3789 163.316 52.2383 163.451 52.0596C163.586 51.8779 163.687 51.6714 163.754 51.4399C163.825 51.2056 163.86 50.958 163.86 50.6973V50.5522C163.86 50.2944 163.825 50.0498 163.754 49.8184C163.687 49.5869 163.584 49.3804 163.447 49.1987C163.312 49.0171 163.145 48.8735 162.946 48.7681C162.747 48.6626 162.518 48.6099 162.26 48.6099C162.002 48.6099 161.774 48.6626 161.575 48.7681C161.378 48.8735 161.211 49.0171 161.074 49.1987C160.939 49.3804 160.836 49.5869 160.766 49.8184C160.699 50.0498 160.665 50.2944 160.665 50.5522ZM166 49.2603V53H165.477V48.2451H165.978L166 49.2603ZM165.881 50.3281L165.648 50.1963C165.666 49.915 165.723 49.6514 165.82 49.4053C165.917 49.1592 166.047 48.9424 166.211 48.7549C166.378 48.5674 166.573 48.4209 166.795 48.3154C167.021 48.21 167.27 48.1572 167.542 48.1572C167.78 48.1572 167.992 48.1895 168.18 48.2539C168.367 48.3184 168.527 48.4209 168.659 48.5615C168.791 48.7021 168.89 48.8823 168.958 49.1021C169.028 49.3218 169.063 49.5898 169.063 49.9062V53H168.536V49.9019C168.536 49.5737 168.49 49.3174 168.399 49.1328C168.309 48.9453 168.18 48.812 168.013 48.7329C167.846 48.6538 167.648 48.6143 167.419 48.6143C167.167 48.6143 166.946 48.6699 166.756 48.7812C166.568 48.8896 166.41 49.0317 166.281 49.2075C166.155 49.3804 166.059 49.5664 165.991 49.7656C165.924 49.9619 165.887 50.1494 165.881 50.3281ZM172.06 49.9502V50.4028H169.955V49.9502H172.06ZM173.532 49.0317V53H173.009V48.2451H173.519L173.532 49.0317ZM175.215 48.21L175.202 48.6934C175.144 48.6846 175.086 48.6772 175.031 48.6714C174.975 48.6655 174.915 48.6626 174.851 48.6626C174.622 48.6626 174.421 48.7051 174.249 48.79C174.079 48.8721 173.935 48.9878 173.818 49.1372C173.701 49.2837 173.611 49.4565 173.55 49.6558C173.488 49.8521 173.453 50.063 173.444 50.2886L173.251 50.3633C173.251 50.0527 173.283 49.7642 173.348 49.4976C173.412 49.231 173.51 48.998 173.642 48.7988C173.777 48.5967 173.945 48.4399 174.147 48.3286C174.353 48.2144 174.593 48.1572 174.868 48.1572C174.936 48.1572 175.001 48.1631 175.066 48.1748C175.133 48.1836 175.183 48.1953 175.215 48.21ZM177.791 53.0879C177.48 53.0879 177.194 53.0308 176.934 52.9165C176.676 52.8022 176.45 52.6411 176.257 52.4331C176.066 52.2251 175.918 51.979 175.813 51.6948C175.71 51.4077 175.659 51.0942 175.659 50.7544V50.5654C175.659 50.1992 175.713 49.8682 175.822 49.5723C175.93 49.2764 176.08 49.0229 176.27 48.812C176.46 48.6011 176.677 48.4399 176.92 48.3286C177.167 48.2144 177.424 48.1572 177.694 48.1572C177.996 48.1572 178.264 48.2114 178.498 48.3198C178.732 48.4253 178.929 48.5762 179.087 48.7725C179.248 48.9658 179.37 49.1958 179.452 49.4624C179.534 49.7261 179.575 50.0176 179.575 50.3369V50.6577H175.976V50.2095H179.052V50.1479C179.046 49.8813 178.992 49.6323 178.889 49.4009C178.79 49.1665 178.64 48.9761 178.441 48.8296C178.242 48.6831 177.993 48.6099 177.694 48.6099C177.471 48.6099 177.266 48.6567 177.079 48.7505C176.894 48.8442 176.734 48.979 176.6 49.1548C176.468 49.3276 176.365 49.5342 176.292 49.7744C176.222 50.0117 176.187 50.2754 176.187 50.5654V50.7544C176.187 51.0181 176.225 51.2642 176.301 51.4927C176.38 51.7183 176.491 51.9175 176.635 52.0903C176.781 52.2632 176.954 52.3979 177.153 52.4946C177.353 52.5913 177.572 52.6396 177.812 52.6396C178.094 52.6396 178.343 52.5884 178.56 52.4858C178.776 52.3804 178.971 52.2148 179.144 51.9893L179.474 52.2441C179.371 52.3965 179.242 52.5371 179.087 52.666C178.935 52.7949 178.751 52.8975 178.538 52.9736C178.324 53.0498 178.075 53.0879 177.791 53.0879ZM183.503 52.1475V49.6953C183.503 49.4697 183.457 49.2749 183.363 49.1108C183.269 48.9468 183.131 48.8208 182.95 48.7329C182.768 48.645 182.544 48.6011 182.277 48.6011C182.031 48.6011 181.812 48.645 181.618 48.7329C181.428 48.8179 181.277 48.9336 181.166 49.0801C181.057 49.2236 181.003 49.3833 181.003 49.5591L180.476 49.5547C180.476 49.376 180.52 49.2031 180.607 49.0361C180.695 48.8691 180.82 48.7197 180.981 48.5879C181.142 48.4561 181.334 48.3521 181.557 48.2759C181.782 48.1968 182.03 48.1572 182.299 48.1572C182.639 48.1572 182.938 48.2144 183.196 48.3286C183.457 48.4429 183.66 48.6143 183.807 48.8428C183.953 49.0713 184.026 49.3584 184.026 49.7041V52.0024C184.026 52.1665 184.038 52.3364 184.062 52.5122C184.088 52.688 184.125 52.833 184.171 52.9473V53H183.613C183.578 52.8945 183.55 52.7627 183.53 52.6045C183.512 52.4434 183.503 52.291 183.503 52.1475ZM183.626 50.2314L183.635 50.6357H182.603C182.333 50.6357 182.091 50.6606 181.877 50.7104C181.667 50.7573 181.488 50.8276 181.341 50.9214C181.195 51.0122 181.082 51.1221 181.003 51.251C180.927 51.3799 180.889 51.5264 180.889 51.6904C180.889 51.8604 180.931 52.0156 181.016 52.1562C181.104 52.2969 181.227 52.4097 181.385 52.4946C181.546 52.5767 181.737 52.6177 181.957 52.6177C182.25 52.6177 182.507 52.5635 182.73 52.4551C182.956 52.3467 183.142 52.2046 183.288 52.0288C183.435 51.853 183.533 51.6611 183.583 51.4531L183.811 51.7563C183.773 51.9028 183.703 52.0537 183.6 52.209C183.5 52.3613 183.37 52.5049 183.209 52.6396C183.048 52.7715 182.857 52.8799 182.638 52.9648C182.421 53.0469 182.175 53.0879 181.899 53.0879C181.589 53.0879 181.318 53.0293 181.086 52.9121C180.858 52.7949 180.679 52.6353 180.55 52.4331C180.424 52.228 180.361 51.9966 180.361 51.7388C180.361 51.5044 180.411 51.2949 180.511 51.1104C180.61 50.9229 180.754 50.7646 180.941 50.6357C181.132 50.5039 181.36 50.4043 181.627 50.3369C181.896 50.2666 182.198 50.2314 182.532 50.2314H183.626ZM188.526 52.0771V46.25H189.054V53H188.562L188.526 52.0771ZM185.226 50.6709V50.5786C185.226 50.2095 185.269 49.877 185.354 49.5811C185.438 49.2822 185.56 49.0273 185.718 48.8164C185.879 48.6025 186.073 48.4399 186.298 48.3286C186.524 48.2144 186.779 48.1572 187.063 48.1572C187.341 48.1572 187.587 48.2026 187.801 48.2935C188.015 48.3843 188.198 48.5146 188.351 48.6846C188.506 48.8545 188.63 49.0566 188.724 49.291C188.821 49.5254 188.891 49.7861 188.935 50.0732V51.2466C188.9 51.5161 188.835 51.7637 188.742 51.9893C188.648 52.2119 188.523 52.4067 188.368 52.5737C188.213 52.7378 188.025 52.8652 187.806 52.9561C187.589 53.0439 187.338 53.0879 187.054 53.0879C186.773 53.0879 186.52 53.0293 186.294 52.9121C186.068 52.7949 185.876 52.6294 185.718 52.4155C185.56 52.1987 185.438 51.9424 185.354 51.6465C185.269 51.3506 185.226 51.0254 185.226 50.6709ZM185.753 50.5786V50.6709C185.753 50.9492 185.781 51.207 185.837 51.4443C185.893 51.6816 185.978 51.8882 186.092 52.064C186.206 52.2397 186.351 52.3774 186.527 52.4771C186.703 52.5767 186.911 52.6265 187.151 52.6265C187.453 52.6265 187.706 52.5693 187.911 52.4551C188.116 52.3379 188.28 52.1841 188.403 51.9937C188.526 51.8003 188.616 51.5894 188.671 51.3608V49.9941C188.636 49.8389 188.585 49.6807 188.518 49.5195C188.45 49.3584 188.358 49.2104 188.241 49.0757C188.126 48.938 187.98 48.8281 187.801 48.7461C187.625 48.6611 187.412 48.6187 187.16 48.6187C186.917 48.6187 186.707 48.6685 186.531 48.7681C186.355 48.8677 186.209 49.0068 186.092 49.1855C185.978 49.3613 185.893 49.5679 185.837 49.8052C185.781 50.0425 185.753 50.3003 185.753 50.5786ZM191.849 52.5254L193.33 48.2451H193.896L191.884 53.7646C191.843 53.873 191.79 53.9932 191.726 54.125C191.664 54.2568 191.582 54.3828 191.479 54.5029C191.38 54.626 191.254 54.7256 191.102 54.8018C190.952 54.8809 190.769 54.9204 190.552 54.9204C190.497 54.9204 190.425 54.9131 190.337 54.8984C190.252 54.8867 190.19 54.875 190.152 54.8633L190.148 54.4194C190.18 54.4282 190.227 54.4355 190.289 54.4414C190.35 54.4473 190.393 54.4502 190.416 54.4502C190.606 54.4502 190.766 54.418 190.895 54.3535C191.027 54.2891 191.137 54.1924 191.225 54.0635C191.312 53.9375 191.39 53.7793 191.458 53.5889L191.849 52.5254ZM190.464 48.2451L191.98 52.3276L192.121 52.877L191.739 53.0923L189.893 48.2451H190.464ZM200.739 52.5386V53H197.421V52.5386H200.739ZM197.579 46.6016V53H197.039V46.6016H197.579ZM205.485 52.5386V53H202.167V52.5386H205.485ZM202.325 46.6016V53H201.785V46.6016H202.325ZM206.698 46.6016H207.243L209.607 52.2354L211.976 46.6016H212.516L209.813 53H209.4L206.698 46.6016ZM206.531 46.6016H207.01L207.067 50.2051V53H206.531V46.6016ZM212.213 46.6016H212.692V53H212.151V50.2051L212.213 46.6016ZM219.284 52.1475V49.6953C219.284 49.4697 219.237 49.2749 219.143 49.1108C219.049 48.9468 218.912 48.8208 218.73 48.7329C218.548 48.645 218.324 48.6011 218.058 48.6011C217.812 48.6011 217.592 48.645 217.398 48.7329C217.208 48.8179 217.057 48.9336 216.946 49.0801C216.837 49.2236 216.783 49.3833 216.783 49.5591L216.256 49.5547C216.256 49.376 216.3 49.2031 216.388 49.0361C216.476 48.8691 216.6 48.7197 216.761 48.5879C216.922 48.4561 217.114 48.3521 217.337 48.2759C217.562 48.1968 217.81 48.1572 218.08 48.1572C218.419 48.1572 218.718 48.2144 218.976 48.3286C219.237 48.4429 219.44 48.6143 219.587 48.8428C219.733 49.0713 219.807 49.3584 219.807 49.7041V52.0024C219.807 52.1665 219.818 52.3364 219.842 52.5122C219.868 52.688 219.905 52.833 219.952 52.9473V53H219.394C219.358 52.8945 219.331 52.7627 219.31 52.6045C219.292 52.4434 219.284 52.291 219.284 52.1475ZM219.407 50.2314L219.416 50.6357H218.383C218.113 50.6357 217.872 50.6606 217.658 50.7104C217.447 50.7573 217.268 50.8276 217.122 50.9214C216.975 51.0122 216.862 51.1221 216.783 51.251C216.707 51.3799 216.669 51.5264 216.669 51.6904C216.669 51.8604 216.711 52.0156 216.796 52.1562C216.884 52.2969 217.007 52.4097 217.166 52.4946C217.327 52.5767 217.517 52.6177 217.737 52.6177C218.03 52.6177 218.288 52.5635 218.51 52.4551C218.736 52.3467 218.922 52.2046 219.068 52.0288C219.215 51.853 219.313 51.6611 219.363 51.4531L219.591 51.7563C219.553 51.9028 219.483 52.0537 219.38 52.209C219.281 52.3613 219.15 52.5049 218.989 52.6396C218.828 52.7715 218.638 52.8799 218.418 52.9648C218.201 53.0469 217.955 53.0879 217.68 53.0879C217.369 53.0879 217.098 53.0293 216.867 52.9121C216.638 52.7949 216.459 52.6353 216.331 52.4331C216.205 52.228 216.142 51.9966 216.142 51.7388C216.142 51.5044 216.191 51.2949 216.291 51.1104C216.391 50.9229 216.534 50.7646 216.722 50.6357C216.912 50.5039 217.141 50.4043 217.407 50.3369C217.677 50.2666 217.979 50.2314 218.312 50.2314H219.407ZM221.736 49.1592V54.8281H221.208V48.2451H221.701L221.736 49.1592ZM225.041 50.5786V50.6709C225.041 51.0254 225 51.3506 224.917 51.6465C224.835 51.9424 224.717 52.1987 224.562 52.4155C224.409 52.6294 224.22 52.7949 223.995 52.9121C223.769 53.0293 223.513 53.0879 223.226 53.0879C222.941 53.0879 222.688 53.0439 222.465 52.9561C222.243 52.8682 222.051 52.7437 221.89 52.5825C221.731 52.4185 221.604 52.228 221.507 52.0112C221.414 51.7915 221.348 51.5513 221.31 51.2905V50.0732C221.354 49.7861 221.425 49.5254 221.525 49.291C221.625 49.0566 221.752 48.8545 221.907 48.6846C222.065 48.5146 222.253 48.3843 222.47 48.2935C222.687 48.2026 222.934 48.1572 223.212 48.1572C223.502 48.1572 223.76 48.2144 223.986 48.3286C224.214 48.4399 224.406 48.6025 224.562 48.8164C224.72 49.0273 224.838 49.2822 224.917 49.5811C225 49.877 225.041 50.2095 225.041 50.5786ZM224.513 50.6709V50.5786C224.513 50.3003 224.484 50.0425 224.425 49.8052C224.37 49.5679 224.283 49.3613 224.166 49.1855C224.052 49.0068 223.905 48.8677 223.727 48.7681C223.551 48.6685 223.341 48.6187 223.098 48.6187C222.846 48.6187 222.631 48.6611 222.452 48.7461C222.276 48.8281 222.13 48.938 222.013 49.0757C221.896 49.2104 221.803 49.3584 221.736 49.5195C221.668 49.6807 221.619 49.8389 221.586 49.9941V51.396C221.642 51.6187 221.731 51.8252 221.854 52.0156C221.978 52.2031 222.142 52.354 222.347 52.4683C222.555 52.5796 222.808 52.6353 223.107 52.6353C223.347 52.6353 223.555 52.5854 223.731 52.4858C223.907 52.3862 224.052 52.2471 224.166 52.0684C224.283 51.8896 224.37 51.6816 224.425 51.4443C224.484 51.207 224.513 50.9492 224.513 50.6709ZM226.728 49.1592V54.8281H226.201V48.2451H226.693L226.728 49.1592ZM230.033 50.5786V50.6709C230.033 51.0254 229.992 51.3506 229.91 51.6465C229.828 51.9424 229.709 52.1987 229.554 52.4155C229.401 52.6294 229.212 52.7949 228.987 52.9121C228.761 53.0293 228.505 53.0879 228.218 53.0879C227.934 53.0879 227.68 53.0439 227.458 52.9561C227.235 52.8682 227.043 52.7437 226.882 52.5825C226.724 52.4185 226.596 52.228 226.5 52.0112C226.406 51.7915 226.34 51.5513 226.302 51.2905V50.0732C226.346 49.7861 226.417 49.5254 226.517 49.291C226.617 49.0566 226.744 48.8545 226.899 48.6846C227.058 48.5146 227.245 48.3843 227.462 48.2935C227.679 48.2026 227.926 48.1572 228.205 48.1572C228.495 48.1572 228.752 48.2144 228.978 48.3286C229.207 48.4399 229.398 48.6025 229.554 48.8164C229.712 49.0273 229.831 49.2822 229.91 49.5811C229.992 49.877 230.033 50.2095 230.033 50.5786ZM229.505 50.6709V50.5786C229.505 50.3003 229.476 50.0425 229.417 49.8052C229.362 49.5679 229.275 49.3613 229.158 49.1855C229.044 49.0068 228.897 48.8677 228.719 48.7681C228.543 48.6685 228.333 48.6187 228.09 48.6187C227.838 48.6187 227.623 48.6611 227.444 48.7461C227.269 48.8281 227.122 48.938 227.005 49.0757C226.888 49.2104 226.795 49.3584 226.728 49.5195C226.661 49.6807 226.611 49.8389 226.579 49.9941V51.396C226.634 51.6187 226.724 51.8252 226.847 52.0156C226.97 52.2031 227.134 52.354 227.339 52.4683C227.547 52.5796 227.8 52.6353 228.099 52.6353C228.339 52.6353 228.547 52.5854 228.723 52.4858C228.899 52.3862 229.044 52.2471 229.158 52.0684C229.275 51.8896 229.362 51.6816 229.417 51.4443C229.476 51.207 229.505 50.9492 229.505 50.6709ZM231.786 46.25V53H231.263V46.25H231.786ZM233.808 48.2451V53H233.285V48.2451H233.808ZM233.192 46.8696C233.192 46.77 233.223 46.6865 233.285 46.6191C233.349 46.5488 233.437 46.5137 233.548 46.5137C233.66 46.5137 233.748 46.5488 233.812 46.6191C233.879 46.6865 233.913 46.77 233.913 46.8696C233.913 46.9663 233.879 47.0498 233.812 47.1201C233.748 47.1875 233.66 47.2212 233.548 47.2212C233.437 47.2212 233.349 47.1875 233.285 47.1201C233.223 47.0498 233.192 46.9663 233.192 46.8696ZM236.998 52.6353C237.221 52.6353 237.429 52.5942 237.622 52.5122C237.818 52.4272 237.979 52.3027 238.105 52.1387C238.234 51.9717 238.308 51.7681 238.325 51.5278H238.826C238.812 51.8296 238.719 52.0991 238.549 52.3364C238.382 52.5708 238.163 52.7554 237.89 52.8901C237.621 53.022 237.323 53.0879 236.998 53.0879C236.667 53.0879 236.374 53.0278 236.119 52.9077C235.867 52.7876 235.656 52.6206 235.486 52.4067C235.316 52.1899 235.188 51.938 235.1 51.6509C235.015 51.3608 234.972 51.0488 234.972 50.7148V50.5303C234.972 50.1963 235.015 49.8857 235.1 49.5986C235.188 49.3086 235.316 49.0566 235.486 48.8428C235.656 48.626 235.867 48.4575 236.119 48.3374C236.371 48.2173 236.663 48.1572 236.994 48.1572C237.333 48.1572 237.638 48.2261 237.908 48.3638C238.18 48.5015 238.397 48.6963 238.558 48.9482C238.722 49.2002 238.812 49.499 238.826 49.8447H238.325C238.311 49.5898 238.243 49.3701 238.123 49.1855C238.003 49.001 237.845 48.8589 237.648 48.7593C237.452 48.6597 237.234 48.6099 236.994 48.6099C236.724 48.6099 236.494 48.6626 236.304 48.7681C236.113 48.8706 235.958 49.0127 235.838 49.1943C235.721 49.373 235.634 49.5781 235.579 49.8096C235.523 50.0381 235.495 50.2783 235.495 50.5303V50.7148C235.495 50.9697 235.521 51.2129 235.574 51.4443C235.63 51.6729 235.716 51.8765 235.833 52.0552C235.954 52.2339 236.109 52.376 236.299 52.4814C236.493 52.584 236.726 52.6353 236.998 52.6353ZM242.777 52.1475V49.6953C242.777 49.4697 242.73 49.2749 242.636 49.1108C242.542 48.9468 242.405 48.8208 242.223 48.7329C242.042 48.645 241.817 48.6011 241.551 48.6011C241.305 48.6011 241.085 48.645 240.892 48.7329C240.701 48.8179 240.55 48.9336 240.439 49.0801C240.331 49.2236 240.276 49.3833 240.276 49.5591L239.749 49.5547C239.749 49.376 239.793 49.2031 239.881 49.0361C239.969 48.8691 240.093 48.7197 240.254 48.5879C240.416 48.4561 240.607 48.3521 240.83 48.2759C241.056 48.1968 241.303 48.1572 241.573 48.1572C241.913 48.1572 242.211 48.2144 242.469 48.3286C242.73 48.4429 242.934 48.6143 243.08 48.8428C243.227 49.0713 243.3 49.3584 243.3 49.7041V52.0024C243.3 52.1665 243.312 52.3364 243.335 52.5122C243.361 52.688 243.398 52.833 243.445 52.9473V53H242.887C242.852 52.8945 242.824 52.7627 242.803 52.6045C242.786 52.4434 242.777 52.291 242.777 52.1475ZM242.9 50.2314L242.909 50.6357H241.876C241.606 50.6357 241.365 50.6606 241.151 50.7104C240.94 50.7573 240.761 50.8276 240.615 50.9214C240.468 51.0122 240.355 51.1221 240.276 51.251C240.2 51.3799 240.162 51.5264 240.162 51.6904C240.162 51.8604 240.205 52.0156 240.29 52.1562C240.377 52.2969 240.5 52.4097 240.659 52.4946C240.82 52.5767 241.01 52.6177 241.23 52.6177C241.523 52.6177 241.781 52.5635 242.003 52.4551C242.229 52.3467 242.415 52.2046 242.562 52.0288C242.708 51.853 242.806 51.6611 242.856 51.4531L243.084 51.7563C243.046 51.9028 242.976 52.0537 242.874 52.209C242.774 52.3613 242.644 52.5049 242.482 52.6396C242.321 52.7715 242.131 52.8799 241.911 52.9648C241.694 53.0469 241.448 53.0879 241.173 53.0879C240.862 53.0879 240.591 53.0293 240.36 52.9121C240.131 52.7949 239.953 52.6353 239.824 52.4331C239.698 52.228 239.635 51.9966 239.635 51.7388C239.635 51.5044 239.685 51.2949 239.784 51.1104C239.884 50.9229 240.027 50.7646 240.215 50.6357C240.405 50.5039 240.634 50.4043 240.9 50.3369C241.17 50.2666 241.472 50.2314 241.806 50.2314H242.9ZM246.508 48.2451V48.6758H244.126V48.2451H246.508ZM245 47.0234H245.523V51.8442C245.523 52.064 245.553 52.2295 245.611 52.3408C245.67 52.4521 245.746 52.5269 245.84 52.5649C245.934 52.603 246.035 52.6221 246.143 52.6221C246.222 52.6221 246.298 52.6177 246.372 52.6089C246.445 52.5972 246.511 52.5854 246.569 52.5737L246.591 53.0176C246.527 53.0381 246.443 53.0542 246.341 53.0659C246.238 53.0806 246.136 53.0879 246.033 53.0879C245.831 53.0879 245.652 53.0513 245.497 52.978C245.342 52.9019 245.22 52.7729 245.132 52.5913C245.044 52.4067 245 52.1562 245 51.8398V47.0234ZM248.195 48.2451V53H247.672V48.2451H248.195ZM247.58 46.8696C247.58 46.77 247.611 46.6865 247.672 46.6191C247.737 46.5488 247.825 46.5137 247.936 46.5137C248.047 46.5137 248.135 46.5488 248.2 46.6191C248.267 46.6865 248.301 46.77 248.301 46.8696C248.301 46.9663 248.267 47.0498 248.2 47.1201C248.135 47.1875 248.047 47.2212 247.936 47.2212C247.825 47.2212 247.737 47.1875 247.672 47.1201C247.611 47.0498 247.58 46.9663 247.58 46.8696ZM249.342 50.6973V50.5522C249.342 50.2065 249.392 49.8872 249.492 49.5942C249.591 49.3013 249.733 49.0479 249.918 48.834C250.105 48.6201 250.33 48.4546 250.59 48.3374C250.851 48.2173 251.141 48.1572 251.46 48.1572C251.783 48.1572 252.074 48.2173 252.335 48.3374C252.596 48.4546 252.82 48.6201 253.007 48.834C253.195 49.0479 253.338 49.3013 253.438 49.5942C253.538 49.8872 253.587 50.2065 253.587 50.5522V50.6973C253.587 51.043 253.538 51.3623 253.438 51.6553C253.338 51.9453 253.195 52.1973 253.007 52.4111C252.823 52.625 252.6 52.792 252.339 52.9121C252.079 53.0293 251.789 53.0879 251.469 53.0879C251.147 53.0879 250.855 53.0293 250.595 52.9121C250.334 52.792 250.11 52.625 249.922 52.4111C249.735 52.1973 249.591 51.9453 249.492 51.6553C249.392 51.3623 249.342 51.043 249.342 50.6973ZM249.865 50.5522V50.6973C249.865 50.958 249.9 51.2056 249.971 51.4399C250.041 51.6714 250.144 51.8779 250.278 52.0596C250.413 52.2383 250.58 52.3789 250.779 52.4814C250.979 52.584 251.208 52.6353 251.469 52.6353C251.727 52.6353 251.954 52.584 252.15 52.4814C252.35 52.3789 252.517 52.2383 252.651 52.0596C252.786 51.8779 252.887 51.6714 252.955 51.4399C253.025 51.2056 253.06 50.958 253.06 50.6973V50.5522C253.06 50.2944 253.025 50.0498 252.955 49.8184C252.887 49.5869 252.785 49.3804 252.647 49.1987C252.512 49.0171 252.345 48.8735 252.146 48.7681C251.947 48.6626 251.718 48.6099 251.46 48.6099C251.203 48.6099 250.974 48.6626 250.775 48.7681C250.579 48.8735 250.412 49.0171 250.274 49.1987C250.139 49.3804 250.037 49.5869 249.966 49.8184C249.899 50.0498 249.865 50.2944 249.865 50.5522ZM255.2 49.2603V53H254.677V48.2451H255.178L255.2 49.2603ZM255.082 50.3281L254.849 50.1963C254.866 49.915 254.923 49.6514 255.02 49.4053C255.117 49.1592 255.247 48.9424 255.411 48.7549C255.578 48.5674 255.773 48.4209 255.996 48.3154C256.221 48.21 256.47 48.1572 256.743 48.1572C256.98 48.1572 257.192 48.1895 257.38 48.2539C257.567 48.3184 257.727 48.4209 257.859 48.5615C257.991 48.7021 258.09 48.8823 258.158 49.1021C258.228 49.3218 258.263 49.5898 258.263 49.9062V53H257.736V49.9019C257.736 49.5737 257.69 49.3174 257.6 49.1328C257.509 48.9453 257.38 48.812 257.213 48.7329C257.046 48.6538 256.848 48.6143 256.62 48.6143C256.368 48.6143 256.146 48.6699 255.956 48.7812C255.769 48.8896 255.61 49.0317 255.481 49.2075C255.355 49.3804 255.259 49.5664 255.191 49.7656C255.124 49.9619 255.087 50.1494 255.082 50.3281ZM262.473 51.7871C262.473 51.6582 262.441 51.5308 262.376 51.4048C262.312 51.2788 262.188 51.1631 262.003 51.0576C261.821 50.9521 261.553 50.8628 261.199 50.7896C260.935 50.731 260.699 50.665 260.491 50.5918C260.286 50.5186 260.113 50.4307 259.973 50.3281C259.832 50.2256 259.725 50.1025 259.652 49.959C259.579 49.8154 259.542 49.6455 259.542 49.4492C259.542 49.2734 259.58 49.1079 259.656 48.9526C259.735 48.7944 259.847 48.6567 259.99 48.5396C260.137 48.4194 260.312 48.3257 260.518 48.2583C260.726 48.1909 260.958 48.1572 261.216 48.1572C261.583 48.1572 261.896 48.2202 262.157 48.3462C262.42 48.4692 262.621 48.6377 262.759 48.8516C262.899 49.0654 262.97 49.3071 262.97 49.5767H262.447C262.447 49.4126 262.398 49.2573 262.302 49.1108C262.208 48.9644 262.069 48.8442 261.884 48.7505C261.703 48.6567 261.48 48.6099 261.216 48.6099C260.944 48.6099 260.723 48.6509 260.553 48.7329C260.383 48.8149 260.258 48.9189 260.179 49.0449C260.103 49.1709 260.065 49.3013 260.065 49.436C260.065 49.5415 260.081 49.6382 260.113 49.7261C260.148 49.811 260.21 49.8901 260.298 49.9634C260.389 50.0366 260.518 50.1055 260.685 50.1699C260.852 50.2344 261.068 50.2974 261.335 50.3589C261.719 50.4438 262.032 50.5479 262.275 50.6709C262.521 50.791 262.703 50.9404 262.82 51.1191C262.938 51.2949 262.996 51.5088 262.996 51.7607C262.996 51.957 262.955 52.1372 262.873 52.3013C262.791 52.4624 262.672 52.6016 262.517 52.7188C262.365 52.8359 262.18 52.9268 261.963 52.9912C261.75 53.0557 261.509 53.0879 261.243 53.0879C260.841 53.0879 260.501 53.022 260.223 52.8901C259.948 52.7554 259.738 52.5796 259.595 52.3628C259.454 52.1431 259.384 51.9102 259.384 51.6641H259.907C259.924 51.9102 260.002 52.105 260.14 52.2485C260.277 52.3892 260.446 52.4888 260.645 52.5474C260.847 52.606 261.046 52.6353 261.243 52.6353C261.512 52.6353 261.738 52.5957 261.919 52.5166C262.101 52.4375 262.239 52.3335 262.333 52.2046C262.426 52.0757 262.473 51.9365 262.473 51.7871ZM264.139 52.6792C264.139 52.5767 264.171 52.4902 264.235 52.4199C264.303 52.3467 264.394 52.3101 264.508 52.3101C264.625 52.3101 264.717 52.3467 264.785 52.4199C264.852 52.4902 264.886 52.5767 264.886 52.6792C264.886 52.7788 264.852 52.8638 264.785 52.9341C264.717 53.0044 264.625 53.0396 264.508 53.0396C264.394 53.0396 264.303 53.0044 264.235 52.9341C264.171 52.8638 264.139 52.7788 264.139 52.6792Z" fill="white"/>
<path d="M46.9334 20.7333C47.1067 20.7333 47.2789 20.7389 47.45 20.75C47.2314 21.8866 47.3132 23.0605 47.6874 24.1558C48.0615 25.2511 48.715 26.2297 49.5834 26.995C49.4622 27.6683 49.4011 28.3589 49.4 29.0667C49.396 31.7129 50.2956 34.2813 51.95 36.3467C50.4133 36.9501 48.7457 37.1419 47.1122 36.9031C45.4786 36.6643 43.9357 36.0032 42.636 34.9852C41.3363 33.9672 40.3249 32.6275 39.7018 31.0987C39.0787 29.5698 38.8655 27.9048 39.0834 26.2683C39.6608 24.6485 40.7253 23.247 42.1307 22.2561C43.5361 21.2651 45.2137 20.7332 46.9334 20.7333ZM68.3467 24.05C68.9501 25.5867 69.1419 27.2543 68.9031 28.8879C68.6644 30.5214 68.0033 32.0644 66.9852 33.364C65.9672 34.6637 64.6275 35.6751 63.0987 36.2982C61.5699 36.9213 59.9048 37.1345 58.2684 36.9167C56.5651 36.3097 55.1055 35.1653 54.1098 33.656C53.1141 32.1468 52.6362 30.3546 52.7484 28.55C53.8849 28.7686 55.0589 28.6868 56.1542 28.3127C57.2494 27.9385 58.2281 27.285 58.9934 26.4167C59.6678 26.5378 60.3589 26.5989 61.0667 26.6C63.713 26.604 66.2813 25.7044 68.3467 24.05ZM54 18.6667C54.8841 18.6667 55.7319 19.0179 56.357 19.643C56.9822 20.2681 57.3334 21.1159 57.3334 22C57.3334 22.8841 56.9822 23.7319 56.357 24.357C55.7319 24.9821 54.8841 25.3333 54 25.3333C53.116 25.3333 52.2681 24.9821 51.643 24.357C51.0179 23.7319 50.6667 22.8841 50.6667 22C50.6667 21.1159 51.0179 20.2681 51.643 19.643C52.2681 19.0179 53.116 18.6667 54 18.6667ZM59.5167 7C60.8677 6.99985 62.2032 7.28837 63.4337 7.84624C64.6641 8.40412 65.7612 9.21847 66.6514 10.2348C67.5416 11.251 68.2044 12.4458 68.5953 13.739C68.9863 15.0323 69.0964 16.3941 68.9184 17.7333C68.3108 19.4362 67.1658 20.8953 65.6563 21.8904C64.1468 22.8856 62.3545 23.3627 60.55 23.25C60.7686 22.1134 60.6868 20.9395 60.3127 19.8442C59.9385 18.7489 59.285 17.7703 58.4167 17.005C58.5378 16.3317 58.5989 15.6411 58.6 14.9333C58.604 12.2871 57.7044 9.71872 56.05 7.65333C57.1546 7.22104 58.3305 6.99944 59.5167 7ZM48.4834 7C48.9067 7 49.3234 7.02722 49.7334 7.08167C51.4362 7.68926 52.8953 8.8342 53.8904 10.3437C54.8856 11.8533 55.3628 13.6455 55.25 15.45C54.1134 15.2314 52.9395 15.3132 51.8442 15.6873C50.7489 16.0615 49.7703 16.715 49.005 17.5833C48.3213 17.4607 47.628 17.3993 46.9334 17.4C44.2871 17.396 41.7187 18.2956 39.6534 19.95C39.0886 18.512 38.8837 16.9577 39.0565 15.4224C39.2294 13.8871 39.7747 12.4173 40.6451 11.1408C41.5155 9.86435 42.6845 8.81985 44.0506 8.09817C45.4167 7.3765 46.9384 6.99951 48.4834 7Z" fill="#939DFF"/>
</svg>
