<svg width="269" height="61" viewBox="0 0 269 61" fill="none" xmlns="http://www.w3.org/2000/svg">
<path d="M21.2199 22.2424C21.2199 25.188 23.6077 27.5758 26.5532 27.5758C29.4987 27.5758 31.8865 25.188 31.8865 22.2424C31.8865 19.2969 29.4987 16.9091 26.5532 16.9091C23.6077 16.9091 21.2199 19.2969 21.2199 22.2424ZM0 22.2424L0 23.2424L26.5532 23.2424V22.2424V21.2424L0 21.2424L0 22.2424Z" fill="black"/>
<path d="M95.3812 8.97723C96.854 11.5281 100.116 12.4021 102.667 10.9294C105.218 9.45661 106.092 6.19479 104.619 3.6439C103.146 1.093 99.8842 0.219 97.3333 1.69176C94.7825 3.16452 93.9085 6.42633 95.3812 8.97723ZM77.0043 19.5872L77.5043 20.4532L100.5 7.17659L100 6.31056L99.5 5.44454L76.5043 18.7211L77.0043 19.5872Z" fill="black"/>
<path d="M95.3812 35.5079C93.9085 38.0588 94.7825 41.3206 97.3333 42.7933C99.8842 44.2661 103.146 43.3921 104.619 40.8412C106.092 38.2903 105.218 35.0285 102.667 33.5557C100.116 32.083 96.854 32.957 95.3812 35.5079ZM77.0043 24.8979L76.5043 25.764L99.5 39.0406L100 38.1745L100.5 37.3085L77.5043 24.0319L77.0043 24.8979Z" fill="black"/>
<path d="M127.453 26.9531C127.453 26.599 127.401 26.2812 127.297 26C127.193 25.7083 127 25.4375 126.719 25.1875C126.438 24.9375 126.031 24.6875 125.5 24.4375C124.979 24.1771 124.292 23.9062 123.438 23.625C122.438 23.2917 121.474 22.9167 120.547 22.5C119.62 22.0729 118.792 21.5781 118.062 21.0156C117.333 20.4427 116.755 19.776 116.328 19.0156C115.901 18.2448 115.688 17.349 115.688 16.3281C115.688 15.349 115.906 14.4688 116.344 13.6875C116.781 12.8958 117.391 12.224 118.172 11.6719C118.964 11.1094 119.891 10.6823 120.953 10.3906C122.016 10.0885 123.177 9.9375 124.438 9.9375C126.104 9.9375 127.573 10.2292 128.844 10.8125C130.125 11.3854 131.125 12.2031 131.844 13.2656C132.573 14.3177 132.938 15.5625 132.938 17H127.484C127.484 16.4271 127.365 15.9219 127.125 15.4844C126.896 15.0469 126.547 14.7031 126.078 14.4531C125.609 14.2031 125.021 14.0781 124.312 14.0781C123.625 14.0781 123.047 14.1823 122.578 14.3906C122.109 14.599 121.755 14.8802 121.516 15.2344C121.276 15.5781 121.156 15.9583 121.156 16.375C121.156 16.7188 121.25 17.0312 121.438 17.3125C121.635 17.5833 121.911 17.8385 122.266 18.0781C122.63 18.3177 123.068 18.5469 123.578 18.7656C124.099 18.9844 124.682 19.1979 125.328 19.4062C126.536 19.7917 127.609 20.224 128.547 20.7031C129.495 21.1719 130.292 21.7083 130.938 22.3125C131.594 22.9062 132.089 23.5833 132.422 24.3438C132.766 25.1042 132.938 25.9635 132.938 26.9219C132.938 27.9427 132.74 28.849 132.344 29.6406C131.948 30.4323 131.38 31.1042 130.641 31.6562C129.901 32.1979 129.016 32.6094 127.984 32.8906C126.953 33.1719 125.802 33.3125 124.531 33.3125C123.365 33.3125 122.214 33.1667 121.078 32.875C119.953 32.5729 118.932 32.1146 118.016 31.5C117.099 30.875 116.365 30.0781 115.812 29.1094C115.271 28.1302 115 26.9688 115 25.625H120.5C120.5 26.2917 120.589 26.8542 120.766 27.3125C120.943 27.7708 121.203 28.1406 121.547 28.4219C121.891 28.6927 122.312 28.8906 122.812 29.0156C123.312 29.1302 123.885 29.1875 124.531 29.1875C125.229 29.1875 125.792 29.0885 126.219 28.8906C126.646 28.6823 126.958 28.4115 127.156 28.0781C127.354 27.7344 127.453 27.3594 127.453 26.9531ZM140.828 19.3438V39.5H135.562V16.0938H140.469L140.828 19.3438ZM151.203 24.3438V24.6719C151.203 25.901 151.062 27.0417 150.781 28.0938C150.5 29.1458 150.083 30.0625 149.531 30.8438C148.979 31.625 148.292 32.2344 147.469 32.6719C146.656 33.099 145.714 33.3125 144.641 33.3125C143.63 33.3125 142.76 33.0885 142.031 32.6406C141.302 32.1927 140.693 31.5729 140.203 30.7812C139.714 29.9896 139.318 29.0833 139.016 28.0625C138.714 27.0417 138.474 25.9635 138.297 24.8281V24.4062C138.474 23.1875 138.714 22.0573 139.016 21.0156C139.318 19.9635 139.714 19.0469 140.203 18.2656C140.693 17.4844 141.297 16.875 142.016 16.4375C142.745 16 143.615 15.7812 144.625 15.7812C145.698 15.7812 146.641 15.9844 147.453 16.3906C148.276 16.7969 148.964 17.3802 149.516 18.1406C150.078 18.8906 150.5 19.7917 150.781 20.8438C151.062 21.8958 151.203 23.0625 151.203 24.3438ZM145.938 24.6719V24.3438C145.938 23.6875 145.891 23.0885 145.797 22.5469C145.703 21.9948 145.552 21.5156 145.344 21.1094C145.146 20.7031 144.88 20.3906 144.547 20.1719C144.214 19.9531 143.802 19.8438 143.312 19.8438C142.75 19.8438 142.276 19.9323 141.891 20.1094C141.516 20.276 141.214 20.5365 140.984 20.8906C140.766 21.2344 140.609 21.6667 140.516 22.1875C140.432 22.6979 140.396 23.2969 140.406 23.9844V25.2656C140.385 26.0573 140.464 26.7552 140.641 27.3594C140.818 27.9531 141.125 28.4167 141.562 28.75C142 29.0833 142.594 29.25 143.344 29.25C143.844 29.25 144.26 29.1354 144.594 28.9062C144.927 28.6667 145.193 28.3385 145.391 27.9219C145.589 27.4948 145.729 27.0052 145.812 26.4531C145.896 25.901 145.938 25.3073 145.938 24.6719ZM159.109 9V33H153.828V9H159.109ZM167.922 16.0938V33H162.641V16.0938H167.922ZM162.328 11.7344C162.328 10.9844 162.599 10.3698 163.141 9.89062C163.682 9.41146 164.385 9.17188 165.25 9.17188C166.115 9.17188 166.818 9.41146 167.359 9.89062C167.901 10.3698 168.172 10.9844 168.172 11.7344C168.172 12.4844 167.901 13.099 167.359 13.5781C166.818 14.0573 166.115 14.2969 165.25 14.2969C164.385 14.2969 163.682 14.0573 163.141 13.5781C162.599 13.099 162.328 12.4844 162.328 11.7344ZM180.078 16.0938V19.75H169.891V16.0938H180.078ZM172.031 11.8906H177.297V27.4844C177.297 27.9323 177.349 28.2812 177.453 28.5312C177.557 28.7708 177.734 28.9427 177.984 29.0469C178.245 29.1406 178.589 29.1875 179.016 29.1875C179.318 29.1875 179.568 29.1823 179.766 29.1719C179.964 29.151 180.151 29.125 180.328 29.0938V32.8594C179.88 33.0052 179.411 33.1146 178.922 33.1875C178.432 33.2708 177.911 33.3125 177.359 33.3125C176.234 33.3125 175.271 33.1354 174.469 32.7812C173.677 32.4271 173.073 31.8698 172.656 31.1094C172.24 30.349 172.031 29.3594 172.031 28.1406V11.8906ZM191.078 16.0938V19.75H180.891V16.0938H191.078ZM183.031 11.8906H188.297V27.4844C188.297 27.9323 188.349 28.2812 188.453 28.5312C188.557 28.7708 188.734 28.9427 188.984 29.0469C189.245 29.1406 189.589 29.1875 190.016 29.1875C190.318 29.1875 190.568 29.1823 190.766 29.1719C190.964 29.151 191.151 29.125 191.328 29.0938V32.8594C190.88 33.0052 190.411 33.1146 189.922 33.1875C189.432 33.2708 188.911 33.3125 188.359 33.3125C187.234 33.3125 186.271 33.1354 185.469 32.7812C184.677 32.4271 184.073 31.8698 183.656 31.1094C183.24 30.349 183.031 29.3594 183.031 28.1406V11.8906ZM201.359 33.3125C199.984 33.3125 198.755 33.099 197.672 32.6719C196.589 32.2344 195.672 31.6354 194.922 30.875C194.182 30.1146 193.615 29.2396 193.219 28.25C192.833 27.2604 192.641 26.2135 192.641 25.1094V24.5156C192.641 23.276 192.812 22.1302 193.156 21.0781C193.5 20.0156 194.01 19.0885 194.688 18.2969C195.365 17.5052 196.214 16.8906 197.234 16.4531C198.255 16.0052 199.443 15.7812 200.797 15.7812C201.995 15.7812 203.068 15.974 204.016 16.3594C204.964 16.7448 205.766 17.2969 206.422 18.0156C207.089 18.7344 207.594 19.6042 207.938 20.625C208.292 21.6458 208.469 22.7917 208.469 24.0625V26.2031H194.656V22.9062H203.328V22.5C203.339 21.9375 203.24 21.4583 203.031 21.0625C202.833 20.6667 202.542 20.3646 202.156 20.1562C201.771 19.9479 201.302 19.8438 200.75 19.8438C200.177 19.8438 199.703 19.9688 199.328 20.2188C198.964 20.4688 198.677 20.8125 198.469 21.25C198.271 21.6771 198.13 22.1719 198.047 22.7344C197.964 23.2969 197.922 23.8906 197.922 24.5156V25.1094C197.922 25.7344 198.005 26.3021 198.172 26.8125C198.349 27.3229 198.599 27.7604 198.922 28.125C199.255 28.4792 199.651 28.7552 200.109 28.9531C200.578 29.151 201.109 29.25 201.703 29.25C202.422 29.25 203.13 29.1146 203.828 28.8438C204.526 28.5729 205.125 28.125 205.625 27.5L208.016 30.3438C207.672 30.8333 207.182 31.3073 206.547 31.7656C205.922 32.224 205.172 32.599 204.297 32.8906C203.422 33.1719 202.443 33.3125 201.359 33.3125ZM215.922 20.2812V33H210.656V16.0938H215.578L215.922 20.2812ZM220.922 15.9688L220.828 20.8594C220.62 20.8385 220.339 20.8125 219.984 20.7812C219.63 20.75 219.333 20.7344 219.094 20.7344C218.479 20.7344 217.948 20.8073 217.5 20.9531C217.062 21.0885 216.698 21.2969 216.406 21.5781C216.125 21.849 215.917 22.1927 215.781 22.6094C215.656 23.026 215.599 23.5104 215.609 24.0625L214.656 23.4375C214.656 22.3021 214.766 21.2708 214.984 20.3438C215.214 19.4062 215.536 18.599 215.953 17.9219C216.37 17.2344 216.875 16.7083 217.469 16.3438C218.062 15.9688 218.729 15.7812 219.469 15.7812C219.729 15.7812 219.984 15.7969 220.234 15.8281C220.495 15.8594 220.724 15.9062 220.922 15.9688ZM224.844 10.25H227.766L235.219 28.7969L242.656 10.25H245.594L236.344 33H234.062L224.844 10.25ZM223.891 10.25H226.469L226.891 24.125V33H223.891V10.25ZM243.953 10.25H246.531V33H243.531V24.125L243.953 10.25ZM251.828 10.25H259.359C261.068 10.25 262.51 10.5104 263.688 11.0312C264.875 11.5521 265.776 12.3229 266.391 13.3438C267.016 14.3542 267.328 15.599 267.328 17.0781C267.328 18.1198 267.115 19.0729 266.688 19.9375C266.271 20.7917 265.667 21.5208 264.875 22.125C264.094 22.7188 263.156 23.1615 262.062 23.4531L261.219 23.7812H254.141L254.109 21.3281H259.453C260.536 21.3281 261.438 21.1406 262.156 20.7656C262.875 20.3802 263.417 19.8646 263.781 19.2188C264.146 18.5729 264.328 17.8594 264.328 17.0781C264.328 16.2031 264.156 15.4375 263.812 14.7812C263.469 14.125 262.927 13.6198 262.188 13.2656C261.458 12.901 260.516 12.7188 259.359 12.7188H254.844V33H251.828V10.25ZM265.125 33L259.594 22.6875L262.734 22.6719L268.344 32.8125V33H265.125Z" fill="black"/>
<path d="M8.14844 57.0049H8.68896C8.64502 57.4355 8.52637 57.8076 8.33301 58.1211C8.13965 58.4316 7.87598 58.6704 7.54199 58.8374C7.20801 59.0044 6.80518 59.0879 6.3335 59.0879C5.97021 59.0879 5.64062 59.019 5.34473 58.8813C5.05176 58.7437 4.7998 58.5488 4.58887 58.2969C4.37793 58.042 4.21533 57.7373 4.10107 57.3828C3.98682 57.0283 3.92969 56.6343 3.92969 56.2007V55.4009C3.92969 54.9673 3.98682 54.5747 4.10107 54.2231C4.21533 53.8687 4.37939 53.564 4.59326 53.3091C4.80713 53.0542 5.06348 52.8579 5.3623 52.7202C5.66113 52.5825 5.99805 52.5137 6.37305 52.5137C6.82715 52.5137 7.21973 52.5972 7.55078 52.7642C7.88184 52.9282 8.14258 53.1655 8.33301 53.4761C8.52637 53.7866 8.64502 54.1616 8.68896 54.6011H8.14844C8.10742 54.2554 8.0166 53.9624 7.87598 53.7222C7.73535 53.4819 7.54053 53.2988 7.2915 53.1729C7.04541 53.0439 6.73926 52.9795 6.37305 52.9795C6.07422 52.9795 5.80762 53.0366 5.57324 53.1509C5.33887 53.2651 5.13965 53.4292 4.97559 53.6431C4.81152 53.854 4.68555 54.1074 4.59766 54.4033C4.5127 54.6992 4.47021 55.0288 4.47021 55.3921V56.2007C4.47021 56.5522 4.51123 56.876 4.59326 57.1719C4.67529 57.4678 4.79541 57.7241 4.95361 57.9409C5.11475 58.1577 5.31104 58.3262 5.54248 58.4463C5.77393 58.5664 6.0376 58.6265 6.3335 58.6265C6.71143 58.6265 7.02637 58.5664 7.27832 58.4463C7.5332 58.3232 7.73096 58.1416 7.87158 57.9014C8.01221 57.6611 8.10449 57.3623 8.14844 57.0049ZM10.4072 52.25V59H9.88428V52.25H10.4072ZM10.2886 56.3281L10.0557 56.1963C10.0732 55.915 10.1304 55.6514 10.2271 55.4053C10.3237 55.1592 10.4541 54.9424 10.6182 54.7549C10.7852 54.5674 10.98 54.4209 11.2026 54.3154C11.4282 54.21 11.6772 54.1572 11.9497 54.1572C12.187 54.1572 12.3994 54.1895 12.5869 54.2539C12.7744 54.3184 12.9341 54.4209 13.0659 54.5615C13.1978 54.7021 13.2974 54.8823 13.3647 55.1021C13.4351 55.3218 13.4702 55.5898 13.4702 55.9062V59H12.9429V55.9019C12.9429 55.5737 12.8975 55.3174 12.8066 55.1328C12.7158 54.9453 12.5869 54.812 12.4199 54.7329C12.2529 54.6538 12.0552 54.6143 11.8267 54.6143C11.5747 54.6143 11.3535 54.6699 11.1631 54.7812C10.9756 54.8896 10.8174 55.0317 10.6885 55.2075C10.5625 55.3804 10.4658 55.5664 10.3984 55.7656C10.3311 55.9619 10.2944 56.1494 10.2886 56.3281ZM17.8691 57.9014V54.2451H18.3965V59H17.8911L17.8691 57.9014ZM17.9658 57.0225L18.2383 57.0137C18.2383 57.3125 18.2031 57.5879 18.1328 57.8398C18.0625 58.0918 17.9526 58.3115 17.8032 58.499C17.6538 58.6865 17.4604 58.8315 17.2231 58.9341C16.9858 59.0366 16.7002 59.0879 16.3662 59.0879C16.1348 59.0879 15.9224 59.0557 15.729 58.9912C15.5386 58.9238 15.3745 58.8184 15.2368 58.6748C15.0991 58.5312 14.9922 58.3452 14.916 58.1167C14.8428 57.8882 14.8062 57.6113 14.8062 57.2861V54.2451H15.3291V57.2949C15.3291 57.5498 15.3569 57.7622 15.4126 57.9321C15.4712 58.1021 15.5503 58.2383 15.6499 58.3408C15.7524 58.4434 15.8696 58.5166 16.0015 58.5605C16.1333 58.6045 16.2754 58.6265 16.4277 58.6265C16.8145 58.6265 17.1191 58.5518 17.3418 58.4023C17.5674 58.2529 17.7271 58.0566 17.8208 57.8135C17.9175 57.5674 17.9658 57.3037 17.9658 57.0225ZM20.2949 55.2603V59H19.772V54.2451H20.2729L20.2949 55.2603ZM20.1763 56.3281L19.9434 56.1963C19.9609 55.915 20.0181 55.6514 20.1147 55.4053C20.2114 55.1592 20.3418 54.9424 20.5059 54.7549C20.6729 54.5674 20.8677 54.4209 21.0903 54.3154C21.3159 54.21 21.5649 54.1572 21.8374 54.1572C22.0747 54.1572 22.2871 54.1895 22.4746 54.2539C22.6621 54.3184 22.8218 54.4209 22.9536 54.5615C23.0854 54.7021 23.1851 54.8823 23.2524 55.1021C23.3228 55.3218 23.3579 55.5898 23.3579 55.9062V59H22.8306V55.9019C22.8306 55.5737 22.7852 55.3174 22.6943 55.1328C22.6035 54.9453 22.4746 54.812 22.3076 54.7329C22.1406 54.6538 21.9429 54.6143 21.7144 54.6143C21.4624 54.6143 21.2412 54.6699 21.0508 54.7812C20.8633 54.8896 20.7051 55.0317 20.5762 55.2075C20.4502 55.3804 20.3535 55.5664 20.2861 55.7656C20.2188 55.9619 20.1821 56.1494 20.1763 56.3281ZM25.2432 52.25V59H24.7202V52.25H25.2432ZM28.2271 54.2451L26.0034 56.4512L25.0586 57.3652L24.9795 56.8511L25.7397 56.0293L27.5635 54.2451H28.2271ZM27.77 59L25.7837 56.5303L26.0737 56.0776L28.4028 59H27.77ZM32.7402 58.5254L34.2212 54.2451H34.7881L32.7754 59.7646C32.7344 59.873 32.6816 59.9932 32.6172 60.125C32.5557 60.2568 32.4736 60.3828 32.3711 60.5029C32.2715 60.626 32.1455 60.7256 31.9932 60.8018C31.8438 60.8809 31.6606 60.9204 31.4438 60.9204C31.3882 60.9204 31.3164 60.9131 31.2285 60.8984C31.1436 60.8867 31.082 60.875 31.0439 60.8633L31.0396 60.4194C31.0718 60.4282 31.1187 60.4355 31.1802 60.4414C31.2417 60.4473 31.2842 60.4502 31.3076 60.4502C31.498 60.4502 31.6577 60.418 31.7866 60.3535C31.9185 60.2891 32.0283 60.1924 32.1162 60.0635C32.2041 59.9375 32.2817 59.7793 32.3491 59.5889L32.7402 58.5254ZM31.356 54.2451L32.8721 58.3276L33.0127 58.877L32.6304 59.0923L30.7847 54.2451H31.356ZM35.2495 56.6973V56.5522C35.2495 56.2065 35.2993 55.8872 35.3989 55.5942C35.4985 55.3013 35.6406 55.0479 35.8252 54.834C36.0127 54.6201 36.2368 54.4546 36.4976 54.3374C36.7583 54.2173 37.0483 54.1572 37.3677 54.1572C37.6899 54.1572 37.9814 54.2173 38.2422 54.3374C38.5029 54.4546 38.7271 54.6201 38.9146 54.834C39.1021 55.0479 39.2456 55.3013 39.3452 55.5942C39.4448 55.8872 39.4946 56.2065 39.4946 56.5522V56.6973C39.4946 57.043 39.4448 57.3623 39.3452 57.6553C39.2456 57.9453 39.1021 58.1973 38.9146 58.4111C38.73 58.625 38.5073 58.792 38.2466 58.9121C37.9858 59.0293 37.6958 59.0879 37.3765 59.0879C37.0542 59.0879 36.7627 59.0293 36.502 58.9121C36.2412 58.792 36.0171 58.625 35.8296 58.4111C35.6421 58.1973 35.4985 57.9453 35.3989 57.6553C35.2993 57.3623 35.2495 57.043 35.2495 56.6973ZM35.7725 56.5522V56.6973C35.7725 56.958 35.8076 57.2056 35.8779 57.4399C35.9482 57.6714 36.0508 57.8779 36.1855 58.0596C36.3203 58.2383 36.4873 58.3789 36.6865 58.4814C36.8857 58.584 37.1157 58.6353 37.3765 58.6353C37.6343 58.6353 37.8613 58.584 38.0576 58.4814C38.2568 58.3789 38.4238 58.2383 38.5586 58.0596C38.6934 57.8779 38.7944 57.6714 38.8618 57.4399C38.9321 57.2056 38.9673 56.958 38.9673 56.6973V56.5522C38.9673 56.2944 38.9321 56.0498 38.8618 55.8184C38.7944 55.5869 38.6919 55.3804 38.5542 55.1987C38.4194 55.0171 38.2524 54.8735 38.0532 54.7681C37.854 54.6626 37.6255 54.6099 37.3677 54.6099C37.1099 54.6099 36.8813 54.6626 36.6821 54.7681C36.4858 54.8735 36.3188 55.0171 36.1812 55.1987C36.0464 55.3804 35.9438 55.5869 35.8735 55.8184C35.8062 56.0498 35.7725 56.2944 35.7725 56.5522ZM43.6299 57.9014V54.2451H44.1572V59H43.6519L43.6299 57.9014ZM43.7266 57.0225L43.999 57.0137C43.999 57.3125 43.9639 57.5879 43.8936 57.8398C43.8232 58.0918 43.7134 58.3115 43.564 58.499C43.4146 58.6865 43.2212 58.8315 42.9839 58.9341C42.7466 59.0366 42.4609 59.0879 42.127 59.0879C41.8955 59.0879 41.6831 59.0557 41.4897 58.9912C41.2993 58.9238 41.1353 58.8184 40.9976 58.6748C40.8599 58.5312 40.7529 58.3452 40.6768 58.1167C40.6035 57.8882 40.5669 57.6113 40.5669 57.2861V54.2451H41.0898V57.2949C41.0898 57.5498 41.1177 57.7622 41.1733 57.9321C41.2319 58.1021 41.311 58.2383 41.4106 58.3408C41.5132 58.4434 41.6304 58.5166 41.7622 58.5605C41.894 58.6045 42.0361 58.6265 42.1885 58.6265C42.5752 58.6265 42.8799 58.5518 43.1025 58.4023C43.3281 58.2529 43.4878 58.0566 43.5815 57.8135C43.6782 57.5674 43.7266 57.3037 43.7266 57.0225ZM46.0557 55.0317V59H45.5327V54.2451H46.0425L46.0557 55.0317ZM47.7388 54.21L47.7256 54.6934C47.667 54.6846 47.6099 54.6772 47.5542 54.6714C47.4985 54.6655 47.4385 54.6626 47.374 54.6626C47.1455 54.6626 46.9448 54.7051 46.772 54.79C46.6021 54.8721 46.4585 54.9878 46.3413 55.1372C46.2241 55.2837 46.1348 55.4565 46.0732 55.6558C46.0117 55.8521 45.9766 56.063 45.9678 56.2886L45.7744 56.3633C45.7744 56.0527 45.8066 55.7642 45.8711 55.4976C45.9355 55.231 46.0337 54.998 46.1655 54.7988C46.3003 54.5967 46.4688 54.4399 46.6709 54.3286C46.876 54.2144 47.1162 54.1572 47.3916 54.1572C47.459 54.1572 47.5249 54.1631 47.5894 54.1748C47.6567 54.1836 47.7065 54.1953 47.7388 54.21ZM53.8516 58.0771V52.25H54.3789V59H53.8867L53.8516 58.0771ZM50.5513 56.6709V56.5786C50.5513 56.2095 50.5938 55.877 50.6787 55.5811C50.7637 55.2822 50.8853 55.0273 51.0435 54.8164C51.2046 54.6025 51.3979 54.4399 51.6235 54.3286C51.8491 54.2144 52.104 54.1572 52.3882 54.1572C52.6665 54.1572 52.9126 54.2026 53.1265 54.2935C53.3403 54.3843 53.5234 54.5146 53.6758 54.6846C53.8311 54.8545 53.9556 55.0566 54.0493 55.291C54.146 55.5254 54.2163 55.7861 54.2603 56.0732V57.2466C54.2251 57.5161 54.1606 57.7637 54.0669 57.9893C53.9731 58.2119 53.8486 58.4067 53.6934 58.5737C53.5381 58.7378 53.3506 58.8652 53.1309 58.9561C52.9141 59.0439 52.6636 59.0879 52.3794 59.0879C52.0981 59.0879 51.8447 59.0293 51.6191 58.9121C51.3936 58.7949 51.2017 58.6294 51.0435 58.4155C50.8853 58.1987 50.7637 57.9424 50.6787 57.6465C50.5938 57.3506 50.5513 57.0254 50.5513 56.6709ZM51.0786 56.5786V56.6709C51.0786 56.9492 51.1064 57.207 51.1621 57.4443C51.2178 57.6816 51.3027 57.8882 51.417 58.064C51.5312 58.2397 51.6763 58.3774 51.8521 58.4771C52.0278 58.5767 52.2358 58.6265 52.4761 58.6265C52.7778 58.6265 53.0312 58.5693 53.2363 58.4551C53.4414 58.3379 53.6055 58.1841 53.7285 57.9937C53.8516 57.8003 53.9409 57.5894 53.9966 57.3608V55.9941C53.9614 55.8389 53.9102 55.6807 53.8428 55.5195C53.7754 55.3584 53.6831 55.2104 53.5659 55.0757C53.4517 54.938 53.3052 54.8281 53.1265 54.7461C52.9507 54.6611 52.7368 54.6187 52.4849 54.6187C52.2417 54.6187 52.0322 54.6685 51.8564 54.7681C51.6807 54.8677 51.5342 55.0068 51.417 55.1855C51.3027 55.3613 51.2178 55.5679 51.1621 55.8052C51.1064 56.0425 51.0786 56.3003 51.0786 56.5786ZM55.4731 56.6973V56.5522C55.4731 56.2065 55.5229 55.8872 55.6226 55.5942C55.7222 55.3013 55.8643 55.0479 56.0488 54.834C56.2363 54.6201 56.4604 54.4546 56.7212 54.3374C56.9819 54.2173 57.272 54.1572 57.5913 54.1572C57.9136 54.1572 58.2051 54.2173 58.4658 54.3374C58.7266 54.4546 58.9507 54.6201 59.1382 54.834C59.3257 55.0479 59.4692 55.3013 59.5688 55.5942C59.6685 55.8872 59.7183 56.2065 59.7183 56.5522V56.6973C59.7183 57.043 59.6685 57.3623 59.5688 57.6553C59.4692 57.9453 59.3257 58.1973 59.1382 58.4111C58.9536 58.625 58.731 58.792 58.4702 58.9121C58.2095 59.0293 57.9194 59.0879 57.6001 59.0879C57.2778 59.0879 56.9863 59.0293 56.7256 58.9121C56.4648 58.792 56.2407 58.625 56.0532 58.4111C55.8657 58.1973 55.7222 57.9453 55.6226 57.6553C55.5229 57.3623 55.4731 57.043 55.4731 56.6973ZM55.9961 56.5522V56.6973C55.9961 56.958 56.0312 57.2056 56.1016 57.4399C56.1719 57.6714 56.2744 57.8779 56.4092 58.0596C56.5439 58.2383 56.7109 58.3789 56.9102 58.4814C57.1094 58.584 57.3394 58.6353 57.6001 58.6353C57.8579 58.6353 58.085 58.584 58.2812 58.4814C58.4805 58.3789 58.6475 58.2383 58.7822 58.0596C58.917 57.8779 59.0181 57.6714 59.0854 57.4399C59.1558 57.2056 59.1909 56.958 59.1909 56.6973V56.5522C59.1909 56.2944 59.1558 56.0498 59.0854 55.8184C59.0181 55.5869 58.9155 55.3804 58.7778 55.1987C58.6431 55.0171 58.4761 54.8735 58.2769 54.7681C58.0776 54.6626 57.8491 54.6099 57.5913 54.6099C57.3335 54.6099 57.105 54.6626 56.9058 54.7681C56.7095 54.8735 56.5425 55.0171 56.4048 55.1987C56.27 55.3804 56.1675 55.5869 56.0972 55.8184C56.0298 56.0498 55.9961 56.2944 55.9961 56.5522ZM62.5615 58.6353C62.7842 58.6353 62.9922 58.5942 63.1855 58.5122C63.3818 58.4272 63.543 58.3027 63.6689 58.1387C63.7979 57.9717 63.8711 57.7681 63.8887 57.5278H64.3896C64.375 57.8296 64.2827 58.0991 64.1128 58.3364C63.9458 58.5708 63.7261 58.7554 63.4536 58.8901C63.1841 59.022 62.8867 59.0879 62.5615 59.0879C62.2305 59.0879 61.9375 59.0278 61.6826 58.9077C61.4307 58.7876 61.2197 58.6206 61.0498 58.4067C60.8799 58.1899 60.751 57.938 60.6631 57.6509C60.5781 57.3608 60.5356 57.0488 60.5356 56.7148V56.5303C60.5356 56.1963 60.5781 55.8857 60.6631 55.5986C60.751 55.3086 60.8799 55.0566 61.0498 54.8428C61.2197 54.626 61.4307 54.4575 61.6826 54.3374C61.9346 54.2173 62.2261 54.1572 62.5571 54.1572C62.897 54.1572 63.2017 54.2261 63.4712 54.3638C63.7437 54.5015 63.9604 54.6963 64.1216 54.9482C64.2856 55.2002 64.375 55.499 64.3896 55.8447H63.8887C63.874 55.5898 63.8066 55.3701 63.6865 55.1855C63.5664 55.001 63.4082 54.8589 63.2119 54.7593C63.0156 54.6597 62.7974 54.6099 62.5571 54.6099C62.2876 54.6099 62.0576 54.6626 61.8672 54.7681C61.6768 54.8706 61.5215 55.0127 61.4014 55.1943C61.2842 55.373 61.1978 55.5781 61.1421 55.8096C61.0864 56.0381 61.0586 56.2783 61.0586 56.5303V56.7148C61.0586 56.9697 61.085 57.2129 61.1377 57.4443C61.1934 57.6729 61.2798 57.8765 61.397 58.0552C61.5171 58.2339 61.6724 58.376 61.8628 58.4814C62.0562 58.584 62.2891 58.6353 62.5615 58.6353ZM68.4941 57.9014V54.2451H69.0215V59H68.5161L68.4941 57.9014ZM68.5908 57.0225L68.8633 57.0137C68.8633 57.3125 68.8281 57.5879 68.7578 57.8398C68.6875 58.0918 68.5776 58.3115 68.4282 58.499C68.2788 58.6865 68.0854 58.8315 67.8481 58.9341C67.6108 59.0366 67.3252 59.0879 66.9912 59.0879C66.7598 59.0879 66.5474 59.0557 66.354 58.9912C66.1636 58.9238 65.9995 58.8184 65.8618 58.6748C65.7241 58.5312 65.6172 58.3452 65.541 58.1167C65.4678 57.8882 65.4312 57.6113 65.4312 57.2861V54.2451H65.9541V57.2949C65.9541 57.5498 65.9819 57.7622 66.0376 57.9321C66.0962 58.1021 66.1753 58.2383 66.2749 58.3408C66.3774 58.4434 66.4946 58.5166 66.6265 58.5605C66.7583 58.6045 66.9004 58.6265 67.0527 58.6265C67.4395 58.6265 67.7441 58.5518 67.9668 58.4023C68.1924 58.2529 68.3521 58.0566 68.4458 57.8135C68.5425 57.5674 68.5908 57.3037 68.5908 57.0225ZM70.8936 55.2295V59H70.3662V54.2451H70.8716L70.8936 55.2295ZM70.7969 56.3281L70.542 56.1963C70.5596 55.915 70.6123 55.6514 70.7002 55.4053C70.791 55.1592 70.917 54.9424 71.0781 54.7549C71.2393 54.5674 71.4326 54.4209 71.6582 54.3154C71.8838 54.21 72.1401 54.1572 72.4272 54.1572C72.6587 54.1572 72.8682 54.1895 73.0557 54.2539C73.2461 54.3154 73.4072 54.4136 73.5391 54.5483C73.6738 54.6802 73.7778 54.853 73.8511 55.0669C73.9243 55.2808 73.9609 55.5371 73.9609 55.8359V59H73.438V55.8535C73.438 55.5371 73.3882 55.2896 73.2886 55.1108C73.1919 54.9321 73.0557 54.8047 72.8799 54.7285C72.707 54.6523 72.5063 54.6143 72.2778 54.6143C72.0083 54.6143 71.7798 54.6699 71.5923 54.7812C71.4077 54.8896 71.2568 55.0317 71.1396 55.2075C71.0254 55.3804 70.9404 55.5664 70.8848 55.7656C70.8291 55.9619 70.7998 56.1494 70.7969 56.3281ZM73.9565 55.915L73.605 55.9238C73.6196 55.6924 73.6724 55.4712 73.7632 55.2603C73.8569 55.0493 73.9844 54.8618 74.1455 54.6978C74.3066 54.5308 74.4985 54.3989 74.7212 54.3022C74.9468 54.2056 75.2002 54.1572 75.4814 54.1572C75.7275 54.1572 75.9473 54.1909 76.1406 54.2583C76.334 54.3228 76.4966 54.4268 76.6284 54.5703C76.7632 54.7109 76.8657 54.8911 76.936 55.1108C77.0063 55.3306 77.0415 55.5942 77.0415 55.9019V59H76.5142V55.8975C76.5142 55.5605 76.4644 55.2998 76.3647 55.1152C76.2681 54.9277 76.1333 54.7974 75.9604 54.7241C75.7876 54.6509 75.5854 54.6143 75.354 54.6143C75.1255 54.6172 74.9248 54.6597 74.752 54.7417C74.5791 54.8208 74.4341 54.9263 74.3169 55.0581C74.2026 55.187 74.1147 55.3262 74.0532 55.4756C73.9946 55.625 73.9624 55.7715 73.9565 55.915ZM80.2144 59.0879C79.9038 59.0879 79.6182 59.0308 79.3574 58.9165C79.0996 58.8022 78.874 58.6411 78.6807 58.4331C78.4902 58.2251 78.3423 57.979 78.2368 57.6948C78.1343 57.4077 78.083 57.0942 78.083 56.7544V56.5654C78.083 56.1992 78.1372 55.8682 78.2456 55.5723C78.354 55.2764 78.5034 55.0229 78.6938 54.812C78.8843 54.6011 79.1011 54.4399 79.3442 54.3286C79.5903 54.2144 79.8481 54.1572 80.1177 54.1572C80.4194 54.1572 80.6875 54.2114 80.9219 54.3198C81.1562 54.4253 81.3525 54.5762 81.5107 54.7725C81.6719 54.9658 81.7935 55.1958 81.8755 55.4624C81.9575 55.7261 81.9985 56.0176 81.9985 56.3369V56.6577H78.3994V56.2095H81.4756V56.1479C81.4697 55.8813 81.4155 55.6323 81.313 55.4009C81.2134 55.1665 81.064 54.9761 80.8647 54.8296C80.6655 54.6831 80.4165 54.6099 80.1177 54.6099C79.895 54.6099 79.6899 54.6567 79.5024 54.7505C79.3179 54.8442 79.1582 54.979 79.0234 55.1548C78.8916 55.3276 78.7891 55.5342 78.7158 55.7744C78.6455 56.0117 78.6104 56.2754 78.6104 56.5654V56.7544C78.6104 57.0181 78.6484 57.2642 78.7246 57.4927C78.8037 57.7183 78.915 57.9175 79.0586 58.0903C79.2051 58.2632 79.3779 58.3979 79.5771 58.4946C79.7764 58.5913 79.9961 58.6396 80.2363 58.6396C80.5176 58.6396 80.7666 58.5884 80.9834 58.4858C81.2002 58.3804 81.395 58.2148 81.5679 57.9893L81.8975 58.2441C81.7949 58.3965 81.666 58.5371 81.5107 58.666C81.3584 58.7949 81.1753 58.8975 80.9614 58.9736C80.7476 59.0498 80.4985 59.0879 80.2144 59.0879ZM83.5586 55.2603V59H83.0356V54.2451H83.5366L83.5586 55.2603ZM83.4399 56.3281L83.207 56.1963C83.2246 55.915 83.2817 55.6514 83.3784 55.4053C83.4751 55.1592 83.6055 54.9424 83.7695 54.7549C83.9365 54.5674 84.1313 54.4209 84.354 54.3154C84.5796 54.21 84.8286 54.1572 85.1011 54.1572C85.3384 54.1572 85.5508 54.1895 85.7383 54.2539C85.9258 54.3184 86.0854 54.4209 86.2173 54.5615C86.3491 54.7021 86.4487 54.8823 86.5161 55.1021C86.5864 55.3218 86.6216 55.5898 86.6216 55.9062V59H86.0942V55.9019C86.0942 55.5737 86.0488 55.3174 85.958 55.1328C85.8672 54.9453 85.7383 54.812 85.5713 54.7329C85.4043 54.6538 85.2065 54.6143 84.978 54.6143C84.7261 54.6143 84.5049 54.6699 84.3145 54.7812C84.127 54.8896 83.9688 55.0317 83.8398 55.2075C83.7139 55.3804 83.6172 55.5664 83.5498 55.7656C83.4824 55.9619 83.4458 56.1494 83.4399 56.3281ZM89.7812 54.2451V54.6758H87.3994V54.2451H89.7812ZM88.2739 53.0234H88.7969V57.8442C88.7969 58.064 88.8262 58.2295 88.8848 58.3408C88.9434 58.4521 89.0195 58.5269 89.1133 58.5649C89.207 58.603 89.3081 58.6221 89.4165 58.6221C89.4956 58.6221 89.5718 58.6177 89.645 58.6089C89.7183 58.5972 89.7842 58.5854 89.8428 58.5737L89.8647 59.0176C89.8003 59.0381 89.7168 59.0542 89.6143 59.0659C89.5117 59.0806 89.4092 59.0879 89.3066 59.0879C89.1045 59.0879 88.9258 59.0513 88.7705 58.978C88.6152 58.9019 88.4937 58.7729 88.4058 58.5913C88.3179 58.4067 88.2739 58.1562 88.2739 57.8398V53.0234ZM93.7319 57.7871C93.7319 57.6582 93.6997 57.5308 93.6353 57.4048C93.5708 57.2788 93.4463 57.1631 93.2617 57.0576C93.0801 56.9521 92.812 56.8628 92.4575 56.7896C92.1938 56.731 91.958 56.665 91.75 56.5918C91.5449 56.5186 91.3721 56.4307 91.2314 56.3281C91.0908 56.2256 90.9839 56.1025 90.9106 55.959C90.8374 55.8154 90.8008 55.6455 90.8008 55.4492C90.8008 55.2734 90.8389 55.1079 90.915 54.9526C90.9941 54.7944 91.1055 54.6567 91.249 54.5396C91.3955 54.4194 91.5713 54.3257 91.7764 54.2583C91.9844 54.1909 92.2173 54.1572 92.4751 54.1572C92.8413 54.1572 93.1548 54.2202 93.4155 54.3462C93.6792 54.4692 93.8799 54.6377 94.0176 54.8516C94.1582 55.0654 94.2285 55.3071 94.2285 55.5767H93.7056C93.7056 55.4126 93.6572 55.2573 93.5605 55.1108C93.4668 54.9644 93.3276 54.8442 93.1431 54.7505C92.9614 54.6567 92.7388 54.6099 92.4751 54.6099C92.2026 54.6099 91.9814 54.6509 91.8115 54.7329C91.6416 54.8149 91.5171 54.9189 91.438 55.0449C91.3618 55.1709 91.3237 55.3013 91.3237 55.436C91.3237 55.5415 91.3398 55.6382 91.3721 55.7261C91.4072 55.811 91.4688 55.8901 91.5566 55.9634C91.6475 56.0366 91.7764 56.1055 91.9434 56.1699C92.1104 56.2344 92.3271 56.2974 92.5938 56.3589C92.9775 56.4438 93.291 56.5479 93.5342 56.6709C93.7803 56.791 93.9619 56.9404 94.0791 57.1191C94.1963 57.2949 94.2549 57.5088 94.2549 57.7607C94.2549 57.957 94.2139 58.1372 94.1318 58.3013C94.0498 58.4624 93.9312 58.6016 93.7759 58.7188C93.6235 58.8359 93.439 58.9268 93.2222 58.9912C93.0083 59.0557 92.7681 59.0879 92.5015 59.0879C92.1001 59.0879 91.7603 59.022 91.4819 58.8901C91.2065 58.7554 90.9971 58.5796 90.8535 58.3628C90.7129 58.1431 90.6426 57.9102 90.6426 57.6641H91.1655C91.1831 57.9102 91.2607 58.105 91.3984 58.2485C91.5361 58.3892 91.7046 58.4888 91.9038 58.5474C92.106 58.606 92.3052 58.6353 92.5015 58.6353C92.771 58.6353 92.9966 58.5957 93.1782 58.5166C93.3599 58.4375 93.4976 58.3335 93.5913 58.2046C93.6851 58.0757 93.7319 57.9365 93.7319 57.7871ZM99.4404 54.2451V54.6758H97.0586V54.2451H99.4404ZM97.9331 53.0234H98.4561V57.8442C98.4561 58.064 98.4854 58.2295 98.5439 58.3408C98.6025 58.4521 98.6787 58.5269 98.7725 58.5649C98.8662 58.603 98.9673 58.6221 99.0757 58.6221C99.1548 58.6221 99.231 58.6177 99.3042 58.6089C99.3774 58.5972 99.4434 58.5854 99.502 58.5737L99.5239 59.0176C99.4595 59.0381 99.376 59.0542 99.2734 59.0659C99.1709 59.0806 99.0684 59.0879 98.9658 59.0879C98.7637 59.0879 98.585 59.0513 98.4297 58.978C98.2744 58.9019 98.1528 58.7729 98.0649 58.5913C97.9771 58.4067 97.9331 58.1562 97.9331 57.8398V53.0234ZM102.38 59.0879C102.07 59.0879 101.784 59.0308 101.523 58.9165C101.266 58.8022 101.04 58.6411 100.847 58.4331C100.656 58.2251 100.508 57.979 100.403 57.6948C100.3 57.4077 100.249 57.0942 100.249 56.7544V56.5654C100.249 56.1992 100.303 55.8682 100.412 55.5723C100.52 55.2764 100.669 55.0229 100.86 54.812C101.05 54.6011 101.267 54.4399 101.51 54.3286C101.756 54.2144 102.014 54.1572 102.284 54.1572C102.585 54.1572 102.854 54.2114 103.088 54.3198C103.322 54.4253 103.519 54.5762 103.677 54.7725C103.838 54.9658 103.959 55.1958 104.042 55.4624C104.124 55.7261 104.165 56.0176 104.165 56.3369V56.6577H100.565V56.2095H103.642V56.1479C103.636 55.8813 103.582 55.6323 103.479 55.4009C103.379 55.1665 103.23 54.9761 103.031 54.8296C102.832 54.6831 102.583 54.6099 102.284 54.6099C102.061 54.6099 101.856 54.6567 101.668 54.7505C101.484 54.8442 101.324 54.979 101.189 55.1548C101.058 55.3276 100.955 55.5342 100.882 55.7744C100.812 56.0117 100.776 56.2754 100.776 56.5654V56.7544C100.776 57.0181 100.814 57.2642 100.891 57.4927C100.97 57.7183 101.081 57.9175 101.225 58.0903C101.371 58.2632 101.544 58.3979 101.743 58.4946C101.942 58.5913 102.162 58.6396 102.402 58.6396C102.684 58.6396 102.933 58.5884 103.149 58.4858C103.366 58.3804 103.561 58.2148 103.734 57.9893L104.063 58.2441C103.961 58.3965 103.832 58.5371 103.677 58.666C103.524 58.7949 103.341 58.8975 103.127 58.9736C102.914 59.0498 102.665 59.0879 102.38 59.0879ZM105.408 54.2451L106.691 56.1655L107.979 54.2451H108.603L106.99 56.5742L108.669 59H108.054L106.696 56.9917L105.342 59H104.727L106.406 56.5742L104.793 54.2451H105.408ZM111.385 54.2451V54.6758H109.003V54.2451H111.385ZM109.877 53.0234H110.4V57.8442C110.4 58.064 110.43 58.2295 110.488 58.3408C110.547 58.4521 110.623 58.5269 110.717 58.5649C110.811 58.603 110.912 58.6221 111.02 58.6221C111.099 58.6221 111.175 58.6177 111.249 58.6089C111.322 58.5972 111.388 58.5854 111.446 58.5737L111.468 59.0176C111.404 59.0381 111.32 59.0542 111.218 59.0659C111.115 59.0806 111.013 59.0879 110.91 59.0879C110.708 59.0879 110.529 59.0513 110.374 58.978C110.219 58.9019 110.097 58.7729 110.009 58.5913C109.921 58.4067 109.877 58.1562 109.877 57.8398V53.0234ZM115.586 59H115.063V53.6562C115.063 53.3311 115.119 53.0571 115.23 52.8345C115.344 52.6118 115.505 52.4434 115.713 52.3291C115.924 52.2148 116.175 52.1577 116.465 52.1577C116.556 52.1577 116.649 52.1636 116.746 52.1753C116.843 52.1841 116.937 52.2031 117.027 52.2324L116.988 52.6763C116.915 52.6558 116.84 52.6426 116.764 52.6367C116.69 52.6279 116.604 52.6235 116.504 52.6235C116.314 52.6235 116.15 52.6646 116.012 52.7466C115.875 52.8257 115.769 52.9414 115.696 53.0938C115.623 53.2461 115.586 53.4336 115.586 53.6562V59ZM116.72 54.2451V54.6758H114.276V54.2451H116.72ZM117.375 56.6973V56.5522C117.375 56.2065 117.424 55.8872 117.524 55.5942C117.624 55.3013 117.766 55.0479 117.95 54.834C118.138 54.6201 118.362 54.4546 118.623 54.3374C118.883 54.2173 119.173 54.1572 119.493 54.1572C119.815 54.1572 120.106 54.2173 120.367 54.3374C120.628 54.4546 120.852 54.6201 121.04 54.834C121.227 55.0479 121.371 55.3013 121.47 55.5942C121.57 55.8872 121.62 56.2065 121.62 56.5522V56.6973C121.62 57.043 121.57 57.3623 121.47 57.6553C121.371 57.9453 121.227 58.1973 121.04 58.4111C120.855 58.625 120.632 58.792 120.372 58.9121C120.111 59.0293 119.821 59.0879 119.501 59.0879C119.179 59.0879 118.888 59.0293 118.627 58.9121C118.366 58.792 118.142 58.625 117.955 58.4111C117.767 58.1973 117.624 57.9453 117.524 57.6553C117.424 57.3623 117.375 57.043 117.375 56.6973ZM117.897 56.5522V56.6973C117.897 56.958 117.933 57.2056 118.003 57.4399C118.073 57.6714 118.176 57.8779 118.311 58.0596C118.445 58.2383 118.612 58.3789 118.812 58.4814C119.011 58.584 119.241 58.6353 119.501 58.6353C119.759 58.6353 119.986 58.584 120.183 58.4814C120.382 58.3789 120.549 58.2383 120.684 58.0596C120.818 57.8779 120.919 57.6714 120.987 57.4399C121.057 57.2056 121.092 56.958 121.092 56.6973V56.5522C121.092 56.2944 121.057 56.0498 120.987 55.8184C120.919 55.5869 120.817 55.3804 120.679 55.1987C120.544 55.0171 120.377 54.8735 120.178 54.7681C119.979 54.6626 119.75 54.6099 119.493 54.6099C119.235 54.6099 119.006 54.6626 118.807 54.7681C118.611 54.8735 118.444 55.0171 118.306 55.1987C118.171 55.3804 118.069 55.5869 117.999 55.8184C117.931 56.0498 117.897 56.2944 117.897 56.5522ZM123.232 55.0317V59H122.709V54.2451H123.219L123.232 55.0317ZM124.916 54.21L124.902 54.6934C124.844 54.6846 124.787 54.6772 124.731 54.6714C124.675 54.6655 124.615 54.6626 124.551 54.6626C124.322 54.6626 124.122 54.7051 123.949 54.79C123.779 54.8721 123.635 54.9878 123.518 55.1372C123.401 55.2837 123.312 55.4565 123.25 55.6558C123.188 55.8521 123.153 56.063 123.145 56.2886L122.951 56.3633C122.951 56.0527 122.983 55.7642 123.048 55.4976C123.112 55.231 123.21 54.998 123.342 54.7988C123.477 54.5967 123.646 54.4399 123.848 54.3286C124.053 54.2144 124.293 54.1572 124.568 54.1572C124.636 54.1572 124.702 54.1631 124.766 54.1748C124.833 54.1836 124.883 54.1953 124.916 54.21ZM128.458 55.1592V60.8281H127.93V54.2451H128.422L128.458 55.1592ZM131.762 56.5786V56.6709C131.762 57.0254 131.721 57.3506 131.639 57.6465C131.557 57.9424 131.438 58.1987 131.283 58.4155C131.131 58.6294 130.942 58.7949 130.716 58.9121C130.491 59.0293 130.234 59.0879 129.947 59.0879C129.663 59.0879 129.41 59.0439 129.187 58.9561C128.964 58.8682 128.772 58.7437 128.611 58.5825C128.453 58.4185 128.326 58.228 128.229 58.0112C128.135 57.7915 128.069 57.5513 128.031 57.2905V56.0732C128.075 55.7861 128.147 55.5254 128.247 55.291C128.346 55.0566 128.474 54.8545 128.629 54.6846C128.787 54.5146 128.975 54.3843 129.191 54.2935C129.408 54.2026 129.656 54.1572 129.934 54.1572C130.224 54.1572 130.482 54.2144 130.708 54.3286C130.936 54.4399 131.128 54.6025 131.283 54.8164C131.441 55.0273 131.56 55.2822 131.639 55.5811C131.721 55.877 131.762 56.2095 131.762 56.5786ZM131.235 56.6709V56.5786C131.235 56.3003 131.206 56.0425 131.147 55.8052C131.091 55.5679 131.005 55.3613 130.888 55.1855C130.773 55.0068 130.627 54.8677 130.448 54.7681C130.272 54.6685 130.063 54.6187 129.82 54.6187C129.568 54.6187 129.353 54.6611 129.174 54.7461C128.998 54.8281 128.852 54.938 128.734 55.0757C128.617 55.2104 128.525 55.3584 128.458 55.5195C128.39 55.6807 128.34 55.8389 128.308 55.9941V57.396C128.364 57.6187 128.453 57.8252 128.576 58.0156C128.699 58.2031 128.863 58.354 129.068 58.4683C129.276 58.5796 129.53 58.6353 129.829 58.6353C130.069 58.6353 130.277 58.5854 130.453 58.4858C130.628 58.3862 130.773 58.2471 130.888 58.0684C131.005 57.8896 131.091 57.6816 131.147 57.4443C131.206 57.207 131.235 56.9492 131.235 56.6709ZM133.454 55.0317V59H132.931V54.2451H133.441L133.454 55.0317ZM135.137 54.21L135.124 54.6934C135.065 54.6846 135.008 54.6772 134.953 54.6714C134.897 54.6655 134.837 54.6626 134.772 54.6626C134.544 54.6626 134.343 54.7051 134.17 54.79C134 54.8721 133.857 54.9878 133.74 55.1372C133.623 55.2837 133.533 55.4565 133.472 55.6558C133.41 55.8521 133.375 56.063 133.366 56.2886L133.173 56.3633C133.173 56.0527 133.205 55.7642 133.27 55.4976C133.334 55.231 133.432 54.998 133.564 54.7988C133.699 54.5967 133.867 54.4399 134.069 54.3286C134.274 54.2144 134.515 54.1572 134.79 54.1572C134.857 54.1572 134.923 54.1631 134.988 54.1748C135.055 54.1836 135.105 54.1953 135.137 54.21ZM135.585 56.6973V56.5522C135.585 56.2065 135.635 55.8872 135.735 55.5942C135.834 55.3013 135.977 55.0479 136.161 54.834C136.349 54.6201 136.573 54.4546 136.833 54.3374C137.094 54.2173 137.384 54.1572 137.704 54.1572C138.026 54.1572 138.317 54.2173 138.578 54.3374C138.839 54.4546 139.063 54.6201 139.25 54.834C139.438 55.0479 139.582 55.3013 139.681 55.5942C139.781 55.8872 139.831 56.2065 139.831 56.5522V56.6973C139.831 57.043 139.781 57.3623 139.681 57.6553C139.582 57.9453 139.438 58.1973 139.25 58.4111C139.066 58.625 138.843 58.792 138.583 58.9121C138.322 59.0293 138.032 59.0879 137.712 59.0879C137.39 59.0879 137.099 59.0293 136.838 58.9121C136.577 58.792 136.353 58.625 136.166 58.4111C135.978 58.1973 135.834 57.9453 135.735 57.6553C135.635 57.3623 135.585 57.043 135.585 56.6973ZM136.108 56.5522V56.6973C136.108 56.958 136.144 57.2056 136.214 57.4399C136.284 57.6714 136.387 57.8779 136.521 58.0596C136.656 58.2383 136.823 58.3789 137.022 58.4814C137.222 58.584 137.452 58.6353 137.712 58.6353C137.97 58.6353 138.197 58.584 138.394 58.4814C138.593 58.3789 138.76 58.2383 138.895 58.0596C139.029 57.8779 139.13 57.6714 139.198 57.4399C139.268 57.2056 139.303 56.958 139.303 56.6973V56.5522C139.303 56.2944 139.268 56.0498 139.198 55.8184C139.13 55.5869 139.028 55.3804 138.89 55.1987C138.755 55.0171 138.588 54.8735 138.389 54.7681C138.19 54.6626 137.961 54.6099 137.704 54.6099C137.446 54.6099 137.217 54.6626 137.018 54.7681C136.822 54.8735 136.655 55.0171 136.517 55.1987C136.382 55.3804 136.28 55.5869 136.209 55.8184C136.142 56.0498 136.108 56.2944 136.108 56.5522ZM144.01 58.0771V52.25H144.537V59H144.045L144.01 58.0771ZM140.709 56.6709V56.5786C140.709 56.2095 140.752 55.877 140.837 55.5811C140.922 55.2822 141.043 55.0273 141.202 54.8164C141.363 54.6025 141.556 54.4399 141.782 54.3286C142.007 54.2144 142.262 54.1572 142.546 54.1572C142.825 54.1572 143.071 54.2026 143.285 54.2935C143.499 54.3843 143.682 54.5146 143.834 54.6846C143.989 54.8545 144.114 55.0566 144.208 55.291C144.304 55.5254 144.375 55.7861 144.418 56.0732V57.2466C144.383 57.5161 144.319 57.7637 144.225 57.9893C144.131 58.2119 144.007 58.4067 143.852 58.5737C143.696 58.7378 143.509 58.8652 143.289 58.9561C143.072 59.0439 142.822 59.0879 142.538 59.0879C142.256 59.0879 142.003 59.0293 141.777 58.9121C141.552 58.7949 141.36 58.6294 141.202 58.4155C141.043 58.1987 140.922 57.9424 140.837 57.6465C140.752 57.3506 140.709 57.0254 140.709 56.6709ZM141.237 56.5786V56.6709C141.237 56.9492 141.265 57.207 141.32 57.4443C141.376 57.6816 141.461 57.8882 141.575 58.064C141.689 58.2397 141.834 58.3774 142.01 58.4771C142.186 58.5767 142.394 58.6265 142.634 58.6265C142.936 58.6265 143.189 58.5693 143.395 58.4551C143.6 58.3379 143.764 58.1841 143.887 57.9937C144.01 57.8003 144.099 57.5894 144.155 57.3608V55.9941C144.12 55.8389 144.068 55.6807 144.001 55.5195C143.934 55.3584 143.841 55.2104 143.724 55.0757C143.61 54.938 143.463 54.8281 143.285 54.7461C143.109 54.6611 142.895 54.6187 142.643 54.6187C142.4 54.6187 142.19 54.6685 142.015 54.7681C141.839 54.8677 141.692 55.0068 141.575 55.1855C141.461 55.3613 141.376 55.5679 141.32 55.8052C141.265 56.0425 141.237 56.3003 141.237 56.5786ZM148.967 57.9014V54.2451H149.494V59H148.989L148.967 57.9014ZM149.063 57.0225L149.336 57.0137C149.336 57.3125 149.301 57.5879 149.23 57.8398C149.16 58.0918 149.05 58.3115 148.901 58.499C148.751 58.6865 148.558 58.8315 148.321 58.9341C148.083 59.0366 147.798 59.0879 147.464 59.0879C147.232 59.0879 147.02 59.0557 146.827 58.9912C146.636 58.9238 146.472 58.8184 146.334 58.6748C146.197 58.5312 146.09 58.3452 146.014 58.1167C145.94 57.8882 145.904 57.6113 145.904 57.2861V54.2451H146.427V57.2949C146.427 57.5498 146.455 57.7622 146.51 57.9321C146.569 58.1021 146.648 58.2383 146.748 58.3408C146.85 58.4434 146.967 58.5166 147.099 58.5605C147.231 58.6045 147.373 58.6265 147.525 58.6265C147.912 58.6265 148.217 58.5518 148.439 58.4023C148.665 58.2529 148.825 58.0566 148.918 57.8135C149.015 57.5674 149.063 57.3037 149.063 57.0225ZM152.623 58.6353C152.846 58.6353 153.054 58.5942 153.247 58.5122C153.443 58.4272 153.604 58.3027 153.73 58.1387C153.859 57.9717 153.933 57.7681 153.95 57.5278H154.451C154.437 57.8296 154.344 58.0991 154.174 58.3364C154.007 58.5708 153.788 58.7554 153.515 58.8901C153.246 59.022 152.948 59.0879 152.623 59.0879C152.292 59.0879 151.999 59.0278 151.744 58.9077C151.492 58.7876 151.281 58.6206 151.111 58.4067C150.941 58.1899 150.812 57.938 150.725 57.6509C150.64 57.3608 150.597 57.0488 150.597 56.7148V56.5303C150.597 56.1963 150.64 55.8857 150.725 55.5986C150.812 55.3086 150.941 55.0566 151.111 54.8428C151.281 54.626 151.492 54.4575 151.744 54.3374C151.996 54.2173 152.288 54.1572 152.619 54.1572C152.958 54.1572 153.263 54.2261 153.533 54.3638C153.805 54.5015 154.022 54.6963 154.183 54.9482C154.347 55.2002 154.437 55.499 154.451 55.8447H153.95C153.936 55.5898 153.868 55.3701 153.748 55.1855C153.628 55.001 153.47 54.8589 153.273 54.7593C153.077 54.6597 152.859 54.6099 152.619 54.6099C152.349 54.6099 152.119 54.6626 151.929 54.7681C151.738 54.8706 151.583 55.0127 151.463 55.1943C151.346 55.373 151.259 55.5781 151.204 55.8096C151.148 56.0381 151.12 56.2783 151.12 56.5303V56.7148C151.12 56.9697 151.146 57.2129 151.199 57.4443C151.255 57.6729 151.341 57.8765 151.458 58.0552C151.579 58.2339 151.734 58.376 151.924 58.4814C152.118 58.584 152.351 58.6353 152.623 58.6353ZM157.308 54.2451V54.6758H154.926V54.2451H157.308ZM155.8 53.0234H156.323V57.8442C156.323 58.064 156.353 58.2295 156.411 58.3408C156.47 58.4521 156.546 58.5269 156.64 58.5649C156.733 58.603 156.834 58.6221 156.943 58.6221C157.022 58.6221 157.098 58.6177 157.171 58.6089C157.245 58.5972 157.311 58.5854 157.369 58.5737L157.391 59.0176C157.327 59.0381 157.243 59.0542 157.141 59.0659C157.038 59.0806 156.936 59.0879 156.833 59.0879C156.631 59.0879 156.452 59.0513 156.297 58.978C156.142 58.9019 156.02 58.7729 155.932 58.5913C155.844 58.4067 155.8 58.1562 155.8 57.8398V53.0234ZM158.995 54.2451V59H158.472V54.2451H158.995ZM158.38 52.8696C158.38 52.77 158.411 52.6865 158.472 52.6191C158.537 52.5488 158.625 52.5137 158.736 52.5137C158.847 52.5137 158.935 52.5488 159 52.6191C159.067 52.6865 159.101 52.77 159.101 52.8696C159.101 52.9663 159.067 53.0498 159 53.1201C158.935 53.1875 158.847 53.2212 158.736 53.2212C158.625 53.2212 158.537 53.1875 158.472 53.1201C158.411 53.0498 158.38 52.9663 158.38 52.8696ZM160.142 56.6973V56.5522C160.142 56.2065 160.192 55.8872 160.292 55.5942C160.391 55.3013 160.533 55.0479 160.718 54.834C160.905 54.6201 161.129 54.4546 161.39 54.3374C161.651 54.2173 161.941 54.1572 162.26 54.1572C162.583 54.1572 162.874 54.2173 163.135 54.3374C163.396 54.4546 163.62 54.6201 163.807 54.834C163.995 55.0479 164.138 55.3013 164.238 55.5942C164.337 55.8872 164.387 56.2065 164.387 56.5522V56.6973C164.387 57.043 164.337 57.3623 164.238 57.6553C164.138 57.9453 163.995 58.1973 163.807 58.4111C163.623 58.625 163.4 58.792 163.139 58.9121C162.878 59.0293 162.588 59.0879 162.269 59.0879C161.947 59.0879 161.655 59.0293 161.395 58.9121C161.134 58.792 160.91 58.625 160.722 58.4111C160.535 58.1973 160.391 57.9453 160.292 57.6553C160.192 57.3623 160.142 57.043 160.142 56.6973ZM160.665 56.5522V56.6973C160.665 56.958 160.7 57.2056 160.771 57.4399C160.841 57.6714 160.943 57.8779 161.078 58.0596C161.213 58.2383 161.38 58.3789 161.579 58.4814C161.778 58.584 162.008 58.6353 162.269 58.6353C162.527 58.6353 162.754 58.584 162.95 58.4814C163.149 58.3789 163.316 58.2383 163.451 58.0596C163.586 57.8779 163.687 57.6714 163.754 57.4399C163.825 57.2056 163.86 56.958 163.86 56.6973V56.5522C163.86 56.2944 163.825 56.0498 163.754 55.8184C163.687 55.5869 163.584 55.3804 163.447 55.1987C163.312 55.0171 163.145 54.8735 162.946 54.7681C162.747 54.6626 162.518 54.6099 162.26 54.6099C162.002 54.6099 161.774 54.6626 161.575 54.7681C161.378 54.8735 161.211 55.0171 161.074 55.1987C160.939 55.3804 160.836 55.5869 160.766 55.8184C160.699 56.0498 160.665 56.2944 160.665 56.5522ZM166 55.2603V59H165.477V54.2451H165.978L166 55.2603ZM165.881 56.3281L165.648 56.1963C165.666 55.915 165.723 55.6514 165.82 55.4053C165.917 55.1592 166.047 54.9424 166.211 54.7549C166.378 54.5674 166.573 54.4209 166.795 54.3154C167.021 54.21 167.27 54.1572 167.542 54.1572C167.78 54.1572 167.992 54.1895 168.18 54.2539C168.367 54.3184 168.527 54.4209 168.659 54.5615C168.791 54.7021 168.89 54.8823 168.958 55.1021C169.028 55.3218 169.063 55.5898 169.063 55.9062V59H168.536V55.9019C168.536 55.5737 168.49 55.3174 168.399 55.1328C168.309 54.9453 168.18 54.812 168.013 54.7329C167.846 54.6538 167.648 54.6143 167.419 54.6143C167.167 54.6143 166.946 54.6699 166.756 54.7812C166.568 54.8896 166.41 55.0317 166.281 55.2075C166.155 55.3804 166.059 55.5664 165.991 55.7656C165.924 55.9619 165.887 56.1494 165.881 56.3281ZM172.06 55.9502V56.4028H169.955V55.9502H172.06ZM173.532 55.0317V59H173.009V54.2451H173.519L173.532 55.0317ZM175.215 54.21L175.202 54.6934C175.144 54.6846 175.086 54.6772 175.031 54.6714C174.975 54.6655 174.915 54.6626 174.851 54.6626C174.622 54.6626 174.421 54.7051 174.249 54.79C174.079 54.8721 173.935 54.9878 173.818 55.1372C173.701 55.2837 173.611 55.4565 173.55 55.6558C173.488 55.8521 173.453 56.063 173.444 56.2886L173.251 56.3633C173.251 56.0527 173.283 55.7642 173.348 55.4976C173.412 55.231 173.51 54.998 173.642 54.7988C173.777 54.5967 173.945 54.4399 174.147 54.3286C174.353 54.2144 174.593 54.1572 174.868 54.1572C174.936 54.1572 175.001 54.1631 175.066 54.1748C175.133 54.1836 175.183 54.1953 175.215 54.21ZM177.791 59.0879C177.48 59.0879 177.194 59.0308 176.934 58.9165C176.676 58.8022 176.45 58.6411 176.257 58.4331C176.066 58.2251 175.918 57.979 175.813 57.6948C175.71 57.4077 175.659 57.0942 175.659 56.7544V56.5654C175.659 56.1992 175.713 55.8682 175.822 55.5723C175.93 55.2764 176.08 55.0229 176.27 54.812C176.46 54.6011 176.677 54.4399 176.92 54.3286C177.167 54.2144 177.424 54.1572 177.694 54.1572C177.996 54.1572 178.264 54.2114 178.498 54.3198C178.732 54.4253 178.929 54.5762 179.087 54.7725C179.248 54.9658 179.37 55.1958 179.452 55.4624C179.534 55.7261 179.575 56.0176 179.575 56.3369V56.6577H175.976V56.2095H179.052V56.1479C179.046 55.8813 178.992 55.6323 178.889 55.4009C178.79 55.1665 178.64 54.9761 178.441 54.8296C178.242 54.6831 177.993 54.6099 177.694 54.6099C177.471 54.6099 177.266 54.6567 177.079 54.7505C176.894 54.8442 176.734 54.979 176.6 55.1548C176.468 55.3276 176.365 55.5342 176.292 55.7744C176.222 56.0117 176.187 56.2754 176.187 56.5654V56.7544C176.187 57.0181 176.225 57.2642 176.301 57.4927C176.38 57.7183 176.491 57.9175 176.635 58.0903C176.781 58.2632 176.954 58.3979 177.153 58.4946C177.353 58.5913 177.572 58.6396 177.812 58.6396C178.094 58.6396 178.343 58.5884 178.56 58.4858C178.776 58.3804 178.971 58.2148 179.144 57.9893L179.474 58.2441C179.371 58.3965 179.242 58.5371 179.087 58.666C178.935 58.7949 178.751 58.8975 178.538 58.9736C178.324 59.0498 178.075 59.0879 177.791 59.0879ZM183.503 58.1475V55.6953C183.503 55.4697 183.457 55.2749 183.363 55.1108C183.269 54.9468 183.131 54.8208 182.95 54.7329C182.768 54.645 182.544 54.6011 182.277 54.6011C182.031 54.6011 181.812 54.645 181.618 54.7329C181.428 54.8179 181.277 54.9336 181.166 55.0801C181.057 55.2236 181.003 55.3833 181.003 55.5591L180.476 55.5547C180.476 55.376 180.52 55.2031 180.607 55.0361C180.695 54.8691 180.82 54.7197 180.981 54.5879C181.142 54.4561 181.334 54.3521 181.557 54.2759C181.782 54.1968 182.03 54.1572 182.299 54.1572C182.639 54.1572 182.938 54.2144 183.196 54.3286C183.457 54.4429 183.66 54.6143 183.807 54.8428C183.953 55.0713 184.026 55.3584 184.026 55.7041V58.0024C184.026 58.1665 184.038 58.3364 184.062 58.5122C184.088 58.688 184.125 58.833 184.171 58.9473V59H183.613C183.578 58.8945 183.55 58.7627 183.53 58.6045C183.512 58.4434 183.503 58.291 183.503 58.1475ZM183.626 56.2314L183.635 56.6357H182.603C182.333 56.6357 182.091 56.6606 181.877 56.7104C181.667 56.7573 181.488 56.8276 181.341 56.9214C181.195 57.0122 181.082 57.1221 181.003 57.251C180.927 57.3799 180.889 57.5264 180.889 57.6904C180.889 57.8604 180.931 58.0156 181.016 58.1562C181.104 58.2969 181.227 58.4097 181.385 58.4946C181.546 58.5767 181.737 58.6177 181.957 58.6177C182.25 58.6177 182.507 58.5635 182.73 58.4551C182.956 58.3467 183.142 58.2046 183.288 58.0288C183.435 57.853 183.533 57.6611 183.583 57.4531L183.811 57.7563C183.773 57.9028 183.703 58.0537 183.6 58.209C183.5 58.3613 183.37 58.5049 183.209 58.6396C183.048 58.7715 182.857 58.8799 182.638 58.9648C182.421 59.0469 182.175 59.0879 181.899 59.0879C181.589 59.0879 181.318 59.0293 181.086 58.9121C180.858 58.7949 180.679 58.6353 180.55 58.4331C180.424 58.228 180.361 57.9966 180.361 57.7388C180.361 57.5044 180.411 57.2949 180.511 57.1104C180.61 56.9229 180.754 56.7646 180.941 56.6357C181.132 56.5039 181.36 56.4043 181.627 56.3369C181.896 56.2666 182.198 56.2314 182.532 56.2314H183.626ZM188.526 58.0771V52.25H189.054V59H188.562L188.526 58.0771ZM185.226 56.6709V56.5786C185.226 56.2095 185.269 55.877 185.354 55.5811C185.438 55.2822 185.56 55.0273 185.718 54.8164C185.879 54.6025 186.073 54.4399 186.298 54.3286C186.524 54.2144 186.779 54.1572 187.063 54.1572C187.341 54.1572 187.587 54.2026 187.801 54.2935C188.015 54.3843 188.198 54.5146 188.351 54.6846C188.506 54.8545 188.63 55.0566 188.724 55.291C188.821 55.5254 188.891 55.7861 188.935 56.0732V57.2466C188.9 57.5161 188.835 57.7637 188.742 57.9893C188.648 58.2119 188.523 58.4067 188.368 58.5737C188.213 58.7378 188.025 58.8652 187.806 58.9561C187.589 59.0439 187.338 59.0879 187.054 59.0879C186.773 59.0879 186.52 59.0293 186.294 58.9121C186.068 58.7949 185.876 58.6294 185.718 58.4155C185.56 58.1987 185.438 57.9424 185.354 57.6465C185.269 57.3506 185.226 57.0254 185.226 56.6709ZM185.753 56.5786V56.6709C185.753 56.9492 185.781 57.207 185.837 57.4443C185.893 57.6816 185.978 57.8882 186.092 58.064C186.206 58.2397 186.351 58.3774 186.527 58.4771C186.703 58.5767 186.911 58.6265 187.151 58.6265C187.453 58.6265 187.706 58.5693 187.911 58.4551C188.116 58.3379 188.28 58.1841 188.403 57.9937C188.526 57.8003 188.616 57.5894 188.671 57.3608V55.9941C188.636 55.8389 188.585 55.6807 188.518 55.5195C188.45 55.3584 188.358 55.2104 188.241 55.0757C188.126 54.938 187.98 54.8281 187.801 54.7461C187.625 54.6611 187.412 54.6187 187.16 54.6187C186.917 54.6187 186.707 54.6685 186.531 54.7681C186.355 54.8677 186.209 55.0068 186.092 55.1855C185.978 55.3613 185.893 55.5679 185.837 55.8052C185.781 56.0425 185.753 56.3003 185.753 56.5786ZM191.849 58.5254L193.33 54.2451H193.896L191.884 59.7646C191.843 59.873 191.79 59.9932 191.726 60.125C191.664 60.2568 191.582 60.3828 191.479 60.5029C191.38 60.626 191.254 60.7256 191.102 60.8018C190.952 60.8809 190.769 60.9204 190.552 60.9204C190.497 60.9204 190.425 60.9131 190.337 60.8984C190.252 60.8867 190.19 60.875 190.152 60.8633L190.148 60.4194C190.18 60.4282 190.227 60.4355 190.289 60.4414C190.35 60.4473 190.393 60.4502 190.416 60.4502C190.606 60.4502 190.766 60.418 190.895 60.3535C191.027 60.2891 191.137 60.1924 191.225 60.0635C191.312 59.9375 191.39 59.7793 191.458 59.5889L191.849 58.5254ZM190.464 54.2451L191.98 58.3276L192.121 58.877L191.739 59.0923L189.893 54.2451H190.464ZM200.739 58.5386V59H197.421V58.5386H200.739ZM197.579 52.6016V59H197.039V52.6016H197.579ZM205.485 58.5386V59H202.167V58.5386H205.485ZM202.325 52.6016V59H201.785V52.6016H202.325ZM206.698 52.6016H207.243L209.607 58.2354L211.976 52.6016H212.516L209.813 59H209.4L206.698 52.6016ZM206.531 52.6016H207.01L207.067 56.2051V59H206.531V52.6016ZM212.213 52.6016H212.692V59H212.151V56.2051L212.213 52.6016ZM219.284 58.1475V55.6953C219.284 55.4697 219.237 55.2749 219.143 55.1108C219.049 54.9468 218.912 54.8208 218.73 54.7329C218.548 54.645 218.324 54.6011 218.058 54.6011C217.812 54.6011 217.592 54.645 217.398 54.7329C217.208 54.8179 217.057 54.9336 216.946 55.0801C216.837 55.2236 216.783 55.3833 216.783 55.5591L216.256 55.5547C216.256 55.376 216.3 55.2031 216.388 55.0361C216.476 54.8691 216.6 54.7197 216.761 54.5879C216.922 54.4561 217.114 54.3521 217.337 54.2759C217.562 54.1968 217.81 54.1572 218.08 54.1572C218.419 54.1572 218.718 54.2144 218.976 54.3286C219.237 54.4429 219.44 54.6143 219.587 54.8428C219.733 55.0713 219.807 55.3584 219.807 55.7041V58.0024C219.807 58.1665 219.818 58.3364 219.842 58.5122C219.868 58.688 219.905 58.833 219.952 58.9473V59H219.394C219.358 58.8945 219.331 58.7627 219.31 58.6045C219.292 58.4434 219.284 58.291 219.284 58.1475ZM219.407 56.2314L219.416 56.6357H218.383C218.113 56.6357 217.872 56.6606 217.658 56.7104C217.447 56.7573 217.268 56.8276 217.122 56.9214C216.975 57.0122 216.862 57.1221 216.783 57.251C216.707 57.3799 216.669 57.5264 216.669 57.6904C216.669 57.8604 216.711 58.0156 216.796 58.1562C216.884 58.2969 217.007 58.4097 217.166 58.4946C217.327 58.5767 217.517 58.6177 217.737 58.6177C218.03 58.6177 218.288 58.5635 218.51 58.4551C218.736 58.3467 218.922 58.2046 219.068 58.0288C219.215 57.853 219.313 57.6611 219.363 57.4531L219.591 57.7563C219.553 57.9028 219.483 58.0537 219.38 58.209C219.281 58.3613 219.15 58.5049 218.989 58.6396C218.828 58.7715 218.638 58.8799 218.418 58.9648C218.201 59.0469 217.955 59.0879 217.68 59.0879C217.369 59.0879 217.098 59.0293 216.867 58.9121C216.638 58.7949 216.459 58.6353 216.331 58.4331C216.205 58.228 216.142 57.9966 216.142 57.7388C216.142 57.5044 216.191 57.2949 216.291 57.1104C216.391 56.9229 216.534 56.7646 216.722 56.6357C216.912 56.5039 217.141 56.4043 217.407 56.3369C217.677 56.2666 217.979 56.2314 218.312 56.2314H219.407ZM221.736 55.1592V60.8281H221.208V54.2451H221.701L221.736 55.1592ZM225.041 56.5786V56.6709C225.041 57.0254 225 57.3506 224.917 57.6465C224.835 57.9424 224.717 58.1987 224.562 58.4155C224.409 58.6294 224.22 58.7949 223.995 58.9121C223.769 59.0293 223.513 59.0879 223.226 59.0879C222.941 59.0879 222.688 59.0439 222.465 58.9561C222.243 58.8682 222.051 58.7437 221.89 58.5825C221.731 58.4185 221.604 58.228 221.507 58.0112C221.414 57.7915 221.348 57.5513 221.31 57.2905V56.0732C221.354 55.7861 221.425 55.5254 221.525 55.291C221.625 55.0566 221.752 54.8545 221.907 54.6846C222.065 54.5146 222.253 54.3843 222.47 54.2935C222.687 54.2026 222.934 54.1572 223.212 54.1572C223.502 54.1572 223.76 54.2144 223.986 54.3286C224.214 54.4399 224.406 54.6025 224.562 54.8164C224.72 55.0273 224.838 55.2822 224.917 55.5811C225 55.877 225.041 56.2095 225.041 56.5786ZM224.513 56.6709V56.5786C224.513 56.3003 224.484 56.0425 224.425 55.8052C224.37 55.5679 224.283 55.3613 224.166 55.1855C224.052 55.0068 223.905 54.8677 223.727 54.7681C223.551 54.6685 223.341 54.6187 223.098 54.6187C222.846 54.6187 222.631 54.6611 222.452 54.7461C222.276 54.8281 222.13 54.938 222.013 55.0757C221.896 55.2104 221.803 55.3584 221.736 55.5195C221.668 55.6807 221.619 55.8389 221.586 55.9941V57.396C221.642 57.6187 221.731 57.8252 221.854 58.0156C221.978 58.2031 222.142 58.354 222.347 58.4683C222.555 58.5796 222.808 58.6353 223.107 58.6353C223.347 58.6353 223.555 58.5854 223.731 58.4858C223.907 58.3862 224.052 58.2471 224.166 58.0684C224.283 57.8896 224.37 57.6816 224.425 57.4443C224.484 57.207 224.513 56.9492 224.513 56.6709ZM226.728 55.1592V60.8281H226.201V54.2451H226.693L226.728 55.1592ZM230.033 56.5786V56.6709C230.033 57.0254 229.992 57.3506 229.91 57.6465C229.828 57.9424 229.709 58.1987 229.554 58.4155C229.401 58.6294 229.212 58.7949 228.987 58.9121C228.761 59.0293 228.505 59.0879 228.218 59.0879C227.934 59.0879 227.68 59.0439 227.458 58.9561C227.235 58.8682 227.043 58.7437 226.882 58.5825C226.724 58.4185 226.596 58.228 226.5 58.0112C226.406 57.7915 226.34 57.5513 226.302 57.2905V56.0732C226.346 55.7861 226.417 55.5254 226.517 55.291C226.617 55.0566 226.744 54.8545 226.899 54.6846C227.058 54.5146 227.245 54.3843 227.462 54.2935C227.679 54.2026 227.926 54.1572 228.205 54.1572C228.495 54.1572 228.752 54.2144 228.978 54.3286C229.207 54.4399 229.398 54.6025 229.554 54.8164C229.712 55.0273 229.831 55.2822 229.91 55.5811C229.992 55.877 230.033 56.2095 230.033 56.5786ZM229.505 56.6709V56.5786C229.505 56.3003 229.476 56.0425 229.417 55.8052C229.362 55.5679 229.275 55.3613 229.158 55.1855C229.044 55.0068 228.897 54.8677 228.719 54.7681C228.543 54.6685 228.333 54.6187 228.09 54.6187C227.838 54.6187 227.623 54.6611 227.444 54.7461C227.269 54.8281 227.122 54.938 227.005 55.0757C226.888 55.2104 226.795 55.3584 226.728 55.5195C226.661 55.6807 226.611 55.8389 226.579 55.9941V57.396C226.634 57.6187 226.724 57.8252 226.847 58.0156C226.97 58.2031 227.134 58.354 227.339 58.4683C227.547 58.5796 227.8 58.6353 228.099 58.6353C228.339 58.6353 228.547 58.5854 228.723 58.4858C228.899 58.3862 229.044 58.2471 229.158 58.0684C229.275 57.8896 229.362 57.6816 229.417 57.4443C229.476 57.207 229.505 56.9492 229.505 56.6709ZM231.786 52.25V59H231.263V52.25H231.786ZM233.808 54.2451V59H233.285V54.2451H233.808ZM233.192 52.8696C233.192 52.77 233.223 52.6865 233.285 52.6191C233.349 52.5488 233.437 52.5137 233.548 52.5137C233.66 52.5137 233.748 52.5488 233.812 52.6191C233.879 52.6865 233.913 52.77 233.913 52.8696C233.913 52.9663 233.879 53.0498 233.812 53.1201C233.748 53.1875 233.66 53.2212 233.548 53.2212C233.437 53.2212 233.349 53.1875 233.285 53.1201C233.223 53.0498 233.192 52.9663 233.192 52.8696ZM236.998 58.6353C237.221 58.6353 237.429 58.5942 237.622 58.5122C237.818 58.4272 237.979 58.3027 238.105 58.1387C238.234 57.9717 238.308 57.7681 238.325 57.5278H238.826C238.812 57.8296 238.719 58.0991 238.549 58.3364C238.382 58.5708 238.163 58.7554 237.89 58.8901C237.621 59.022 237.323 59.0879 236.998 59.0879C236.667 59.0879 236.374 59.0278 236.119 58.9077C235.867 58.7876 235.656 58.6206 235.486 58.4067C235.316 58.1899 235.188 57.938 235.1 57.6509C235.015 57.3608 234.972 57.0488 234.972 56.7148V56.5303C234.972 56.1963 235.015 55.8857 235.1 55.5986C235.188 55.3086 235.316 55.0566 235.486 54.8428C235.656 54.626 235.867 54.4575 236.119 54.3374C236.371 54.2173 236.663 54.1572 236.994 54.1572C237.333 54.1572 237.638 54.2261 237.908 54.3638C238.18 54.5015 238.397 54.6963 238.558 54.9482C238.722 55.2002 238.812 55.499 238.826 55.8447H238.325C238.311 55.5898 238.243 55.3701 238.123 55.1855C238.003 55.001 237.845 54.8589 237.648 54.7593C237.452 54.6597 237.234 54.6099 236.994 54.6099C236.724 54.6099 236.494 54.6626 236.304 54.7681C236.113 54.8706 235.958 55.0127 235.838 55.1943C235.721 55.373 235.634 55.5781 235.579 55.8096C235.523 56.0381 235.495 56.2783 235.495 56.5303V56.7148C235.495 56.9697 235.521 57.2129 235.574 57.4443C235.63 57.6729 235.716 57.8765 235.833 58.0552C235.954 58.2339 236.109 58.376 236.299 58.4814C236.493 58.584 236.726 58.6353 236.998 58.6353ZM242.777 58.1475V55.6953C242.777 55.4697 242.73 55.2749 242.636 55.1108C242.542 54.9468 242.405 54.8208 242.223 54.7329C242.042 54.645 241.817 54.6011 241.551 54.6011C241.305 54.6011 241.085 54.645 240.892 54.7329C240.701 54.8179 240.55 54.9336 240.439 55.0801C240.331 55.2236 240.276 55.3833 240.276 55.5591L239.749 55.5547C239.749 55.376 239.793 55.2031 239.881 55.0361C239.969 54.8691 240.093 54.7197 240.254 54.5879C240.416 54.4561 240.607 54.3521 240.83 54.2759C241.056 54.1968 241.303 54.1572 241.573 54.1572C241.913 54.1572 242.211 54.2144 242.469 54.3286C242.73 54.4429 242.934 54.6143 243.08 54.8428C243.227 55.0713 243.3 55.3584 243.3 55.7041V58.0024C243.3 58.1665 243.312 58.3364 243.335 58.5122C243.361 58.688 243.398 58.833 243.445 58.9473V59H242.887C242.852 58.8945 242.824 58.7627 242.803 58.6045C242.786 58.4434 242.777 58.291 242.777 58.1475ZM242.9 56.2314L242.909 56.6357H241.876C241.606 56.6357 241.365 56.6606 241.151 56.7104C240.94 56.7573 240.761 56.8276 240.615 56.9214C240.468 57.0122 240.355 57.1221 240.276 57.251C240.2 57.3799 240.162 57.5264 240.162 57.6904C240.162 57.8604 240.205 58.0156 240.29 58.1562C240.377 58.2969 240.5 58.4097 240.659 58.4946C240.82 58.5767 241.01 58.6177 241.23 58.6177C241.523 58.6177 241.781 58.5635 242.003 58.4551C242.229 58.3467 242.415 58.2046 242.562 58.0288C242.708 57.853 242.806 57.6611 242.856 57.4531L243.084 57.7563C243.046 57.9028 242.976 58.0537 242.874 58.209C242.774 58.3613 242.644 58.5049 242.482 58.6396C242.321 58.7715 242.131 58.8799 241.911 58.9648C241.694 59.0469 241.448 59.0879 241.173 59.0879C240.862 59.0879 240.591 59.0293 240.36 58.9121C240.131 58.7949 239.953 58.6353 239.824 58.4331C239.698 58.228 239.635 57.9966 239.635 57.7388C239.635 57.5044 239.685 57.2949 239.784 57.1104C239.884 56.9229 240.027 56.7646 240.215 56.6357C240.405 56.5039 240.634 56.4043 240.9 56.3369C241.17 56.2666 241.472 56.2314 241.806 56.2314H242.9ZM246.508 54.2451V54.6758H244.126V54.2451H246.508ZM245 53.0234H245.523V57.8442C245.523 58.064 245.553 58.2295 245.611 58.3408C245.67 58.4521 245.746 58.5269 245.84 58.5649C245.934 58.603 246.035 58.6221 246.143 58.6221C246.222 58.6221 246.298 58.6177 246.372 58.6089C246.445 58.5972 246.511 58.5854 246.569 58.5737L246.591 59.0176C246.527 59.0381 246.443 59.0542 246.341 59.0659C246.238 59.0806 246.136 59.0879 246.033 59.0879C245.831 59.0879 245.652 59.0513 245.497 58.978C245.342 58.9019 245.22 58.7729 245.132 58.5913C245.044 58.4067 245 58.1562 245 57.8398V53.0234ZM248.195 54.2451V59H247.672V54.2451H248.195ZM247.58 52.8696C247.58 52.77 247.611 52.6865 247.672 52.6191C247.737 52.5488 247.825 52.5137 247.936 52.5137C248.047 52.5137 248.135 52.5488 248.2 52.6191C248.267 52.6865 248.301 52.77 248.301 52.8696C248.301 52.9663 248.267 53.0498 248.2 53.1201C248.135 53.1875 248.047 53.2212 247.936 53.2212C247.825 53.2212 247.737 53.1875 247.672 53.1201C247.611 53.0498 247.58 52.9663 247.58 52.8696ZM249.342 56.6973V56.5522C249.342 56.2065 249.392 55.8872 249.492 55.5942C249.591 55.3013 249.733 55.0479 249.918 54.834C250.105 54.6201 250.33 54.4546 250.59 54.3374C250.851 54.2173 251.141 54.1572 251.46 54.1572C251.783 54.1572 252.074 54.2173 252.335 54.3374C252.596 54.4546 252.82 54.6201 253.007 54.834C253.195 55.0479 253.338 55.3013 253.438 55.5942C253.538 55.8872 253.587 56.2065 253.587 56.5522V56.6973C253.587 57.043 253.538 57.3623 253.438 57.6553C253.338 57.9453 253.195 58.1973 253.007 58.4111C252.823 58.625 252.6 58.792 252.339 58.9121C252.079 59.0293 251.789 59.0879 251.469 59.0879C251.147 59.0879 250.855 59.0293 250.595 58.9121C250.334 58.792 250.11 58.625 249.922 58.4111C249.735 58.1973 249.591 57.9453 249.492 57.6553C249.392 57.3623 249.342 57.043 249.342 56.6973ZM249.865 56.5522V56.6973C249.865 56.958 249.9 57.2056 249.971 57.4399C250.041 57.6714 250.144 57.8779 250.278 58.0596C250.413 58.2383 250.58 58.3789 250.779 58.4814C250.979 58.584 251.208 58.6353 251.469 58.6353C251.727 58.6353 251.954 58.584 252.15 58.4814C252.35 58.3789 252.517 58.2383 252.651 58.0596C252.786 57.8779 252.887 57.6714 252.955 57.4399C253.025 57.2056 253.06 56.958 253.06 56.6973V56.5522C253.06 56.2944 253.025 56.0498 252.955 55.8184C252.887 55.5869 252.785 55.3804 252.647 55.1987C252.512 55.0171 252.345 54.8735 252.146 54.7681C251.947 54.6626 251.718 54.6099 251.46 54.6099C251.203 54.6099 250.974 54.6626 250.775 54.7681C250.579 54.8735 250.412 55.0171 250.274 55.1987C250.139 55.3804 250.037 55.5869 249.966 55.8184C249.899 56.0498 249.865 56.2944 249.865 56.5522ZM255.2 55.2603V59H254.677V54.2451H255.178L255.2 55.2603ZM255.082 56.3281L254.849 56.1963C254.866 55.915 254.923 55.6514 255.02 55.4053C255.117 55.1592 255.247 54.9424 255.411 54.7549C255.578 54.5674 255.773 54.4209 255.996 54.3154C256.221 54.21 256.47 54.1572 256.743 54.1572C256.98 54.1572 257.192 54.1895 257.38 54.2539C257.567 54.3184 257.727 54.4209 257.859 54.5615C257.991 54.7021 258.09 54.8823 258.158 55.1021C258.228 55.3218 258.263 55.5898 258.263 55.9062V59H257.736V55.9019C257.736 55.5737 257.69 55.3174 257.6 55.1328C257.509 54.9453 257.38 54.812 257.213 54.7329C257.046 54.6538 256.848 54.6143 256.62 54.6143C256.368 54.6143 256.146 54.6699 255.956 54.7812C255.769 54.8896 255.61 55.0317 255.481 55.2075C255.355 55.3804 255.259 55.5664 255.191 55.7656C255.124 55.9619 255.087 56.1494 255.082 56.3281ZM262.473 57.7871C262.473 57.6582 262.441 57.5308 262.376 57.4048C262.312 57.2788 262.188 57.1631 262.003 57.0576C261.821 56.9521 261.553 56.8628 261.199 56.7896C260.935 56.731 260.699 56.665 260.491 56.5918C260.286 56.5186 260.113 56.4307 259.973 56.3281C259.832 56.2256 259.725 56.1025 259.652 55.959C259.579 55.8154 259.542 55.6455 259.542 55.4492C259.542 55.2734 259.58 55.1079 259.656 54.9526C259.735 54.7944 259.847 54.6567 259.99 54.5396C260.137 54.4194 260.312 54.3257 260.518 54.2583C260.726 54.1909 260.958 54.1572 261.216 54.1572C261.583 54.1572 261.896 54.2202 262.157 54.3462C262.42 54.4692 262.621 54.6377 262.759 54.8516C262.899 55.0654 262.97 55.3071 262.97 55.5767H262.447C262.447 55.4126 262.398 55.2573 262.302 55.1108C262.208 54.9644 262.069 54.8442 261.884 54.7505C261.703 54.6567 261.48 54.6099 261.216 54.6099C260.944 54.6099 260.723 54.6509 260.553 54.7329C260.383 54.8149 260.258 54.9189 260.179 55.0449C260.103 55.1709 260.065 55.3013 260.065 55.436C260.065 55.5415 260.081 55.6382 260.113 55.7261C260.148 55.811 260.21 55.8901 260.298 55.9634C260.389 56.0366 260.518 56.1055 260.685 56.1699C260.852 56.2344 261.068 56.2974 261.335 56.3589C261.719 56.4438 262.032 56.5479 262.275 56.6709C262.521 56.791 262.703 56.9404 262.82 57.1191C262.938 57.2949 262.996 57.5088 262.996 57.7607C262.996 57.957 262.955 58.1372 262.873 58.3013C262.791 58.4624 262.672 58.6016 262.517 58.7188C262.365 58.8359 262.18 58.9268 261.963 58.9912C261.75 59.0557 261.509 59.0879 261.243 59.0879C260.841 59.0879 260.501 59.022 260.223 58.8901C259.948 58.7554 259.738 58.5796 259.595 58.3628C259.454 58.1431 259.384 57.9102 259.384 57.6641H259.907C259.924 57.9102 260.002 58.105 260.14 58.2485C260.277 58.3892 260.446 58.4888 260.645 58.5474C260.847 58.606 261.046 58.6353 261.243 58.6353C261.512 58.6353 261.738 58.5957 261.919 58.5166C262.101 58.4375 262.239 58.3335 262.333 58.2046C262.426 58.0757 262.473 57.9365 262.473 57.7871ZM264.139 58.6792C264.139 58.5767 264.171 58.4902 264.235 58.4199C264.303 58.3467 264.394 58.3101 264.508 58.3101C264.625 58.3101 264.717 58.3467 264.785 58.4199C264.852 58.4902 264.886 58.5767 264.886 58.6792C264.886 58.7788 264.852 58.8638 264.785 58.9341C264.717 59.0044 264.625 59.0396 264.508 59.0396C264.394 59.0396 264.303 59.0044 264.235 58.9341C264.171 58.8638 264.139 58.7788 264.139 58.6792Z" fill="black"/>
<path d="M46.9334 20.7333C47.1067 20.7333 47.2789 20.7389 47.45 20.75C47.2314 21.8866 47.3132 23.0605 47.6874 24.1558C48.0615 25.2511 48.715 26.2297 49.5834 26.995C49.4622 27.6683 49.4011 28.3589 49.4 29.0667C49.396 31.7129 50.2956 34.2813 51.95 36.3467C50.4133 36.9501 48.7457 37.1419 47.1122 36.9031C45.4786 36.6643 43.9357 36.0032 42.636 34.9852C41.3363 33.9672 40.3249 32.6275 39.7018 31.0987C39.0787 29.5698 38.8655 27.9048 39.0834 26.2683C39.6608 24.6485 40.7253 23.247 42.1307 22.2561C43.5361 21.2651 45.2137 20.7332 46.9334 20.7333ZM68.3467 24.05C68.9501 25.5867 69.1419 27.2543 68.9031 28.8879C68.6644 30.5214 68.0033 32.0644 66.9852 33.364C65.9672 34.6637 64.6275 35.6751 63.0987 36.2982C61.5699 36.9213 59.9048 37.1345 58.2684 36.9167C56.5651 36.3097 55.1055 35.1653 54.1098 33.656C53.1141 32.1468 52.6362 30.3546 52.7484 28.55C53.8849 28.7686 55.0589 28.6868 56.1542 28.3127C57.2494 27.9385 58.2281 27.285 58.9934 26.4167C59.6678 26.5378 60.3589 26.5989 61.0667 26.6C63.713 26.604 66.2813 25.7044 68.3467 24.05ZM54 18.6667C54.8841 18.6667 55.7319 19.0179 56.357 19.643C56.9822 20.2681 57.3334 21.1159 57.3334 22C57.3334 22.8841 56.9822 23.7319 56.357 24.357C55.7319 24.9821 54.8841 25.3333 54 25.3333C53.116 25.3333 52.2681 24.9821 51.643 24.357C51.0179 23.7319 50.6667 22.8841 50.6667 22C50.6667 21.1159 51.0179 20.2681 51.643 19.643C52.2681 19.0179 53.116 18.6667 54 18.6667ZM59.5167 7C60.8677 6.99985 62.2032 7.28837 63.4337 7.84624C64.6641 8.40412 65.7612 9.21847 66.6514 10.2348C67.5416 11.251 68.2044 12.4458 68.5953 13.739C68.9863 15.0323 69.0964 16.3941 68.9184 17.7333C68.3108 19.4362 67.1658 20.8953 65.6563 21.8904C64.1468 22.8856 62.3545 23.3627 60.55 23.25C60.7686 22.1134 60.6868 20.9395 60.3127 19.8442C59.9385 18.7489 59.285 17.7703 58.4167 17.005C58.5378 16.3317 58.5989 15.6411 58.6 14.9333C58.604 12.2871 57.7044 9.71872 56.05 7.65333C57.1546 7.22104 58.3305 6.99944 59.5167 7ZM48.4834 7C48.9067 7 49.3234 7.02722 49.7334 7.08167C51.4362 7.68926 52.8953 8.8342 53.8904 10.3437C54.8856 11.8533 55.3628 13.6455 55.25 15.45C54.1134 15.2314 52.9395 15.3132 51.8442 15.6873C50.7489 16.0615 49.7703 16.715 49.005 17.5833C48.3213 17.4607 47.628 17.3993 46.9334 17.4C44.2871 17.396 41.7187 18.2956 39.6534 19.95C39.0886 18.512 38.8837 16.9577 39.0565 15.4224C39.2294 13.8871 39.7747 12.4173 40.6451 11.1408C41.5155 9.86435 42.6845 8.81985 44.0506 8.09817C45.4167 7.3765 46.9384 6.99951 48.4834 7Z" fill="#16017D"/>
</svg>
