<?xml version="1.0" encoding="UTF-8"?>
<svg id="uuid-6f575600-6e4c-42c5-97f3-cb18d3d9c309" data-name="Layer 1" xmlns="http://www.w3.org/2000/svg" viewBox="0 0 211.93 210.02">
  <g id="uuid-a5f1418e-6fef-45aa-a635-c3a3614bdaf2" data-name="chef">
    <path d="M168.85,120.51l.05,79.51-2.92,9.24-118.52.76-3-2.41-1.17-85.32-1.62-1.62c-17.31.28-32.35-11.96-38.25-27.69C-10.22,56.59,18.84,23.23,56.43,29.24c20.23-38.98,78.68-38.96,99.39-.09,36.01-5.36,65.14,26.8,53.53,62.13-5.66,17.23-21.94,30.21-40.5,29.23ZM156.96,172.41v-57.84c0-6.29,11.46-4.57,15.4-5.14,30.13-4.43,37.21-43.76,14.31-61.31-12.04-9.23-23.42-5.88-37.6-6.72-4.02-4.1-5.77-10.21-9.92-14.94-15.65-17.81-46.36-19.16-63.76-3.2-4.76,4.37-10.86,17.46-13.87,18.66-3.2,1.27-10.18-1.38-14.1-1.31C6.6,41.26-.39,96.76,33.96,107.84c6.85,2.21,12.95,1.01,19.31,3.64,3.95,19.47,1.42,39.42.95,59.1.22.71,2.44,1.82,2.74,1.82h100ZM54.22,183.22v16.22h102.74v-16.22H54.22Z"/>
  </g>
</svg>