<?xml version="1.0" encoding="UTF-8"?>
<svg id="uuid-0608ace4-6fe6-4db7-bac3-a161757f517f" data-name="Layer 1" xmlns="http://www.w3.org/2000/svg" viewBox="0 0 211.93 210.05">
  <path id="uuid-87c4a3d4-85e1-4c1c-8dd6-0c3e2fdafd43" data-name="cloud" d="M45.36,77.7c1.71-1.67,7.36-18.92,11.48-24.52,26.37-35.79,83.16-30.16,104.31,8.25,2.83,5.13,7.02,20.24,9.11,22.28,2.68,2.62,7.09,1.39,10.22,2.7,10.82,4.54,15.5,6.89,21.75,17.01,19.43,31.44,1.14,71.54-35.76,76.13-25.42,3.16-94.01,2.93-119.8.17C12.21,176.02-1.23,148.73,3.77,116.42c2.48-16.02,15.59-28.36,29.65-34.96,3.34-1.57,10.02-1.88,11.94-3.76ZM187.22,156.91c14.81-14.82,13.83-45.81-6.64-55.83-5.97-2.92-18.25-3.26-21.36-6.32-2.48-2.44-4.78-18.35-7.36-24.03-16.48-36.23-69.71-38.45-89.12-2.42-3.44,6.39-4.55,16.13-9.45,20.1-4.15,3.36-10.9,3.67-16.15,6-33.99,15.06-29.53,66.56,10.03,71.89,24.37,3.28,92.92,3.27,117.62.48,6.24-.7,18.08-5.5,22.44-9.86Z"/>
</svg>