<?xml version="1.0" encoding="UTF-8"?>
<svg id="uuid-64493f71-b621-45b1-8b20-5939439572f9" data-name="Layer 1" xmlns="http://www.w3.org/2000/svg" viewBox="0 0 205.97 210.02">
  <path d="M162.17,64.69h31.25c2.35,0,10.16,7.35,11.2,9.99,2.9,7.34,1.04,19.01-4.7,24.59-2.39,2.32-9.5,4.71-10.04,6.38,2.34,28.31-13.28,52.66-36.17,67.63,14.33,5.6,24.49,30.09,4.8,34.48-35.37-2.65-75.48,3.35-110.28,0-19.95-1.92-11.27-30.68,4.17-33.89l.65-2.17c-2.3.14-3.89-1.1-5.64-2.32-20.99-14.64-32.95-39.7-31.61-65.33-20.91-5.91-21.81-36.96,1.77-39.35l77.83-.56L140.96,7.98c13.3-16.89,41.64-3.63,42.43,15.97.61,15.17-16.48,27.41-21.22,40.73ZM148.4,64.69c2.13-10.67,21.86-28.79,23.3-37.69,1.73-10.67-14.22-20.98-22.23-10.5l-38.15,48.19h37.08ZM22.11,75.61c-15.78,2.66-11.54,16.41,3.89,17.72,50.42,4.29,106.84-3.28,157.89-.04,8.75.03,14.08-11.7,6.15-16.74-55.82-2.55-112.05-.99-167.93-.94ZM27.62,104.94c-2.31,29.15,21.62,62.57,51.51,65.55,40.52,4.05,84,.94,97.08-44.62,1.64-5.72,4.49-16.16,1.32-20.93H27.62ZM156.87,196.05c.54-7.94-7.57-12.21-14.39-13.68-25.13,1.27-52.41-2.01-77.29-.14-8.17.61-17.41,4.08-16.38,13.82h108.06Z"/>
</svg>