<?xml version="1.0" encoding="UTF-8"?>
<svg id="uuid-bcf40cdf-6839-4314-9851-a1caef1cd140" data-name="Layer 1" xmlns="http://www.w3.org/2000/svg" viewBox="0 0 211.93 210.05">
  <g id="uuid-2f00f961-190b-4934-82ce-262a349ed3c2" data-name="settings">
    <path d="M202.78,87.16c-3.9,4.1-14.8,6.77-16.04,13.37-3.16,16.78,8.79,12.7,15.87,20.24,4.94,5.26,4.48,11.18,2.53,17.74-1.4,4.71-15.35,29.41-18.67,34.09-13.07,18.4-28.8-6.93-40.45-1.28-9.17,4.45,1.1,33.12-14.65,36.64-4.9,1.1-48.14,1-51.65-.47-12.76-5.31-2.86-27.53-11.98-34.75-10.96-8.68-29.28,17.07-40.6,1.39-3.15-4.37-18.99-33.52-19.73-37.54-4.02-22.06,25.1-16.12,20.71-35.76-2.11-9.43-25.03-10.14-20.1-28.28,1.72-6.32,20.56-40.27,26.01-41.88,10.35-3.07,24.07,12.23,32.94,5.84,10.31-7.43-.6-31.23,13.79-34.45,4.96-1.11,49.63-1,53.16.47,11.52,4.78,3.87,31.92,13.09,35.15,11.04,3.87,24.2-12.85,35.78-5.62,3.24,2.02,22.44,36.44,23.65,41.29s-.26,10.24-3.65,13.81ZM127.9,13.82l-42.29.64c-2.68,14.16.73,27.18-15.46,34.29-13.75,6.04-18.94-1.05-31.23-5.64-1.73.84-17.41,28.22-17.8,30.63-1.77,10.96,17.38,10.38,19.26,22.31,1.24,7.89.33,17.4-4.65,23.81-3.91,5.05-16.45,9.5-16.39,13.76.03,1.88,17.31,31.77,19.11,32.31,3.51,1.04,17.11-8.55,22.49-8.9,7.48-.49,19.22,8.78,21.7,15.86,2.16,6.16,0,21.79,4.02,23.12,2.79.92,39.65.73,41.34-.45,4.15-2.89-3.15-21.82,7.59-31.61,15.11-13.77,25.19-1.11,40.55,1.45,3.91-5.32,20.75-30.3,17.83-35.25-.92-1.57-13.39-6.04-16.95-12.44-2.39-4.3-4.33-15.04-3.57-19.85,1.65-10.41,14.25-14.75,20.58-21.69.4-2.09-15.45-31.45-17.39-32.06-5.03-1.59-16.51,7.21-23.91,7.46-21.8.74-24.6-21.11-24.84-37.75Z"/>
    <path d="M151.2,103.69c0,24.84-20.14,44.98-44.98,44.98s-44.98-20.14-44.98-44.98,20.14-44.98,44.98-44.98,44.98,20.14,44.98,44.98ZM138.81,103.95c0-17.98-14.57-32.55-32.55-32.55s-32.55,14.57-32.55,32.55,14.57,32.55,32.55,32.55,32.55-14.57,32.55-32.55Z"/>
  </g>
</svg>