<?xml version="1.0" encoding="UTF-8"?>
<svg id="uuid-4b7316de-dddc-47b2-ad68-d144413a7554" data-name="Layer 1" xmlns="http://www.w3.org/2000/svg" viewBox="0 0 211.93 210.05">
  <path id="uuid-06fdf732-ec1b-4378-a729-7e3b2acb8218" data-name="star" d="M139.11,67.56c3,1.85,48.96-.67,58.22.44,8.43,1.02,15.21,4.62,13.21,14.31-2.32,11.18-43.73,36.18-50.7,48.02.46,14.47,20.58,55.81,15.73,67.28-.56,1.32-5.12,5.61-6.57,6.03-12.05,3.48-50.56-29.55-63.79-34.09-4.15.12-39.85,26.22-47.88,30.27-7.47,3.77-17.56,7.19-21.01-3.65-4.15-13.03,13.97-51.29,16.19-66.35L5.9,88.94c-22.27-32.3,55.37-17.9,68.61-21.33,2.77-1.78,16.21-55.56,24.39-60.85,3.96-2.32,9.25-3.34,13.26-.66,8.57,5.73,20.43,50.52,26.96,61.46ZM77.07,80.34H15.29c7.32,13.12,46.36,32.98,49.38,45.3,2.11,8.6-17.62,53.4-18.09,65.74,2.48,2.57,48.82-34.48,58.64-34.49,11.2-.02,45.72,30.87,59.42,34.52l-17.72-66.19,49.8-44.88h-61.78c-.78,0-6.47-6.65-7.36-8.28-7.65-14.06-12.5-35.87-19.29-51.17-.84-1.9.12-3.78-3.05-3.13l-21.5,56.74c-.84,2.11-4.81,5.45-6.67,5.84Z"/>
</svg>