<?xml version="1.0" encoding="UTF-8"?>
<svg width="800.0" height="600.0" xmlns="http://www.w3.org/2000/svg" viewBox="0 0 800.0 600.0">
    <circle cx="0" cy="0" r="40.0" fill="gold" fill-opacity="1.0" stroke="orange" stroke-width="3.0" stroke-opacity="1.0" stroke-linecap="butt" transform="translate(650,100) scale(1,1) rotate(0,0,0) skewX(0) skewY(0)" />
    <polyline points="620.0,60.0 610.0,50.0" fill="none" fill-opacity="1.0" stroke="orange" stroke-width="2.0" stroke-opacity="1.0" stroke-linecap="butt" transform="translate(0,0) scale(1,1) rotate(0,0,0) skewX(0) skewY(0)" />
    <polyline points="680.0,60.0 690.0,50.0" fill="none" fill-opacity="1.0" stroke="orange" stroke-width="2.0" stroke-opacity="1.0" stroke-linecap="butt" transform="translate(0,0) scale(1,1) rotate(0,0,0) skewX(0) skewY(0)" />
    <polyline points="700.0,100.0 720.0,100.0" fill="none" fill-opacity="1.0" stroke="orange" stroke-width="2.0" stroke-opacity="1.0" stroke-linecap="butt" transform="translate(0,0) scale(1,1) rotate(0,0,0) skewX(0) skewY(0)" />
    <polyline points="680.0,140.0 690.0,150.0" fill="none" fill-opacity="1.0" stroke="orange" stroke-width="2.0" stroke-opacity="1.0" stroke-linecap="butt" transform="translate(0,0) scale(1,1) rotate(0,0,0) skewX(0) skewY(0)" />
    <polyline points="620.0,140.0 610.0,150.0" fill="none" fill-opacity="1.0" stroke="orange" stroke-width="2.0" stroke-opacity="1.0" stroke-linecap="butt" transform="translate(0,0) scale(1,1) rotate(0,0,0) skewX(0) skewY(0)" />
    <polyline points="600.0,100.0 580.0,100.0" fill="none" fill-opacity="1.0" stroke="orange" stroke-width="2.0" stroke-opacity="1.0" stroke-linecap="butt" transform="translate(0,0) scale(1,1) rotate(0,0,0) skewX(0) skewY(0)" />
    <circle cx="0" cy="0" r="25.0" fill="white" fill-opacity="1.0" stroke="lightgray" stroke-width="1.0" stroke-opacity="1.0" stroke-linecap="butt" transform="translate(150,120) scale(1,1) rotate(0,0,0) skewX(0) skewY(0)" />
    <circle cx="0" cy="0" r="30.0" fill="white" fill-opacity="1.0" stroke="lightgray" stroke-width="1.0" stroke-opacity="1.0" stroke-linecap="butt" transform="translate(180,110) scale(1,1) rotate(0,0,0) skewX(0) skewY(0)" />
    <circle cx="0" cy="0" r="20.0" fill="white" fill-opacity="1.0" stroke="lightgray" stroke-width="1.0" stroke-opacity="1.0" stroke-linecap="butt" transform="translate(200,125) scale(1,1) rotate(0,0,0) skewX(0) skewY(0)" />
    <circle cx="0" cy="0" r="22.0" fill="white" fill-opacity="1.0" stroke="lightgray" stroke-width="1.0" stroke-opacity="1.0" stroke-linecap="butt" transform="translate(125,130) scale(1,1) rotate(0,0,0) skewX(0) skewY(0)" />
    <circle cx="0" cy="0" r="20.0" fill="white" fill-opacity="1.0" stroke="lightgray" stroke-width="1.0" stroke-opacity="1.0" stroke-linecap="butt" transform="translate(450,80) scale(1,1) rotate(0,0,0) skewX(0) skewY(0)" />
    <circle cx="0" cy="0" r="25.0" fill="white" fill-opacity="1.0" stroke="lightgray" stroke-width="1.0" stroke-opacity="1.0" stroke-linecap="butt" transform="translate(470,75) scale(1,1) rotate(0,0,0) skewX(0) skewY(0)" />
    <circle cx="0" cy="0" r="18.0" fill="white" fill-opacity="1.0" stroke="lightgray" stroke-width="1.0" stroke-opacity="1.0" stroke-linecap="butt" transform="translate(490,85) scale(1,1) rotate(0,0,0) skewX(0) skewY(0)" />
    <rect x="0.0" y="450.0" width="800.0" height="150.0" fill="lightgreen" fill-opacity="1.0" stroke="none" stroke-width="1.0" stroke-opacity="1.0" stroke-linecap="butt" transform="translate(0,0) scale(1,1) rotate(0,0,0) skewX(0) skewY(0)" />
    <rect x="250.0" y="250.0" width="200.0" height="200.0" fill="lightblue" fill-opacity="1.0" stroke="darkblue" stroke-width="3.0" stroke-opacity="1.0" stroke-linecap="butt" transform="translate(0,0) scale(1,1) rotate(0,0,0) skewX(0) skewY(0)" />
    <polyline points="230.0,250.0 350.0,180.0 470.0,250.0 230.0,250.0" fill="darkred" fill-opacity="1.0" stroke="maroon" stroke-width="2.0" stroke-opacity="1.0" stroke-linecap="butt" transform="translate(0,0) scale(1,1) rotate(0,0,0) skewX(0) skewY(0)" />
    <rect x="320.0" y="350.0" width="60.0" height="100.0" fill="brown" fill-opacity="1.0" stroke="saddlebrown" stroke-width="2.0" stroke-opacity="1.0" stroke-linecap="butt" transform="translate(0,0) scale(1,1) rotate(0,0,0) skewX(0) skewY(0)" />
    <circle cx="0" cy="0" r="3.0" fill="gold" fill-opacity="1.0" stroke="orange" stroke-width="1.0" stroke-opacity="1.0" stroke-linecap="butt" transform="translate(365,400) scale(1,1) rotate(0,0,0) skewX(0) skewY(0)" />
    <rect x="270.0" y="290.0" width="40.0" height="40.0" fill="lightcyan" fill-opacity="1.0" stroke="darkblue" stroke-width="2.0" stroke-opacity="1.0" stroke-linecap="butt" transform="translate(0,0) scale(1,1) rotate(0,0,0) skewX(0) skewY(0)" />
    <rect x="270.0" y="308.0" width="40.0" height="4.0" fill="darkblue" fill-opacity="1.0" stroke="none" stroke-width="1.0" stroke-opacity="1.0" stroke-linecap="butt" transform="translate(0,0) scale(1,1) rotate(0,0,0) skewX(0) skewY(0)" />
    <rect x="288.0" y="290.0" width="4.0" height="40.0" fill="darkblue" fill-opacity="1.0" stroke="none" stroke-width="1.0" stroke-opacity="1.0" stroke-linecap="butt" transform="translate(0,0) scale(1,1) rotate(0,0,0) skewX(0) skewY(0)" />
    <rect x="390.0" y="290.0" width="40.0" height="40.0" fill="lightcyan" fill-opacity="1.0" stroke="darkblue" stroke-width="2.0" stroke-opacity="1.0" stroke-linecap="butt" transform="translate(0,0) scale(1,1) rotate(0,0,0) skewX(0) skewY(0)" />
    <rect x="390.0" y="308.0" width="40.0" height="4.0" fill="darkblue" fill-opacity="1.0" stroke="none" stroke-width="1.0" stroke-opacity="1.0" stroke-linecap="butt" transform="translate(0,0) scale(1,1) rotate(0,0,0) skewX(0) skewY(0)" />
    <rect x="408.0" y="290.0" width="4.0" height="40.0" fill="darkblue" fill-opacity="1.0" stroke="none" stroke-width="1.0" stroke-opacity="1.0" stroke-linecap="butt" transform="translate(0,0) scale(1,1) rotate(0,0,0) skewX(0) skewY(0)" />
    <circle cx="0" cy="0" r="8.0" fill="yellow" fill-opacity="1.0" stroke="orange" stroke-width="1.0" stroke-opacity="1.0" stroke-linecap="butt" transform="translate(150,420) scale(1,1) rotate(0,0,0) skewX(0) skewY(0)" />
    <circle cx="0" cy="0" r="6.0" fill="pink" fill-opacity="1.0" stroke="deeppink" stroke-width="1.0" stroke-opacity="1.0" stroke-linecap="butt" transform="translate(135,415) scale(1,1) rotate(0,0,0) skewX(0) skewY(0)" />
    <circle cx="0" cy="0" r="6.0" fill="pink" fill-opacity="1.0" stroke="deeppink" stroke-width="1.0" stroke-opacity="1.0" stroke-linecap="butt" transform="translate(165,415) scale(1,1) rotate(0,0,0) skewX(0) skewY(0)" />
    <circle cx="0" cy="0" r="6.0" fill="pink" fill-opacity="1.0" stroke="deeppink" stroke-width="1.0" stroke-opacity="1.0" stroke-linecap="butt" transform="translate(150,405) scale(1,1) rotate(0,0,0) skewX(0) skewY(0)" />
    <circle cx="0" cy="0" r="6.0" fill="pink" fill-opacity="1.0" stroke="deeppink" stroke-width="1.0" stroke-opacity="1.0" stroke-linecap="butt" transform="translate(150,435) scale(1,1) rotate(0,0,0) skewX(0) skewY(0)" />
    <circle cx="0" cy="0" r="8.0" fill="yellow" fill-opacity="1.0" stroke="orange" stroke-width="1.0" stroke-opacity="1.0" stroke-linecap="butt" transform="translate(550,420) scale(1,1) rotate(0,0,0) skewX(0) skewY(0)" />
    <circle cx="0" cy="0" r="6.0" fill="lightblue" fill-opacity="1.0" stroke="blue" stroke-width="1.0" stroke-opacity="1.0" stroke-linecap="butt" transform="translate(535,415) scale(1,1) rotate(0,0,0) skewX(0) skewY(0)" />
    <circle cx="0" cy="0" r="6.0" fill="lightblue" fill-opacity="1.0" stroke="blue" stroke-width="1.0" stroke-opacity="1.0" stroke-linecap="butt" transform="translate(565,415) scale(1,1) rotate(0,0,0) skewX(0) skewY(0)" />
    <circle cx="0" cy="0" r="6.0" fill="lightblue" fill-opacity="1.0" stroke="blue" stroke-width="1.0" stroke-opacity="1.0" stroke-linecap="butt" transform="translate(550,405) scale(1,1) rotate(0,0,0) skewX(0) skewY(0)" />
    <circle cx="0" cy="0" r="6.0" fill="lightblue" fill-opacity="1.0" stroke="blue" stroke-width="1.0" stroke-opacity="1.0" stroke-linecap="butt" transform="translate(550,435) scale(1,1) rotate(0,0,0) skewX(0) skewY(0)" />
    <rect x="320.0" y="450.0" width="60.0" height="150.0" fill="lightgray" fill-opacity="1.0" stroke="gray" stroke-width="2.0" stroke-opacity="1.0" stroke-linecap="butt" transform="translate(0,0) scale(1,1) rotate(0,0,0) skewX(0) skewY(0)" />
    <rect x="330.0" y="470.0" width="40.0" height="3.0" fill="white" fill-opacity="1.0" stroke="none" stroke-width="1.0" stroke-opacity="1.0" stroke-linecap="butt" transform="translate(0,0) scale(1,1) rotate(0,0,0) skewX(0) skewY(0)" />
    <rect x="330.0" y="490.0" width="40.0" height="3.0" fill="white" fill-opacity="1.0" stroke="none" stroke-width="1.0" stroke-opacity="1.0" stroke-linecap="butt" transform="translate(0,0) scale(1,1) rotate(0,0,0) skewX(0) skewY(0)" />
    <rect x="330.0" y="510.0" width="40.0" height="3.0" fill="white" fill-opacity="1.0" stroke="none" stroke-width="1.0" stroke-opacity="1.0" stroke-linecap="butt" transform="translate(0,0) scale(1,1) rotate(0,0,0) skewX(0) skewY(0)" />
    <rect x="330.0" y="530.0" width="40.0" height="3.0" fill="white" fill-opacity="1.0" stroke="none" stroke-width="1.0" stroke-opacity="1.0" stroke-linecap="butt" transform="translate(0,0) scale(1,1) rotate(0,0,0) skewX(0) skewY(0)" />
    <rect x="330.0" y="550.0" width="40.0" height="3.0" fill="white" fill-opacity="1.0" stroke="none" stroke-width="1.0" stroke-opacity="1.0" stroke-linecap="butt" transform="translate(0,0) scale(1,1) rotate(0,0,0) skewX(0) skewY(0)" />
</svg>
