<svg width="530.0" height="530.0" viewBox="0 0 530.0 530.0" xmlns="http://www.w3.org/2000/svg" xmlns:xlink="http://www.w3.org/1999/xlink">
    <g transform="translate(30,30)">
        <g >
            <rect x="0.0" y="0.0" width="50.0" height="50.0" fill="none" stroke="none" stroke-width="0.0" />
            <text x="0" y="0" font-size="20" font-family="Times New Roman" text-anchor="middle" dominant-baseline="central" fill="black"></text>
        </g>
        <g transform="translate(50.0,0.0)">
            <rect x="0.0" y="0.0" width="50.0" height="50.0" fill="none" stroke="none" stroke-width="0.0" />
            <text x="0" y="0" font-size="20" font-family="Times New Roman" text-anchor="middle" dominant-baseline="central" fill="black">A</text>
        </g>
        <g transform="translate(100.0,0.0)">
            <rect x="0.0" y="0.0" width="50.0" height="50.0" fill="none" stroke="none" stroke-width="0.0" />
            <text x="0" y="0" font-size="20" font-family="Times New Roman" text-anchor="middle" dominant-baseline="central" fill="black">B</text>
        </g>
        <g transform="translate(150.0,0.0)">
            <rect x="0.0" y="0.0" width="50.0" height="50.0" fill="none" stroke="none" stroke-width="0.0" />
            <text x="0" y="0" font-size="20" font-family="Times New Roman" text-anchor="middle" dominant-baseline="central" fill="black">C</text>
        </g>
        <g transform="translate(200.0,0.0)">
            <rect x="0.0" y="0.0" width="50.0" height="50.0" fill="none" stroke="none" stroke-width="0.0" />
            <text x="0" y="0" font-size="20" font-family="Times New Roman" text-anchor="middle" dominant-baseline="central" fill="black">D</text>
        </g>
        <g transform="translate(250.0,0.0)">
            <rect x="0.0" y="0.0" width="50.0" height="50.0" fill="none" stroke="none" stroke-width="0.0" />
            <text x="0" y="0" font-size="20" font-family="Times New Roman" text-anchor="middle" dominant-baseline="central" fill="black">E</text>
        </g>
        <g transform="translate(300.0,0.0)">
            <rect x="0.0" y="0.0" width="50.0" height="50.0" fill="none" stroke="none" stroke-width="0.0" />
            <text x="0" y="0" font-size="20" font-family="Times New Roman" text-anchor="middle" dominant-baseline="central" fill="black">F</text>
        </g>
        <g transform="translate(350.0,0.0)">
            <rect x="0.0" y="0.0" width="50.0" height="50.0" fill="none" stroke="none" stroke-width="0.0" />
            <text x="0" y="0" font-size="20" font-family="Times New Roman" text-anchor="middle" dominant-baseline="central" fill="black">G</text>
        </g>
        <g transform="translate(400.0,0.0)">
            <rect x="0.0" y="0.0" width="50.0" height="50.0" fill="none" stroke="none" stroke-width="0.0" />
            <text x="0" y="0" font-size="20" font-family="Times New Roman" text-anchor="middle" dominant-baseline="central" fill="black">H</text>
        </g>
        <g transform="translate(450.0,0.0)">
            <rect x="0.0" y="0.0" width="50.0" height="50.0" fill="none" stroke="none" stroke-width="0.0" />
            <text x="0" y="0" font-size="20" font-family="Times New Roman" text-anchor="middle" dominant-baseline="central" fill="black">I</text>
        </g>
        <g transform="translate(0.0,50.0)">
            <rect x="0.0" y="0.0" width="50.0" height="50.0" fill="none" stroke="none" stroke-width="0.0" />
            <text x="0" y="0" font-size="20" font-family="Times New Roman" text-anchor="middle" dominant-baseline="central" fill="black">9</text>
        </g>
        <g transform="translate(50.0,50.0)">
            <rect x="0.0" y="0.0" width="50.0" height="50.0" fill="#DEB887" fill-opacity="0.85" stroke="#8B4513" stroke-width="1.4" stroke-opacity="0.85" />
            <circle cx="50" cy="50" r="20.0" fill="black" stroke="#333333" transform="translate(-50,-50)" />
        </g>
        <g transform="translate(100.0,50.0)">
            <rect x="0.0" y="0.0" width="50.0" height="50.0" fill="#DEB887" fill-opacity="0.85" stroke="#8B4513" stroke-width="1.4" stroke-opacity="0.85" />
            <text x="0" y="0" font-size="12" font-family="Arial" text-anchor="middle" dominant-baseline="central" fill="black"></text>
        </g>
        <g transform="translate(150.0,50.0)">
            <rect x="0.0" y="0.0" width="50.0" height="50.0" fill="#DEB887" fill-opacity="0.85" stroke="#8B4513" stroke-width="1.4" stroke-opacity="0.85" />
            <text x="0" y="0" font-size="12" font-family="Arial" text-anchor="middle" dominant-baseline="central" fill="black"></text>
        </g>
        <g transform="translate(200.0,50.0)">
            <rect x="0.0" y="0.0" width="50.0" height="50.0" fill="#DEB887" fill-opacity="0.85" stroke="#8B4513" stroke-width="1.4" stroke-opacity="0.85" />
            <text x="0" y="0" font-size="12" font-family="Arial" text-anchor="middle" dominant-baseline="central" fill="black"></text>
        </g>
        <g transform="translate(250.0,50.0)">
            <rect x="0.0" y="0.0" width="50.0" height="50.0" fill="#DEB887" fill-opacity="0.85" stroke="#8B4513" stroke-width="1.4" stroke-opacity="0.85" />
            <circle cx="50" cy="50" r="20.0" fill="black" stroke="#333333" transform="translate(-50,-50)" />
        </g>
        <g transform="translate(300.0,50.0)">
            <rect x="0.0" y="0.0" width="50.0" height="50.0" fill="#DEB887" fill-opacity="0.85" stroke="#8B4513" stroke-width="1.4" stroke-opacity="0.85" />
            <text x="0" y="0" font-size="12" font-family="Arial" text-anchor="middle" dominant-baseline="central" fill="black"></text>
        </g>
        <g transform="translate(350.0,50.0)">
            <rect x="0.0" y="0.0" width="50.0" height="50.0" fill="#DEB887" fill-opacity="0.85" stroke="#8B4513" stroke-width="1.4" stroke-opacity="0.85" />
            <text x="0" y="0" font-size="12" font-family="Arial" text-anchor="middle" dominant-baseline="central" fill="black"></text>
        </g>
        <g transform="translate(400.0,50.0)">
            <rect x="0.0" y="0.0" width="50.0" height="50.0" fill="#DEB887" fill-opacity="0.85" stroke="#8B4513" stroke-width="1.4" stroke-opacity="0.85" />
            <text x="0" y="0" font-size="12" font-family="Arial" text-anchor="middle" dominant-baseline="central" fill="black"></text>
        </g>
        <g transform="translate(450.0,50.0)">
            <rect x="0.0" y="0.0" width="50.0" height="50.0" fill="none" stroke="none" stroke-width="0.0" />
            <text x="0" y="0" font-size="12" font-family="Arial" text-anchor="middle" dominant-baseline="central" fill="black"></text>
        </g>
        <g transform="translate(0.0,100.0)">
            <rect x="0.0" y="0.0" width="50.0" height="50.0" fill="none" stroke="none" stroke-width="0.0" />
            <text x="0" y="0" font-size="20" font-family="Times New Roman" text-anchor="middle" dominant-baseline="central" fill="black">8</text>
        </g>
        <g transform="translate(50.0,100.0)">
            <rect x="0.0" y="0.0" width="50.0" height="50.0" fill="#DEB887" fill-opacity="0.85" stroke="#8B4513" stroke-width="1.4" stroke-opacity="0.85" />
            <text x="0" y="0" font-size="12" font-family="Arial" text-anchor="middle" dominant-baseline="central" fill="black"></text>
        </g>
        <g transform="translate(100.0,100.0)">
            <rect x="0.0" y="0.0" width="50.0" height="50.0" fill="#DEB887" fill-opacity="0.85" stroke="#8B4513" stroke-width="1.4" stroke-opacity="0.85" />
            <text x="0" y="0" font-size="12" font-family="Arial" text-anchor="middle" dominant-baseline="central" fill="black"></text>
        </g>
        <g transform="translate(150.0,100.0)">
            <rect x="0.0" y="0.0" width="50.0" height="50.0" fill="#DEB887" fill-opacity="0.85" stroke="#8B4513" stroke-width="1.4" stroke-opacity="0.85" />
            <text x="0" y="0" font-size="12" font-family="Arial" text-anchor="middle" dominant-baseline="central" fill="black"></text>
        </g>
        <g transform="translate(200.0,100.0)">
            <rect x="0.0" y="0.0" width="50.0" height="50.0" fill="#DEB887" fill-opacity="0.85" stroke="#8B4513" stroke-width="1.4" stroke-opacity="0.85" />
            <text x="0" y="0" font-size="12" font-family="Arial" text-anchor="middle" dominant-baseline="central" fill="black"></text>
        </g>
        <g transform="translate(250.0,100.0)">
            <rect x="0.0" y="0.0" width="50.0" height="50.0" fill="#DEB887" fill-opacity="0.85" stroke="#8B4513" stroke-width="1.4" stroke-opacity="0.85" />
            <text x="0" y="0" font-size="12" font-family="Arial" text-anchor="middle" dominant-baseline="central" fill="black"></text>
        </g>
        <g transform="translate(300.0,100.0)">
            <rect x="0.0" y="0.0" width="50.0" height="50.0" fill="#DEB887" fill-opacity="0.85" stroke="#8B4513" stroke-width="1.4" stroke-opacity="0.85" />
            <text x="0" y="0" font-size="12" font-family="Arial" text-anchor="middle" dominant-baseline="central" fill="black"></text>
        </g>
        <g transform="translate(350.0,100.0)">
            <rect x="0.0" y="0.0" width="50.0" height="50.0" fill="#DEB887" fill-opacity="0.85" stroke="#8B4513" stroke-width="1.4" stroke-opacity="0.85" />
            <text x="0" y="0" font-size="12" font-family="Arial" text-anchor="middle" dominant-baseline="central" fill="black"></text>
        </g>
        <g transform="translate(400.0,100.0)">
            <rect x="0.0" y="0.0" width="50.0" height="50.0" fill="#DEB887" fill-opacity="0.85" stroke="#8B4513" stroke-width="1.4" stroke-opacity="0.85" />
            <text x="0" y="0" font-size="12" font-family="Arial" text-anchor="middle" dominant-baseline="central" fill="black"></text>
        </g>
        <g transform="translate(450.0,100.0)">
            <rect x="0.0" y="0.0" width="50.0" height="50.0" fill="none" stroke="none" stroke-width="0.0" />
            <text x="0" y="0" font-size="12" font-family="Arial" text-anchor="middle" dominant-baseline="central" fill="black"></text>
        </g>
        <g transform="translate(0.0,150.0)">
            <rect x="0.0" y="0.0" width="50.0" height="50.0" fill="none" stroke="none" stroke-width="0.0" />
            <text x="0" y="0" font-size="20" font-family="Times New Roman" text-anchor="middle" dominant-baseline="central" fill="black">7</text>
        </g>
        <g transform="translate(50.0,150.0)">
            <rect x="0.0" y="0.0" width="50.0" height="50.0" fill="#DEB887" fill-opacity="0.85" stroke="#8B4513" stroke-width="1.4" stroke-opacity="0.85" />
            <text x="0" y="0" font-size="12" font-family="Arial" text-anchor="middle" dominant-baseline="central" fill="black"></text>
        </g>
        <g transform="translate(100.0,150.0)">
            <rect x="0.0" y="0.0" width="50.0" height="50.0" fill="#DEB887" fill-opacity="0.85" stroke="#8B4513" stroke-width="1.4" stroke-opacity="0.85" />
            <circle cx="50" cy="50" r="20.0" fill="white" stroke="#333333" transform="translate(-50,-50)" />
        </g>
        <g transform="translate(150.0,150.0)">
            <rect x="0.0" y="0.0" width="50.0" height="50.0" fill="#DEB887" fill-opacity="0.85" stroke="#8B4513" stroke-width="1.4" stroke-opacity="0.85" />
            <text x="0" y="0" font-size="12" font-family="Arial" text-anchor="middle" dominant-baseline="central" fill="black"></text>
        </g>
        <g transform="translate(200.0,150.0)">
            <rect x="0.0" y="0.0" width="50.0" height="50.0" fill="#DEB887" fill-opacity="0.85" stroke="#8B4513" stroke-width="1.4" stroke-opacity="0.85" />
            <circle cx="50" cy="50" r="20.0" fill="white" stroke="#333333" transform="translate(-50,-50)" />
        </g>
        <g transform="translate(250.0,150.0)">
            <rect x="0.0" y="0.0" width="50.0" height="50.0" fill="#DEB887" fill-opacity="0.85" stroke="#8B4513" stroke-width="1.4" stroke-opacity="0.85" />
            <text x="0" y="0" font-size="12" font-family="Arial" text-anchor="middle" dominant-baseline="central" fill="black"></text>
        </g>
        <g transform="translate(300.0,150.0)">
            <rect x="0.0" y="0.0" width="50.0" height="50.0" fill="#DEB887" fill-opacity="0.85" stroke="#8B4513" stroke-width="1.4" stroke-opacity="0.85" />
            <text x="0" y="0" font-size="12" font-family="Arial" text-anchor="middle" dominant-baseline="central" fill="black"></text>
        </g>
        <g transform="translate(350.0,150.0)">
            <rect x="0.0" y="0.0" width="50.0" height="50.0" fill="#DEB887" fill-opacity="0.85" stroke="#8B4513" stroke-width="1.4" stroke-opacity="0.85" />
            <circle cx="50" cy="50" r="20.0" fill="black" stroke="#333333" transform="translate(-50,-50)" />
        </g>
        <g transform="translate(400.0,150.0)">
            <rect x="0.0" y="0.0" width="50.0" height="50.0" fill="#DEB887" fill-opacity="0.85" stroke="#8B4513" stroke-width="1.4" stroke-opacity="0.85" />
            <text x="0" y="0" font-size="12" font-family="Arial" text-anchor="middle" dominant-baseline="central" fill="black"></text>
        </g>
        <g transform="translate(450.0,150.0)">
            <rect x="0.0" y="0.0" width="50.0" height="50.0" fill="none" stroke="none" stroke-width="0.0" />
            <text x="0" y="0" font-size="12" font-family="Arial" text-anchor="middle" dominant-baseline="central" fill="black"></text>
        </g>
        <g transform="translate(0.0,200.0)">
            <rect x="0.0" y="0.0" width="50.0" height="50.0" fill="none" stroke="none" stroke-width="0.0" />
            <text x="0" y="0" font-size="20" font-family="Times New Roman" text-anchor="middle" dominant-baseline="central" fill="black">6</text>
        </g>
        <g transform="translate(50.0,200.0)">
            <rect x="0.0" y="0.0" width="50.0" height="50.0" fill="#DEB887" fill-opacity="0.85" stroke="#8B4513" stroke-width="1.4" stroke-opacity="0.85" />
            <text x="0" y="0" font-size="12" font-family="Arial" text-anchor="middle" dominant-baseline="central" fill="black"></text>
        </g>
        <g transform="translate(100.0,200.0)">
            <rect x="0.0" y="0.0" width="50.0" height="50.0" fill="#DEB887" fill-opacity="0.85" stroke="#8B4513" stroke-width="1.4" stroke-opacity="0.85" />
            <text x="0" y="0" font-size="12" font-family="Arial" text-anchor="middle" dominant-baseline="central" fill="black"></text>
        </g>
        <g transform="translate(150.0,200.0)">
            <rect x="0.0" y="0.0" width="50.0" height="50.0" fill="#DEB887" fill-opacity="0.85" stroke="#8B4513" stroke-width="1.4" stroke-opacity="0.85" />
            <text x="0" y="0" font-size="12" font-family="Arial" text-anchor="middle" dominant-baseline="central" fill="black"></text>
        </g>
        <g transform="translate(200.0,200.0)">
            <rect x="0.0" y="0.0" width="50.0" height="50.0" fill="#DEB887" fill-opacity="0.85" stroke="#8B4513" stroke-width="1.4" stroke-opacity="0.85" />
            <circle cx="50" cy="50" r="20.0" fill="black" stroke="#333333" transform="translate(-50,-50)" />
        </g>
        <g transform="translate(250.0,200.0)">
            <rect x="0.0" y="0.0" width="50.0" height="50.0" fill="#DEB887" fill-opacity="0.85" stroke="#8B4513" stroke-width="1.4" stroke-opacity="0.85" />
            <text x="0" y="0" font-size="12" font-family="Arial" text-anchor="middle" dominant-baseline="central" fill="black"></text>
        </g>
        <g transform="translate(300.0,200.0)">
            <rect x="0.0" y="0.0" width="50.0" height="50.0" fill="#DEB887" fill-opacity="0.85" stroke="#8B4513" stroke-width="1.4" stroke-opacity="0.85" />
            <text x="0" y="0" font-size="12" font-family="Arial" text-anchor="middle" dominant-baseline="central" fill="black"></text>
        </g>
        <g transform="translate(350.0,200.0)">
            <rect x="0.0" y="0.0" width="50.0" height="50.0" fill="#DEB887" fill-opacity="0.85" stroke="#8B4513" stroke-width="1.4" stroke-opacity="0.85" />
            <text x="0" y="0" font-size="12" font-family="Arial" text-anchor="middle" dominant-baseline="central" fill="black"></text>
        </g>
        <g transform="translate(400.0,200.0)">
            <rect x="0.0" y="0.0" width="50.0" height="50.0" fill="#DEB887" fill-opacity="0.85" stroke="#8B4513" stroke-width="1.4" stroke-opacity="0.85" />
            <text x="0" y="0" font-size="12" font-family="Arial" text-anchor="middle" dominant-baseline="central" fill="black"></text>
        </g>
        <g transform="translate(450.0,200.0)">
            <rect x="0.0" y="0.0" width="50.0" height="50.0" fill="none" stroke="none" stroke-width="0.0" />
            <circle cx="50" cy="50" r="20.0" fill="white" stroke="#333333" transform="translate(-50,-50)" />
        </g>
        <g transform="translate(0.0,250.0)">
            <rect x="0.0" y="0.0" width="50.0" height="50.0" fill="none" stroke="none" stroke-width="0.0" />
            <text x="0" y="0" font-size="20" font-family="Times New Roman" text-anchor="middle" dominant-baseline="central" fill="black">5</text>
        </g>
        <g transform="translate(50.0,250.0)">
            <rect x="0.0" y="0.0" width="50.0" height="50.0" fill="#DEB887" fill-opacity="0.85" stroke="#8B4513" stroke-width="1.4" stroke-opacity="0.85" />
            <circle cx="50" cy="50" r="20.0" fill="white" stroke="#333333" transform="translate(-50,-50)" />
        </g>
        <g transform="translate(100.0,250.0)">
            <rect x="0.0" y="0.0" width="50.0" height="50.0" fill="#DEB887" fill-opacity="0.85" stroke="#8B4513" stroke-width="1.4" stroke-opacity="0.85" />
            <text x="0" y="0" font-size="12" font-family="Arial" text-anchor="middle" dominant-baseline="central" fill="black"></text>
        </g>
        <g transform="translate(150.0,250.0)">
            <rect x="0.0" y="0.0" width="50.0" height="50.0" fill="#DEB887" fill-opacity="0.85" stroke="#8B4513" stroke-width="1.4" stroke-opacity="0.85" />
            <circle cx="50" cy="50" r="20.0" fill="black" stroke="#333333" transform="translate(-50,-50)" />
        </g>
        <g transform="translate(200.0,250.0)">
            <rect x="0.0" y="0.0" width="50.0" height="50.0" fill="#DEB887" fill-opacity="0.85" stroke="#8B4513" stroke-width="1.4" stroke-opacity="0.85" />
            <circle cx="50" cy="50" r="20.0" fill="white" stroke="#333333" transform="translate(-50,-50)" />
        </g>
        <g transform="translate(250.0,250.0)">
            <rect x="0.0" y="0.0" width="50.0" height="50.0" fill="#DEB887" fill-opacity="0.85" stroke="#8B4513" stroke-width="1.4" stroke-opacity="0.85" />
            <circle cx="50" cy="50" r="20.0" fill="black" stroke="#333333" transform="translate(-50,-50)" />
        </g>
        <g transform="translate(300.0,250.0)">
            <rect x="0.0" y="0.0" width="50.0" height="50.0" fill="#DEB887" fill-opacity="0.85" stroke="#8B4513" stroke-width="1.4" stroke-opacity="0.85" />
            <text x="0" y="0" font-size="12" font-family="Arial" text-anchor="middle" dominant-baseline="central" fill="black"></text>
        </g>
        <g transform="translate(350.0,250.0)">
            <rect x="0.0" y="0.0" width="50.0" height="50.0" fill="#DEB887" fill-opacity="0.85" stroke="#8B4513" stroke-width="1.4" stroke-opacity="0.85" />
            <text x="0" y="0" font-size="12" font-family="Arial" text-anchor="middle" dominant-baseline="central" fill="black"></text>
        </g>
        <g transform="translate(400.0,250.0)">
            <rect x="0.0" y="0.0" width="50.0" height="50.0" fill="#DEB887" fill-opacity="0.85" stroke="#8B4513" stroke-width="1.4" stroke-opacity="0.85" />
            <text x="0" y="0" font-size="12" font-family="Arial" text-anchor="middle" dominant-baseline="central" fill="black"></text>
        </g>
        <g transform="translate(450.0,250.0)">
            <rect x="0.0" y="0.0" width="50.0" height="50.0" fill="none" stroke="none" stroke-width="0.0" />
            <text x="0" y="0" font-size="12" font-family="Arial" text-anchor="middle" dominant-baseline="central" fill="black"></text>
        </g>
        <g transform="translate(0.0,300.0)">
            <rect x="0.0" y="0.0" width="50.0" height="50.0" fill="none" stroke="none" stroke-width="0.0" />
            <text x="0" y="0" font-size="20" font-family="Times New Roman" text-anchor="middle" dominant-baseline="central" fill="black">4</text>
        </g>
        <g transform="translate(50.0,300.0)">
            <rect x="0.0" y="0.0" width="50.0" height="50.0" fill="#DEB887" fill-opacity="0.85" stroke="#8B4513" stroke-width="1.4" stroke-opacity="0.85" />
            <text x="0" y="0" font-size="12" font-family="Arial" text-anchor="middle" dominant-baseline="central" fill="black"></text>
        </g>
        <g transform="translate(100.0,300.0)">
            <rect x="0.0" y="0.0" width="50.0" height="50.0" fill="#DEB887" fill-opacity="0.85" stroke="#8B4513" stroke-width="1.4" stroke-opacity="0.85" />
            <circle cx="50" cy="50" r="20.0" fill="black" stroke="#333333" transform="translate(-50,-50)" />
        </g>
        <g transform="translate(150.0,300.0)">
            <rect x="0.0" y="0.0" width="50.0" height="50.0" fill="#DEB887" fill-opacity="0.85" stroke="#8B4513" stroke-width="1.4" stroke-opacity="0.85" />
            <circle cx="50" cy="50" r="20.0" fill="white" stroke="#333333" transform="translate(-50,-50)" />
        </g>
        <g transform="translate(200.0,300.0)">
            <rect x="0.0" y="0.0" width="50.0" height="50.0" fill="#DEB887" fill-opacity="0.85" stroke="#8B4513" stroke-width="1.4" stroke-opacity="0.85" />
            <circle cx="50" cy="50" r="20.0" fill="white" stroke="#333333" transform="translate(-50,-50)" />
        </g>
        <g transform="translate(250.0,300.0)">
            <rect x="0.0" y="0.0" width="50.0" height="50.0" fill="#DEB887" fill-opacity="0.85" stroke="#8B4513" stroke-width="1.4" stroke-opacity="0.85" />
            <text x="0" y="0" font-size="12" font-family="Arial" text-anchor="middle" dominant-baseline="central" fill="black"></text>
        </g>
        <g transform="translate(300.0,300.0)">
            <rect x="0.0" y="0.0" width="50.0" height="50.0" fill="#DEB887" fill-opacity="0.85" stroke="#8B4513" stroke-width="1.4" stroke-opacity="0.85" />
            <circle cx="50" cy="50" r="20.0" fill="white" stroke="#333333" transform="translate(-50,-50)" />
        </g>
        <g transform="translate(350.0,300.0)">
            <rect x="0.0" y="0.0" width="50.0" height="50.0" fill="#DEB887" fill-opacity="0.85" stroke="#8B4513" stroke-width="1.4" stroke-opacity="0.85" />
            <text x="0" y="0" font-size="12" font-family="Arial" text-anchor="middle" dominant-baseline="central" fill="black"></text>
        </g>
        <g transform="translate(400.0,300.0)">
            <rect x="0.0" y="0.0" width="50.0" height="50.0" fill="#DEB887" fill-opacity="0.85" stroke="#8B4513" stroke-width="1.4" stroke-opacity="0.85" />
            <text x="0" y="0" font-size="12" font-family="Arial" text-anchor="middle" dominant-baseline="central" fill="black"></text>
        </g>
        <g transform="translate(450.0,300.0)">
            <rect x="0.0" y="0.0" width="50.0" height="50.0" fill="none" stroke="none" stroke-width="0.0" />
            <text x="0" y="0" font-size="12" font-family="Arial" text-anchor="middle" dominant-baseline="central" fill="black"></text>
        </g>
        <g transform="translate(0.0,350.0)">
            <rect x="0.0" y="0.0" width="50.0" height="50.0" fill="none" stroke="none" stroke-width="0.0" />
            <text x="0" y="0" font-size="20" font-family="Times New Roman" text-anchor="middle" dominant-baseline="central" fill="black">3</text>
        </g>
        <g transform="translate(50.0,350.0)">
            <rect x="0.0" y="0.0" width="50.0" height="50.0" fill="#DEB887" fill-opacity="0.85" stroke="#8B4513" stroke-width="1.4" stroke-opacity="0.85" />
            <text x="0" y="0" font-size="12" font-family="Arial" text-anchor="middle" dominant-baseline="central" fill="black"></text>
        </g>
        <g transform="translate(100.0,350.0)">
            <rect x="0.0" y="0.0" width="50.0" height="50.0" fill="#DEB887" fill-opacity="0.85" stroke="#8B4513" stroke-width="1.4" stroke-opacity="0.85" />
            <text x="0" y="0" font-size="12" font-family="Arial" text-anchor="middle" dominant-baseline="central" fill="black"></text>
        </g>
        <g transform="translate(150.0,350.0)">
            <rect x="0.0" y="0.0" width="50.0" height="50.0" fill="#DEB887" fill-opacity="0.85" stroke="#8B4513" stroke-width="1.4" stroke-opacity="0.85" />
            <circle cx="50" cy="50" r="20.0" fill="black" stroke="#333333" transform="translate(-50,-50)" />
        </g>
        <g transform="translate(200.0,350.0)">
            <rect x="0.0" y="0.0" width="50.0" height="50.0" fill="#DEB887" fill-opacity="0.85" stroke="#8B4513" stroke-width="1.4" stroke-opacity="0.85" />
            <circle cx="50" cy="50" r="20.0" fill="white" stroke="#333333" transform="translate(-50,-50)" />
        </g>
        <g transform="translate(250.0,350.0)">
            <rect x="0.0" y="0.0" width="50.0" height="50.0" fill="#DEB887" fill-opacity="0.85" stroke="#8B4513" stroke-width="1.4" stroke-opacity="0.85" />
            <circle cx="50" cy="50" r="20.0" fill="black" stroke="#333333" transform="translate(-50,-50)" />
        </g>
        <g transform="translate(300.0,350.0)">
            <rect x="0.0" y="0.0" width="50.0" height="50.0" fill="#DEB887" fill-opacity="0.85" stroke="#8B4513" stroke-width="1.4" stroke-opacity="0.85" />
            <text x="0" y="0" font-size="12" font-family="Arial" text-anchor="middle" dominant-baseline="central" fill="black"></text>
        </g>
        <g transform="translate(350.0,350.0)">
            <rect x="0.0" y="0.0" width="50.0" height="50.0" fill="#DEB887" fill-opacity="0.85" stroke="#8B4513" stroke-width="1.4" stroke-opacity="0.85" />
            <text x="0" y="0" font-size="12" font-family="Arial" text-anchor="middle" dominant-baseline="central" fill="black"></text>
        </g>
        <g transform="translate(400.0,350.0)">
            <rect x="0.0" y="0.0" width="50.0" height="50.0" fill="#DEB887" fill-opacity="0.85" stroke="#8B4513" stroke-width="1.4" stroke-opacity="0.85" />
            <text x="0" y="0" font-size="12" font-family="Arial" text-anchor="middle" dominant-baseline="central" fill="black"></text>
        </g>
        <g transform="translate(450.0,350.0)">
            <rect x="0.0" y="0.0" width="50.0" height="50.0" fill="none" stroke="none" stroke-width="0.0" />
            <text x="0" y="0" font-size="12" font-family="Arial" text-anchor="middle" dominant-baseline="central" fill="black"></text>
        </g>
        <g transform="translate(0.0,400.0)">
            <rect x="0.0" y="0.0" width="50.0" height="50.0" fill="none" stroke="none" stroke-width="0.0" />
            <text x="0" y="0" font-size="20" font-family="Times New Roman" text-anchor="middle" dominant-baseline="central" fill="black">2</text>
        </g>
        <g transform="translate(50.0,400.0)">
            <rect x="0.0" y="0.0" width="50.0" height="50.0" fill="#DEB887" fill-opacity="0.85" stroke="#8B4513" stroke-width="1.4" stroke-opacity="0.85" />
            <text x="0" y="0" font-size="12" font-family="Arial" text-anchor="middle" dominant-baseline="central" fill="black"></text>
        </g>
        <g transform="translate(100.0,400.0)">
            <rect x="0.0" y="0.0" width="50.0" height="50.0" fill="#DEB887" fill-opacity="0.85" stroke="#8B4513" stroke-width="1.4" stroke-opacity="0.85" />
            <text x="0" y="0" font-size="12" font-family="Arial" text-anchor="middle" dominant-baseline="central" fill="black"></text>
        </g>
        <g transform="translate(150.0,400.0)">
            <rect x="0.0" y="0.0" width="50.0" height="50.0" fill="#DEB887" fill-opacity="0.85" stroke="#8B4513" stroke-width="1.4" stroke-opacity="0.85" />
            <text x="0" y="0" font-size="12" font-family="Arial" text-anchor="middle" dominant-baseline="central" fill="black"></text>
        </g>
        <g transform="translate(200.0,400.0)">
            <rect x="0.0" y="0.0" width="50.0" height="50.0" fill="#DEB887" fill-opacity="0.85" stroke="#8B4513" stroke-width="1.4" stroke-opacity="0.85" />
            <circle cx="50" cy="50" r="20.0" fill="black" stroke="#333333" transform="translate(-50,-50)" />
        </g>
        <g transform="translate(250.0,400.0)">
            <rect x="0.0" y="0.0" width="50.0" height="50.0" fill="#DEB887" fill-opacity="0.85" stroke="#8B4513" stroke-width="1.4" stroke-opacity="0.85" />
            <text x="0" y="0" font-size="12" font-family="Arial" text-anchor="middle" dominant-baseline="central" fill="black"></text>
        </g>
        <g transform="translate(300.0,400.0)">
            <rect x="0.0" y="0.0" width="50.0" height="50.0" fill="#DEB887" fill-opacity="0.85" stroke="#8B4513" stroke-width="1.4" stroke-opacity="0.85" />
            <text x="0" y="0" font-size="12" font-family="Arial" text-anchor="middle" dominant-baseline="central" fill="black"></text>
        </g>
        <g transform="translate(350.0,400.0)">
            <rect x="0.0" y="0.0" width="50.0" height="50.0" fill="#DEB887" fill-opacity="0.85" stroke="#8B4513" stroke-width="1.4" stroke-opacity="0.85" />
            <text x="0" y="0" font-size="12" font-family="Arial" text-anchor="middle" dominant-baseline="central" fill="black"></text>
        </g>
        <g transform="translate(400.0,400.0)">
            <rect x="0.0" y="0.0" width="50.0" height="50.0" fill="#DEB887" fill-opacity="0.85" stroke="#8B4513" stroke-width="1.4" stroke-opacity="0.85" />
            <text x="0" y="0" font-size="12" font-family="Arial" text-anchor="middle" dominant-baseline="central" fill="black"></text>
        </g>
        <g transform="translate(450.0,400.0)">
            <rect x="0.0" y="0.0" width="50.0" height="50.0" fill="none" stroke="none" stroke-width="0.0" />
            <text x="0" y="0" font-size="12" font-family="Arial" text-anchor="middle" dominant-baseline="central" fill="black"></text>
        </g>
        <g transform="translate(0.0,450.0)">
            <rect x="0.0" y="0.0" width="50.0" height="50.0" fill="none" stroke="none" stroke-width="0.0" />
            <text x="0" y="0" font-size="20" font-family="Times New Roman" text-anchor="middle" dominant-baseline="central" fill="black">1</text>
        </g>
        <g transform="translate(50.0,450.0)">
            <rect x="0.0" y="0.0" width="50.0" height="50.0" fill="none" stroke="none" stroke-width="0.0" />
            <text x="0" y="0" font-size="12" font-family="Arial" text-anchor="middle" dominant-baseline="central" fill="black"></text>
        </g>
        <g transform="translate(100.0,450.0)">
            <rect x="0.0" y="0.0" width="50.0" height="50.0" fill="none" stroke="none" stroke-width="0.0" />
            <circle cx="50" cy="50" r="20.0" fill="white" stroke="#333333" transform="translate(-50,-50)" />
        </g>
        <g transform="translate(150.0,450.0)">
            <rect x="0.0" y="0.0" width="50.0" height="50.0" fill="none" stroke="none" stroke-width="0.0" />
            <text x="0" y="0" font-size="12" font-family="Arial" text-anchor="middle" dominant-baseline="central" fill="black"></text>
        </g>
        <g transform="translate(200.0,450.0)">
            <rect x="0.0" y="0.0" width="50.0" height="50.0" fill="none" stroke="none" stroke-width="0.0" />
            <circle cx="50" cy="50" r="20.0" fill="white" stroke="#333333" transform="translate(-50,-50)" />
        </g>
        <g transform="translate(250.0,450.0)">
            <rect x="0.0" y="0.0" width="50.0" height="50.0" fill="none" stroke="none" stroke-width="0.0" />
            <text x="0" y="0" font-size="12" font-family="Arial" text-anchor="middle" dominant-baseline="central" fill="black"></text>
        </g>
        <g transform="translate(300.0,450.0)">
            <rect x="0.0" y="0.0" width="50.0" height="50.0" fill="none" stroke="none" stroke-width="0.0" />
            <text x="0" y="0" font-size="12" font-family="Arial" text-anchor="middle" dominant-baseline="central" fill="black"></text>
        </g>
        <g transform="translate(350.0,450.0)">
            <rect x="0.0" y="0.0" width="50.0" height="50.0" fill="none" stroke="none" stroke-width="0.0" />
            <circle cx="50" cy="50" r="20.0" fill="black" stroke="#333333" transform="translate(-50,-50)" />
        </g>
        <g transform="translate(400.0,450.0)">
            <rect x="0.0" y="0.0" width="50.0" height="50.0" fill="none" stroke="none" stroke-width="0.0" />
            <text x="0" y="0" font-size="12" font-family="Arial" text-anchor="middle" dominant-baseline="central" fill="black"></text>
        </g>
        <g transform="translate(450.0,450.0)">
            <rect x="0.0" y="0.0" width="50.0" height="50.0" fill="none" stroke="none" stroke-width="0.0" />
            <text x="0" y="0" font-size="12" font-family="Arial" text-anchor="middle" dominant-baseline="central" fill="black"></text>
        </g>
    </g>
</svg>
