<?xml version="1.0" encoding="us-ascii" standalone="no"?><svg xmlns="http://www.w3.org/2000/svg" xmlns:xlink="http://www.w3.org/1999/xlink" contentStyleType="text/css" height="675px" preserveAspectRatio="none" style="width:527px;height:675px;" version="1.1" viewBox="0 0 527 675" width="527px" zoomAndPan="magnify"><defs/><g><line style="stroke:#2D74BA;stroke-width:0.5;stroke-dasharray:5.0,5.0;" x1="39" x2="39" y1="81.2969" y2="594.8203"/><line style="stroke:#2D74BA;stroke-width:0.5;stroke-dasharray:5.0,5.0;" x1="153" x2="153" y1="81.2969" y2="594.8203"/><line style="stroke:#2D74BA;stroke-width:0.5;stroke-dasharray:5.0,5.0;" x1="275" x2="275" y1="81.2969" y2="594.8203"/><line style="stroke:#2D74BA;stroke-width:0.5;stroke-dasharray:5.0,5.0;" x1="348" x2="348" y1="81.2969" y2="594.8203"/><line style="stroke:#2D74BA;stroke-width:0.5;stroke-dasharray:5.0,5.0;" x1="469.5" x2="469.5" y1="81.2969" y2="594.8203"/><text fill="#AAAAAA" font-family="Arial" font-size="14" lengthAdjust="spacing" textLength="63" x="5" y="77.9951">User TTY</text><ellipse cx="39.5" cy="13.5" fill="#1E2029" rx="8" ry="8" style="stroke:#2D74BA;stroke-width:0.5;"/><path d="M39.5,21.5 L39.5,48.5 M26.5,29.5 L52.5,29.5 M39.5,48.5 L26.5,63.5 M39.5,48.5 L52.5,63.5 " fill="none" style="stroke:#2D74BA;stroke-width:0.5;"/><text fill="#AAAAAA" font-family="Arial" font-size="14" lengthAdjust="spacing" textLength="63" x="5" y="606.8154">User TTY</text><ellipse cx="39.5" cy="618.6172" fill="#1E2029" rx="8" ry="8" style="stroke:#2D74BA;stroke-width:0.5;"/><path d="M39.5,626.6172 L39.5,653.6172 M26.5,634.6172 L52.5,634.6172 M39.5,653.6172 L26.5,668.6172 M39.5,653.6172 L52.5,668.6172 " fill="none" style="stroke:#2D74BA;stroke-width:0.5;"/><rect fill="#1E2029" height="30.2969" rx="2.5" ry="2.5" style="stroke:#2D74BA;stroke-width:0.5;" width="138" x="84" y="50"/><text fill="#AAAAAA" font-family="Arial" font-size="14" lengthAdjust="spacing" textLength="124" x="91" y="69.9951">Items Process (IP)</text><rect fill="#1E2029" height="30.2969" rx="2.5" ry="2.5" style="stroke:#2D74BA;stroke-width:0.5;" width="138" x="84" y="593.8203"/><text fill="#AAAAAA" font-family="Arial" font-size="14" lengthAdjust="spacing" textLength="124" x="91" y="613.8154">Items Process (IP)</text><rect fill="#1E2029" height="30.2969" rx="2.5" ry="2.5" style="stroke:#2D74BA;stroke-width:0.5;" width="86" x="232" y="50"/><text fill="#AAAAAA" font-family="Arial" font-size="14" lengthAdjust="spacing" textLength="72" x="239" y="69.9951">FZF.STDIN</text><rect fill="#1E2029" height="30.2969" rx="2.5" ry="2.5" style="stroke:#2D74BA;stroke-width:0.5;" width="86" x="232" y="593.8203"/><text fill="#AAAAAA" font-family="Arial" font-size="14" lengthAdjust="spacing" textLength="72" x="239" y="613.8154">FZF.STDIN</text><rect fill="#1E2029" height="30.2969" rx="2.5" ry="2.5" style="stroke:#2D74BA;stroke-width:0.5;" width="40" x="328" y="50"/><text fill="#AAAAAA" font-family="Arial" font-size="14" lengthAdjust="spacing" textLength="26" x="335" y="69.9951">FZF</text><rect fill="#1E2029" height="30.2969" rx="2.5" ry="2.5" style="stroke:#2D74BA;stroke-width:0.5;" width="40" x="328" y="593.8203"/><text fill="#AAAAAA" font-family="Arial" font-size="14" lengthAdjust="spacing" textLength="26" x="335" y="613.8154">FZF</text><rect fill="#1E2029" height="30.2969" rx="2.5" ry="2.5" style="stroke:#2D74BA;stroke-width:0.5;" width="103" x="418.5" y="50"/><text fill="#AAAAAA" font-family="Arial" font-size="14" lengthAdjust="spacing" textLength="89" x="425.5" y="69.9951">FZF.STDOUT</text><rect fill="#1E2029" height="30.2969" rx="2.5" ry="2.5" style="stroke:#2D74BA;stroke-width:0.5;" width="103" x="418.5" y="593.8203"/><text fill="#AAAAAA" font-family="Arial" font-size="14" lengthAdjust="spacing" textLength="89" x="425.5" y="613.8154">FZF.STDOUT</text><path d="M295,96.2969 L295,166.2969 L401,166.2969 L401,106.2969 L391,96.2969 L295,96.2969 " fill="#1E2029" style="stroke:#2D74BA;stroke-width:0.5;"/><path d="M391,96.2969 L391,106.2969 L401,106.2969 L391,96.2969 " fill="#1E2029" style="stroke:#2D74BA;stroke-width:0.5;"/><text fill="#AAAAAA" font-family="Arial" font-size="13" lengthAdjust="spacing" textLength="85" x="301" y="113.3638">FZF starts up</text><text fill="#AAAAAA" font-family="Arial" font-size="13" lengthAdjust="spacing" textLength="70" x="301" y="128.4966">reads from</text><text fill="#AAAAAA" font-family="Arial" font-size="13" lengthAdjust="spacing" textLength="30" x="301" y="143.6294">- TTY</text><text fill="#AAAAAA" font-family="Arial" font-size="13" lengthAdjust="spacing" textLength="77" x="301" y="158.7622">- IP.STDOUT</text><polygon fill="#00B2E2" points="263,219.2266,273,223.2266,263,227.2266,267,223.2266" style="stroke:#00B2E2;stroke-width:1.0;"/><line style="stroke:#00B2E2;stroke-width:1.0;" x1="153" x2="269" y1="223.2266" y2="223.2266"/><text fill="#AAAAAA" font-family="Arial" font-size="13" lengthAdjust="spacing" textLength="36" x="160" y="187.895">items</text><text fill="#AAAAAA" font-family="Arial" font-size="13" lengthAdjust="spacing" textLength="35" x="160" y="203.0278">"hello</text><text fill="#AAAAAA" font-family="Arial" font-size="13" lengthAdjust="spacing" textLength="38" x="160" y="218.1606">world"</text><polygon fill="#00B2E2" points="336,248.3594,346,252.3594,336,256.3594,340,252.3594" style="stroke:#00B2E2;stroke-width:1.0;"/><line style="stroke:#00B2E2;stroke-width:1.0;" x1="275" x2="342" y1="252.3594" y2="252.3594"/><text fill="#AAAAAA" font-family="Arial" font-size="13" lengthAdjust="spacing" textLength="36" x="282" y="247.2935">items</text><path d="M307,265.3594 L307,290.3594 L389,290.3594 L389,275.3594 L379,265.3594 L307,265.3594 " fill="#1E2029" style="stroke:#2D74BA;stroke-width:0.5;"/><path d="M379,265.3594 L379,275.3594 L389,275.3594 L379,265.3594 " fill="#1E2029" style="stroke:#2D74BA;stroke-width:0.5;"/><text fill="#AAAAAA" font-family="Arial" font-size="13" lengthAdjust="spacing" textLength="61" x="313" y="282.4263">rendering</text><polygon fill="#00B2E2" points="458,312.625,468,316.625,458,320.625,462,316.625" style="stroke:#00B2E2;stroke-width:1.0;"/><line style="stroke:#00B2E2;stroke-width:1.0;" x1="348" x2="464" y1="316.625" y2="316.625"/><text fill="#AAAAAA" font-family="Arial" font-size="13" lengthAdjust="spacing" textLength="98" x="355" y="311.5591">rendered items</text><path d="M443,329.625 L443,369.625 L497,369.625 L497,339.625 L487,329.625 L443,329.625 " fill="#1E2029" style="stroke:#2D74BA;stroke-width:0.5;"/><path d="M487,329.625 L487,339.625 L497,339.625 L487,329.625 " fill="#1E2029" style="stroke:#2D74BA;stroke-width:0.5;"/><text fill="#AAAAAA" font-family="Arial" font-size="13" lengthAdjust="spacing" textLength="30" x="449" y="346.6919">hello</text><text fill="#AAAAAA" font-family="Arial" font-size="13" lengthAdjust="spacing" textLength="33" x="449" y="361.8247">world</text><polygon fill="#00B2E2" points="263,392.0234,273,396.0234,263,400.0234,267,396.0234" style="stroke:#00B2E2;stroke-width:1.0;"/><line style="stroke:#00B2E2;stroke-width:1.0;" x1="39.5" x2="269" y1="396.0234" y2="396.0234"/><text fill="#AAAAAA" font-family="Arial" font-size="13" lengthAdjust="spacing" textLength="92" x="46.5" y="390.9575">filter (e.g. 'he')</text><polygon fill="#00B2E2" points="336,421.1563,346,425.1563,336,429.1563,340,425.1563" style="stroke:#00B2E2;stroke-width:1.0;"/><line style="stroke:#00B2E2;stroke-width:1.0;" x1="275" x2="342" y1="425.1563" y2="425.1563"/><text fill="#AAAAAA" font-family="Arial" font-size="13" lengthAdjust="spacing" textLength="28" x="282" y="420.0903">filter</text><polygon fill="#00B2E2" points="458,450.2891,468,454.2891,458,458.2891,462,454.2891" style="stroke:#00B2E2;stroke-width:1.0;"/><line style="stroke:#00B2E2;stroke-width:1.0;" x1="348" x2="464" y1="454.2891" y2="454.2891"/><text fill="#AAAAAA" font-family="Arial" font-size="13" lengthAdjust="spacing" textLength="84" x="355" y="449.2231">filtered items</text><path d="M444,467.2891 L444,492.2891 L495,492.2891 L495,477.2891 L485,467.2891 L444,467.2891 " fill="#1E2029" style="stroke:#2D74BA;stroke-width:0.5;"/><path d="M485,467.2891 L485,477.2891 L495,477.2891 L485,467.2891 " fill="#1E2029" style="stroke:#2D74BA;stroke-width:0.5;"/><text fill="#AAAAAA" font-family="Arial" font-size="13" lengthAdjust="spacing" textLength="30" x="450" y="484.356">hello</text><polygon fill="#00B2E2" points="263,514.5547,273,518.5547,263,522.5547,267,518.5547" style="stroke:#00B2E2;stroke-width:1.0;"/><line style="stroke:#00B2E2;stroke-width:1.0;" x1="39.5" x2="269" y1="518.5547" y2="518.5547"/><text fill="#AAAAAA" font-family="Arial" font-size="13" lengthAdjust="spacing" textLength="38" x="46.5" y="513.4888">select</text><polygon fill="#00B2E2" points="336,543.6875,346,547.6875,336,551.6875,340,547.6875" style="stroke:#00B2E2;stroke-width:1.0;"/><line style="stroke:#00B2E2;stroke-width:1.0;" x1="275" x2="342" y1="547.6875" y2="547.6875"/><text fill="#AAAAAA" font-family="Arial" font-size="13" lengthAdjust="spacing" textLength="38" x="282" y="542.6216">select</text><polygon fill="#00B2E2" points="458,572.8203,468,576.8203,458,580.8203,462,576.8203" style="stroke:#00B2E2;stroke-width:1.0;"/><line style="stroke:#00B2E2;stroke-width:1.0;" x1="348" x2="464" y1="576.8203" y2="576.8203"/><text fill="#AAAAAA" font-family="Arial" font-size="13" lengthAdjust="spacing" textLength="36" x="355" y="571.7544">'hello'</text><!--SRC=[xPTDJnin48Rl-okiz10uW6WKMi41AUIZh8G2XN1ebOkpwmqkZhsrlGJ-VMUz7onAo3XIUwas4Wd9F3FsUiP-FUQ9ovHgkYBcaSPgpUMI95GO5fZQig3HqrAhJCQH4aeJgwaqO6BIDgWHIsWcx4H9EwKhHWQQKz6m3xHMww4ByEdaPD5ZlUtE9K8fRJf7bZzp-tgfTCnqYVH6N_kNWotKYDELaZ4AAuqWItX41D6M9pH2gCjyyQX6fZ-a6fdpK51ZC4HbM1Gb18EbKXABfLQfakWQ325hMedTq8XQkg26xQR6qg9Pdd21H9ae0LQ4WJSaJ2Wjqv1S1BjcK2R8aazLp3328iJDuXV32kqMjYfTCWp22IZhYATKMWymhwJTsFUCPSYGT_1iL2wnrDwptncJUKfU_C0Hd0XeCLJmDpZbKZ_qcYVm9psdUySIfejvxyGjv0z5B1e5nbBsDMK3Nt3e2uvzmT0Nd6AWqcYztg_vIb0i6G-6HH-SGDkafbQz4ltCUYUzinrou-C0aeDZJdPmh98UbApb1oMT1E6Kao4_x8hHVFjvmBbkuLX3kppWIhyyq4B3KB3MCPGijGpbd9xXLA5fEETq3SN2ICbABFnWpP_paySJ1ZMBB8izyMmXUEJ1reACegKeevmJPW_AvybBWKOvxtLloh0VxAGOHGivHh4tIKRHfYnxmvKqUpiKyhmdhk9NVvTQrRqztfHzVnVVix6u5lXWFcNQl1xi0G_tWSVxmE4-yDG7BguCA3ZZrgUugtl31-2M6m5aGbUDRF-q_wL_kWKQru4s49V9dK4SiH6X0NpSpl-3HhtjrDjElUtKsqwzxTJRJhtjrDjElUtK_rwdVWKxJmikdqhWpBss0GyoTl-mZIjVs-sttNxRxRVTVjlj_rVTVa3pQmhfm9GrcSr-T0Wr90lIjuE4T4BBLeR04HqnOyX1U7leA9w-noO_9yVtir4uTLR3trd1cF-QR7MvUPWLFee74avEefvXDicvypBvKy6SqhdKKFuGGwlLN1xbioNvPtXRnWXuUdHX-3dX-OJdilF8X51pkLPQn9t0yAEBf3I-7mRs5cmhBfT10W4KhtvXyGRjhCsuGLQCcN019KSEsF7oc7GVMVUm6h2mrA6Bhpj3Lp4Dowy_LPpoMnMdwz3k7m00]--></g></svg>