<?xml version="1.0" encoding="us-ascii" standalone="no"?><svg xmlns="http://www.w3.org/2000/svg" xmlns:xlink="http://www.w3.org/1999/xlink" contentStyleType="text/css" height="504px" preserveAspectRatio="none" style="width:709px;height:504px;" version="1.1" viewBox="0 0 709 504" width="709px" zoomAndPan="magnify"><defs/><g><line style="stroke:#2D74BA;stroke-width:0.5;stroke-dasharray:5.0,5.0;" x1="74" x2="74" y1="68.8906" y2="436.4844"/><line style="stroke:#2D74BA;stroke-width:0.5;stroke-dasharray:5.0,5.0;" x1="173" x2="173" y1="68.8906" y2="436.4844"/><line style="stroke:#2D74BA;stroke-width:0.5;stroke-dasharray:5.0,5.0;" x1="239" x2="239" y1="68.8906" y2="436.4844"/><line style="stroke:#2D74BA;stroke-width:0.5;stroke-dasharray:5.0,5.0;" x1="433" x2="433" y1="68.8906" y2="436.4844"/><line style="stroke:#2D74BA;stroke-width:0.5;stroke-dasharray:5.0,5.0;" x1="542" x2="542" y1="68.8906" y2="436.4844"/><line style="stroke:#2D74BA;stroke-width:0.5;stroke-dasharray:5.0,5.0;" x1="646" x2="646" y1="68.8906" y2="436.4844"/><rect fill="#1E2029" height="30.2969" rx="2.5" ry="2.5" style="stroke:#2D74BA;stroke-width:0.5;" width="138" x="5" y="37.5938"/><text fill="#AAAAAA" font-family="Arial" font-size="14" lengthAdjust="spacing" textLength="124" x="12" y="57.5889">Items Process (IP)</text><rect fill="#1E2029" height="30.2969" rx="2.5" ry="2.5" style="stroke:#2D74BA;stroke-width:0.5;" width="138" x="5" y="435.4844"/><text fill="#AAAAAA" font-family="Arial" font-size="14" lengthAdjust="spacing" textLength="124" x="12" y="455.4795">Items Process (IP)</text><rect fill="#1E2029" height="30.2969" rx="2.5" ry="2.5" style="stroke:#2D74BA;stroke-width:0.5;" width="40" x="153" y="37.5938"/><text fill="#AAAAAA" font-family="Arial" font-size="14" lengthAdjust="spacing" textLength="26" x="160" y="57.5889">FZF</text><rect fill="#1E2029" height="30.2969" rx="2.5" ry="2.5" style="stroke:#2D74BA;stroke-width:0.5;" width="40" x="153" y="435.4844"/><text fill="#AAAAAA" font-family="Arial" font-size="14" lengthAdjust="spacing" textLength="26" x="160" y="455.4795">FZF</text><rect fill="#1E2029" height="62.8906" rx="2.5" ry="2.5" style="stroke:#2D74BA;stroke-width:0.5;" width="73" x="203" y="5"/><text fill="#AAAAAA" font-family="Arial" font-size="14" lengthAdjust="spacing" textLength="59" x="210" y="24.9951">STDOUT</text><text fill="#AAAAAA" font-family="Arial" font-size="14" lengthAdjust="spacing" textLength="38" x="220.5" y="41.292">items</text><text fill="#AAAAAA" font-family="Arial" font-size="14" lengthAdjust="spacing" textLength="35" x="222" y="57.5889">pane</text><rect fill="#1E2029" height="62.8906" rx="2.5" ry="2.5" style="stroke:#2D74BA;stroke-width:0.5;" width="73" x="203" y="435.4844"/><text fill="#AAAAAA" font-family="Arial" font-size="14" lengthAdjust="spacing" textLength="59" x="210" y="455.4795">STDOUT</text><text fill="#AAAAAA" font-family="Arial" font-size="14" lengthAdjust="spacing" textLength="38" x="220.5" y="471.7764">items</text><text fill="#AAAAAA" font-family="Arial" font-size="14" lengthAdjust="spacing" textLength="35" x="222" y="488.0732">pane</text><rect fill="#1E2029" height="30.2969" rx="2.5" ry="2.5" style="stroke:#2D74BA;stroke-width:0.5;" width="126" x="370" y="37.5938"/><text fill="#AAAAAA" font-family="Arial" font-size="14" lengthAdjust="spacing" textLength="112" x="377" y="57.5889">PreviewProc(PP)</text><rect fill="#1E2029" height="30.2969" rx="2.5" ry="2.5" style="stroke:#2D74BA;stroke-width:0.5;" width="126" x="370" y="435.4844"/><text fill="#AAAAAA" font-family="Arial" font-size="14" lengthAdjust="spacing" textLength="112" x="377" y="455.4795">PreviewProc(PP)</text><rect fill="#1E2029" height="62.8906" rx="2.5" ry="2.5" style="stroke:#2D74BA;stroke-width:0.5;" width="73" x="506" y="5"/><text fill="#AAAAAA" font-family="Arial" font-size="14" lengthAdjust="spacing" textLength="59" x="513" y="24.9951">STDOUT</text><text fill="#AAAAAA" font-family="Arial" font-size="14" lengthAdjust="spacing" textLength="53" x="516" y="41.292">preview</text><text fill="#AAAAAA" font-family="Arial" font-size="14" lengthAdjust="spacing" textLength="35" x="525" y="57.5889">pane</text><rect fill="#1E2029" height="62.8906" rx="2.5" ry="2.5" style="stroke:#2D74BA;stroke-width:0.5;" width="73" x="506" y="435.4844"/><text fill="#AAAAAA" font-family="Arial" font-size="14" lengthAdjust="spacing" textLength="59" x="513" y="455.4795">STDOUT</text><text fill="#AAAAAA" font-family="Arial" font-size="14" lengthAdjust="spacing" textLength="53" x="516" y="471.7764">preview</text><text fill="#AAAAAA" font-family="Arial" font-size="14" lengthAdjust="spacing" textLength="35" x="525" y="488.0732">pane</text><rect fill="#1E2029" height="62.8906" rx="2.5" ry="2.5" style="stroke:#2D74BA;stroke-width:0.5;" width="114" x="589" y="5"/><text fill="#AAAAAA" font-family="Arial" font-size="14" lengthAdjust="spacing" textLength="59" x="616.5" y="24.9951">STDOUT</text><text fill="#AAAAAA" font-family="Arial" font-size="14" lengthAdjust="spacing" textLength="100" x="596" y="41.292">preview status</text><text fill="#AAAAAA" font-family="Arial" font-size="14" lengthAdjust="spacing" textLength="59" x="616.5" y="57.5889">indicator</text><rect fill="#1E2029" height="62.8906" rx="2.5" ry="2.5" style="stroke:#2D74BA;stroke-width:0.5;" width="114" x="589" y="435.4844"/><text fill="#AAAAAA" font-family="Arial" font-size="14" lengthAdjust="spacing" textLength="59" x="616.5" y="455.4795">STDOUT</text><text fill="#AAAAAA" font-family="Arial" font-size="14" lengthAdjust="spacing" textLength="100" x="596" y="471.7764">preview status</text><text fill="#AAAAAA" font-family="Arial" font-size="14" lengthAdjust="spacing" textLength="59" x="616.5" y="488.0732">indicator</text><polygon fill="#00B2E2" points="161,96.0234,171,100.0234,161,104.0234,165,100.0234" style="stroke:#00B2E2;stroke-width:1.0;"/><line style="stroke:#00B2E2;stroke-width:1.0;" x1="74" x2="167" y1="100.0234" y2="100.0234"/><text fill="#AAAAAA" font-family="Arial" font-size="13" lengthAdjust="spacing" textLength="64" x="81" y="94.9575">first items</text><polygon fill="#00B2E2" points="227.5,125.1563,237.5,129.1563,227.5,133.1563,231.5,129.1563" style="stroke:#00B2E2;stroke-width:1.0;"/><line style="stroke:#00B2E2;stroke-width:1.0;" x1="173" x2="233.5" y1="129.1563" y2="129.1563"/><text fill="#AAAAAA" font-family="Arial" font-size="13" lengthAdjust="spacing" textLength="36" x="180" y="124.0903">items</text><polygon fill="#00B2E2" points="421,169.4219,431,173.4219,421,177.4219,425,173.4219" style="stroke:#00B2E2;stroke-width:1.0;"/><line style="stroke:#00B2E2;stroke-width:1.0;" x1="173" x2="427" y1="173.4219" y2="173.4219"/><text fill="#AAAAAA" font-family="Arial" font-size="13" lengthAdjust="spacing" textLength="30" x="180" y="153.2231">start</text><text fill="#AAAAAA" font-family="Arial" font-size="13" lengthAdjust="spacing" textLength="236" x="180" y="168.356">start args may contain selected item</text><polygon fill="#00B2E2" points="634,198.5547,644,202.5547,634,206.5547,638,202.5547" style="stroke:#00B2E2;stroke-width:1.0;"/><line style="stroke:#00B2E2;stroke-width:1.0;" x1="173" x2="640" y1="202.5547" y2="202.5547"/><text fill="#AAAAAA" font-family="Arial" font-size="13" lengthAdjust="spacing" textLength="72" x="180" y="197.4888">"Loading..."</text><path d="M134,215.5547 L134,240.5547 L472,240.5547 L472,225.5547 L462,215.5547 L134,215.5547 " fill="#1E2029" style="stroke:#2D74BA;stroke-width:0.5;"/><path d="M462,215.5547 L462,225.5547 L472,225.5547 L462,215.5547 " fill="#1E2029" style="stroke:#2D74BA;stroke-width:0.5;"/><text fill="#AAAAAA" font-family="Arial" font-size="13" lengthAdjust="spacing" textLength="230" x="183.5" y="232.6216">pause (PP produces first data chunk</text><polygon fill="#00B2E2" points="184,262.8203,174,266.8203,184,270.8203,180,266.8203" style="stroke:#00B2E2;stroke-width:1.0;"/><line style="stroke:#00B2E2;stroke-width:1.0;" x1="178" x2="432" y1="266.8203" y2="266.8203"/><text fill="#AAAAAA" font-family="Arial" font-size="13" lengthAdjust="spacing" textLength="200" x="190" y="261.7544">pp data chunk 1 (via PP.stdout)</text><polygon fill="#00B2E2" points="634,291.9531,644,295.9531,634,299.9531,638,295.9531" style="stroke:#00B2E2;stroke-width:1.0;"/><line style="stroke:#00B2E2;stroke-width:1.0;" x1="173" x2="640" y1="295.9531" y2="295.9531"/><text fill="#AAAAAA" font-family="Arial" font-size="13" lengthAdjust="spacing" textLength="53" x="180" y="290.8872">"Data..."</text><polygon fill="#00B2E2" points="530.5,321.0859,540.5,325.0859,530.5,329.0859,534.5,325.0859" style="stroke:#00B2E2;stroke-width:1.0;"/><line style="stroke:#00B2E2;stroke-width:1.0;" x1="173" x2="536.5" y1="325.0859" y2="325.0859"/><text fill="#AAAAAA" font-family="Arial" font-size="13" lengthAdjust="spacing" textLength="103" x="180" y="320.02">pp data chunk 1</text><path d="M134,338.0859 L134,363.0859 L472,363.0859 L472,348.0859 L462,338.0859 L134,338.0859 " fill="#1E2029" style="stroke:#2D74BA;stroke-width:0.5;"/><path d="M462,338.0859 L462,348.0859 L472,348.0859 L462,338.0859 " fill="#1E2029" style="stroke:#2D74BA;stroke-width:0.5;"/><text fill="#AAAAAA" font-family="Arial" font-size="13" lengthAdjust="spacing" textLength="257" x="170" y="355.1528">pause (PP produces second data chunk)</text><polygon fill="#00B2E2" points="184,385.3516,174,389.3516,184,393.3516,180,389.3516" style="stroke:#00B2E2;stroke-width:1.0;"/><line style="stroke:#00B2E2;stroke-width:1.0;" x1="178" x2="432" y1="389.3516" y2="389.3516"/><text fill="#AAAAAA" font-family="Arial" font-size="13" lengthAdjust="spacing" textLength="200" x="190" y="384.2856">pp data chunk 2 (via PP.stdout)</text><polygon fill="#00B2E2" points="530.5,414.4844,540.5,418.4844,530.5,422.4844,534.5,418.4844" style="stroke:#00B2E2;stroke-width:1.0;"/><line style="stroke:#00B2E2;stroke-width:1.0;" x1="173" x2="536.5" y1="418.4844" y2="418.4844"/><text fill="#AAAAAA" font-family="Arial" font-size="13" lengthAdjust="spacing" textLength="103" x="180" y="413.4185">pp data chunk 2</text><!--SRC=[xPTTRzem58Rl-HKMkscb5RM8RYeNbIWVArBLidxSJBqv90xr27PcEp3-_KwS0Ab8EKRQRgPKeYt9SuvFV1o_VirSo0GqB9XvWr2jX9on26B36sPxPmh1VAPLAiD0nKepgq4QlCMbBL437a4Qsv6IzXuMdFMqWBXqlwUrMlLTWa_dvzCsRrS75mW0b8C3AvR2hc-K3hakaFRWQ-UcLq4D12oK34bOQGAPuICIYBOYWe2WRhB90qsKtmTDrDoFmHWAKIcLHSKnnwbIaigb5ecIv1pqiMjQnOUX0LYOWk67gQ6qP9T78YQoZ5ICTma6Vn5fnj9oZSqbi3kEouIOydiLSegm1F4m_ScfXJR1LnLcd89e0fTr81AGrWFCLj9Xx7lAKsB8Htmsa3EgjK_yLyfbrfBVVk00TmHoCMpWRxZB9NxedOZm8ptBVUGHrtdT1t6B_ICHIsR1iPHT9xpd2_PzmQ4lEFO5xobGQNAzFgt48WQg6I-61n_iG5LIirMz0htWxVFsrG6vyGb0oQ4n9piqjf4UajpA3qaw2Q8f9qD-s2s7xFNpW3FTeh6ITdd06_toG7CD8y6jZf5aeMKav_ICfd9DepcdQoGs3fJSY8KVhCKostayOLIpmFBG4q-diGWysAqWasWXoYJdXDc3yddoGg19pdlUopBi1pif9j5SZabi9yaaMfPbRtWZpTu1kJmVYQjmxH-oLNNlY9so7n_YkpVcnm8Vp6UPbey7Hy3zO-3XCV3u6FZU1ywF32JuBApFujwS6pu0Aqu4s0czCRAToywNpcK5DDmcsaDS9mycSSHUXXBmiPt_1qQzTkgrKw-TUktKQwTUE_NQgTTElNRgVy-ft-ARfsCXvmLmvNwgW1SPkd_utf6lTlkrsw_TVktsQxV_NxdzPBTZiEROyeLXk1S7t1XsCfwSDXaO9f9tsEZ7ABiQlOzzUXuyl3o_If7bUCL19NV1Hedtu4JpfU2hR9IJIJ52KfqhoT5tsGwZpE1ZfZY-aA480FjQX9c6ICwkeowBX3QMkIeRqTarbjVTVKkwMG9jNwNxmq3F35l0cg7cM12I6HuxcN8XURpfikQTWb38MQlLQZOaRlrCBRbcqMU62HD83MVug2pHAannQeiQGZnSiE0jbVD6NbgIbAwn2tQo5C0cavQneKhjwMwux5ZYnd9Nahr8dnfmYU8njXHsMbb5kxgAlJ7RVm00]--></g></svg>