#define rotr_width 30
#define rotr_height 30
static char rotr_bits[] = {
   0x00, 0x00, 0x00, 0x00, 0x00, 0x00, 0x00, 0x00, 0x00, 0xc0, 0x0f, 0x00,
   0x00, 0xf8, 0x07, 0x00, 0x00, 0xff, 0x03, 0x00, 0x00, 0xf8, 0x03, 0x00,
   0x00, 0xfc, 0x03, 0x00, 0x00, 0xc6, 0x03, 0x00, 0x00, 0x83, 0x01, 0x00,
   0x80, 0x01, 0x01, 0x00, 0xc0, 0x00, 0x00, 0x00, 0x60, 0x00, 0x00, 0x00,
   0x60, 0x00, 0x00, 0x00, 0x60, 0x00, 0x00, 0x00, 0x30, 0x00, 0x00, 0x00,
   0x30, 0x00, 0x00, 0x00, 0x30, 0x00, 0x00, 0x00, 0x60, 0x00, 0x00, 0x00,
   0x60, 0x00, 0x00, 0x00, 0x60, 0x00, 0x00, 0x00, 0xc0, 0x00, 0x00, 0x00,
   0x80, 0x01, 0x00, 0x00, 0x00, 0x03, 0x00, 0x00, 0x00, 0x06, 0x00, 0x00,
   0x00, 0x1c, 0x00, 0x00, 0x00, 0x38, 0x00, 0x00, 0x00, 0xe0, 0x00, 0x00,
   0x00, 0x80, 0x00, 0x00, 0x00, 0x00, 0x00, 0x00, 0x00, 0x00, 0x00, 0x00};
