<svg width="580.0" height="400.0" viewBox="0 0 580.0 400.0" xmlns="http://www.w3.org/2000/svg" xmlns:xlink="http://www.w3.org/1999/xlink">
    <circle cx="50" cy="50" r="30.0" fill="lightgray" stroke="black" stroke-width="2.0" transform="translate(30,30)" />
    <circle cx="50" cy="50" r="35.0" fill="lightblue" stroke="navy" stroke-width="3.0" transform="translate(150,30)" />
    <circle cx="50" cy="50" r="40.0" fill="coral" fill-opacity="0.7" stroke="red" stroke-width="2.0" transform="translate(300,30)" />
    <circle cx="50" cy="50" r="45.0" fill="lightgreen" stroke="green" stroke-width="3.0" transform="translate(450,30)" />
    <circle cx="50" cy="50" r="30.0" fill="lightpink" stroke="deeppink" stroke-width="3.0" stroke-dasharray="10.0,5.0" transform="translate(30,150)" />
    <circle cx="50" cy="50" r="35.0" fill="none" stroke="purple" stroke-width="4.0" transform="translate(150,150)" />
    <circle cx="50" cy="50" r="36.0" fill="gold" stroke="orange" stroke-width="2.0" transform="translate(300,150)" />
    <circle cx="50" cy="50" r="15.0" fill="skyblue" stroke="blue" stroke-width="1.0" transform="translate(430,130)" />
    <circle cx="50" cy="50" r="15.0" fill="lightcyan" stroke="teal" stroke-width="1.0" transform="translate(470,130)" />
    <circle cx="50" cy="50" r="15.0" fill="lavender" stroke="indigo" stroke-width="1.0" transform="translate(450,170)" />
    <circle cx="50" cy="50" r="60.0" fill="yellow" fill-opacity="0.3" stroke="orange" stroke-width="1.0" transform="translate(100,270)" />
    <circle cx="50" cy="50" r="25.0" fill="lightsteelblue" stroke="steelblue" stroke-width="2.0" transform="translate(300,270)" />
    <circle cx="50" cy="50" r="25.0" fill="mistyrose" stroke="rosybrown" stroke-width="2.0" transform="translate(400,270)" />
</svg>
