#define rotl_width 30
#define rotl_height 30
static char rotl_bits[] = {
   0x00, 0x00, 0x00, 0x00, 0x00, 0x00, 0x00, 0x00, 0xf8, 0x01, 0x00, 0x00,
   0xf0, 0x0f, 0x00, 0x00, 0xe0, 0x7f, 0x00, 0x00, 0xe0, 0x0f, 0x00, 0x00,
   0xe0, 0x1f, 0x00, 0x00, 0xe0, 0x31, 0x00, 0x00, 0xc0, 0x60, 0x00, 0x00,
   0x40, 0xc0, 0x00, 0x00, 0x00, 0x80, 0x01, 0x00, 0x00, 0x00, 0x03, 0x00,
   0x00, 0x00, 0x03, 0x00, 0x00, 0x00, 0x03, 0x00, 0x00, 0x00, 0x06, 0x00,
   0x00, 0x00, 0x06, 0x00, 0x00, 0x00, 0x06, 0x00, 0x00, 0x00, 0x03, 0x00,
   0x00, 0x00, 0x03, 0x00, 0x00, 0x00, 0x03, 0x00, 0x00, 0x80, 0x01, 0x00,
   0x00, 0xc0, 0x00, 0x00, 0x00, 0x60, 0x00, 0x00, 0x00, 0x30, 0x00, 0x00,
   0x00, 0x1c, 0x00, 0x00, 0x00, 0x0e, 0x00, 0x00, 0x80, 0x03, 0x00, 0x00,
   0x80, 0x00, 0x00, 0x00, 0x00, 0x00, 0x00, 0x00, 0x00, 0x00, 0x00, 0x00};
