<svg width="64" height="96" viewBox="0 0 64 96" xmlns="http://www.w3.org/2000/svg">
  <!-- Multi-port valve on top -->
  <circle cx="32" cy="16" r="10" fill="#ccc" stroke="#000" stroke-width="2"/>
  <line x1="32" y1="6" x2="32" y2="10" stroke="#000" stroke-width="2"/>
  <line x1="32" y1="22" x2="32" y2="26" stroke="#000" stroke-width="2"/>
  <line x1="22" y1="16" x2="26" y2="16" stroke="#000" stroke-width="2"/>
  <line x1="38" y1="16" x2="42" y2="16" stroke="#000" stroke-width="2"/>
  <circle cx="32" cy="16" r="2" fill="#000"/>

  <!-- Syringe barrel -->
  <rect x="26" y="26" width="12" height="48" fill="#eee" stroke="#000" stroke-width="1.5"/>

  <!-- Plunger with internal grid -->
  <rect x="29" y="28" width="6" height="30" fill="#bbb" stroke="#000" stroke-width="1"/>

  <!-- Internal grid markings inside plunger -->
  <line x1="29" y1="34" x2="35" y2="34" stroke="#000" stroke-width="0.8"/>
  <line x1="29" y1="40" x2="35" y2="40" stroke="#000" stroke-width="0.8"/>
  <line x1="29" y1="46" x2="35" y2="46" stroke="#000" stroke-width="0.8"/>
  <line x1="29" y1="52" x2="35" y2="52" stroke="#000" stroke-width="0.8"/>
  <line x1="29" y1="58" x2="35" y2="58" stroke="#000" stroke-width="0.8"/>
  <line x1="29" y1="64" x2="35" y2="64" stroke="#000" stroke-width="0.8"/>

  <!-- Nozzle -->
  <rect x="30" y="74" width="4" height="8" fill="#666" stroke="#000" stroke-width="1"/>
</svg>
