<?xml version="1.0" encoding="UTF-8"?>
<svg id="Layer_1" xmlns="http://www.w3.org/2000/svg" version="1.1" viewBox="0 0 930 330">
  <!-- Generator: Adobe Illustrator 29.6.0, SVG Export Plug-In . SVG Version: 2.1.1 Build 207)  -->
  <defs>
    <style>
      .st0 {
        fill: #56af5b;
      }

      .st1 {
        fill: #429a8b;
      }

      .st2 {
        fill: #222831;
      }

      .st3 {
        fill: #369a8b;
      }

      .st4 {
        fill: #279d88;
      }

      .st5 {
        fill: #5ed1be;
      }

      .st6 {
        fill: #329584;
      }

      .st7 {
        fill: #6dbd73;
      }

      .st8 {
        fill: #4f9c90;
      }

      .st9 {
        fill: #cbf1ef;
      }

      .st10 {
        fill: #20242e;
      }

      .st11 {
        fill: #24282f;
      }

      .st12 {
        fill: #eaf5ef;
      }

      .st13 {
        fill: #6acaa0;
      }

      .st14 {
        fill: #dcf8f5;
      }

      .st15 {
        fill: #8ed592;
      }

      .st16 {
        fill: #289882;
      }

      .st17 {
        fill: #d6f6f3;
      }

      .st18 {
        fill: #484a50;
      }

      .st19 {
        fill: #3cab69;
      }

      .st20 {
        fill: #2a9c8a;
      }

      .st21 {
        fill: #4baa4d;
      }

      .st22 {
        fill: #46bcaf;
      }

      .st23 {
        fill: #38b27f;
      }

      .st24 {
        fill: #212328;
      }

      .st25 {
        fill: #252a31;
      }

      .st26 {
        fill: #459f93;
      }

      .st27 {
        fill: #27b09e;
      }
    </style>
  </defs>
  <path class="st11" d="M300,195c-1.3.6-3.7-1.3-3,2h3c0,16,1.8,38.4,0,53.6-.2,1.5-.1,2.6-1.6,3.4h-16.5v-87c3.2,1.1,15.4-2.1,16.9.1l.2,10.9c16.9-19.6,50.8-19.3,59.4,8s4.2,51.6,2.6,63.5c-.2,1.3-1.3,4.5-2.5,4.5h-15c-1.4-.9-1.4-2-1.6-3.4-1.8-15.8,3.5-45.1-1.5-58.5-4.8-13-23.4-13.9-33.4-6.5-2.8,2.1-5.9,9-7.1,9.4ZM298,250v-50h-1v50h1Z"/>
  <path class="st24" d="M137,191c-7-8.3-14-12.9-25.3-8.8-7,2.6-8.1,6-10.8,12s-1.8.8-1.9,1.5c-.3,1.8,1,4.5,1.1,6.8.2,10.6,1,24.9,0,35.1s-2,6.2-2.1,9,2,6.9-.5,7.4-11.4-2.7-15.4,0v-87s14.1-.6,14.1-.6l2.4,10.6c13.4-16.6,41.5-18.4,52,2,2.2,0,7.2-6.8,9.6-8.5,15.9-11.1,39.9-7.8,48.2,10.8s-1.4,3.3,1.8,4.2c.1.9-1,1.8-1.1,2.4-3.6-1.3-6.1-2.9-10.3-2-1,.2-1.2,1.9-1.4,2.8-.7,4-1.1,12.3-1.3,16.7-.5,12.3.5,24.8,0,37.1,2.6,3.5,7.3,12.3,9.3,3.6,4.8.2,1.5-2.6,1.7-6.7.3-9.9,3.6-20.7,2.1-31.1-.3-2.2-2.1-3.9-2.1-4.9s1.7-2.3,1.9-3.2c.2-1.3-1.8-2.2-1.7-3.6s1.5-4.9,1.8-6.7h1c0,1.4.8,4,1,6-1.7,1-1,3.8-1,5.5-.2,15.9-.9,33,1,48.5s0,1.4,0,2c-4.8.6-10.8-1.2-15,1-2.8-1.8-1.6-2.6-2-5,2.7-1.1,0-1.9,0-2,0-.6,0-1.4,0-2,.9-13.2,1.4-25.7,0-39s-.4-11.3-3.8-16.7-4.1-4.7-7.2-5.3v-2c-.7-.2-1.4.1-2,0-3.3-.7-6.6-1.2-10-1s-4.4.5-5.3,1-.6,1.9-.7,2c-3.6,2.6-5.1,3-8,7s-1.7,1-2.4,3.3.4,2.6.4,2.7c0,4,0,8,0,12h-2c-.9-9.4-3.2-8.4-5.9-14.6s-.2-9.8-6.9-6.7-2.6,2.6-3.2,4.3ZM89.1,178c-.6-1.6-.9-3.4-3.1-3l-2.1,5.4v63s3.1,1,3.1,1l-3,2.5c3.1-.6,4,3.4,7.4,2.8,5.7-1.1,3-17.7,3.6-22.3s1.8-4.1,2-6c.4-3.6.6-11.5.1-15s-2.4-1.8-3.4-3.7c-1.7-3.4,2.4-19.9,4.3-24.3-3.9-2.5-3.2,1.8-6,1.5v-3s-2.9,1-2.9,1Z"/>
  <path class="st25" d="M394,147c-.6,3,1.5,1.9,3.5,2s5.1,0,7.6,0c0,5.2,0,10.4,0,15.5s1,3.6.9,5c0,2.4-3,8.7-2.9,11.9s1.8.5,2,1.2c.4,1.7,1.7,10,2,12.3s-.1,6.9,0,10c-3-.6-1.9,1.5-2,3.5-.3,6.4-.7,16,0,22.1s.4,4.5,3,2.5c3.1,10.8,16.2,9.8,25,7l.4,14.1c-17.1,5-38.5,4.7-41.4-17.1h2s0-8.4,0-8.4l-2-.6c-.2-14.1-.3-28-1-42,4.8.7,5-5.8,6.1-8.9l3.9-2.1-4-.5,2-2.5c-4.1,2.9-8-3.4-10-4,4.5-3.7,0-18,3-20.6.6-.4,1.3-.3,2-.4ZM392.5,156v1c.6-.3.6-.7,0-1Z"/>
  <path class="st2" d="M255,167v86c-3.8.1-7.7-.1-11.5,0s-5.5,2.1-6.3-.6l.8-85.3h17Z"/>
  <path class="st14" d="M481,137c.1-.2-.2-1,.3-1.7,2.9-4.4,11.2-5,16.1-5.3,3.8-.2,20.5-.5,22.3,2.3s0,2.4.2,2.7c-6.8-1.2-13.5-3.4-20.5-3s-12.6,3.1-18.5,5c-.9,1.5-3.7,7.6-4,8s-1.4-.5-2.1.6c-3.6,5.8-2.8,16.8-2.9,23.4-.3,0-.7,0-1,0-5.3.1-10.7,0-16,0v11c4.8-1.3,10-1.3,15-1s1.3,0,2,0l.6,75h12.4s0-75,0-75c.6,0,1.3,0,2,0,8-.4,16,.4,24,0,.6,7.2-1.5,2.8-4.7,2.2s-4.9-.7-6.1,0l-2.9,4.8h-3.3s-1-4.6-1-4.6l-4-.3v70.4c-.3,1.2-4.8,5.6-6.1,6-3.2.9-5.2-1.2-8.3,1.4l-5.7-6.4v-68.9c.1,0-16.7-2.9-16.7-2.9-1.7-4.9-.6-8.9-.2-13.8l17-1v-16l2.1-.6c-2.7-4.8,1.8-5.7,4.6-8.7s-1-1.5,5.3-3.6Z"/>
  <path class="st8" d="M550,134h11.4s.6,2,.6,2c.2,23.6-.2,47.4,0,71s-.8,19.4,0,28,.8,2.1,1,3-.3,2.3.5,3.9c2.1,4.5,10.8,5.1,14.5,2.1,2.2.2,2.1.2,4,1v8.9c-9.9,2.6-19.3,4.8-27-2.9,2,.2,4.4-.4,6.3,0s.7,1.8,1.9,2.3c4.9,2,10.8.6,14.7-2.4l-.5-2c-2.9-1.9-6,.6-8.7,0s-.8-1.6-1.4-2c-1.2-.7-5.7-2.7-6-3.3-.5-1,.2-2.7-.5-3.5s-1.7-.1-1.7-.2v-102h-7v106h3s0,7,0,7c-4.4-4.4-5.4-8.2-6-14.5-1.5-17.1-1-42.1-1-59.5s0-6.7,0-10,1-.2,1-2.4c0-9.3-.9-20.5,0-29.6s0-.7,0-1h1Z"/>
  <path class="st10" d="M153,208c.2,2.3,0,4.7,0,7-2.3,2.7-.3,7.2-1,10.3s-1.8.3-2.1,2.1c-.6,4.3,1.1,12.5,0,15.9s-4.1,3.4-4.3,5.6l-2.6-.6c.7-2.5-2.8-4.8-2.9-5.1-.8-3.5.1-10.7,0-14.8s1-4-2-3.5c0-5.3,0-10.7,0-16,3,.6,1.9-1.5,2-3.5.1-3-.1-6.1,0-9.1l-.2-1.3c-.6-.4-1.4,0-1.9-.1s-.6-.8-1-1c.2-.9-.2-2.3,0-3,.6-1.7,1.5-3.4,3.2-4.3,6.6-3.2,5.2,2.7,6.9,6.7,2.7,6.2,5,5.2,5.9,14.6Z"/>
  <path class="st3" d="M844,167c0,.7,0,1.3,0,2l-26,84.5c-2.3,2.2-13,2.4-15.1,0-3.4-3.9-7.2-26.8-9.9-28.6l-2-6c0-.6.1-1.4,0-2-.2-1-.9-1.7-1-2-2.2-10.6-5.9-21.1-9-31.5-.4-1.4.6-1.8-2-1.5-2.4,14.5-10,28.5-12,43s0,.7,0,1c-2.9,4-5.4,10.3-7,15-3.4-3.4,1.9-6.2,2-6.7,1-4.4-.4-4.6,1.7-9.6,3.6-8.7,5.8-18.7,8.4-27.9.2-.8,1.7-.8,1.9-1.5,1.1-4.6-.7-8.4,2.6-13.2s3.2-3.2,3.9-3.1c5.4.9,3,7.1,3.6,9.4,3.2,11.5,8.8,24.2,12,35.9s1.8.6,2,1.4c1.3,5.6,1.9,10.3,3.1,15.8s3,9.2,4.7,9.5h11.1c1.2-1.9.6-4.5,1.2-6.2s3.5-7.4,3.9-8.5c3.2-10.8,4.1-20.9,8.1-30.5,2.9-7.1,4.8-16.2,7.2-23.9s4.2-11.6-.3-14.8c2.3,0,4.7,0,7,0Z"/>
  <path class="st21" d="M210,94l2.5,7-1.5-7c.9-.2,2.1-1.8,3-2l5,2c-.7,9.3,2,7,8,7s5.8,3.8,3,7c2.2-.8,4.3,1.8,5,2l-.5,5-3.5,2c-1.1,0-2-.6-3-1v-2s-2,0-2,0c-.1-.1-1.4,0-3-1s-1.6-3.1-5-2c-.6,3.6.8,5,4,6v7s-5.5,0-5.5,0l2.5,2v4l-5,3c-1.5-1.2-1.9-1.9-3-3l.6-5.1,3.4-1.5v-5.6c-3.1-3.1-5.6-3.2-9-.7-.1-.5-1.8-1.4-2-2-.7-1.9-1.2-4.1-2-6l6-1c-1.4-3.4,0-8.3-5-9-1.7-4.3,2.4-5.5,3-7,1.6-.2,3,1.8,4,2ZM216,101c-3.7-.8-1,4.9-3,7h3s0-7,0-7ZM217.5,108v1c.6-.3.6-.7,0-1Z"/>
  <path class="st3" d="M722,167c1.3,0,2.7,0,4,0,3.7,1.7,1.3,6.2,2,9.3s2.1.7,2.6,2.6c.7,2.7,2.2,6.8,2.4,7.8.7,3.1-.5,8,0,11.3l2-2c0,4.5-1.4,8.6,4,10,.2,1,.7,2.5,1,4,.8,4.1,2.6,11.4,3,15h-5s0,5,0,5h-2s-1-7-1-7l-2,1c0-.3,0-.7,0-1-.4-5.5.3-11.4,0-17l-4,4c-4.2-14.3-10.6-28.2-13-43,1.7-.3,4.1,0,6,0Z"/>
  <path class="st24" d="M394,147c2.4-.3,8,.3,10.6.9.8-2,1-2.2,3.4-1.9v21h25c-.6,4.4,1.6,10.5-1.5,14h-23.5l-1,14c-.3-2.3-1.6-10.6-2-12.3s-2-.6-2-1.2c-.2-3.2,2.8-9.5,2.9-11.9s-1-3.2-.9-5c0-5.2,0-10.4,0-15.5-2.5,0-5,0-7.6,0s-4,1-3.5-2Z"/>
  <path class="st17" d="M846,167c1,0,2,0,3,0,.9,4.2-3.3,6.6-4.5,10-5.6,15.4-7.6,29.1-12.5,44.3-.3.9-1.8.7-1.9,1.4-1.3,5.8,1.1,6.6-3.1,13.6s-2.8,10.4-4.8,16.4-2.7,2.4-2.8,4.4l-15.8,2c.2-3.9-4.6-4.1-5.3-5.3s.2-5-.2-7.1-6.4-11.4-6.9-13.4-2.1-10-2.1-11.8-.6-2.9,2-2.5c.2,1.5-.4,5.2.1,5.9s1.6,0,1.9,0c2.7,1.8,6.5,24.7,9.9,28.6s12.8,2.1,15.1,0l26-84.5c1.7.2,2.4-.3,2-2Z"/>
  <path class="st22" d="M236,20c2.1-2.9,3.2-6.1,7-7.6,2.9-.8,10.2,8.6,11.8,11.3s3.1,5.4,3.2,8.3l5.4-2c4.7,3.7,3.4,10.7,4.6,15s1.8.9,2,1.7c.6,2.6,0,5.4-3,5.3,0-.3,0-.7,0-1v-1l1-.5c-.2-.6-.6-.4-1-.5s-1.4,0-2,0v2h-3c2-6.6-3.3-5.8-4-10s-.1-2.3,0-3,1.5-.6,1-2c-1.8-.6-1.7.9-2,1-.7.3-1.8.2-2.5,1l-8.5,7c-.7-5.3.9-12.5,0-17.5s-1.9-2.2-2-2.5c-.2-.5.2-1.8-.5-2.9-1.6-2.3-4.9-3.7-7-1.1l-.5-1Z"/>
  <path class="st17" d="M631,166c.1,0-.3-1.4.2-1.8,3.8-2.8,24.6-3.1,30.3-2.3s10.9,4.5,13.2,5.4,13.4,12.8,13.8,13.7c.8,1.6,0,4.4.6,4.9.9.9,3.3-.4,4.8,5.7s3.1,12.2,3.1,12.9-1.9.1-2.1,2c-.7,7.1.3,18.8-.9,24.9s-4.1,3.6-4.8,4.3-.6,2.6-1.4,3.2-2.3,0-2.6.3c-.6.6.3,3.7-.3,5.3s-1.9,1.2-2.6,2,0,2.1-.5,2.4c-.6.5-2.5,0-3.8.8s-1,2.1-2.3,2.8c-5.3,3-7.9,2.5-13.1,3.7s-.7,1.6-1.5,1.9c-4.5,1.4-10.9,1.4-15.6,1s-5.3-.3-4.6-2.9c23.7-.2,43.5-5.5,50.3-31.2,10.1-38.1-21.8-71.9-60.3-57.8v-1Z"/>
  <path class="st27" d="M274,84c-1,0-2,0-3,0-.3-2.4-.3-7.3,2.6-7.9,5.2-.9,3.8,6,4.9,7.9s3.8,1.6,4.4,3.7l-.9,4.3c4.7.5,5.6,2.9,5,7.3l4,1.7c-1.4,5.8-4.5,9.5-6,15-4.2.1-3.8-.8-6-1,1.6-5.2-2.6-5.4-4-8v-5.9c.1,0,5-1.1,5-1.1-1.2-5.3-.7-6.5-5-10,.3-.3.7-3.1,1-4s1.5-.2,1-2c-1,0-2,0-3,0Z"/>
  <path class="st14" d="M555,251c7.7,7.7,17.1,5.5,26.9,2.9v-8.9c3.9,1.6,3.7,3.1,3.2,7.6s-1.5,1.3-2.4,2.7c-1.6,2.6,1.2,4.8-5.1,3.7s-2.5-1.6-3-1.6c-1.4,0-4,2-8.9,1.5s-10.4-3.8-12.4-4.8-2.4.3-3.1-.2-3-9.7-3.2-11.3c-1.6-17.5-.3-41.9,0-60.1s-.5-3.9,1-5.5c0,17.4-.5,42.4,1,59.5.6,6.4,1.5,10.1,6,14.5Z"/>
  <path class="st14" d="M563,136h3c-1.1,22.7,1.5,47,0,69.5-.2,2.8-2.5,1-4,1.5-.2-23.6.2-47.4,0-71h1Z"/>
  <path class="st23" d="M275,107c1.4,2.6,5.6,2.8,4,8-1.3-.1-4.1.9-5,2l-.7.4c0,.2.7.5.7.6,0,1.4-.4,5,.2,5.8,1.4,2.3,6.7,1.4,8.8.2-.8,3.1-4.1,5.9-6.5,8s-2.2.7-2.5,1l-4.1-2.6,1.1-5.4,1-.5c0-.6-.6-.4-1-.5-.5-.1-1.4.1-2,0s-1.3.3-1.8-.1l-1.2-4.9c3.7-2.8,5.3-2.2,5-7s.3-2.2-.2-2.8c-6.2-1.4-4-3.4-4.9-7.5s-2.7-.7-2-2.7c1.7-1.5,3.7-2.8,5-4,1.6,1,.6,3.5,1.5,5,1.4,2.3,2.6,3.4,4.5,7Z"/>
  <path class="st3" d="M786,166c.3,0,.7,0,1,0,2.4,10.2,6.4,20,9.5,30s3.8,11.4,5.5,17,.5,4.8,1.3,7.2c1.9,6.3,4.4,12.4,5.7,18.8-.4-.2-2.3.6-3.1-.6-1.3-1.8-.5-5.5-1.2-7.7s-5.2-6.7-5.4-7.7c-.9-4.5-.4-12.3-1.4-16.4s-7.2-16.3-8.9-21.4-3-6.6-3-7c-.4-2,.4-9.9,0-10.3-7.8-2.1-12.5,4.9-14,11.6-3.1,13.9-9,26.8-12.5,40.5-.4,1.7,0,3.5-2.5,3v-2c.6-2,1.1-4.1,2-6s1-.4,0-1c.7-3.2,2-5.5,2-9l1-2c1.7-3.3,1.4-5.7,2-9,.3-.3.7-.6,1-1,1.7-2.3,1.7-3.3,2-6,2-1.5,1.4-4.3,2-6,1.6-4.4,4.4-8.8,5.2-13.8,1.6-1.7,9.2-1.4,11.8-1.2Z"/>
  <path class="st24" d="M389,168c1.9.6,5.9,6.9,10,4l-2,2.5,4,.5-3.9,2.1c-1.1,3.1-1.3,9.6-6.1,8.9,0-.7,0-1.3,0-2s2.8-3.2-.6-5c-.6-.2-1.3,1-1.4,1-1.8,0-12.9.4-13-.6v-11.4c3.4.7,10.3-.9,13,0ZM395,179h-2v1h2v-1Z"/>
  <path class="st5" d="M276,69c1.9-4.6,5.5.4,8.3,0l1.7-2.1c.4,1.5.9,3,1.1,4.6.3.6-.2.8-.4,1.2s-1.3.2-1.4.5c-.6.9,2.2,5.6,3.2.7l2.6,1.7c-1.3,5.5.4,11.6-3,16.9l4-.5c.6,3.4-.3,5.9-1,9l-4-1.7c.6-4.5-.3-6.8-5-7.3l.9-4.3c-.6-2.1-3.7-2.5-4.4-3.7-1-1.8.3-8.8-4.9-7.9s-2.9,5.4-2.6,7.9c1,0,2,0,3,0v1c-3.4,1.7-4.8,6.4-9,6,.9-6.3-2.6-4.6-4-9,1.5-1.3,8.9-8,9.6-8.9,1.3-1.8,1.8-2.8,1.4-5.1.5,0,1.8.9,3,1v6.9c.1,0,6.9,0,6.9,0v-6.9c-1.8-.1-3.9.2-5.9,0Z"/>
  <path class="st17" d="M716,167c2.4,14.8,8.8,28.7,13,43s.9,9.5,4,13c0,.3,0,.7,0,1,.3,3.6,1.6,6.9,2,11s0,1.3,0,2c-3.6.6-1.2-2.8-2.3-4.8-3.5-6.7-2.3-11.2-4.8-16.5-4.2-8.8-9.9-21.7-11.9-30.4s.6-6.1,0-8.6-1.6-.6-1.9-1.4c-1-3.5-2.2-7.6,1.9-8.2Z"/>
  <path class="st17" d="M605,205c.3,9-.3,25.3,7.2,31.8.3.2.7-.8.8-.8.6.4.6.6,1,1-1.5,1.8-.6,2.5.3,4.1,4.6,8.2,16.2,12.3,24.7,14.9-.1,0-.6.9-1.5.9-1.8,0-8.4-.6-9.9-.9s-.7-1.5-1.5-1.9c-4.4-2-17-9.7-18.7-14.1s-.2-3.6-.6-5.3-1.6-.6-1.9-1.5c-.8-2.4-.8-5.8,0-8.2l-3.1-.5c.4-5.6-.4-11.5,0-17s-.5-2.6,3-2.5Z"/>
  <path class="st9" d="M767,225c2.1-14.5,9.6-28.5,12-43,2.6-.3,1.6,0,2,1.5,3.1,10.4,6.7,20.9,9,31.5h-2c-.6-1.6-1.3-3.1-1.8-4.7s-1.6-8.4-2.8-10.3-2.2-.7-2.5-1.7c-.5-2.1,1.6-6.1-2-5.3.5,1.5-.4,2-.8,2.9-.7,1.6-3.8,9.7-4.2,11.7-1,5.2,0,15.9-7,17.5Z"/>
  <path class="st3" d="M835,167c1.1,3.6-2.5,5-3,7.5-1.3,7.1-2.1,13.2-5.1,20.7s-3.2,12-5,19-1.1,6.6-1.9,10.1-3.8,7.7-4.5,9.6-.2,3.3-.6,5c-.8.5-2.4-.1-2.8,0,4.1-16,8.7-32,13-48s4.5-15.9,6-24c.3,0,.7,0,1,0,1,0,2,0,3,0Z"/>
  <path class="st7" d="M217,54l.9,5.6c2.6,3.4,8.4-.1,7.1-4.6.2.1,1.2-.3,1.7.2,1,1,0,3.1,3.3,4.8,0,1-.9,2.2-1,3-9.6-7.3-10.1,11.2,0,4,0,.3.1.8,0,1-.6,1.3-4.4,2.3-3,6-1.4-1.1-8-5.9-9-5,0,1-.1,2,0,3,.3,2.4,1.4,3.8,4,4,.3.3.7.7,1,1-1.8.5-2.2,2.3-2,4-.9-1-6.4-2.2-6-6s2.2-2.6.6-5.1l-5.6-.9,2.1-2.4v-4.6c-.7,0-1.4,0-2.1,0-.7-1.7.8-3.1,1-4,2.4,7.2,6.1-.6,5-5,1-.4,1.9,1,2,1Z"/>
  <path class="st9" d="M812,239c-.2,0,.6,3-2.5,2s-.4-2-.5-2c-1.4-6.4-3.8-12.5-5.7-18.8s-.7-5.3-1.3-7.2h1c.6,3.3,3.2,12.6,6.8,12.2.3,3,0,3.1,3.2,2.8.4-.4-.4-6.6,0-8.3.7-2.9,6.3-12.3,7-15.4s0-8.2,1-11.6l3-1.7h1c-4.3,16-8.9,32-13,48Z"/>
  <path class="st1" d="M641,256c-.7,0-1.3,0-2,0-8.5-2.5-20-6.7-24.7-14.9s-1.8-2.3-.3-4.1c2,2.2,1.4,4.3,4.8,4.2l.3,2.6c6.6,1.9,9.4,5.4,16.2,7.2s.7,1.8,1.4,2c8.4,1.9,18.1.3,26.3-2s9.6-3,11.3-4,0-2.9,1.2-3.1h4.4s1-7.9,1-7.9l2.4.8c.6-1,3.3-2.9,3.5-3.6,1.3-3.2,5.8-25.4,4.6-27.3s-2.2-.6-2.5-1.7c-.6-2.5.5-6.8,0-9.6l-3.9-1.8c1.5-3.8-3-7.1-3.1-7.6-2.1-8.6-2.8-3.7-6.3-8.3s-.6-2.7-.8-2.8c-.7-.6-2.9.1-4.2-.2s-.6-1.8-1.4-2c-3-.7-6.9-.2-10.3-2l1-3h-20.6c0,0-1.4,2-1.4,2-9.2-.2-6.7,5.9-17,6v-1h2.9c0,0,0-2,0-2,1.8-1.3,5-4.3,7-5,38.5-14.1,70.4,19.7,60.3,57.8-6.8,25.7-26.6,31-50.3,31.2Z"/>
  <path class="st24" d="M153,215c.5,12.3-.4,24.7,0,37h-15c1-7.4,0-19,0-27,3-.6,1.9,1.5,2,3.5.1,4.2-.8,11.3,0,14.8s3.6,2.7,2.9,5.1l2.6.6c.3-2.2,4.1-5,4.3-5.6,1.2-3.5-.5-11.7,0-15.9s1.9-1.3,2.1-2.1c.7-3.1-1.3-7.6,1-10.3Z"/>
  <path class="st13" d="M271,124v1l-1.1,5.4,4.1,2.6c-8.3,6.8-10.8,9.2-22,11,.5-3.4-2-4.6-5-5,0-2.4,0-4.9,0-7.3.3-1.1,2.2-1.1,3-1.7l5.6,1.9,1.9,6.1c5.2,4.3,9.3-.1,6.5-6,4.6.1,5.5-3,5-7v-1c.6.1,1.5-.1,2,0Z"/>
  <path class="st17" d="M729,167c1.3,0,2.6-.1,4,0,.9.9,2.4,15.5,3.1,18.2s3.1,6.9,3.8,8.5c4.1,8.6,2,9.7,3,17.8.2,1.9,1.9,1.3,2.1,2.1.4,1.8-.4,8.9,0,9.3,4.2-1,4.3,3.6,8.9,1.9,1.7-3.4.4-8.1,1.1-11.2s1.8-.6,2-1.4c.5-2.1-.3-5,0-7.3h4c0,3.5-1.3,5.8-2,9v1c-.9,1.9-1.4,4-2,6-.9,2.9-1.3,5.6-2,8s0,.7,0,1-.7.8-1,2c-.6,2.3-1.3,4.8-2,7s-.9,1.9-1,3c-1.2.5-1.7-.9-2-1-2.4-10.4-4.6-21.3-9-31-.3-1.5-.8-3-1-4-2.4-13.2-7.2-25.9-10-39Z"/>
  <path class="st8" d="M492,142c.5,0,3.4,1,4,1l-5.8,3.2c-.4.5-.2,1.2-.2,1.8s0,.7,0,1c-5.7-.4-5.8,19.2-5,20h28s0,10,0,10c-.6,0-1.3,0-2,0-8,.4-16-.4-24,0-.1-.9.2-2.2,0-3h23v-4h-24s-1,0-1,0l-1-25h3.8c0-.1,2.2-5,2.2-5,.7,0,1.3,0,2,0Z"/>
  <path class="st8" d="M520,135c.7,1.3,1.9,3.8,2,4l-2,8c-.5.2-1.4,0-2,0-1.8-1.5-7.8-3.7-10-4,1.7-1.8,5.5-.9,8-1s1.3,0,2,0c0-1.1.2-2.4,0-3.5-1.1-5.2-17.3-3.8-22-3.5s-5.3.2-7.9,1.2c-.4.4,0,1.3-.1,1.8-1.3,0-2.7,0-4,0l.8,1.8c-2.9,1-4.3,2.8-6.1,4.9s-1.6.2-1.7.3c-.3.3-.6,4.9-1.1,6.2s-1.8.4-2,2.2c-.3,2.6.7,14.8,0,15.6-.7,0-1.3,0-2,0,.1-6.6-.7-17.6,2.9-23.4s2-.5,2.1-.6c.3-.4,3.1-6.5,4-8,5.8-2,12.3-4.7,18.5-5s13.7,1.9,20.5,3Z"/>
  <path class="st17" d="M787,166c4.3.6,4.8,3.3,6.3,7.2,2.9,7.6,2.4,14.9,4.9,22s3.3,9.2,4.7,17.8h-1c-1.7-5.6-3.7-11.3-5.5-17-3.1-10-7.2-19.8-9.5-30Z"/>
  <path class="st15" d="M234,61c2,1.2,3.2,5.2,7.1,5.6,1.5,3.7.8,7.6.9,11.4l-2,1c-.2-.3-5.9-2.8-7-3,.4-4.1.4-6.8-4-8,.1-.2,0-.7,0-1,.2-1.1-.2-2.8,0-4s1.1-2,1-3c1,.5,3.2.5,4,1Z"/>
  <path class="st19" d="M269,125c.5,4-.4,7.1-5,7,2.8,5.9-1.3,10.2-6.5,6l-1.9-6.1-5.6-1.9c2.9-2.2,7.9-4.2,9-5v6.5s2.5.5,2.5.5l.6-6.9h6.9Z"/>
  <path class="st13" d="M264,99c-.7,2,1.8,1.8,2,2.7.9,4.1-1.4,6.1,4.9,7.5.5.7.1,2,.2,2.8-4.8,0-7.8,4.4-11.5,7s-2.1.7-2.5,1c.2-.9-.3-2.4,0-3,.4-.9,2.4-1.4,2.8-2.7,1.4-3.9.3-6.1-3.8-6.3.2-.3-.1-1.4,0-2,2.7-2.3,5.3-4.7,8-7Z"/>
  <path class="st27" d="M262,68v-7s6.9.1,6.9.1l1.1,4.9,1.1-3.8,5.9-.7.9,3.6c1.9.5,1.7-.9,2-1,1-.5,4.3-2.6,5-2,0,1.7.6,3.4,1,5l-1.7,2.1c-2.8.3-6.4-4.7-8.3,0-.3,0-.7,0-1,0-1.2-.1-2.5-1-3-1-1.5,0-1.4-.2-3,0s-3.3,1.1-5,1c-.6-.4-.8-1.3-2-1Z"/>
  <path class="st15" d="M237,128c.8,1.7,2,2.9,4,3,.3.6.9.9,1,2-2,1.1-.4,4.3-1.2,5.8s-6.2,1.3-4.8,5.2c-7.3-1.2-7.1-1.8-13-5l6,.6c3-1.5,1.5-4.8,2-6.6s5.7-1.4,4-6c.4.2,1.4.7,2,1Z"/>
  <path class="st8" d="M612,185c.2,6.2-1.3,4.8-1.9,6.7-2.7,7.8-4,13.6-3.1,22.8s2.4,10.2,3.1,12.9,2.9,5.4,2.9,8.6c0,0-.5,1-.8.8-7.5-6.5-6.9-22.8-7.2-31.8s0-2,0-3l5-16c.7-.2,1.3-.7,2-1Z"/>
  <path class="st18" d="M155,208c-.1,15.3,0,30.7,0,46h-18c-.4-1.3,1-1.9,1-2h15c-.4-12.3.5-24.7,0-37s.2-4.7,0-7h2Z"/>
  <path class="st14" d="M490,149c.1,1.2,2.9,2.1-1,3.7v13.9c6.1,1.3,18-1,23.3.4s.5,1.9.7,2,1.4-.5,2,.7c1.1,2.7.8,6.4-.1,9.1-.6.4-1.3,0-1.8.1v-10h-28c-.8-.8-.7-20.4,5-20Z"/>
  <path class="st19" d="M242,53v10c-.7.8-5.2-3.3-6-4-2-1.9-3.1-3.1-4-6s-1.2-3.8-1.1-5.5,1.6-1.8,2.1-2.5c8.2-.8,3.8,7.2,9,8Z"/>
  <path class="st23" d="M261,82c1.4,4.4,4.9,2.7,4,9s-2.9,4.1-5,6c-.3-6.5-2.8-4-6-4s-3.4,0-4-2c4-3.8,7.4-5.9,11-9Z"/>
  <path class="st0" d="M210,58c1.2-5.5,2.1-10.7,4-16,3.4-.9,2.9,2.5,6,3,0,1-.1,2.1,0,3,.3,1.9,1.1,3.4,2,5-1.7-.2-3.6,1-5,1s-1-1.4-2-1c1.1,4.4-2.6,12.2-5,5Z"/>
  <path class="st7" d="M222,37l2.9.2c-.6,3.2,2,2.7,2.1,2.8,1.1,1.5.2,7.3,6,4-.2.2.2.8,0,1-.5.7-2,.6-2.1,2.5s.6,3.9,1.1,5.5c-4.9-.3-7.2-5.8-12-5-.1-.9,0-2,0-3,0-4.6,1.1-4.9,2-8Z"/>
  <path class="st0" d="M219,126c5.5-4.1,11,.3,6,6l6,1c-.5,1.7.9,5.1-2,6.6l-6-.6c-.4-.2-.7-.8-1-1v-1c2.1-1.7.6-2.6,0-4s-.1-1.8-3-3v-4Z"/>
  <path class="st18" d="M211,250c-1.9-15.5-1.2-32.6-1-48.5s-.6-4.5,1-5.5c1.6,15.7,1.4,32.6,1,48.5s.5,3.9-1,5.5Z"/>
  <path class="st5" d="M279,115c2.2.2,1.8,1.1,6,1s1.5-.2,2,.5l.9,1.9c-1.5,2.1-2.5,4.2-4.9,5.6s-7.4,2.1-8.8-.2-.2-4.4-.2-5.8v-1c.9-1.1,3.7-2.1,5-2Z"/>
  <path class="st5" d="M268,45l6-2c0,1.1.6,2,1,3-7-3.2-4.4,10.4,2,6,.4,1.1,2.7,2,2,4h-3c-2.6-3.8-5.4-2.8-9-2,1.4,11.9,3.3,5.1,9,4s2.7.1,4,0v6c-.3.1-.1,1.5-2,1l-.9-3.6-5.9.7-1.1,3.8-1.1-4.9h-6.9c0-.1,0,6.9,0,6.9-1.6-.2-2.9,1.7-4,2s-.7,0-1,0c-1.7-.3-4.1-2.5-6-3,3-2.9,6.8-5.1,9-8.5l3,.5,1.2-4.9c.6-.5,2.1,0,2.8-.1,0-.6,0-1.3,0-2,3,.2,3.6-2.6,3-5.3s-1.9-1.4-2-1.7Z"/>
  <path class="st13" d="M249,69v6.9c5.1,2.5,9.1,0,8-5.9.3,0,.8,0,1,0v6s3,0,3,0l-14,11v-15.5c-.2-1.7,1.6-1.9,2-2.5Z"/>
  <path class="st14" d="M631,166v1c-2,.7-5.2,3.7-7,5s-2.8,0-3,2v1c-.6,0-1.5-.1-2,0-1.8.5-5,6.6-7,8,0-.1-.9-.6-.9-1.4,0-1.7,1.3-3.6.9-5.6,1.5-.3,3.1-.4,3-2.5-3.4-1.4-3.3-3-3-6.5l3.1,3.8c3.8,1.7,4.4-1.2,5.7-1.8,1.9-.8,9.8-2.7,10.2-3.1Z"/>
  <path class="st7" d="M225,119c.3.3,0,1.5,1,2.5s3,1,4,1.5c2.6,1.4,3.8,3.3,5,4,1.7,4.6-3.6,4.8-4,6l-6-1c5-5.7-.5-10.1-6-6l-2.5-2h5.5s0-7,0-7h1c.4.7,1.5,1.3,2,2Z"/>
  <path class="st15" d="M206,117c3.5-2.5,6-2.4,9,.7v5.6s-3.4,1.5-3.4,1.5l-.6,5.1c-3.2-3.2-3.1-2.7-6-7,1.4-.7,1.3-4.7,1-6Z"/>
  <path class="st9" d="M738,242c1.2,4,2.5,8.1,3.6,12.1l15.4.9c-2.1,6.6-13-.4-18.1.6-3.8-6.6-3.3-11.6-3.9-18.6s0-1.3,0-2c2.9,1.2,2.3,4.7,3,7Z"/>
  <path class="st9" d="M767,226c-1,7.8-3.6,12.6-5,18.7-.8,3.6,1.7,9.3-5,9.3.2-.9-.2-2.2,0-3,.8-3.1,2-6,3-9s-.1-.7,0-1c1.6-4.7,4.1-11,7-15Z"/>
  <path class="st26" d="M728,167c.3,0,.7,0,1,0,2.8,13.1,7.6,25.8,10,39-5.4-1.4-3.9-5.5-4-10l-2,2c-.5-3.4.7-8.2,0-11.3s-1.7-5.1-2.4-7.8-2.4-1.8-2.6-2.6c-.7-3.2,1.7-7.6-2-9.3.7,0,1.3,0,2,0Z"/>
  <path class="st17" d="M767,181c0-1.7,0-3.3,0-5l2,2,1-10.5c2.5-2.5,5.6-2.6,8.2-3.6s.4-1.7,2.2-2c4.1-.7,6.6-.6,5.6,4.1-2.6-.2-10.2-.4-11.8,1.2-.9,5-3.6,9.4-5.2,13.8h-2Z"/>
  <path class="st0" d="M209,62c.6,0,1.3,0,2,0v4.6c0,0-2,2.4-2,2.4l5.6.9c1.6,2.4-.5,4.2-.6,5.1-.6,0-1.4-.1-2,0-1,.2-1.6.9-2,1-.9.2-2.3-.2-3,0,2.1-3.7,1.2-5.6-1.7-7.9h-1.3c.3-1.9-.6-4.3.5-6.1l1-1c2,2.9,2.8,1.1,3.5,1Z"/>
  <path class="st5" d="M275,90c4.4,3.5,3.8,4.7,5,10l-4.9,1.1v5.9c-2.1-3.6-3.2-4.7-4.6-7s0-4-1.5-5c1.4-1.3,5.7-4.7,6-5Z"/>
  <path class="st22" d="M242,29c-.2,1.9.4,9.7,0,10-3.6.9-3.2-2.2-5.5-4s-3.4-1.3-4.5-2-.7-.8-1-1c-1.4-4.4,1.9-5.9,3-8l2.6,5c1.8,1.2,3.5.7,5.4,0Z"/>
  <path class="st7" d="M254,93c-1.4,2.6-2.1,5.7,1,7-.1.1-.2,2-1.4,3s-6,4.7-6.5,4v-14.3c.2-1.2,2.3-1,3-1.7.6,2,2.1,2,4,2Z"/>
  <path class="st8" d="M740,242c-.6,2.8,2.4,1.7,2.9,2.1s-.8,6.8,2.3,8.8c3.8-1.8,5.7-1.9,9.9-1.9s1.3,0,2,0c-.2.8.2,2.1,0,3s0,.7,0,1l-15.4-.9c-1.1-4-2.4-8.1-3.6-12.1h2Z"/>
  <path class="st12" d="M232,53c.9,2.9,2,4.1,4,6h-2s0,2,0,2c-.8-.5-3-.5-4-1-3.3-1.7-2.3-3.7-3.3-4.8s-1.5-.1-1.7-.2c-.9-.6-1.7-1.9-3-2-.9-1.6-1.7-3.1-2-5,4.8-.8,7.1,4.7,12,5Z"/>
  <path class="st18" d="M194,244c-1.5-1.5-1-3.6-1-5.5-.2-9.3-.2-18.8,0-28.1s-.5-3.9,1-5.5c1.4,13.3.9,25.8,0,39Z"/>
  <path class="st14" d="M503,143c1,.1,2-.1,3,0s1.4,0,2,0c2.2.3,8.2,2.5,10,4-3.4.5-7.6.9-11.3,0s0-2.1-3.1-2.1c-6,0-8,3.9-13.6,3.1,0-.6-.2-1.3.2-1.8l5.8-3.2c2.3,0,4.8-.3,7,0Z"/>
  <path class="st15" d="M253,115c.8,0,2.5,2.2,4,2-.3.6.2,2.1,0,3-2.2,1.6-5,3.4-7,5h-3c.1-3.1-.4-4.4,0-8,2.3.6,4.2-2.2,6-2Z"/>
  <path class="st7" d="M204,68h1.3c2.9,2.4,3.8,4.3,1.7,8-5.6,2-5.7,8.7-1,9v1c-2.3-.6-3.6-2.3-6-1-.5-3.2-1.7-6.3-1-10h4c-.8-2.6.7-4.9,1-7Z"/>
  <path class="st5" d="M244,25c-.5.9-1.9,3.3-2,4-1.9.7-3.6,1.1-5.4,0l-2.6-5c.8-1.4.3-1.6,2-4l.5,1c2.1-2.6,5.4-1.2,7,1.1s.3,2.5.5,2.9Z"/>
  <path class="st14" d="M549,135c-.9,9,0,20.2,0,29.6s-1,2.3-1,2.4c-2.1-6.6-.6-14.5-1-21.5-.2-3.9-4.6-11.1,2-10.5Z"/>
  <path class="st15" d="M223,92c1.4,1.5,4.8,1,5,5s-.9,2.8-1,4c-6,0-8.7,2.3-8-7v-1c1.1,0,2.8-.9,4-1Z"/>
  <path class="st7" d="M230,98c2.4,1.8,7,5.4,9.1,7.5s.7,2.2.9,2.5c-1,.4-2.1,1.8-3,2s-1.6.1-2,0c-.7-.2-2.8-2.8-5-2,2.8-3.2,1.7-7-3-7,.1-1.2,1.1-2.9,1-4h1l1,1Z"/>
  <path class="st7" d="M234,87c.1,1.2,1.1,2.9,1,4s-.9,1.4-1,2l-4-1c-2.4-2.4-4.7-4.5-7-7,3.1.4,4.4-1,4-4,2.3,2,4.6,4.1,7,6Z"/>
  <path class="st15" d="M231,32c.3.2.6.8,1,1v3c-1.3.2-3.1,1.4-5,1.1v2.9c-.2-.2-2.7.4-2.2-2.8l-2.9-.2c.6-2.3.5-5.5,2.1-7.9,1.2-.8,5.2,2.1,6.9,2.9Z"/>
  <path class="st23" d="M257,70c1.1,5.8-2.9,8.3-7.9,5.9v-6.9c.6-.9,1.1-1.3,1.9-2,1.9.5,4.3,2.7,6,3Z"/>
  <path class="st15" d="M203,99c4.9.7,3.6,5.6,5,9l-6,1c-1.5-3.9-2.1-4.1-3-9,1.2-.1,3-1.1,4-1Z"/>
  <path class="st0" d="M238,91c1.2.3,3.4,1.4,3.8,2.7v9.3c-2.9-1.9-5.2-4.7-7.8-7,.1-1-.2-2.1,0-3s1-1.5,1-2c.9.1,2.2-.2,3,0Z"/>
  <path class="st21" d="M240,108c0,.1,1.7-.5,2,.6.4,1.7,0,5.2,0,7.4h-4s1,8,1,8c-4.3-2.1-1.6-1-4-3l2-11c.9-.2,2-1.6,3-2Z"/>
  <path class="st24" d="M407,205c.3,8.5-1.2,20.2,1,28-2.6,2-2.9-.7-3-2.5-.6-6.1-.2-15.7,0-22.1s-1-4,2-3.5Z"/>
  <path class="st17" d="M767,186c0,.3,0,.7,0,1-.3,2.7-.3,3.7-2,6-.5.1-.9.5-1,1-.6,3.3-.3,5.7-2,9h-1c0-.9-1.4-2.7-1.1-5.6s1.9-1.3,2.1-2.1c.8-3.6-1.5-10.9,5-9.3Z"/>
  <path class="st14" d="M831,167c-1.5,8.1-3.9,16.1-6,24h-1c.3-7.8,3.6-14.6,3-22.3.3-1,3-1.5,4-1.7Z"/>
  <path class="st0" d="M233,76c1.1.2,6.8,2.7,7,3s.3,4,1,5l-.8.8-.7-1.9-2.5,1.1c-3-2.5-6-5.4-9-8,1.6.2,3.5-.3,5,0Z"/>
  <path class="st9" d="M832,167c-.4-6.1,8.1-5,12-5,0,1.7,0,3.3,0,5,.7,0,1.3,0,2,0,.4,1.7-.3,2.2-2,2,0-.7,0-1.3,0-2-2.3,0-4.7,0-7,0s-1.3,0-2,0c-1,0-2,0-3,0Z"/>
  <path class="st19" d="M232,36c3.1-.4,1.7,1.6,2,2v5c-.3.2-.7.7-1,1-5.8,3.3-4.9-2.5-6-4v-2.9c1.9.3,3.7-.9,5-1.1Z"/>
  <path class="st27" d="M255,53c-1.9-3.9-1.5-8.7,3.4-9.1s4,6.2,2.4,7.9c-1.8,1.1-3.9.9-5.9,1.1.5,1,1,1.6,2,2-.3.2-2.5,3.5-4,5l-3.4.9-1.1-.9-.5-6c1.2.5,2.6-1,3-1,1.3-.1,2.7.2,4,0Z"/>
  <path class="st22" d="M276,56c.2.3-.1,1.4,0,2-5.7,1.1-7.6,7.9-9-4,3.6-.8,6.4-1.8,9,2Z"/>
  <path class="st21" d="M233,76c-1.5-.3-3.4.2-5,0-.8-.7-1.5-1.6-2-2-1.4-3.7,2.4-4.7,3-6,4.4,1.2,4.4,3.9,4,8Z"/>
  <path class="st23" d="M262,68c1.2-.3,1.4.6,2,1s.9,1.8,2,2c-.8.8-2.3,4.3-5,5h-3s0-6,0-6c1.1-.3,2.4-2.2,4-2Z"/>
  <path class="st13" d="M239,42c.1.3-.3,1.2.2,1.8l2.8,1.2c.3,2.3,0,5.5,0,8-5.2-.8-.8-8.8-9-8,.2-.2-.2-.8,0-1,.3-.3.7-.8,1-1s1.6-.8,2-1c.9-.4,2.1-.3,3-1,.1.3-.1.7,0,1Z"/>
  <path class="st0" d="M227,81c.4,3-.9,4.4-4,4-1.5-1.6-2.5-3.5-3-4-.2-1.7.2-3.5,2-4,1,.9,3.4,2.6,5,4Z"/>
  <path class="st7" d="M219,130c2.9,1.2,2.2,1,3,3v5c-3.6-2.1-4-1.8-8-5l5-3Z"/>
  <path class="st7" d="M256,106c-.1.6.2,1.7,0,2-1.5,2-4.2,2.3-3,7-1.8-.2-3.7,2.6-6,2,.2-1.4-.5-3.6.2-4.8s5.3-4.4,6.3-5.3,2.2-.7,2.5-1Z"/>
  <path class="st19" d="M260,97c-1.9,1.7-4.1,2.3-5,3-3.1-1.3-2.4-4.4-1-7,3.2,0,5.7-2.5,6,4Z"/>
  <path class="st7" d="M206,91c0,.4,0,.8,0,1-.6,1.5-4.7,2.7-3,7-1-.1-2.8.9-4,1-.3-1.6-1.9-3.9-1-6.4.1-.4,2.4-1.4,3-1.6,1.3-.5,3.5-.3,5-1Z"/>
  <path class="st7" d="M266,119l1.2,4.9c.5.4,1.3,0,1.8.1v1h-6.9c0,.1-.6,7-.6,7l-2.5-.5v-6.5c1.6-1.3,4.3-4,7-6Z"/>
  <path class="st12" d="M248,54l.5,6,1.1.9,3.4-.9c-.2.2,0,1.5-1,2.4s-5.4,4.2-6,3.6c-.6-4.3.3-8.1,1-12h1Z"/>
  <path class="st17" d="M566,238c.3,3.2,1.5,3,2.6,6.1,3.1,0,6.3-.3,9.4,0-3.7,3-12.3,2.4-14.5-2.1s-.2-2.8-.5-3.9h3Z"/>
  <path class="st17" d="M610,186l-5,16c0-.2-1-1.9-1-4s.8-4.8,1-7l2-4c1.3-.5,1.9-.6,3-1Z"/>
  <path class="st0" d="M242,133c.5,3.7-.3,8.2,0,12-2.4.9-4.6-.8-6-1-1.4-3.9,4.1-3.9,4.8-5.2s-.8-4.7,1.2-5.8Z"/>
  <path class="st0" d="M206,86c-.1,1.6.2,3.4,0,5-1.5.7-3.7.5-5,1-.5-2.3-.6-4.7-1-7,2.4-1.3,3.7.4,6,1Z"/>
  <path class="st0" d="M218,86c2.1,2.2,3.6,4.5,5,6-1.2.1-2.9,1.1-4,1s-1.9-1-3-1v-6c.5.2,1.4-.1,2,0Z"/>
  <path class="st27" d="M275,46c.9,2.2,1.2,3.9,2,6-6.4,4.4-9-9.2-2-6Z"/>
  <path class="st5" d="M258,41c.7,4.2,6,3.4,4,10v1c-1.5,4.4-3.5,1.9-5,3-1-.4-1.5-1-2-2,2-.3,4,0,5.9-1.1,1.6-1.8-1.2-8-2.4-7.9-5,.3-5.3,5.1-3.4,9.1-1.3.2-2.7-.1-4,0l1-7c1.8-1.7,2.9-5,6-5Z"/>
  <path class="st0" d="M237,110l-2,11c-.7-.6-1.9-.8-3-2l-1-1v-1l3.5-2,.5-5c.4.1,1.6,0,2,0Z"/>
  <path class="st23" d="M251,53c-.4,0-1.8,1.5-3,1h-1c.3-1.4-.6-3.5.5-5,1.2-1.3,3.3-1.9,4.5-3l-1,7Z"/>
  <path class="st0" d="M242,116c0,3.3,0,6.7,0,10-2.1.8-2.4-1.7-3-2l-1-8h4Z"/>
  <path class="st18" d="M211,252c0,.7,0,1.3,0,2-4.4-.6-11.3,1.3-15-1,4.2-2.2,10.2-.4,15-1Z"/>
  <path class="st14" d="M561,132c-2.4,2-6.8.7-10,1-.5-6.6,6.8-2.9,10-1Z"/>
  <path class="st7" d="M206,117c.3,1.3.4,5.3-1,6-1.1-1.6-5.1-3.2-3.9-6.9l2.9-1.1c.2.6,1.9,1.5,2,2Z"/>
  <path class="st24" d="M138,195c.4.1,1.3-.3,1.9.1l.2,1.3c-.2,3,0,6.1,0,9.1s1,4-2,3.5v-14Z"/>
  <path class="st0" d="M252,144c-1.1.2-3,1.9-5,1,0-2,0-4,0-6,3,.4,5.5,1.6,5,5Z"/>
  <path class="st14" d="M522,139c.1.2,2,.1,2.6,1l-2.9,6.7c-.5.5-1.3.2-1.7.3l2-8Z"/>
  <path class="st7" d="M218,86c-.6-.1-1.5.2-2,0-2.2-.7-3-1.9-6-2-.2-1.7,1-3.6,1-5h1c1.9,2.4,3.9,4.8,6,7Z"/>
  <path class="st17" d="M722,167v-2.9c.1,0,5.5-1.2,5.5-1.2l.5,4c-.7,0-1.3,0-2,0-1.3,0-2.7,0-4,0Z"/>
  <path class="st12" d="M223,113h-2c-1,2.5,1.3,1.7,1.7,2.3s.2,1.6.3,1.7h-1c-3.2-1-4.6-2.4-4-6,3.4-1.1,3.8,1.3,5,2Z"/>
  <path class="st24" d="M392,228l2,.6v8.4s-2,0-2,0c-.5-3.9,0-5.6,0-9Z"/>
  <path class="st14" d="M564,233c.3-.3.1-1.5,2-1,.1,2-.2,4,0,6h-3c-.2-.9-.9-1.8-1-3h1l1-2Z"/>
  <path class="st9" d="M561,132c.3.2,1.5-.4,1.9.1v3.9c.1,0-.9,0-.9,0l-.6-2h-11.4s0-1,0-1c.3,0,.7,0,1,0,3.2-.3,7.6,1,10-1Z"/>
  <path class="st12" d="M242,78c.1,2.7.9,1.6,0,6h-1c-.7-1-.7-4.6-1-5l2-1Z"/>
  <path class="st15" d="M237,84l2.5-1.1.7,1.9.8-.8h1c-.2,1.2.2,2.7,0,4h-1.5c-.9-1.5-2.2-2.9-3.5-4Z"/>
  <path class="st18" d="M171,180v1.9c0,0-6,1.1-6,1.1,0,0-.5-1.3.7-2s4-.9,5.3-1Z"/>
  <path class="st12" d="M234,93c-.2.9.1,2,0,3-2-1.8-2.6-2.6-4-4l4,1Z"/>
  <path class="st12" d="M238,91c-.8-.2-2.1.1-3,0,0-1.1-.9-2.8-1-4,1.1.9,4.2.5,4,4Z"/>
  <path class="st25" d="M391,184l-2-4c.1,0,.7-1.1,1.4-1,3.4,1.7.6,4.1.6,5Z"/>
  <path class="st12" d="M225,119c1.7.6,5.5,2.3,5,4-1-.5-2.7-.3-4-1.5s-.7-2.1-1-2.5Z"/>
  <path class="st12" d="M221,76c-2.6-.2-3.7-1.6-4-4,3.4-.4,3.4,3.4,4,4Z"/>
  <path class="st12" d="M250,125c-.2.2.3,3-3.5,3-1.8-.8.5-2.8.5-3h3Z"/>
  <path class="st5" d="M269,68c.5,2.8-2.5,2.5-3,3-1.1-.2-1.5-1.6-2-2,1.7.1,3.4-.8,5-1Z"/>
  <path class="st18" d="M155,196c0-.2-1-.6-.4-2.7s1.6-2.2,2.4-3.3l-2,6Z"/>
  <path class="st9" d="M769,181c-.6,1.7,0,4.5-2,6,0-.3,0-.7,0-1,.1-1.6,0-3.3,0-5h2Z"/>
  <path class="st7" d="M236,39v3c-.4.2-1.8.9-2,1v-5c.4.4,1.4.6,2,1Z"/>
  <path class="st18" d="M138,195v3h-2c-.8-1.8.9-3.2,1-4,.4.2.7.9,1,1Z"/>
  <path class="st12" d="M212,75v4h-1c0-.2-1.5-1.9-1-3,.4,0,1-.8,2-1Z"/>
  <path class="st12" d="M241,131c-2,0-3.2-1.3-4-3,2.3,1.2,1.9-1.4,4,3Z"/>
  <path class="st12" d="M239,41c-.9.7-2.1.6-3,1v-3c.7.5,2.2-.3,3,2Z"/>
  <path class="st24" d="M300,195v2h-3c-.7-3.3,1.7-1.4,3-2Z"/>
  <path class="st17" d="M790,215c0,.3.8,1,1,2-4.1.6-2.4-.6-3-2h2Z"/>
  <path class="st12" d="M274,84c1,0,2,0,3,0,.5,1.8-.9,1.8-1,2l-2-1v-1Z"/>
  <rect class="st14" x="493" y="150" width="2" height="2"/>
  <path class="st12" d="M239,42c1.8-.7,2.8,1.5,3,3l-2.8-1.2c-.5-.6,0-1.5-.2-1.8Z"/>
  <path class="st12" d="M267,49v2h-2v-2c.6,0,1.5-.1,2,0Z"/>
  <path class="st18" d="M194,248c0-.4-1.5-.9,0-2,0,.1,2.7.9,0,2Z"/>
  <path class="st12" d="M226,114h2s0,2,0,2c-3.7-1.3-1.3-1.4-2-2Z"/>
  <path class="st18" d="M209,188c.5.2,1.4-.1,2,0,.4.9-1,1.8-1,2h-1c.1-.6-.1-1.4,0-2Z"/>
  <path class="st12" d="M257,37c.2-.1.1-1.5,2-1,.5,1.4-1,1.9-1,2l-1-1Z"/>
  <path class="st18" d="M181,181c.6.1,1.3-.2,2,0v2c-.6-.1-1.3.1-2,0v-2Z"/>
  <path class="st9" d="M761,205c0-.7,0-1.3,0-2h1l-1,2Z"/>
  <path class="st17" d="M563,235c-.1-1.1.4-1.4,1-2l-1,2Z"/>
  <path class="st12" d="M232,119c-.3-.3-.9-.4-1-1l1,1Z"/>
  <path class="st12" d="M230,98l-1-1c.4.2.7.7,1,1Z"/>
  <path class="st12" d="M262,52v-1h1c-.2.4-.9.7-1,1Z"/>
  <polygon class="st14" points="550 134 549 134 550 133 550 134"/>
  <rect class="st24" x="297" y="200" width="1" height="50"/>
  <path class="st11" d="M89.1,178l2.9-1v3c2.8.4,2.1-4,6-1.5-1.9,4.3-6,20.9-4.3,24.3s3.1,1.6,3.4,3.7c.4,3.5.3,11.4-.1,15s-1.7,3.6-2,6c-.6,4.6,2.1,21.2-3.6,22.3s-4.3-3.4-7.4-2.8l3-2.5-3.1-1v-63s2.1-5.4,2.1-5.4c2.2-.4,2.5,1.3,3.1,3Z"/>
  <path class="st10" d="M209,188c-.1.6.1,1.4,0,2-.3,1.8-1.8,5.9-1.8,6.7-.1,1.4,1.9,2.3,1.7,3.6s-1.8,1.8-1.9,3.2,1.8,2.7,2.1,4.9c1.4,10.4-1.8,21.2-2.1,31.1s3.1,6.9-1.7,6.7c-2,8.6-6.8-.2-9.3-3.6.6-12.3-.5-24.8,0-37.1s.6-12.7,1.3-16.7.4-2.5,1.4-2.8c4.3-.8,6.7.7,10.3,2Z"/>
  <path class="st24" d="M392.5,156c.6.3.6.7,0,1v-1Z"/>
  <path class="st16" d="M496,135v4c-2.8-.9-5.1-1-8-1-.1,2.2-.1,2.9,2,4l-2.2,4.9h-3.8c0,.1,1,25.1,1,25.1h-2s0,2,0,2h2s0-2,0-2h1c-.7,1.7.8,3.1,1,4s-.1,2.1,0,3c-.7,0-1.4,0-2,0s-1.4-.3-1.8.1c-2,3.8,0,6.9-.1,10.3,0,5,.2,10.2,0,15.1s-1.9.9-2.2,2.9c-.7,5,1,14.6,1.1,20s.5,22.3-1.2,23.4c-3.1,1.1-5.7-.4-6.9-3.3v-67.9c.2-1.1-1.2-.6-1.9-.6s-1.3,0-2,0c.6-3.1-1.5-1.9-3.5-2-3-.2-6,.4-9-.9-3.3-6.2,5.9-4.9,10-5.1s4,1.1,3.5-2c.3,0,.7,0,1,0,.7,0,1.3,0,2,0,.6-.8-.4-12.9,0-15.6s1.7-1.3,2-2.2c.5-1.3.8-5.9,1.1-6.2s1.2.3,1.7-.3c1.8-2.1,3.2-3.9,6.1-4.9l-.8-1.8c1.3,0,2.7,0,4,0,0-.6-.3-1.5.1-1.8,2.6-.9,5.2-1,7.9-1.2Z"/>
  <path class="st8" d="M472,179c.7,0,2.1-.5,2,.6v67.9c1.1,2.9,3.7,4.4,6.8,3.3,1.7-1.1,1.2-19.9,1.2-23.4,0-5.5-1.8-15-1.1-20s2.1-1,2.2-2.9c.1-4.9-.1-10,0-15.1s-1.9-6.6.1-10.3c.4-.4,1.3,0,1.8-.1v75s-12.4,0-12.4,0l-.6-75Z"/>
  <path class="st8" d="M471,169c.6,3.1-1.5,1.9-3.5,2-4,.2-13.3-1.1-10,5.1,2.9,1.3,5.9.7,9,.9s4-1,3.5,2c-5-.3-10.2-.3-15,1v-11c5.3,0,10.7.1,16,0Z"/>
  <path class="st4" d="M555,251v-7s-3,0-3,0v-106h7v102c0,0,1.3-.3,1.7.2.6.8,0,2.5.5,3.5s4.8,2.6,6,3.3.7,1.8,1.4,2c2.8.5,5.9-2,8.7,0l.5,2c-4,3-9.9,4.4-14.7,2.4s-1.1-2.1-1.9-2.3c-1.9-.4-4.3.2-6.3,0Z"/>
  <path class="st20" d="M837,167c4.5,3.2,1.5,10.8.3,14.8-2.4,7.8-4.3,16.8-7.2,23.9-4,9.6-4.9,19.7-8.1,30.5s-3.5,7.3-3.9,8.5c-.6,1.7,0,4.3-1.2,6.1h-11.1c-1.7-.2-4.3-7.6-4.7-9.4-1.1-5.5-1.7-10.2-3.1-15.8s-1.7-.5-2-1.4c-3.1-11.8-8.8-24.4-12-35.9s1.8-8.5-3.6-9.4c-.7-.1-3.6,2.7-3.9,3.1-3.3,4.9-1.6,8.7-2.6,13.2s-1.7.7-1.9,1.5c-2.6,9.2-4.8,19.2-8.4,27.9-2.1,5-.7,5.2-1.7,9.6s-5.4,3.3-2,6.7c-.1.3,0,.7,0,1-5.2-.2-5.5,4.6-5,9-4.1,0-6.1,0-9.9,1.9-3-1.9-1.7-8.2-2.3-8.8s-3.5.7-2.9-2.1c-.3-2.3.5-5.2,0-7.3s-3.4-1.5-2-4.7v-5s5,0,5,0c.3,2.6-.5,6,0,8.3s1.7.5,2,1.4c1,3.7-1,4.3,4,6.3s.8,1.5,2,1c0-1.1.7-2,1-3h2.9c.5-2.1-.4-4.3.1-6.3s1.6.4,2-3.7,0-4,0-6c2.5.6,2.1-1.3,2.5-3,3.5-13.7,9.4-26.6,12.5-40.5s6.1-13.7,14-11.6c.5.5-.4,8.3,0,10.3s2.1,4.3,3,7c1.7,5.1,7.8,16.9,8.9,21.4s.5,11.9,1.4,16.4,4.6,5,5.4,7.7-.1,5.8,1.2,7.7,2.7.4,3.1.6-.3,1.8.5,2c3.1,1,2.3-1.9,2.5-2,.4-.2,2,.4,2.8,0,.4-1.6,0-3.3.6-5s4.4-8.9,4.5-9.6c.8-3.4,1.1-6.5,1.9-10.1,1.7-7.1,2.6-13,5-19s3.8-13.6,5.1-20.7,4.1-3.9,3-7.5c.7,0,1.3,0,2,0Z"/>
  <path class="st9" d="M793,225c-.3-.2-1.6.3-1.9,0-.6-.7,0-4.4-.1-5.9l2,6Z"/>
  <path class="st15" d="M210,84c3,0,3.8,1.3,6,2v6c-.6,0-1.5-.1-2,0-.9.2-2.1,1.8-3,2s-.8,0-1,0c-1-.2-2.4-2.2-4-2,0-.2,0-.6,0-1,.2-1.6-.1-3.4,0-5v-1c1,0,2.8-1,4-1Z"/>
  <path class="st7" d="M216,101v7s-3,0-3,0c2-2.1-.7-7.8,3-7Z"/>
  <path class="st7" d="M211,94l1.5,7-2.5-7c.2,0,.8,0,1,0Z"/>
  <path class="st7" d="M216,92c1.1,0,2.4,1,3,1v1l-5-2c.5-.1,1.4,0,2,0Z"/>
  <path class="st7" d="M217.5,108c.6.3.6.7,0,1v-1Z"/>
  <path class="st26" d="M749,241c-5-2-3-2.6-4-6.3s-1.8-.7-2-1.4c-.5-2.3.2-5.7,0-8.3s-2.2-10.9-3-15c4.4,9.7,6.6,20.6,9,31Z"/>
  <path class="st26" d="M733,224l2-1,1,7h2c-1.4,3.2,1.9,4.2,2,4.7.5,2.1-.3,5,0,7.3h-2c-.7-2.3-.1-5.8-3-7-.4-4.1-1.7-7.4-2-11Z"/>
  <path class="st26" d="M729,210l4-4c.3,5.6-.4,11.5,0,17-3.1-3.5-2.9-9.4-4-13Z"/>
  <path class="st5" d="M267,50v-1c.4,0,.8-.1,1,.5l-1,.5Z"/>
  <path class="st7" d="M271,125v-1c.3,0,1-.1,1,.5l-1,.5Z"/>
  <path class="st7" d="M274,118c0-.1-.7-.3-.7-.6l.7-.4v1Z"/>
  <path class="st26" d="M759,215v-1c1,.6.1.7,0,1Z"/>
  <path class="st9" d="M764,194c0-.5.5-.9,1-1-.3.4-.7.7-1,1Z"/>
  <rect class="st25" x="393" y="179" width="2" height="1"/>
  <path class="st22" d="M276,69c2,.2,4-.1,6,0v6.9c-.1,0-6.9,0-6.9,0v-6.9c.2,0,.5,0,.9,0Z"/>
  <path class="st4" d="M638,169c2.3,1,2.3,2.6,2,5-1.3.1-2.7-.1-4,0-.1,1,.2,2.1,0,3-1.7,0-3.3-.9-5-1,.6,4-4.1,4.7-6.3,7.1s-7.6,11-7.7,11.7c-.4,1.8.2,3.8-.1,5.7-2.3,11.3-4.5,14.5.2,25.8s3.3,5.4,3.9,6.5c2.4,4.7,5.1,9.9,11,11.3l.7,2c1.1.2,2.3-.2,3.3,0s2-.1,3,0v3c1.7,0,3.3,0,5,0,4.8.2,8.8-1,13-1s4,.8,5.9,1.1v1.9c-8.1,2.3-17.8,3.9-26.2,2s-.5-1.7-1.4-2c-6.7-1.8-9.6-5.3-16.2-7.2l-.3-2.6c-3.4,0-2.8-2.1-4.8-4.2s-.4-.6-1-1c0-3.2-2.2-5.9-2.9-8.6s-2.9-10.7-3.1-12.9c-.9-9.2.4-15,3.1-22.8s2.1-.5,1.9-6.7,0-.7,0-1c5.7,1.5,7.6-4.4,7-9,.5-.1,1.4,0,2,0,10.3-.1,7.8-6.2,17-6Z"/>
  <path class="st21" d="M222,53c1.3.1,2.1,1.4,3,2,1.4,4.5-4.5,8-7.1,4.6l-.9-5.6c1.4,0,3.3-1.2,5-1Z"/>
  <path class="st0" d="M229,63c-.2,1.2.2,2.9,0,4-10.1,7.2-9.6-11.3,0-4Z"/>
  <path class="st20" d="M638,169l1.4-2.1h20.6c0,0-1,3.1-1,3.1,3.5,1.8,7.3,1.3,10.3,2s.6,1.8,1.4,2c1.3.3,3.5-.4,4.2.2s0,1.7.8,2.8c3.5,4.6,4.2-.3,6.3,8.3s4.6,3.7,3.1,7.6l3.9,1.8c.4,2.8-.7,7.1,0,9.6s2.1,1,2.5,1.7c1.2,1.8-3.3,24-4.6,27.3s-2.9,2.5-3.5,3.6l-2.4-.8-1,8h-4.4c-1.1.2,0,2.3-1.2,3.1s-9,3.3-11.3,4v-1.9c-2-.4-4-1.1-6-1.1l1-3c.2,0,1.7-.8,3-1s3.6.4,5.3,0,7.2-6.1,7.8-7.4c.9-2.1.6-3.6.9-4.6,6.1-16.3,9.1-39-7-51,.1-1.5-2.2-3.6-3.2-4.3-6.1-4.5-12.4-5.8-20.4-4.8-1.8.2-.4,1.7-4.4,2.1.3-2.4.3-4-2-5Z"/>
  <path class="st4" d="M486,172h24v4s-23,0-23,0c-.2-.9-1.7-2.3-1-4Z"/>
  <path class="st3" d="M757,229c-.4,4.1-1.8,2.8-2,3.7-.5,2,.4,4.2-.1,6.3h-2.9c.7-2.2,1.4-4.7,2-6.9l1-2c0-.3,0-.7,0-1h2Z"/>
  <path class="st26" d="M757,223c0,2,.2,4.1,0,6h-2c.7-2.4,1.1-5.1,2-8v2Z"/>
  <path class="st26" d="M754,232c.3-1.2,1-1.9,1-2l-1,2Z"/>
  <path class="st4" d="M496,135c4.7-.3,20.9-1.6,22,3.5s0,2.4,0,3.5c-.7,0-1.3,0-2,0v-2s-11,1-11,1h-2l-11-1v2c-.7,0-1.3,0-2,0-2.1-1.1-2.1-1.8-2-4,2.9,0,5.2.1,8,1v-4Z"/>
  <path class="st16" d="M505,141l11-1v2c-2.5,0-6.3-.8-8,1-.6,0-1.4,0-2,0l-1-2Z"/>
  <path class="st19" d="M256,108c4.1.2,5.2,2.4,3.8,6.3s-2.4,1.8-2.8,2.7c-1.5.2-3.2-1.9-4-2-1.2-4.7,1.5-5,3-7Z"/>
  <path class="st15" d="M222,137v-4c.6,1.4,2.1,2.3,0,4Z"/>
  <path class="st8" d="M619,175c.6,4.6-1.3,10.5-7,9,0-.3,0-.7,0-1,2-1.4,5.2-7.5,7-8Z"/>
  <path class="st8" d="M624,172v1.9c0,0-3,0-3,0,.2-2,2.5-1.6,3-2Z"/>
  <path class="st3" d="M760,242c-1,3-2.2,5.9-3,9-.7,0-1.3,0-2,0-.5-4.4-.2-9.2,5-9Z"/>
  <path class="st21" d="M210,76c-.5,1.1,1,2.8,1,3,0,1.4-1.2,3.3-1,5-1.2,0-3,1.1-4,1-4.7-.3-4.6-7,1-9s2.1.2,3,0Z"/>
  <path class="st16" d="M503,141v2c-2.2-.3-4.7,0-7,0s-3.5-1-4-1v-2s11,1,11,1Z"/>
  <path class="st8" d="M505,141l1,2c-1-.1-2,.1-3,0v-2h2Z"/>
  <rect class="st4" x="483" y="172" width="2" height="2" transform="translate(310.3 656.8) rotate(-89.9)"/>
  <path class="st8" d="M636,177c-.6,3.6-1.7,1.6-4,3.5-12.9,11.1-17.3,26.8-12.4,43.3s20.3,23.1,38.3,21.2l-1,3c-4.2,0-8.2,1.2-13,1,.9-2.4-2.9-2.7-5-3s-2,.1-3,0v-2c-1.2-.2-2.9.3-4,0-5.9-1.4-8.6-6.6-11-11.3s-3.3-5.1-3.9-6.5c-4.7-11.2-2.5-14.5-.2-25.8.4-1.8-.2-3.9.1-5.7s7-10.9,7.7-11.7c2.2-2.4,6.8-3,6.3-7.1,1.7.1,3.2,1.1,5,1ZM647.5,247v1c.6-.3.6-.7,0-1Z"/>
  <path class="st1" d="M640,174c4-.4,2.6-1.8,4.4-2.1,8-1,14.3.3,20.4,4.8s3.3,2.8,3.2,4.3c-1.8-1.4-11.3-5.6-13.6-5.9-7.4-1.1-12.3,1.7-18.4,1.9.2-.9-.1-2,0-3,1.3-.1,2.7.1,4,0Z"/>
  <path class="st6" d="M639,246c2.1.3,5.9.6,5,3-1.7,0-3.3,0-5,0v-3Z"/>
  <path class="st6" d="M632,244c1.1.3,2.8-.2,4,0v2c-1-.1-2.2.2-3.3,0l-.7-2Z"/>
  <path class="st17" d="M668,181c16.1,12,13.1,34.7,7,51-4,5-8.6,8.5-14,12-1.3.2-2.8,1-3,1-18,1.9-32.6-2.3-38.3-21.2s-.6-32.1,12.4-43.3c2.2-1.9,3.3,0,4-3.5,6.1-.2,11-3.1,18.4-1.9s11.7,4.6,13.6,5.9ZM650.7,177.3c-3.7-1.8-3.8,1.5-4.4,1.7-3.4.8-7.7-.7-10.8,3.1s-.3,2.2-.8,2.7c-.9,1-4.5.5-5.5,1.5s-4.3,7.7-4.8,8.7-.1,3.1-.5,4.3-1.8.4-2,2.2c-.9,6.6-.4,21.3,2.5,27.2,6,12.2,21.3,16.1,33.7,12.9s2.3-2.6,4.3-3.6,8.4-2.6,9.4-4.2.2-3.7.9-5.6,2.1-1.1,2.3-1.9c.4-2.1-.4-4.6,0-6.6s1.8-.2,2.1-2.1c1.8-14-1.7-16.7-6.5-27.7s-.5-3.6-.7-3.8c-.4-.4-2.4.2-3.6-.4s-6.5-6.6-7-6.7c-2.4-.5-5.3.5-7.6,0s-.7-1.5-.9-1.7Z"/>
  <path class="st1" d="M675,232c-.4,1,0,2.5-.9,4.6s-7,7.2-7.8,7.4c-1.7.4-3.7-.2-5.3,0,5.4-3.5,10-7,14-12Z"/>
  <path class="st6" d="M647.5,247c.6.3.6.7,0,1v-1Z"/>
</svg>