<?xml version="1.0" encoding="UTF-8"?>
<svg id="uuid-3def9f37-ce1f-433f-9792-d681f03d47ac" data-name="Layer 1" xmlns="http://www.w3.org/2000/svg" viewBox="0 0 211.93 210.05">
  <g id="uuid-e6aaf61e-ac79-4957-a122-bf77bbcaa041" data-name="Bean">
    <path d="M153.57.22c7.63-1.2,16.05,2.52,19.72,9.39,10.11,33.05,26.01,58.57,20.36,94.59-9.13,58.25-61.37,101.03-119.1,105.64-17.36,1.39-20.89-5.87-28.14-19.74C16.09,132.06,27.9,62.13,84.58,25.94,99.49,16.42,136.21,2.95,153.57.22ZM144.73,20.47c-.22-1.43-.97-1.8-2.35-1.78-7.55.13-27.4,7.41-34.93,10.73-46.44,20.49-72.98,71.08-62.58,121.16,2.16,10.42,7.34,22.62,12.59,31.9,1.91-11.45,3.09-23.06,5.46-34.45,10.51-50.49,36.5-93.48,76.86-125.07,1.4-1.09,3.14-2.28,4.95-2.49ZM89.55,171.79c40.44-40,59.6-86.32,63.16-143.31-18.98,16.98-38.65,34.87-52.25,56.69-19.75,31.69-27.08,67.77-33.3,104.16,1.77.38,2.64-.25,4.03-1.09,4.83-2.89,13.95-12.08,18.36-16.45ZM79.7,196.17c59.04-6.88,106.75-58.65,101.57-119.25-1.36-15.96-11.19-33.24-16.03-48.44l-3.57,26.64c-6.47,57.4-36.49,106.46-81.98,141.04Z"/>
  </g>
</svg>