<?xml version="1.0" encoding="UTF-8"?>
<svg id="uuid-53fa2686-f045-4629-8762-562195a9baba" data-name="Layer 1" xmlns="http://www.w3.org/2000/svg" viewBox="0 0 211.93 210.02">
  <g id="uuid-59af9824-a0dc-4037-ae1c-a9cad5fadf96" data-name="fire">
    <path d="M123,17.53c23.36,23.19,32.48,53.89,18.54,85.08,1.84.48,2.14-.74,3.21-1.58,6.81-5.36,16.48-19.08,23.81-22.2,11.22-4.77,8.65,10.56,9.42,15.67,4.5,29.73,14.06,48.94-4.36,78.13C126.04,248.05-1.02,201.37,27.76,103.7c2.45-8.31,12.86-32.34,19.81-36.8,9.42-6.05,8.63,6.54,11.19,13.28,1.14,3.01,3.29,7.75,5.85,9.63.68-12.29,3.62-24.49,8.71-35.64,5.48-11.99,12.91-19.67,15.58-33.56,1.42-7.36-.89-23.68,11-20.1,4.88,1.47,19.06,13.01,23.1,17.03ZM132.24,116.2c-.57-.79-2.25-6.52-2.28-7.66-.33-10.32,6.85-25.81,7.01-37.73.26-20.12-18.64-45.57-36.02-54.72-2,23.71-19.18,41.05-24.29,63.86-3.61,16.1-1.59,47.22-22.34,16.4-1.96-2.92-3.88-6.3-4.68-9.75-2.16-1.61-5.51,6.63-6.24,8.16-12.72,26.6-11.6,56.45,7.85,79.45,41.12,48.65,127.11,17.84,122.2-47.42-.27-3.61-5.39-29.49-7.87-29.5-5.46,5.01-25.64,29.58-33.33,18.89Z"/>
  </g>
</svg>