<?xml version="1.0" encoding="UTF-8"?>
<svg id="uuid-2d03fad2-4bd7-4642-a7cb-0f67eb73fdc8" data-name="Layer 1" xmlns="http://www.w3.org/2000/svg" viewBox="0 0 211.93 210.05">
  <g id="uuid-e52bc7bc-bb84-45b9-b4a5-1595d20cba68" data-name="hot-drink">
    <path d="M155.2,73.9l1.27,11.06c35.55-3.56,49.91,18.12,45.92,51.56-2.75,23.05-22.87,35.71-44.95,35.13-3.55,16.73-15.57,31.82-32.58,36.21-11.2,2.89-53.65,2.53-66.31,1.2C.44,202.97,25.18,118.55,19.87,80.28l2.54-6.7,132.79.32ZM146.2,83.92l-114.93.05v48.68c-.61,24.31-5.3,61.85,28.19,65.22,13.19,1.33,39.02,1.91,52.35.83,8.03-.65,14.44-1.54,20.96-6.56,5.4-4.16,13.44-15.63,13.44-22.5v-85.73ZM156.47,159.9c21.24,3.19,34.89-10.78,35.98-31.26,1.32-24.74-12.08-34.59-35.98-32.39v63.65Z"/>
    <path d="M104.78.04c8.14-.38,14.84,13.75,14.75,20.69-.16,11.87-8.61,15.99-12.56,24.47-2.26,4.85-.19,14.23-7.45,13.1-1.9-.29-2-1.02-2.83-2.39-8.39-13.82,12.91-24.99,11.5-37.09-.71-6.04-9.11-10.62-9.19-13.41.27-3.12,2.69-5.23,5.78-5.37Z"/>
    <path d="M63.63,9.4c-1.42-1.88-4.79-5.2-.93-7.69,9.95-6.41,18.16,11.61,17.86,20.1-.46,13.15-9.11,15.73-12.91,24.11-2.16,4.78.1,13.08-7.15,12.36-5.35-.54-5.07-9.38-4.19-13.43,1.75-8.14,13.65-15.01,13.99-23.07.21-5.16-3.88-8.69-6.67-12.38Z"/>
  </g>
</svg>