<?xml version="1.0" encoding="UTF-8"?>
<svg id="uuid-77c2fc4e-8bf2-4f99-a5fc-6e9432232a50" data-name="Layer 1" xmlns="http://www.w3.org/2000/svg" viewBox="0 0 211.93 210.05">
  <g id="uuid-6efa719a-cd9c-4771-849a-428352b82a2d" data-name="trash">
    <path d="M195.21,59.1c-1.95,2.15-10.3,4.98-10.46,6.06-.25,1.68,1.68,6.01,1.74,9.03.62,30.6,2.23,69.03-.09,98.96-1.3,16.77-8.32,32.77-27.03,34.8-32.82,3.55-71.66-2.69-105.14.03-15.85-3.3-25.43-16-27-31.74l.08-111.1c-18.35-1.04-19.53-37.62-4.04-39.66,7.63-1,39.16,1.86,42.68-.6,3.73-2.6-3.63-20.25,13.39-23.7,7.7-1.56,45.55-1.54,53.65-.27,15.85,2.5,9.8,21.65,13.13,23.97,5.66,3.95,43.08-3.22,49.53,3.02,4.91,4.74,4.36,25.87-.46,31.18ZM133.87,25.57c.14-2.5.66-12.36-2.32-12.36h-51.78c-.66,0-2.78,12.36.77,12.36h53.32ZM184.1,36.39H26.45c-3.36,0-3.36,15.46,0,15.46h157.65c2.19,0,8.05-14.09,0-15.46ZM174.06,64.21H39.59v115.14c0,9.73,9.06,15.47,17.7,16.31,32.61,3.16,70.38-2.45,103.56-.15,4.39-.3,13.21-9.7,13.21-13.06v-118.24Z"/>
    <path d="M78.23,168.54c-.93,5.68-6.34,3.72-10.82,3.86v-85.78c0-3.16,10.82-3.16,10.82,0v81.92Z"/>
    <path d="M111.52,168.13c-.93,5.68-6.34,3.72-10.82,3.86v-85.78c0-3.16,10.82-3.16,10.82,0v81.92Z"/>
    <path d="M144.81,167.15c-.93,5.68-6.34,3.72-10.82,3.86v-85.78c0-3.16,10.82-3.16,10.82,0v81.92Z"/>
  </g>
</svg>