<svg width="750.0" height="500.0" viewBox="0 0 750.0 500.0" xmlns="http://www.w3.org/2000/svg" xmlns:xlink="http://www.w3.org/1999/xlink">
    <g transform="translate(50,50)">
        <g >
            <rect x="0.0" y="0.0" width="50.0" height="50.0" fill="none" stroke="black" />
            <text x="0" y="0" font-size="12" font-family="Arial" text-anchor="middle" dominant-baseline="central" fill="black" transform="translate(25.0,25.0)">1</text>
        </g>
        <g transform="translate(50.0,0.0)">
            <rect x="0.0" y="0.0" width="50.0" height="50.0" fill="none" stroke="black" />
            <text x="0" y="0" font-size="12" font-family="Arial" text-anchor="middle" dominant-baseline="central" fill="black" transform="translate(25.0,25.0)">2</text>
        </g>
        <g transform="translate(100.0,0.0)">
            <rect x="0.0" y="0.0" width="50.0" height="50.0" fill="none" stroke="black" />
            <text x="0" y="0" font-size="12" font-family="Arial" text-anchor="middle" dominant-baseline="central" fill="black" transform="translate(25.0,25.0)">3</text>
        </g>
        <g transform="translate(0.0,50.0)">
            <rect x="0.0" y="0.0" width="50.0" height="50.0" fill="none" stroke="black" />
            <text x="0" y="0" font-size="12" font-family="Arial" text-anchor="middle" dominant-baseline="central" fill="black" transform="translate(25.0,25.0)">4</text>
        </g>
        <g transform="translate(50.0,50.0)">
            <rect x="0.0" y="0.0" width="50.0" height="50.0" fill="none" stroke="black" />
            <text x="0" y="0" font-size="12" font-family="Arial" text-anchor="middle" dominant-baseline="central" fill="black" transform="translate(25.0,25.0)">5</text>
        </g>
        <g transform="translate(100.0,50.0)">
            <rect x="0.0" y="0.0" width="50.0" height="50.0" fill="none" stroke="black" />
            <text x="0" y="0" font-size="12" font-family="Arial" text-anchor="middle" dominant-baseline="central" fill="black" transform="translate(25.0,25.0)">6</text>
        </g>
        <g transform="translate(0.0,100.0)">
            <rect x="0.0" y="0.0" width="50.0" height="50.0" fill="none" stroke="black" />
            <text x="0" y="0" font-size="12" font-family="Arial" text-anchor="middle" dominant-baseline="central" fill="black" transform="translate(25.0,25.0)">7</text>
        </g>
        <g transform="translate(50.0,100.0)">
            <rect x="0.0" y="0.0" width="50.0" height="50.0" fill="none" stroke="black" />
            <text x="0" y="0" font-size="12" font-family="Arial" text-anchor="middle" dominant-baseline="central" fill="black" transform="translate(25.0,25.0)">8</text>
        </g>
        <g transform="translate(100.0,100.0)">
            <rect x="0.0" y="0.0" width="50.0" height="50.0" fill="none" stroke="black" />
            <text x="0" y="0" font-size="12" font-family="Arial" text-anchor="middle" dominant-baseline="central" fill="black" transform="translate(25.0,25.0)">9</text>
        </g>
    </g>
    <g transform="translate(260,50)">
        <g >
            <rect x="0.0" y="0.0" width="60.0" height="60.0" fill="red" stroke="darkred" stroke-width="2.0" />
            <text x="0" y="0" font-size="12" font-family="Arial" text-anchor="middle" dominant-baseline="central" fill="black" transform="translate(30.0,30.0)">R</text>
        </g>
        <g transform="translate(60.0,0.0)">
            <rect x="0.0" y="0.0" width="60.0" height="60.0" fill="green" stroke="darkgreen" stroke-width="2.0" />
            <text x="0" y="0" font-size="12" font-family="Arial" text-anchor="middle" dominant-baseline="central" fill="black" transform="translate(30.0,30.0)">G</text>
        </g>
        <g transform="translate(120.0,0.0)">
            <rect x="0.0" y="0.0" width="60.0" height="60.0" fill="blue" stroke="darkblue" stroke-width="2.0" />
            <text x="0" y="0" font-size="12" font-family="Arial" text-anchor="middle" dominant-baseline="central" fill="black" transform="translate(30.0,30.0)">B</text>
        </g>
        <g transform="translate(0.0,60.0)">
            <rect x="0.0" y="0.0" width="60.0" height="60.0" fill="cyan" stroke="darkcyan" stroke-width="2.0" />
            <text x="0" y="0" font-size="12" font-family="Arial" text-anchor="middle" dominant-baseline="central" fill="black" transform="translate(30.0,30.0)">C</text>
        </g>
        <g transform="translate(60.0,60.0)">
            <rect x="0.0" y="0.0" width="60.0" height="60.0" fill="magenta" stroke="darkmagenta" stroke-width="2.0" />
            <text x="0" y="0" font-size="12" font-family="Arial" text-anchor="middle" dominant-baseline="central" fill="black" transform="translate(30.0,30.0)">M</text>
        </g>
        <g transform="translate(120.0,60.0)">
            <rect x="0.0" y="0.0" width="60.0" height="60.0" fill="yellow" stroke="orange" stroke-width="2.0" />
            <text x="0" y="0" font-size="12" font-family="Arial" text-anchor="middle" dominant-baseline="central" fill="black" transform="translate(30.0,30.0)">Y</text>
        </g>
    </g>
    <g transform="translate(500,50)">
        <g >
            <rect x="0.0" y="0.0" width="50.0" height="50.0" fill="none" stroke="black" />
            <text x="0" y="0" font-size="12" font-family="Arial" text-anchor="middle" dominant-baseline="central" fill="black" transform="translate(25.0,25.0)">●</text>
        </g>
        <g transform="translate(50.0,0.0)">
            <rect x="0.0" y="0.0" width="50.0" height="50.0" fill="none" stroke="black" />
            <text x="0" y="0" font-size="12" font-family="Arial" text-anchor="middle" dominant-baseline="central" fill="black" transform="translate(25.0,25.0)">○</text>
        </g>
        <g transform="translate(100.0,0.0)">
            <rect x="0.0" y="0.0" width="50.0" height="50.0" fill="none" stroke="black" />
            <text x="0" y="0" font-size="12" font-family="Arial" text-anchor="middle" dominant-baseline="central" fill="black" transform="translate(25.0,25.0)">●</text>
        </g>
        <g transform="translate(0.0,50.0)">
            <rect x="0.0" y="0.0" width="50.0" height="50.0" fill="none" stroke="black" />
            <text x="0" y="0" font-size="12" font-family="Arial" text-anchor="middle" dominant-baseline="central" fill="black" transform="translate(25.0,25.0)">○</text>
        </g>
        <g transform="translate(50.0,50.0)">
            <rect x="0.0" y="0.0" width="50.0" height="50.0" fill="none" stroke="black" />
            <text x="0" y="0" font-size="12" font-family="Arial" text-anchor="middle" dominant-baseline="central" fill="black" transform="translate(25.0,25.0)">●</text>
        </g>
        <g transform="translate(100.0,50.0)">
            <rect x="0.0" y="0.0" width="50.0" height="50.0" fill="none" stroke="black" />
            <text x="0" y="0" font-size="12" font-family="Arial" text-anchor="middle" dominant-baseline="central" fill="black" transform="translate(25.0,25.0)">○</text>
        </g>
        <g transform="translate(0.0,100.0)">
            <rect x="0.0" y="0.0" width="50.0" height="50.0" fill="none" stroke="black" />
            <text x="0" y="0" font-size="12" font-family="Arial" text-anchor="middle" dominant-baseline="central" fill="black" transform="translate(25.0,25.0)">●</text>
        </g>
        <g transform="translate(50.0,100.0)">
            <rect x="0.0" y="0.0" width="50.0" height="50.0" fill="none" stroke="black" />
            <text x="0" y="0" font-size="12" font-family="Arial" text-anchor="middle" dominant-baseline="central" fill="black" transform="translate(25.0,25.0)">○</text>
        </g>
        <g transform="translate(100.0,100.0)">
            <rect x="0.0" y="0.0" width="50.0" height="50.0" fill="none" stroke="black" />
            <text x="0" y="0" font-size="12" font-family="Arial" text-anchor="middle" dominant-baseline="central" fill="black" transform="translate(25.0,25.0)">●</text>
        </g>
        <text x="0" y="0" font-size="20.0" font-family="Arial" text-anchor="middle" dominant-baseline="central" fill="navy" transform="translate(75.0,-20)">Pattern Matrix</text>
    </g>
    <g transform="translate(50,250)">
        <g >
            <rect x="0.0" y="0.0" width="70.0" height="70.0" fill="none" stroke="black" />
            <circle cx="20.0" cy="20.0" r="12.0" fill="red" transform="translate(15.0,15.0)" />
        </g>
        <g transform="translate(70.0,0.0)">
            <rect x="0.0" y="0.0" width="70.0" height="70.0" fill="none" stroke="black" />
            <polyline points="20.0,8.0 8.0,32.0 32.0,32.0" fill="blue" transform="translate(15.0,11.0)" />
        </g>
        <g transform="translate(0.0,70.0)">
            <rect x="0.0" y="0.0" width="70.0" height="70.0" fill="none" stroke="black" />
            <text x="0" y="0" font-size="12" font-family="Arial" text-anchor="middle" dominant-baseline="central" fill="black" transform="translate(35.0,35.0)">Circle</text>
        </g>
        <g transform="translate(70.0,70.0)">
            <rect x="0.0" y="0.0" width="70.0" height="70.0" fill="none" stroke="black" />
            <text x="0" y="0" font-size="12" font-family="Arial" text-anchor="middle" dominant-baseline="central" fill="black" transform="translate(35.0,35.0)">Triangle</text>
        </g>
    </g>
    <g transform="translate(250,250)">
        <g >
            <rect x="0.0" y="0.0" width="40.0" height="40.0" fill="lightblue" stroke="blue" stroke-width="1.0" />
            <text x="0" y="0" font-size="12" font-family="Arial" text-anchor="middle" dominant-baseline="central" fill="black" transform="translate(20.0,20.0)">1</text>
        </g>
        <g transform="translate(40.0,0.0)">
            <rect x="0.0" y="0.0" width="40.0" height="40.0" fill="lightblue" stroke="blue" stroke-width="1.0" />
            <text x="0" y="0" font-size="12" font-family="Arial" text-anchor="middle" dominant-baseline="central" fill="black" transform="translate(20.0,20.0)">2</text>
        </g>
        <g transform="translate(80.0,0.0)">
            <rect x="0.0" y="0.0" width="40.0" height="40.0" fill="lightblue" stroke="blue" stroke-width="1.0" />
            <text x="0" y="0" font-size="12" font-family="Arial" text-anchor="middle" dominant-baseline="central" fill="black" transform="translate(20.0,20.0)">3</text>
        </g>
        <g transform="translate(120.0,0.0)">
            <rect x="0.0" y="0.0" width="40.0" height="40.0" fill="lightblue" stroke="blue" stroke-width="1.0" />
            <text x="0" y="0" font-size="12" font-family="Arial" text-anchor="middle" dominant-baseline="central" fill="black" transform="translate(20.0,20.0)">4</text>
        </g>
        <g transform="translate(160.0,0.0)">
            <rect x="0.0" y="0.0" width="40.0" height="40.0" fill="lightblue" stroke="blue" stroke-width="1.0" />
            <text x="0" y="0" font-size="12" font-family="Arial" text-anchor="middle" dominant-baseline="central" fill="black" transform="translate(20.0,20.0)">5</text>
        </g>
        <g transform="translate(0.0,40.0)">
            <rect x="0.0" y="0.0" width="40.0" height="40.0" fill="lightblue" stroke="blue" stroke-width="1.0" />
            <text x="0" y="0" font-size="12" font-family="Arial" text-anchor="middle" dominant-baseline="central" fill="black" transform="translate(20.0,20.0)">6</text>
        </g>
        <g transform="translate(40.0,40.0)">
            <rect x="0.0" y="0.0" width="40.0" height="40.0" fill="lightblue" stroke="blue" stroke-width="1.0" />
            <text x="0" y="0" font-size="12" font-family="Arial" text-anchor="middle" dominant-baseline="central" fill="black" transform="translate(20.0,20.0)">7</text>
        </g>
        <g transform="translate(80.0,40.0)">
            <rect x="0.0" y="0.0" width="40.0" height="40.0" fill="lightblue" stroke="blue" stroke-width="1.0" />
            <text x="0" y="0" font-size="12" font-family="Arial" text-anchor="middle" dominant-baseline="central" fill="black" transform="translate(20.0,20.0)">8</text>
        </g>
        <g transform="translate(120.0,40.0)">
            <rect x="0.0" y="0.0" width="40.0" height="40.0" fill="lightblue" stroke="blue" stroke-width="1.0" />
            <text x="0" y="0" font-size="12" font-family="Arial" text-anchor="middle" dominant-baseline="central" fill="black" transform="translate(20.0,20.0)">9</text>
        </g>
        <g transform="translate(160.0,40.0)">
            <rect x="0.0" y="0.0" width="40.0" height="40.0" fill="lightblue" stroke="blue" stroke-width="1.0" />
            <text x="0" y="0" font-size="12" font-family="Arial" text-anchor="middle" dominant-baseline="central" fill="black" transform="translate(20.0,20.0)">10</text>
        </g>
        <g transform="translate(0.0,80.0)">
            <rect x="0.0" y="0.0" width="40.0" height="40.0" fill="lightblue" stroke="blue" stroke-width="1.0" />
            <text x="0" y="0" font-size="12" font-family="Arial" text-anchor="middle" dominant-baseline="central" fill="black" transform="translate(20.0,20.0)">11</text>
        </g>
        <g transform="translate(40.0,80.0)">
            <rect x="0.0" y="0.0" width="40.0" height="40.0" fill="lightblue" stroke="blue" stroke-width="1.0" />
            <text x="0" y="0" font-size="12" font-family="Arial" text-anchor="middle" dominant-baseline="central" fill="black" transform="translate(20.0,20.0)">12</text>
        </g>
        <g transform="translate(80.0,80.0)">
            <rect x="0.0" y="0.0" width="40.0" height="40.0" fill="lightblue" stroke="blue" stroke-width="1.0" />
            <text x="0" y="0" font-size="12" font-family="Arial" text-anchor="middle" dominant-baseline="central" fill="black" transform="translate(20.0,20.0)">13</text>
        </g>
        <g transform="translate(120.0,80.0)">
            <rect x="0.0" y="0.0" width="40.0" height="40.0" fill="lightblue" stroke="blue" stroke-width="1.0" />
            <text x="0" y="0" font-size="12" font-family="Arial" text-anchor="middle" dominant-baseline="central" fill="black" transform="translate(20.0,20.0)">14</text>
        </g>
        <g transform="translate(160.0,80.0)">
            <rect x="0.0" y="0.0" width="40.0" height="40.0" fill="lightblue" stroke="blue" stroke-width="1.0" />
            <text x="0" y="0" font-size="12" font-family="Arial" text-anchor="middle" dominant-baseline="central" fill="black" transform="translate(20.0,20.0)">15</text>
        </g>
        <g transform="translate(0.0,120.0)">
            <rect x="0.0" y="0.0" width="40.0" height="40.0" fill="lightblue" stroke="blue" stroke-width="1.0" />
            <text x="0" y="0" font-size="12" font-family="Arial" text-anchor="middle" dominant-baseline="central" fill="black" transform="translate(20.0,20.0)">16</text>
        </g>
        <g transform="translate(40.0,120.0)">
            <rect x="0.0" y="0.0" width="40.0" height="40.0" fill="lightblue" stroke="blue" stroke-width="1.0" />
            <text x="0" y="0" font-size="12" font-family="Arial" text-anchor="middle" dominant-baseline="central" fill="black" transform="translate(20.0,20.0)">17</text>
        </g>
        <g transform="translate(80.0,120.0)">
            <rect x="0.0" y="0.0" width="40.0" height="40.0" fill="lightblue" stroke="blue" stroke-width="1.0" />
            <text x="0" y="0" font-size="12" font-family="Arial" text-anchor="middle" dominant-baseline="central" fill="black" transform="translate(20.0,20.0)">18</text>
        </g>
        <g transform="translate(120.0,120.0)">
            <rect x="0.0" y="0.0" width="40.0" height="40.0" fill="lightblue" stroke="blue" stroke-width="1.0" />
            <text x="0" y="0" font-size="12" font-family="Arial" text-anchor="middle" dominant-baseline="central" fill="black" transform="translate(20.0,20.0)">19</text>
        </g>
        <g transform="translate(160.0,120.0)">
            <rect x="0.0" y="0.0" width="40.0" height="40.0" fill="lightblue" stroke="blue" stroke-width="1.0" />
            <text x="0" y="0" font-size="12" font-family="Arial" text-anchor="middle" dominant-baseline="central" fill="black" transform="translate(20.0,20.0)">20</text>
        </g>
    </g>
    <g transform="translate(500,250)">
        <g >
            <rect x="0.0" y="0.0" width="40.0" height="40.0" fill="black" stroke="gray" stroke-width="1.0" />
            <text x="0" y="0" font-size="12" font-family="Arial" text-anchor="middle" dominant-baseline="central" fill="black" transform="translate(20.0,20.0)"></text>
        </g>
        <g transform="translate(40.0,0.0)">
            <rect x="0.0" y="0.0" width="40.0" height="40.0" fill="white" stroke="black" stroke-width="1.0" />
            <text x="0" y="0" font-size="12" font-family="Arial" text-anchor="middle" dominant-baseline="central" fill="black" transform="translate(20.0,20.0)"></text>
        </g>
        <g transform="translate(80.0,0.0)">
            <rect x="0.0" y="0.0" width="40.0" height="40.0" fill="black" stroke="gray" stroke-width="1.0" />
            <text x="0" y="0" font-size="12" font-family="Arial" text-anchor="middle" dominant-baseline="central" fill="black" transform="translate(20.0,20.0)"></text>
        </g>
        <g transform="translate(120.0,0.0)">
            <rect x="0.0" y="0.0" width="40.0" height="40.0" fill="white" stroke="black" stroke-width="1.0" />
            <text x="0" y="0" font-size="12" font-family="Arial" text-anchor="middle" dominant-baseline="central" fill="black" transform="translate(20.0,20.0)"></text>
        </g>
        <g transform="translate(160.0,0.0)">
            <rect x="0.0" y="0.0" width="40.0" height="40.0" fill="black" stroke="gray" stroke-width="1.0" />
            <text x="0" y="0" font-size="12" font-family="Arial" text-anchor="middle" dominant-baseline="central" fill="black" transform="translate(20.0,20.0)"></text>
        </g>
        <g transform="translate(0.0,40.0)">
            <rect x="0.0" y="0.0" width="40.0" height="40.0" fill="white" stroke="black" stroke-width="1.0" />
            <text x="0" y="0" font-size="12" font-family="Arial" text-anchor="middle" dominant-baseline="central" fill="black" transform="translate(20.0,20.0)"></text>
        </g>
        <g transform="translate(40.0,40.0)">
            <rect x="0.0" y="0.0" width="40.0" height="40.0" fill="black" stroke="gray" stroke-width="1.0" />
            <text x="0" y="0" font-size="12" font-family="Arial" text-anchor="middle" dominant-baseline="central" fill="black" transform="translate(20.0,20.0)"></text>
        </g>
        <g transform="translate(80.0,40.0)">
            <rect x="0.0" y="0.0" width="40.0" height="40.0" fill="white" stroke="black" stroke-width="1.0" />
            <text x="0" y="0" font-size="12" font-family="Arial" text-anchor="middle" dominant-baseline="central" fill="black" transform="translate(20.0,20.0)"></text>
        </g>
        <g transform="translate(120.0,40.0)">
            <rect x="0.0" y="0.0" width="40.0" height="40.0" fill="black" stroke="gray" stroke-width="1.0" />
            <text x="0" y="0" font-size="12" font-family="Arial" text-anchor="middle" dominant-baseline="central" fill="black" transform="translate(20.0,20.0)"></text>
        </g>
        <g transform="translate(160.0,40.0)">
            <rect x="0.0" y="0.0" width="40.0" height="40.0" fill="white" stroke="black" stroke-width="1.0" />
            <text x="0" y="0" font-size="12" font-family="Arial" text-anchor="middle" dominant-baseline="central" fill="black" transform="translate(20.0,20.0)"></text>
        </g>
        <g transform="translate(0.0,80.0)">
            <rect x="0.0" y="0.0" width="40.0" height="40.0" fill="black" stroke="gray" stroke-width="1.0" />
            <text x="0" y="0" font-size="12" font-family="Arial" text-anchor="middle" dominant-baseline="central" fill="black" transform="translate(20.0,20.0)"></text>
        </g>
        <g transform="translate(40.0,80.0)">
            <rect x="0.0" y="0.0" width="40.0" height="40.0" fill="white" stroke="black" stroke-width="1.0" />
            <text x="0" y="0" font-size="12" font-family="Arial" text-anchor="middle" dominant-baseline="central" fill="black" transform="translate(20.0,20.0)"></text>
        </g>
        <g transform="translate(80.0,80.0)">
            <rect x="0.0" y="0.0" width="40.0" height="40.0" fill="black" stroke="gray" stroke-width="1.0" />
            <text x="0" y="0" font-size="12" font-family="Arial" text-anchor="middle" dominant-baseline="central" fill="black" transform="translate(20.0,20.0)"></text>
        </g>
        <g transform="translate(120.0,80.0)">
            <rect x="0.0" y="0.0" width="40.0" height="40.0" fill="white" stroke="black" stroke-width="1.0" />
            <text x="0" y="0" font-size="12" font-family="Arial" text-anchor="middle" dominant-baseline="central" fill="black" transform="translate(20.0,20.0)"></text>
        </g>
        <g transform="translate(160.0,80.0)">
            <rect x="0.0" y="0.0" width="40.0" height="40.0" fill="black" stroke="gray" stroke-width="1.0" />
            <text x="0" y="0" font-size="12" font-family="Arial" text-anchor="middle" dominant-baseline="central" fill="black" transform="translate(20.0,20.0)"></text>
        </g>
        <g transform="translate(0.0,120.0)">
            <rect x="0.0" y="0.0" width="40.0" height="40.0" fill="white" stroke="black" stroke-width="1.0" />
            <text x="0" y="0" font-size="12" font-family="Arial" text-anchor="middle" dominant-baseline="central" fill="black" transform="translate(20.0,20.0)"></text>
        </g>
        <g transform="translate(40.0,120.0)">
            <rect x="0.0" y="0.0" width="40.0" height="40.0" fill="black" stroke="gray" stroke-width="1.0" />
            <text x="0" y="0" font-size="12" font-family="Arial" text-anchor="middle" dominant-baseline="central" fill="black" transform="translate(20.0,20.0)"></text>
        </g>
        <g transform="translate(80.0,120.0)">
            <rect x="0.0" y="0.0" width="40.0" height="40.0" fill="white" stroke="black" stroke-width="1.0" />
            <text x="0" y="0" font-size="12" font-family="Arial" text-anchor="middle" dominant-baseline="central" fill="black" transform="translate(20.0,20.0)"></text>
        </g>
        <g transform="translate(120.0,120.0)">
            <rect x="0.0" y="0.0" width="40.0" height="40.0" fill="black" stroke="gray" stroke-width="1.0" />
            <text x="0" y="0" font-size="12" font-family="Arial" text-anchor="middle" dominant-baseline="central" fill="black" transform="translate(20.0,20.0)"></text>
        </g>
        <g transform="translate(160.0,120.0)">
            <rect x="0.0" y="0.0" width="40.0" height="40.0" fill="white" stroke="black" stroke-width="1.0" />
            <text x="0" y="0" font-size="12" font-family="Arial" text-anchor="middle" dominant-baseline="central" fill="black" transform="translate(20.0,20.0)"></text>
        </g>
        <g transform="translate(0.0,160.0)">
            <rect x="0.0" y="0.0" width="40.0" height="40.0" fill="black" stroke="gray" stroke-width="1.0" />
            <text x="0" y="0" font-size="12" font-family="Arial" text-anchor="middle" dominant-baseline="central" fill="black" transform="translate(20.0,20.0)"></text>
        </g>
        <g transform="translate(40.0,160.0)">
            <rect x="0.0" y="0.0" width="40.0" height="40.0" fill="white" stroke="black" stroke-width="1.0" />
            <text x="0" y="0" font-size="12" font-family="Arial" text-anchor="middle" dominant-baseline="central" fill="black" transform="translate(20.0,20.0)"></text>
        </g>
        <g transform="translate(80.0,160.0)">
            <rect x="0.0" y="0.0" width="40.0" height="40.0" fill="black" stroke="gray" stroke-width="1.0" />
            <text x="0" y="0" font-size="12" font-family="Arial" text-anchor="middle" dominant-baseline="central" fill="black" transform="translate(20.0,20.0)"></text>
        </g>
        <g transform="translate(120.0,160.0)">
            <rect x="0.0" y="0.0" width="40.0" height="40.0" fill="white" stroke="black" stroke-width="1.0" />
            <text x="0" y="0" font-size="12" font-family="Arial" text-anchor="middle" dominant-baseline="central" fill="black" transform="translate(20.0,20.0)"></text>
        </g>
        <g transform="translate(160.0,160.0)">
            <rect x="0.0" y="0.0" width="40.0" height="40.0" fill="black" stroke="gray" stroke-width="1.0" />
            <text x="0" y="0" font-size="12" font-family="Arial" text-anchor="middle" dominant-baseline="central" fill="black" transform="translate(20.0,20.0)"></text>
        </g>
        <text x="0" y="0" font-size="18.0" font-family="Arial" text-anchor="middle" dominant-baseline="central" fill="darkgreen" transform="translate(100.0,220.0)">Checkerboard Pattern</text>
    </g>
</svg>
